<?xml version="1.0" encoding="UTF-8"?>
<svg xmlns="http://www.w3.org/2000/svg" xmlns:xlink="http://www.w3.org/1999/xlink" viewBox="0 0 125.7 198.76">
  <defs>
    <style>
      .cls-1 {
        fill: #c22781;
      }

      .cls-1, .cls-2, .cls-3, .cls-4, .cls-5, .cls-6, .cls-7, .cls-8, .cls-9, .cls-10, .cls-11, .cls-12 {
        mix-blend-mode: multiply;
      }

      .cls-1, .cls-2, .cls-9 {
        opacity: .2;
      }

      .cls-13 {
        fill: url(#_횁책챌청챙첼챠챠청챕_찾챨횪채챔책챠챵_80-3);
      }

      .cls-14 {
        fill: url(#_횁책챌청챙첼챠챠청챕_찾챨횪채챔책챠챵_20-2);
      }

      .cls-15 {
        fill: url(#_횁책챌청챙첼챠챠청챕_찾챨횪채챔책챠챵_57-3);
      }

      .cls-16 {
        fill: url(#_횁책챌청챙첼챠챠청챕_찾챨횪채챔책챠챵_88-2);
      }

      .cls-17 {
        fill: #3bc7c2;
      }

      .cls-18 {
        fill: url(#_횁책챌청챙첼챠챠청챕_찾챨횪채챔책챠챵_81-2);
      }

      .cls-19 {
        fill: url(#_횁책챌청챙첼챠챠청챕_찾챨횪채챔책챠챵_57-5);
      }

      .cls-2 {
        fill: #c42781;
      }

      .cls-20 {
        fill: url(#radial-gradient-4);
      }

      .cls-20, .cls-21, .cls-22, .cls-23, .cls-24, .cls-25 {
        fill-rule: evenodd;
      }

      .cls-20, .cls-26, .cls-23, .cls-24, .cls-25 {
        mix-blend-mode: screen;
      }

      .cls-3 {
        fill: url(#_횁책챌청챙첼챠챠청챕_찾챨횪채챔책챠챵_107);
      }

      .cls-3, .cls-4, .cls-27, .cls-7, .cls-8, .cls-10, .cls-12 {
        opacity: .5;
      }

      .cls-28, .cls-21, .cls-27, .cls-29 {
        fill: #fff;
      }

      .cls-30 {
        fill: url(#_횁책챌청챙첼챠챠청챕_찾챨횪채챔책챠챵_13);
      }

      .cls-4 {
        fill: #d14894;
      }

      .cls-31 {
        fill: #3bffc2;
      }

      .cls-22 {
        fill: #4d0542;
      }

      .cls-32 {
        fill: url(#_횁책챌청챙첼챠챠청챕_찾챨횪채챔책챠챵_20);
      }

      .cls-33 {
        fill: url(#_횁책챌청챙첼챠챠청챕_찾챨횪채챔책챠챵_81);
      }

      .cls-34 {
        fill: url(#_횁책챌청챙첼챠챠청챕_찾챨횪채챔책챠챵_89);
      }

      .cls-35 {
        fill: url(#_횁책챌청챙첼챠챠청챕_찾챨횪채챔책챠챵_80-2);
      }

      .cls-26 {
        fill: url(#radial-gradient);
      }

      .cls-36 {
        fill: url(#_횁책챌청챙첼챠챠청챕_찾챨횪채챔책챠챵_13-2);
      }

      .cls-37 {
        isolation: isolate;
      }

      .cls-38 {
        fill: url(#_횁책챌청챙첼챠챠청챕_찾챨횪채챔책챠챵_57);
      }

      .cls-39 {
        fill: url(#_횁책챌청챙첼챠챠청챕_찾챨횪채챔책챠챵_88-3);
      }

      .cls-40 {
        fill: url(#_횁책챌청챙첼챠챠청챕_찾챨횪채챔책챠챵_106);
      }

      .cls-41 {
        fill: url(#_횁책챌청챙첼챠챠청챕_찾챨횪채챔책챠챵_80);
      }

      .cls-42 {
        fill: url(#_횁책챌청챙첼챠챠청챕_찾챨횪채챔책챠챵_57-4);
      }

      .cls-43 {
        fill: url(#_횁책챌청챙첼챠챠청챕_찾챨횪채챔책챠챵_13-3);
      }

      .cls-23 {
        fill: url(#radial-gradient-5);
      }

      .cls-24 {
        fill: url(#radial-gradient-3);
      }

      .cls-44 {
        fill: url(#_횁책챌청챙첼챠챠청챕_찾챨횪채챔책챠챵_89-2);
      }

      .cls-45 {
        fill: url(#_횁책챌청챙첼챠챠청챕_찾챨횪채챔책챠챵_57-2);
      }

      .cls-5 {
        opacity: .8;
      }

      .cls-5, .cls-9, .cls-11, .cls-12 {
        fill: #ab2781;
      }

      .cls-6 {
        fill: #c72781;
      }

      .cls-6, .cls-11 {
        opacity: .3;
      }

      .cls-27, .cls-29 {
        mix-blend-mode: soft-light;
      }

      .cls-46 {
        fill: url(#_횁책챌청챙첼챠챠청챕_찾챨횪채챔책챠챵_88);
      }

      .cls-7 {
        fill: url(#_횁책챌청챙첼챠챠청챕_찾챨횪채챔책챠챵_107-2);
      }

      .cls-47 {
        fill: #aaefff;
      }

      .cls-8 {
        fill: #e767a7;
      }

      .cls-10 {
        fill: url(#_횁책챌청챙첼챠챠청챕_찾챨횪채챔책챠챵_71);
      }

      .cls-48 {
        fill: url(#_횁책챌청챙첼챠챠청챕_찾챨횪채챔책챠챵_106-2);
      }

      .cls-49 {
        fill: url(#_횁책챌청챙첼챠챠청챕_찾챨횪채챔책챠챵_134);
      }

      .cls-25 {
        fill: url(#radial-gradient-2);
      }

      .cls-50 {
        fill: url(#_횁책챌청챙첼챠챠청챕_찾챨횪채챔책챠챵_57-6);
      }

      .cls-51 {
        fill: url(#_횁책챌청챙첼챠챠청챕_찾챨횪채챔책챠챵_30);
      }
    </style>
    <linearGradient id="_횁책챌청챙첼챠챠청챕_찾챨횪채챔책챠챵_106" data-name="횁책챌청챙첼챠챠청챕 찾챨횪채챔책챠챵 106" x1="321.3" y1="114.28" x2="321.3" y2="36.48" gradientTransform="translate(427.92 1.52) rotate(-173.24) scale(1 -1)" gradientUnits="userSpaceOnUse">
      <stop offset="0" stop-color="#ffb5b5"/>
      <stop offset=".28" stop-color="#ffb6bd"/>
      <stop offset=".72" stop-color="#ffbbd3"/>
      <stop offset="1" stop-color="#ffbfe6"/>
    </linearGradient>
    <linearGradient id="_횁책챌청챙첼챠챠청챕_찾챨횪채챔책챠챵_80" data-name="횁책챌청챙첼챠챠청챕 찾챨횪채챔책챠챵 80" x1="583.97" y1="198.76" x2="583.97" y2="182.19" gradientTransform="translate(646.58) rotate(-180) scale(1 -1)" gradientUnits="userSpaceOnUse">
      <stop offset="0" stop-color="#e522d9"/>
      <stop offset="1" stop-color="#ff2443"/>
    </linearGradient>
    <linearGradient id="_횁책챌청챙첼챠챠청챕_찾챨횪채챔책챠챵_80-2" data-name="횁책챌청챙첼챠챠청챕 찾챨횪채챔책챠챵 80" x1="528" y1="162.46" x2="528" y2="128.43" xlink:href="#_횁책챌청챙첼챠챠청챕_찾챨횪채챔책챠챵_80"/>
    <linearGradient id="_횁책챌청챙첼챠챠청챕_찾챨횪채챔책챠챵_30" data-name="횁책챌청챙첼챠챠청챕 찾챨횪채챔책챠챵 30" x1="551.44" y1="162.08" x2="551.44" y2="127.08" gradientTransform="translate(646.58) rotate(-180) scale(1 -1)" gradientUnits="userSpaceOnUse">
      <stop offset="0" stop-color="#ffc3c4"/>
      <stop offset=".44" stop-color="#ffc4cc"/>
      <stop offset="1" stop-color="#ffc9de"/>
    </linearGradient>
    <linearGradient id="_횁책챌청챙첼챠챠청챕_찾챨횪채챔책챠챵_106-2" data-name="횁책챌청챙첼챠챠청챕 찾챨횪채챔책챠챵 106" x1="557.35" y1="123.38" x2="557.35" y2="101.96" gradientTransform="translate(646.58) rotate(-180) scale(1 -1)" xlink:href="#_횁책챌청챙첼챠챠청챕_찾챨횪채챔책챠챵_106"/>
    <linearGradient id="_횁책챌청챙첼챠챠청챕_찾챨횪채챔책챠챵_20" data-name="횁책챌청챙첼챠챠청챕 찾챨횪채챔책챠챵 20" x1="586.53" y1="150.85" x2="586.53" y2="95.61" gradientTransform="translate(646.58) rotate(-180) scale(1 -1)" gradientUnits="userSpaceOnUse">
      <stop offset="0" stop-color="#ffd7da"/>
      <stop offset=".45" stop-color="#ffdfde"/>
      <stop offset="1" stop-color="#fff0e8"/>
    </linearGradient>
    <linearGradient id="_횁책챌청챙첼챠챠청챕_찾챨횪채챔책챠챵_13" data-name="횁책챌청챙첼챠챠청챕 찾챨횪채챔책챠챵 13" x1="589.88" y1="111.27" x2="589.88" y2="20.04" gradientTransform="translate(654.89 21.88) rotate(-177) scale(1 -1)" gradientUnits="userSpaceOnUse">
      <stop offset="0" stop-color="#ffd7da"/>
      <stop offset=".32" stop-color="#ffdfe1"/>
      <stop offset=".83" stop-color="#fff5f6"/>
      <stop offset="1" stop-color="#fff"/>
    </linearGradient>
    <linearGradient id="_횁책챌청챙첼챠챠청챕_찾챨횪채챔책챠챵_71" data-name="횁책챌청챙첼챠챠청챕 찾챨횪채챔책챠챵 71" x1="581.24" y1="67.01" x2="581.24" y2="39.65" gradientTransform="translate(654.89 21.88) rotate(-177) scale(1 -1)" gradientUnits="userSpaceOnUse">
      <stop offset="0" stop-color="#fff"/>
      <stop offset="1" stop-color="#d91a81"/>
    </linearGradient>
    <radialGradient id="_횁책챌청챙첼챠챠청챕_찾챨횪채챔책챠챵_134" data-name="횁책챌청챙첼챠챠청챕 찾챨횪채챔책챠챵 134" cx="582.48" cy="101.91" fx="582.48" fy="101.91" r="57.42" gradientTransform="translate(654.89 21.88) rotate(-177) scale(1 -1)" gradientUnits="userSpaceOnUse">
      <stop offset="0" stop-color="#dc16b1"/>
      <stop offset=".4" stop-color="#9517a9"/>
      <stop offset="1" stop-color="#5a1a88"/>
    </radialGradient>
    <radialGradient id="radial-gradient" cx="582.48" cy="101.91" fx="582.48" fy="101.91" r="57.42" gradientTransform="translate(654.89 21.88) rotate(-177) scale(1 -1)" gradientUnits="userSpaceOnUse">
      <stop offset="0" stop-color="#000"/>
      <stop offset=".27" stop-color="#010002"/>
      <stop offset=".41" stop-color="#050009"/>
      <stop offset=".52" stop-color="#0b0017"/>
      <stop offset=".61" stop-color="#15002a"/>
      <stop offset=".69" stop-color="#210042"/>
      <stop offset=".77" stop-color="#300060"/>
      <stop offset=".84" stop-color="#420084"/>
      <stop offset=".9" stop-color="#5700ae"/>
      <stop offset=".96" stop-color="#6e00dc"/>
      <stop offset="1" stop-color="#8000ff"/>
    </radialGradient>
    <linearGradient id="_횁책챌청챙첼챠챠청챕_찾챨횪채챔책챠챵_13-2" data-name="횁책챌청챙첼챠챠청챕 찾챨횪채챔책챠챵 13" x1="616.33" y1="100.88" x2="616.33" y2="72.71" gradientTransform="translate(-483.42 -205.77) rotate(15.4) scale(1 1.02) skewX(-2.8)" xlink:href="#_횁책챌청챙첼챠챠청챕_찾챨횪채챔책챠챵_13"/>
    <linearGradient id="_횁책챌청챙첼챠챠청챕_찾챨횪채챔책챠챵_107" data-name="횁책챌청챙첼챠챠청챕 찾챨횪채챔책챠챵 107" x1="616.33" y1="100.88" x2="616.33" y2="78.13" gradientTransform="translate(-483.42 -205.77) rotate(15.4) scale(1 1.02) skewX(-2.8)" gradientUnits="userSpaceOnUse">
      <stop offset="0" stop-color="#d91a81"/>
      <stop offset="1" stop-color="#fff"/>
    </linearGradient>
    <linearGradient id="_횁책챌청챙첼챠챠청챕_찾챨횪채챔책챠챵_107-2" data-name="횁책챌청챙첼챠챠청챕 찾챨횪채챔책챠챵 107" x1="562.49" y1="101.85" x2="628.26" y2="101.85" gradientTransform="translate(654.89 21.88) rotate(-177) scale(1 -1)" xlink:href="#_횁책챌청챙첼챠챠청챕_찾챨횪채챔책챠챵_107"/>
    <linearGradient id="_횁책챌청챙첼챠챠청챕_찾챨횪채챔책챠챵_13-3" data-name="횁책챌청챙첼챠챠청챕 찾챨횪채챔책챠챵 13" x1="622.38" y1="112.44" x2="622.38" y2="75.19" gradientTransform="translate(646.58) rotate(-180) scale(1 -1)" xlink:href="#_횁책챌청챙첼챠챠청챕_찾챨횪채챔책챠챵_13"/>
    <linearGradient id="_횁책챌청챙첼챠챠청챕_찾챨횪채챔책챠챵_20-2" data-name="횁책챌청챙첼챠챠청챕 찾챨횪채챔책챠챵 20" x1="584.69" y1="195.69" x2="584.69" y2="138.66" xlink:href="#_횁책챌청챙첼챠챠청챕_찾챨횪채챔책챠챵_20"/>
    <linearGradient id="_횁책챌청챙첼챠챠청챕_찾챨횪채챔책챠챵_57" data-name="횁책챌청챙첼챠챠청챕 찾챨횪채챔책챠챵 57" x1="603.69" y1="119.39" x2="603.69" y2="91.39" gradientTransform="translate(646.58) rotate(-180) scale(1 -1)" gradientUnits="userSpaceOnUse">
      <stop offset="0" stop-color="#931a84"/>
      <stop offset="1" stop-color="#ae04b1"/>
    </linearGradient>
    <linearGradient id="_횁책챌청챙첼챠챠청챕_찾챨횪채챔책챠챵_57-2" data-name="횁책챌청챙첼챠챠청챕 찾챨횪채챔책챠챵 57" x1="575.8" y1="122.05" x2="575.8" y2="101.59" xlink:href="#_횁책챌청챙첼챠챠청챕_찾챨횪채챔책챠챵_57"/>
    <linearGradient id="_횁책챌청챙첼챠챠청챕_찾챨횪채챔책챠챵_81" data-name="횁책챌청챙첼챠챠청챕 찾챨횪채챔책챠챵 81" x1="633.91" y1="103.15" x2="633.91" y2="75.19" gradientTransform="translate(646.58) rotate(-180) scale(1 -1)" gradientUnits="userSpaceOnUse">
      <stop offset="0" stop-color="#ff2443"/>
      <stop offset=".99" stop-color="#e522d9"/>
    </linearGradient>
    <linearGradient id="_횁책챌청챙첼챠챠청챕_찾챨횪채챔책챠챵_81-2" data-name="횁책챌청챙첼챠챠청챕 찾챨횪채챔책챠챵 81" x1="542.59" y1="123.39" x2="542.59" y2="105.33" xlink:href="#_횁책챌청챙첼챠챠청챕_찾챨횪채챔책챠챵_81"/>
    <linearGradient id="_횁책챌청챙첼챠챠청챕_찾챨횪채챔책챠챵_57-3" data-name="횁책챌청챙첼챠챠청챕 찾챨횪채챔책챠챵 57" x1="590.85" y1="153.93" x2="590.85" y2="133.32" xlink:href="#_횁책챌청챙첼챠챠청챕_찾챨횪채챔책챠챵_57"/>
    <linearGradient id="_횁책챌청챙첼챠챠청챕_찾챨횪채챔책챠챵_57-4" data-name="횁책챌청챙첼챠챠청챕 찾챨횪채챔책챠챵 57" x1="570.92" y1="153.4" x2="570.92" y2="122.05" xlink:href="#_횁책챌청챙첼챠챠청챕_찾챨횪채챔책챠챵_57"/>
    <linearGradient id="_횁책챌청챙첼챠챠청챕_찾챨횪채챔책챠챵_88" data-name="횁책챌청챙첼챠챠청챕 찾챨횪채챔책챠챵 88" x1="571.19" y1="177.59" x2="600.99" y2="177.59" gradientTransform="translate(646.58) rotate(-180) scale(1 -1)" gradientUnits="userSpaceOnUse">
      <stop offset="0" stop-color="#ff2483"/>
      <stop offset=".99" stop-color="#e522d9"/>
    </linearGradient>
    <linearGradient id="_횁책챌청챙첼챠챠청챕_찾챨횪채챔책챠챵_88-2" data-name="횁책챌청챙첼챠챠청챕 찾챨횪채챔책챠챵 88" x1="537.61" y1="147.57" x2="542.77" y2="147.57" xlink:href="#_횁책챌청챙첼챠챠청챕_찾챨횪채챔책챠챵_88"/>
    <linearGradient id="_횁책챌청챙첼챠챠청챕_찾챨횪채챔책챠챵_80-3" data-name="횁책챌청챙첼챠챠청챕 찾챨횪채챔책챠챵 80" x1="589.15" y1="121.03" x2="589.15" y2="106.84" xlink:href="#_횁책챌청챙첼챠챠청챕_찾챨횪채챔책챠챵_80"/>
    <linearGradient id="_횁책챌청챙첼챠챠청챕_찾챨횪채챔책챠챵_88-3" data-name="횁책챌청챙첼챠챠청챕 찾챨횪채챔책챠챵 88" x1="592.17" y1="158.72" x2="598.22" y2="158.72" xlink:href="#_횁책챌청챙첼챠챠청챕_찾챨횪채챔책챠챵_88"/>
    <linearGradient id="_횁책챌청챙첼챠챠청챕_찾챨횪채챔책챠챵_57-5" data-name="횁책챌청챙첼챠챠청챕 찾챨횪채챔책챠챵 57" x1="568.2" y1="153.48" x2="568.2" y2="135.69" gradientTransform="translate(616.21 -39.56) rotate(174.3) scale(1 -1)" xlink:href="#_횁책챌청챙첼챠챠청챕_찾챨횪채챔책챠챵_57"/>
    <linearGradient id="_횁책챌청챙첼챠챠청챕_찾챨횪채챔책챠챵_89" data-name="횁책챌청챙첼챠챠청챕 찾챨횪채챔책챠챵 89" x1="567.54" y1="151.9" x2="567.54" y2="136.41" gradientTransform="translate(616.21 -39.56) rotate(174.3) scale(1 -1)" gradientUnits="userSpaceOnUse">
      <stop offset="0" stop-color="#e522d9"/>
      <stop offset="1" stop-color="#ff2483"/>
    </linearGradient>
    <linearGradient id="_횁책챌청챙첼챠챠청챕_찾챨횪채챔책챠챵_57-6" data-name="횁책챌청챙첼챠챠청챕 찾챨횪채챔책챠챵 57" x1="529.55" y1="442.77" x2="529.55" y2="428.78" gradientTransform="translate(724.14 400.47) rotate(-117.48) scale(1 -1)" xlink:href="#_횁책챌청챙첼챠챠청챕_찾챨횪채챔책챠챵_57"/>
    <linearGradient id="_횁책챌청챙첼챠챠청챕_찾챨횪채챔책챠챵_89-2" data-name="횁책챌청챙첼챠챠청챕 찾챨횪채챔책챠챵 89" x1="529.7" y1="441.55" x2="529.7" y2="428.78" gradientTransform="translate(724.14 400.47) rotate(-117.48) scale(1 -1)" xlink:href="#_횁책챌청챙첼챠챠청챕_찾챨횪채챔책챠챵_89"/>
    <radialGradient id="radial-gradient-2" cx="386.83" cy="253.08" fx="386.83" fy="253.08" r="16.22" gradientTransform="translate(-60.03 419.11) rotate(-29.8) scale(.84 -.88) skewX(-7.19)" gradientUnits="userSpaceOnUse">
      <stop offset=".02" stop-color="#f200a5"/>
      <stop offset=".17" stop-color="#bf0082"/>
      <stop offset=".4" stop-color="#7c0054"/>
      <stop offset=".6" stop-color="#460030"/>
      <stop offset=".77" stop-color="#200016"/>
      <stop offset=".91" stop-color="#080005"/>
      <stop offset="1" stop-color="#000"/>
    </radialGradient>
    <radialGradient id="radial-gradient-3" cx="386.83" cy="253.08" fx="386.83" fy="253.08" r="12.57" gradientTransform="translate(-60.03 419.11) rotate(-29.8) scale(.84 -.88) skewX(-7.19)" gradientUnits="userSpaceOnUse">
      <stop offset=".02" stop-color="#ce00f2"/>
      <stop offset=".17" stop-color="#a300bf"/>
      <stop offset=".4" stop-color="#69007c"/>
      <stop offset=".6" stop-color="#3c0046"/>
      <stop offset=".77" stop-color="#1b0020"/>
      <stop offset=".91" stop-color="#070008"/>
      <stop offset="1" stop-color="#000"/>
    </radialGradient>
    <radialGradient id="radial-gradient-4" cx="449.88" cy="295.24" fx="449.88" fy="295.24" r="18.32" gradientTransform="translate(134.03 540.03) rotate(-56.04) scale(.84 -1.1) skewX(-7.84)" xlink:href="#radial-gradient-2"/>
    <radialGradient id="radial-gradient-5" cx="449.88" cy="295.24" fx="449.88" fy="295.24" r="14.2" gradientTransform="translate(134.03 540.03) rotate(-56.04) scale(.84 -1.1) skewX(-7.84)" xlink:href="#radial-gradient-3"/>
  </defs>
  <g class="cls-37">
    <g id="Calque_2" data-name="Calque 2">
      <g id="Layer_3" data-name="Layer 3">
        <g>
          <g>
            <path class="cls-47" d="M52.68,62.95l55.63-30.77.56-26.87s7.91,15.2,1.48,32.77c0,0,3.22,3.56,2.52,14.81-.7,11.25-6.89,35.2-17.26,42.01-8.77,5.76-22.58,7.22-22.47,7.86.11.64,3.59,1.8,10.85,2.65,5.82.67,9.71-2.01,14.11-1.83,3.15.13,13.1.97,13.65,2.9.55,1.93-1.14,4.43-1.14,4.43,0,0,6.62,2.25,5.91,6.42-1.01,5.9-12.36,5.85-22.82,5.67-10.47-.18-14.11-.95-14.11-.95,0,0,2.24,1.91,3.94,5.62,0,0,1.94.49,2.45.53.51.05,7.77-.88,12.38.52,4.61,1.4,3.92,2.79,4.91,2.93,1,.13,3.2-.03,4.28-.49,1.73-.73,6.32-4.07,11.02-3.82,4.5.24,7.12,2.46,7.12,2.46,0,0-13.21,24.37-21.56,26.02-8.35,1.65-37.99-18.6-37.99-18.6l-13.47-74.26,48.56-25.82-48.56,25.82Z"/>
            <g>
              <path class="cls-40" d="M87.14,75.95c3.83-1.99,12.65-9.14,18.43-24.85,1.91-5.18,3.49-11.3,4.44-18.47,3.86-28.9-6.22-37.28-5.98-30.33,0,0,0,.03,0,.1.75,23.01-3.88,57.74-8.54,62.04-4.67,4.31-4.69,3.6-4.69,3.6-3.87,2.28-5.83,9.38-3.66,7.9Z"/>
              <path class="cls-11" d="M87.14,75.95c3.83-1.99,12.65-9.14,18.43-24.85-2.52,3.67-4,2.62-1.89-15.92,2-17.67.5-31.52.35-32.78.75,23.01-3.88,57.74-8.54,62.04-4.67,4.31-4.69,3.6-4.69,3.6-3.87,2.28-5.83,9.38-3.66,7.9Z"/>
              <path class="cls-41" d="M80.24,195.1s-.31,2.5-.39,3.05c-.08.55-9.93,1.64-17.6-1.8-7.67-3.44-15.13-7.39-17.21-8.33-.33-.15.55-5.83.55-5.83l34.65,12.91Z"/>
              <path class="cls-35" d="M121.54,128.43s3.94.94,4.15,1.77c.21.83-1.56,7.3-4.69,15.43-3.13,8.13-5.11,15.56-5.48,16.44-.36.87-4.05-.04-4.05-.04l10.08-33.61Z"/>
              <path class="cls-51" d="M77.28,127.08c1.28,1.46,11.17,2.62,17.9,4.19,6.73,1.56,9.93,2.27,11.03,2.03s6.62-4.51,15.33-4.88c1.25-.05-3.75,11.99-5.4,18.8-1.64,6.8-3.05,13.69-4.15,14.63s-11.89-1.17-21.67-5.08c-9.78-3.91-21.8-6.65-21.8-6.65l8.75-23.04Z"/>
              <path class="cls-48" d="M63.15,109.8c.88,5,6.68,10.38,13.86,12.19,4.23,1.07,10.07,1.02,15.71,1,3.95,0,7.76.45,10.92.38,6.74-.16,10.76-3.4,11.24-4.23s1.25-1.73-.34-4.64c-1.59-2.9-7.6-2.87-7.6-2.87,3.2-.47,3.72-3.02,3.1-3.94-.63-.92-4.57-1.24-7.92-1.53-2.47-.21-4.08-1.13-6.46-.74-.78.13-1.83.46-3.23.78-2.86.67-7.11,1.3-13.19.03-6.51-1.35-10.67-3-14.86-4.28,0,0-2.11,2.83-1.25,7.84Z"/>
              <path class="cls-32" d="M65.16,102.02c2.64,3.37,4.42,13.67,10.1,20.87,5.68,7.21.8,21.6-5.05,26.29-5.85,4.69-22.34-.68-25.14-13.97-2.81-13.3-4.83-34.73,1-38.64,5.83-3.92,19.09,5.45,19.09,5.45Z"/>
              <path class="cls-30" d="M21.18,78.99c.42.77.9,1.52,1.45,2.24h0s0,.02.02.02c4.04,5.37,11.2,9.36,17.7,12.36h.03c4.01,1.86,7.77,3.32,10.39,4.51,7.48,3.36,12.14,4.93,14.75,3.74,1.91-.88,12.2-1.19,22.19-5.42.02,0,.04,0,.05-.02h.02s.01-.02.02-.02c1.66-.7,3.31-1.52,4.92-2.46,11.28-6.63,20.58-38.59,18.09-50.68-2.97-14.43-31.38-32.87-54.9-32.65-23.52.23-36.49,14.67-39.83,22.7-.11.27-.22.57-.32.9-2.81,9.01.11,35.07,5.4,44.8Z"/>
              <path class="cls-10" d="M108.11,60.29s1.1-11.77-1.66-17.02c-2.76-5.25-14.88-3.45-22.26-4.2-7.37-.75-21.82-10.14-34.88-9-13.06,1.14-14.65,16.24-15.21,19.73-.56,3.5,74.01,10.49,74.01,10.49Z"/>
              <path class="cls-49" d="M36.67,78.76c.58,1.12,1.39,2.24,2.41,3.33t.02.02h0c9.01,9.74,33.88,17.91,51.71,10.19,8.11-3.51,12.91-12.28,15.37-21.24,2.15-7.79,2.52-15.74,1.76-20.45-1.63-10.14-9.23-8.61-14.72-7.63-6.86,1.22-14.22.13-26.7-5.28-12.47-5.42-22.87-4.75-27.73.48-5.7,6.16-8.41,28.38-2.13,40.58Z"/>
              <path class="cls-26" d="M36.67,78.76c.58,1.12,1.39,2.24,2.41,3.33t.02.02h0c9.01,9.74,33.88,17.91,51.71,10.19,8.11-3.51,12.91-12.28,15.37-21.24,2.15-7.79,2.52-15.74,1.76-20.45-1.63-10.14-9.23-8.61-14.72-7.63-6.86,1.22-14.22.13-26.7-5.28-12.47-5.42-22.87-4.75-27.73.48-5.7,6.16-8.41,28.38-2.13,40.58Z"/>
              <path class="cls-12" d="M36.67,78.76c.58,1.12,1.39,2.24,2.41,3.33-.43-.51-6.03-7.59,3.48-15.5,9.85-8.21,65.35-6.31,63.63,4.46,2.15-7.79,2.52-15.74,1.76-20.45-1.63-10.14-9.23-8.61-14.72-7.63-6.86,1.22-14.22.13-26.7-5.28-12.47-5.42-22.87-4.75-27.73.48-5.7,6.16-8.41,28.38-2.13,40.58Z"/>
              <path class="cls-36" d="M82.23,57.18c-14.65-3.7-17-20.78-10.09-26.94.79-.7,1.69-1.26,2.72-1.64,8.92-3.31,19.01,1.66,22.05,8.31.86,1.89,1.31,4.14,1.31,6.45,0,7.92-5.13,16.57-15.99,13.82Z"/>
              <path class="cls-17" d="M84.7,48.95c-7.88-1.98-9.58-12.19-5.6-15.72.45-.4.97-.7,1.55-.88,4.95-1.54,10.13,1.92,11.5,5.78.38,1.06.55,2.29.5,3.54-.15,4.17-2.67,8.61-7.96,7.28Z"/>
              <path class="cls-31" d="M83.81,48.06c-6.73-1.69-8.13-10.32-4.77-13.33.38-.34.82-.6,1.31-.76,4.21-1.36,8.66,1.5,9.87,4.78.33.91.49,1.96.45,3.03-.11,3.59-2.29,7.43-6.87,6.28Z"/>
              <path class="cls-3" d="M82.23,57.18c-14.65-3.7-17-20.78-10.09-26.94-3.72,4.77-2.29,17.25,7.44,22.93,9.72,5.67,17.65-.22,18.62-9.74,0-.02,0-.05.01-.07,0,7.92-5.13,16.57-15.99,13.82Z"/>
              <path class="cls-7" d="M22.66,81.26c6.53,8.68,21.23,13.75,28.12,16.86,7.48,3.36,12.14,4.93,14.75,3.74,1.91-.88,12.2-1.19,22.19-5.42-.95.35-9.43,4.15-31.35-.88-22.61-5.2-33.08-13.83-33.72-14.3Z"/>
              <path class="cls-12" d="M21.18,78.99c.42.77.9,1.52,1.45,2.24h0s0,.02.02.02c4.04,5.37,11.2,9.36,17.7,12.36h.03s-8.69-5.16-16.61-19.27c-11.45-20.4-8.01-40.15-8.01-40.15-2.81,9.01.11,35.07,5.4,44.8Z"/>
              <path class="cls-2" d="M33.5,19.61c6.04,2.37-1.45,31.48-3.45,45.03-2,13.55-14.81-3.67-15.36-20.39-.56-16.72,16.13-25.69,18.81-24.63Z"/>
              <path class="cls-28" d="M101.79,55.59c2.72.66-.74,4.91-2.81,4.91-2.07,0,.53-5.46,2.81-4.91Z"/>
              <path class="cls-29" d="M96.94,68.27c6.3,1.98.79,13.32-8.11,14.81s.88-17.08,8.11-14.81Z"/>
              <path class="cls-28" d="M46.15,23.86c2.82,1.61-.6,6.75-4.83,5.91-4.23-.84-.6-9.01,4.83-5.91Z"/>
              <path class="cls-28" d="M30.17,69.81c2.83.76,2.07,4.5-.27,5.11-2.34.61-1.53-5.59.27-5.11Z"/>
              <path class="cls-28" d="M61.93,96.42s-4.84-1.92-12.94-6.54c-8.1-4.62-11.33-5.61-11.6-5.62s-.14,5.24,7.84,8.18c7.98,2.94,16.7,3.97,16.7,3.97Z"/>
              <path class="cls-28" d="M88.55,96.15c2.57-1.25,3.56-3.3,3.35-3.59-.21-.3-6.59,2.24-12.49,2.79-5.91.56-6.29.99-6.26,1.27.03.27,8.57,2.87,15.41-.47Z"/>
              <path class="cls-28" d="M76.79,48.69c2.9,1.27.34-6.11-2.51-7.26-2.86-1.15-.27,6.05,2.51,7.26Z"/>
              <path class="cls-29" d="M46.98,47.65c1.02.39-.36,2.23-1.6,2.65-1.24.42-1.14-3.7,1.6-2.65Z"/>
              <path class="cls-29" d="M66.99,39.98s-12.37-5.9-21.35-3.29c-8.98,2.61-9.83,14.18-9.83,14.18,0,0,3.63-11.8,11.56-13.13,7.93-1.33,19.62,2.24,19.62,2.24Z"/>
              <path class="cls-12" d="M53.22,104.6s.46,8.9-1.61,16.46c-2.32,8.46-7.5,9.07-7.5,9.07,0,0-1.28-7.43-1.39-11.11s10.51-14.43,10.51-14.43Z"/>
              <path class="cls-43" d="M6.56,93.81c2.09,2.63,6.73,6.1,12.04,9.34,4.96,3.03,10.5,5.85,15.07,7.56,3.05,1.16,5.67,1.82,7.39,1.72,7.03-.4,8.28-12.7,6.76-15.27-1.22-2.06-17.04-5.49-20.9-8.48-.69-.53-1.25-1.01-1.73-1.45-3.09-2.83-2.44-3.97-4.69-5.7-2.6-2.01-6.43-6.13-7.55-6.32-1.11-.19-2.15,1.92-.89,4.99,0,0-7.46-4.26-10.72-2.65-.27.13-.5.31-.68.53-2.06,2.39.99,9.57,5.9,15.74Z"/>
              <path class="cls-14" d="M64.83,147.46c3.33,4.69,4.81,10.79,6.87,19.24,2.05,8.45,6.27,16.82,7.49,20.88,1.21,4.07,1.29,6.8,1.06,7.51s-8.45,1.41-16.43-1.88c-7.98-3.29-10.79-6.18-14.24-7.04s-4.15-3.05-3.99-4.93c.16-1.88-.47-8.53-.47-19.71s-1.83-20.73-1.67-22.44,16.53,1.53,21.38,8.36Z"/>
              <path class="cls-38" d="M38.89,112.26s4.88.97,6.69-7.26c1.82-8.23-2.87-10.14-3.97-10.48-1.1-.34-3.66-1.37-3.66-1.37,0,0,2.65-3.51,9.22-.59,6.57,2.92,8.62,15.46,2.2,23.52-6.41,8.06-16.6-.46-16.88-5.81l6.39,1.99Z"/>
              <path class="cls-45" d="M65.16,102.02s4.6-2.21,9.14,3.39c4.54,5.61.33,16.64.33,16.64,0,0-1.82-2.55-4.55-8.51-2.73-5.96-4.91-11.51-4.91-11.51Z"/>
              <path class="cls-33" d="M6.56,93.81c2.09,2.63,6.73,6.1,12.04,9.34,7.8-.81,6.81-13.67,6.58-15.92-3.09-2.83-2.44-3.97-4.69-5.7-2.6-2.01-6.43-6.13-7.55-6.32-1.11-.19-2.15,1.92-.89,4.99,0,0-7.46-4.26-10.72-2.65-3.27,1.61-.12,9.54,5.23,16.27Z"/>
              <path class="cls-18" d="M92.73,122.99c3.95,0,6.75.51,10.92.38,7.67-.24,10.76-3.4,11.24-4.23s1.25-1.73-.34-4.64c-1.59-2.9-7.6-2.87-7.6-2.87,3.2-.47,3.72-3.02,3.1-3.94-.63-.92-4.57-1.24-7.92-1.53-2.47-.21-4.08-1.13-6.46-.74-.78.13-1.83.46-3.23.78,1.11,2.59,4.23,11.05.27,16.78Z"/>
              <path class="cls-15" d="M66.8,150.82s-2.88-5.04-11.78-8.57c-8.9-3.52-11-1.17-11.03,2.55,0,0-3.2-1.53-2.35-7.14.67-4.46,7.04-6.59,18.23-.88s11.56,13.22,8.25,17.16l-1.33-3.11Z"/>
              <path class="cls-42" d="M68.53,153.4c4.46-.97,7.84-3.43,10.17-6.59,3.86-5.2,4.91-12.29,3.42-17.73-.46-1.68-1.02-2.99-1.63-3.98,0,0,0,0,0,0-2.71-2.87-5.87-3.04-5.87-3.04l1.01,1.35c4.1,6.89-3.51,22.37-5.87,27.02-.44.85-1.22,2.98-1.22,2.98Z"/>
              <path class="cls-46" d="M45.59,181.25s14.76-10.76,29.8-3.37l-.76-1.97s-13.24-7.01-29.04,5.35Z"/>
              <path class="cls-16" d="M105.55,133.35s-1.63,15.18,3.41,28.6c0,0-6.62-10.22-4.86-28.75l1.45.15Z"/>
              <path class="cls-13" d="M55.86,120.44c-2.33-1.72-3.17-6.91-2.72-8.96,1.07-4.9,3.56-4.7,4.5-4.61v.49s.04-.49.04-.49l-.04.49.04-.49c1.85.15,3.26,1.82,3.87,4.58.74,3.35.11,7.76-2.18,9.06-.66.38-1.25.52-1.77.52-.73,0-1.31-.28-1.73-.59ZM54.1,111.69c-.4,1.81.42,6.54,2.34,7.96.72.53,1.51.53,2.43.01,1.64-.93,2.44-4.66,1.71-7.99-.24-1.09-1.01-3.65-2.99-3.81h-.04c-.12-.01-.26-.03-.42-.03-.91,0-2.28.4-3.04,3.86Z"/>
              <path class="cls-5" d="M12.05,80.19s1.16,1.26,1.39,2.82.96,6.83,5.29,8.13c0,0-2.16,1.88-4.51-1.53s-1.27-5.63-1.55-7.08c-.29-1.45-.62-2.36-.62-2.36Z"/>
              <path class="cls-39" d="M48.39,140.53s2.3,26.99,6.02,35.56l-1.93.84s-4.49-23.25-4.09-36.39Z"/>
              <path class="cls-5" d="M106.96,111.63s-2.03.05-2.52.19c-.5.14-1.95,4.91-5.86,5.81,0,0,2.82.51,5.01-2.54,2.19-3.05,3.37-3.45,3.37-3.45Z"/>
              <path class="cls-8" d="M66.98,101.59s4.22,14.53-5.09,12.35c-7.39-1.73-9.41-15.13-9.41-15.13,0,0,9.21,3.1,10.94,3.15,1.74.06,3.56-.37,3.56-.37Z"/>
              <path class="cls-12" d="M52.94,101.08s.95,8.69-4.55,13.28c-5.51,4.58-5.33-1.58-5.5-2.54-.16-.96,4.16-2.21,3.48-10.45-.68-8.24-8.42-8.23-8.42-8.23,0,0,4.92.56,6.17,7.24,1.25,6.67-3.59,10.43-6.17,10.9-2.59.47-5.45-1.01-5.45-1.01,0,0,2.16,8.93,10.39,9.12,8.23.19,11.36-11.65,10.05-18.3Z"/>
              <path class="cls-12" d="M71.69,102.97c-3.47-1.58-1.98,4.97-.3,10.76s3.9,6.19,3.9,6.19l-.68,2.13s-6.69-11.14-9.46-20.03c0,0,2.79-1.43,6.54.95Z"/>
              <path class="cls-19" d="M68.12,169.3c6.6-2.4,2.72-13.98-.8-16.58-3.52-2.61-8.19.79-8.42,8.13-.24,7.35,7.09,9.23,9.22,8.45Z"/>
              <path class="cls-34" d="M69.99,165.88c1.91-3.19.4-11.57-3.76-13.07-4.17-1.5-5.59,3.98-5.36,7.59.37,5.76,6.26,10.26,9.12,5.48Z"/>
              <path class="cls-50" d="M100.88,131.95c3.08,1.99-4.12,5.28-9.61,4.31-5.31-.94-6.44-5.14-6.28-6.75.16-1.61,10.99-.73,15.89,2.43Z"/>
              <path class="cls-44" d="M101.38,132.34c.53,1.54-5.37,3.98-9.65,2.91-4.28-1.06-6.08-4.76-5.69-5.86.39-1.1,5.51-.66,8.97-.03,3.46.63,6.14,2.29,6.38,2.97Z"/>
              <path class="cls-12" d="M46.11,133.51c-3.37,1.76,2.13,4.67,6.23,6.7,4.09,2.03,12.59,6.36,14.89,8.03,2.29,1.67.53-4.65-.83-6.89,0,0,6.65,6.11,1.94,12.31l-1.63-1.31s-5.27-7.78-13.09-8.74c-7.82-.96-9.15,5.52-9.15,5.52l-.47-4.34s-2.64-1.41-2.48-5.82c.16-4.41,3.17-5.28,4.6-5.46Z"/>
              <path class="cls-12" d="M68.53,153.4c4.46-.97,7.84-3.43,10.17-6.59l1.3-2.23s-5.63,3.77-4.71-2.8c.92-6.56,3.81-17.59,5.19-16.69-1.92-2.53-5.87-3.04-5.87-3.04l1.01,1.35c4.1,6.89-3.51,22.37-5.87,27.02-.44.85-1.22,2.98-1.22,2.98Z"/>
              <path class="cls-6" d="M76.02,124s-.14,8.71-3.42,13.4c-3.28,4.69-8.18,2.21-8.18,2.21,0,0,6.04,5.84,5.34,10.81,0,0,10.73-13.21,6.26-26.41Z"/>
              <path class="cls-12" d="M82.12,128.72l1.16.24s6.03,11.38,7.36,19.05c1.33,7.67-7.87,6.06-7.87,6.06l-9.13-2.67s11.76-7.81,8.48-22.68Z"/>
              <path class="cls-1" d="M62.25,196.35c-1.49-.68-6.48-11.99-9.83-14.57-3.35-2.59-7.82,1.79-6.83,6.5,0,0,5.37,2.57,7.46,3.56,2.09.99,9.2,4.51,9.2,4.51Z"/>
              <path class="cls-1" d="M123.82,137.65s-8.99,3.95-12.36,10.52c-3.38,6.57,1.03,12.59,2.18,13.11,1.15.52,2.14,0,2.14,0,0,0,1.82-5.74,3.59-11.11,1.77-5.37,4.45-12.52,4.45-12.52Z"/>
              <path class="cls-29" d="M74.51,177.59c1.74.73,4.29,11.85,3.27,14.25-1.01,2.4-15.28-.4-20.72-7.12-5.44-6.72-3.21-7.12-3.21-7.12,0,0,8.5-5.07,20.66,0Z"/>
              <path class="cls-29" d="M120.05,128.72c1.26-.22-1.8,8.73-6.02,14.28-4.22,5.55-6.65,6.58-6.65,6.58,0,0-2.92-11.97-1.33-14.48,1.59-2.5,4.77-4.79,14-6.38Z"/>
              <path class="cls-27" d="M65.83,141.16c1.91,1.81-5.35,3.71-10.37,0-5.02-3.71-3.98-5.98-3.98-5.98,0,0,7.22-.79,14.35,5.98Z"/>
              <path class="cls-27" d="M79.92,129.2c1.67-.6,2.34,4.61.57,9.15-1.78,4.54-4.77,4.38-5.19,4.22s.79-12.01,4.63-13.37Z"/>
              <path class="cls-27" d="M52.46,105.39c-1.79,3.28-4.92-4.77-7.19-8.96-2.27-4.19,9.09-3.77,7.19,8.96Z"/>
              <path class="cls-28" d="M59.46,124.57c3.84,2.69-2.94,4.07-3.19,1.25-.25-2.82,2.15-1.98,3.19-1.25Z"/>
              <path class="cls-28" d="M115.51,137.65c1.59.27-1.3,2.51-2.09,2.56-.78.05-1.32-3.13,2.09-2.56Z"/>
              <path class="cls-28" d="M58.89,181.88c3.35,1.81-.84,3.29-1.89.57-1.04-2.71,1.12-.99,1.89-.57Z"/>
              <path class="cls-28" d="M53.85,151.85c3.05,1.63,2.18,2.73.56,3.67-1.62.94-1.63-4.25-.56-3.67Z"/>
              <path class="cls-4" d="M74.63,175.91s-.51-3.03-8.5-3.35c-7.99-.31-15.83,5.51-15.83,5.51,0,0,11.06-5.79,24.33-2.16Z"/>
              <path class="cls-4" d="M104.11,133.19s-1.82-1.17-2.1,6.03c-.27,7.2,4.27,16.59,4.27,16.59,0,0-2.12-8.78-2.15-14.99-.03-6.22-.02-7.62-.02-7.62Z"/>
              <path class="cls-12" d="M6.56,93.81c2.09,2.63,6.73,6.1,12.04,9.34,4.96,3.03,10.5,5.85,15.07,7.56l1.82.49s-12.52-4.38-22.33-13.85C3.35,87.87.78,79.84.65,78.07c-2.06,2.39.99,9.57,5.9,15.74Z"/>
              <path class="cls-11" d="M12.05,80.19s-3.79-2.56-5.72-.41c-1.93,2.15-.06,9.7,5.72,13.04,2.96,1.7,5.96-1.42,5.96-1.42,0,0-4.35-1.73-4.43-4.89-.08-3.16-1.52-6.32-1.52-6.32Z"/>
              <path class="cls-11" d="M106.96,111.63s4.6-.03,6.68,2.48c2.07,2.5-2.87,6.57-8.06,6.49-5.19-.08-6.77-2.98-6.28-3.19.48-.21,3.11-.73,4.02-3.05.91-2.32,3.65-2.73,3.65-2.73Z"/>
              <path class="cls-9" d="M12.17,75.46c.96-.49,2.89,1.33,3.02,4.07.13,2.74-1.04,3.65-1.33,3.42-.29-.23-1.03-1.32-1.69-2.6-.66-1.28-1.17-4.28,0-4.88Z"/>
              <path class="cls-9" d="M110.26,108.23c-1.11-1.09-.5,1.45-5.7,3.18l-.12.4s1.36,0,3.63-.61,2.2-2.98,2.2-2.98Z"/>
              <path class="cls-2" d="M39.84,110.52c2-1.62-5.99-8.39-10.45-9.57-4.46-1.18-9.23,2.13-9.23,2.13,0,0,11.3,9.87,19.68,7.44Z"/>
              <path class="cls-12" d="M73.64,151.4s2.93.96,7.16-1.36c4.23-2.32,1.5-11.38,1.5-11.38,0,0-1.81,8.34-8.66,12.75Z"/>
              <path class="cls-9" d="M105.23,106.45s-.7.89-4,.89c-3.3,0-4.17-1.79-3.96-1.89.2-.1,1.66-.02,3.23.45,1.57.48,4.73.54,4.73.54Z"/>
              <path class="cls-28" d="M38.49,96.02c3.25,2.39-.15,2.93-2.68.87-.54-.44.31-2.61,2.68-.87Z"/>
              <path class="cls-12" d="M92.73,122.99s-5.84-.11-10.52-1.69c-4.68-1.58-6.16-4.73-6.16-4.73,0,0-.73,3.92-1.19,4.75,0,0,3.95,2.23,17.87,1.67Z"/>
              <path class="cls-28" d="M47.82,36.23s.19.9-1.84,1.86c-2.03.97-4,.42-4,.42,0,0,1.01-2.36,5.84-2.28Z"/>
            </g>
          </g>
          <g>
            <g>
              <g>
                <path class="cls-25" d="M100.41,70.96c-4.74-6.36-13.88-8.48-20.42-4.73s-8,11.94-3.27,18.3c4.74,6.36,13.88,8.48,20.42,4.73s8-11.94,3.27-18.3Z"/>
                <path class="cls-24" d="M97.75,72.48c-3.67-4.93-10.75-6.57-15.82-3.67-5.07,2.9-6.2,9.25-2.53,14.18,3.67,4.93,10.75,6.57,15.82,3.67,5.07-2.9,6.2-9.25,2.53-14.18Z"/>
              </g>
              <g>
                <path class="cls-20" d="M65.2,59.93c-9.9-5.26-21.79-3.79-26.55,3.27-4.76,7.06-.59,17.05,9.32,22.31,9.9,5.26,21.79,3.79,26.55-3.27,4.76-7.06.59-17.05-9.32-22.31Z"/>
                <path class="cls-23" d="M63.26,62.81c-7.67-4.07-16.88-2.94-20.57,2.53-3.69,5.47-.45,13.21,7.22,17.28,7.67,4.07,16.88,2.94,20.57-2.53,3.69-5.47.45-13.21-7.22-17.28Z"/>
              </g>
              <path class="cls-21" d="M67.64,78.03c-.3,1.17-3.94-1.11-9.33-2.17s-10.16,1.62-11.84.26c-1.68-1.35.41-11.13,7.96-10.77,9.58.45,13.71,10.74,13.21,12.68Z"/>
              <path class="cls-21" d="M94.73,85.05c-.54.89-.22-1.54-3.64-2.83-3.99-1.5-8.14.92-8.85-.44-.71-1.35,2.65-10.46,7.52-9.01,6.17,1.85,5.87,10.78,4.97,12.27Z"/>
            </g>
            <path class="cls-22" d="M78.5,86.98s-1.36,5.08-5.18,4.72c-3.82-.37-4.45-6.88-4.45-6.88,0,0,5.3,3.8,9.63,2.16Z"/>
          </g>
        </g>
      </g>
    </g>
  </g>
</svg>