<?xml version="1.0" encoding="UTF-8"?>
<svg xmlns="http://www.w3.org/2000/svg" xmlns:xlink="http://www.w3.org/1999/xlink" viewBox="0 0 162.81 163.61">
  <defs>
    <style>
      .cls-1 {
        fill: #c22781;
      }

      .cls-1, .cls-2 {
        opacity: .2;
      }

      .cls-1, .cls-2, .cls-3, .cls-4, .cls-5, .cls-6, .cls-7, .cls-8, .cls-9, .cls-10, .cls-11 {
        mix-blend-mode: multiply;
      }

      .cls-12 {
        fill: url(#_횁책챌청챙첼챠챠청챕_찾챨횪채챔책챠챵_20-2);
      }

      .cls-13 {
        fill: url(#_횁책챌청챙첼챠챠청챕_찾챨횪채챔책챠챵_57-3);
      }

      .cls-14 {
        fill: url(#_횁책챌청챙첼챠챠청챕_찾챨횪채챔책챠챵_88-2);
      }

      .cls-15 {
        fill: url(#_횁책챌청챙첼챠챠청챕_찾챨횪채챔책챠챵_116-2);
      }

      .cls-16 {
        fill: #3bc7c2;
      }

      .cls-17 {
        fill: url(#_횁책챌청챙첼챠챠청챕_찾챨횪채챔책챠챵_57-5);
      }

      .cls-2 {
        fill: #c42781;
      }

      .cls-18 {
        fill: #731a88;
      }

      .cls-19 {
        fill: url(#radial-gradient-4);
      }

      .cls-19, .cls-20, .cls-21, .cls-22, .cls-23, .cls-24 {
        fill-rule: evenodd;
      }

      .cls-19, .cls-25, .cls-22, .cls-23, .cls-24 {
        mix-blend-mode: screen;
      }

      .cls-3 {
        fill: url(#_횁책챌청챙첼챠챠청챕_찾챨횪채챔책챠챵_107);
      }

      .cls-3, .cls-4, .cls-26, .cls-7, .cls-8, .cls-10 {
        opacity: .5;
      }

      .cls-27, .cls-20, .cls-28, .cls-26, .cls-29 {
        fill: #fff;
      }

      .cls-30 {
        fill: url(#_횁책챌청챙첼챠챠청챕_찾챨횪채챔책챠챵_13);
      }

      .cls-4 {
        fill: #d14894;
      }

      .cls-31 {
        fill: #3bffc2;
      }

      .cls-21 {
        fill: #4d0542;
      }

      .cls-32 {
        fill: url(#_횁책챌청챙첼챠챠청챕_찾챨횪채챔책챠챵_20);
      }

      .cls-33 {
        fill: url(#_횁책챌청챙첼챠챠청챕_찾챨횪채챔책챠챵_81);
      }

      .cls-34 {
        fill: url(#_횁책챌청챙첼챠챠청챕_찾챨횪채챔책챠챵_89);
      }

      .cls-35 {
        fill: url(#_횁책챌청챙첼챠챠청챕_찾챨횪채챔책챠챵_80-2);
      }

      .cls-36 {
        fill: url(#_횁책챌청챙첼챠챠청챕_찾챨횪채챔책챠챵_44);
      }

      .cls-25 {
        fill: url(#radial-gradient);
      }

      .cls-37 {
        fill: url(#_횁책챌청챙첼챠챠청챕_찾챨횪채챔책챠챵_13-2);
      }

      .cls-38 {
        fill: url(#_횁책챌청챙첼챠챠청챕_찾챨횪채챔책챠챵_35);
      }

      .cls-39 {
        isolation: isolate;
      }

      .cls-40 {
        fill: url(#_횁책챌청챙첼챠챠청챕_찾챨횪채챔책챠챵_57);
      }

      .cls-5, .cls-6, .cls-9, .cls-10 {
        fill: #ab2781;
      }

      .cls-41 {
        fill: url(#_횁책챌청챙첼챠챠청챕_찾챨횪채챔책챠챵_88-3);
      }

      .cls-42 {
        fill: url(#_횁책챌청챙첼챠챠청챕_찾챨횪채챔책챠챵_106);
      }

      .cls-43 {
        fill: url(#_횁책챌청챙첼챠챠청챕_찾챨횪채챔책챠챵_80);
      }

      .cls-44 {
        fill: url(#_횁책챌청챙첼챠챠청챕_찾챨횪채챔책챠챵_57-4);
      }

      .cls-45 {
        fill: url(#_횁책챌청챙첼챠챠청챕_찾챨횪채챔책챠챵_13-3);
      }

      .cls-22 {
        fill: url(#radial-gradient-5);
      }

      .cls-46 {
        fill: url(#_횁책챌청챙첼챠챠청챕_찾챨횪채챔책챠챵_116);
      }

      .cls-23 {
        fill: url(#radial-gradient-3);
      }

      .cls-47 {
        fill: url(#_횁책챌청챙첼챠챠청챕_찾챨횪채챔책챠챵_57-2);
      }

      .cls-6 {
        opacity: .8;
      }

      .cls-28 {
        opacity: .4;
      }

      .cls-28, .cls-26, .cls-29 {
        mix-blend-mode: soft-light;
      }

      .cls-48 {
        fill: url(#_횁책챌청챙첼챠챠청챕_찾챨횪채챔책챠챵_88);
      }

      .cls-7 {
        fill: url(#_횁책챌청챙첼챠챠청챕_찾챨횪채챔책챠챵_107-2);
      }

      .cls-49 {
        fill: #aaefff;
      }

      .cls-8 {
        fill: url(#_횁책챌청챙첼챠챠청챕_찾챨횪채챔책챠챵_71);
      }

      .cls-9, .cls-11 {
        opacity: .3;
      }

      .cls-50 {
        fill: url(#_횁책챌청챙첼챠챠청챕_찾챨횪채챔책챠챵_134);
      }

      .cls-24 {
        fill: url(#radial-gradient-2);
      }

      .cls-11 {
        fill: #e767a7;
      }

      .cls-51 {
        fill: url(#_횁책챌청챙첼챠챠청챕_찾챨횪채챔책챠챵_13-5);
      }

      .cls-52 {
        fill: url(#_횁책챌청챙첼챠챠청챕_찾챨횪채챔책챠챵_13-4);
      }

      .cls-53 {
        fill: url(#_횁책챌청챙첼챠챠청챕_찾챨횪채챔책챠챵_30);
      }
    </style>
    <linearGradient id="_횁책챌청챙첼챠챠청챕_찾챨횪채챔책챠챵_80" data-name="횁책챌청챙첼챠챠청챕 찾챨횪채챔책챠챵 80" x1="-32.69" y1="142.54" x2="-32.69" y2="120.12" gradientTransform="translate(-16.41) rotate(-180) scale(1 -1)" gradientUnits="userSpaceOnUse">
      <stop offset="0" stop-color="#e522d9"/>
      <stop offset="1" stop-color="#ff2443"/>
    </linearGradient>
    <linearGradient id="_횁책챌청챙첼챠챠청챕_찾챨횪채챔책챠챵_30" data-name="횁책챌청챙첼챠챠청챕 찾챨횪채챔책챠챵 30" x1="-56.04" y1="140.14" x2="-56.04" y2="108.78" gradientTransform="translate(-16.41) rotate(-180) scale(1 -1)" gradientUnits="userSpaceOnUse">
      <stop offset="0" stop-color="#ffc3c4"/>
      <stop offset=".44" stop-color="#ffc4cc"/>
      <stop offset="1" stop-color="#ffc9de"/>
    </linearGradient>
    <linearGradient id="_횁책챌청챙첼챠챠청챕_찾챨횪채챔책챠챵_88" data-name="횁책챌청챙첼챠챠청챕 찾챨횪채챔책챠챵 88" x1="-51.08" y1="125.91" x2="-40.09" y2="125.91" gradientTransform="translate(-16.41) rotate(-180) scale(1 -1)" gradientUnits="userSpaceOnUse">
      <stop offset="0" stop-color="#ff2483"/>
      <stop offset=".99" stop-color="#e522d9"/>
    </linearGradient>
    <linearGradient id="_횁책챌청챙첼챠챠청챕_찾챨횪채챔책챠챵_106" data-name="횁책챌청챙첼챠챠청챕 찾챨횪채챔책챠챵 106" x1="55.28" y1="43.37" x2="55.28" y2="-1.65" gradientTransform="translate(55.49 36.92) rotate(54.28)" gradientUnits="userSpaceOnUse">
      <stop offset="0" stop-color="#ffb5b5"/>
      <stop offset=".28" stop-color="#ffb6bd"/>
      <stop offset=".72" stop-color="#ffbbd3"/>
      <stop offset="1" stop-color="#ffbfe6"/>
    </linearGradient>
    <linearGradient id="_횁책챌청챙첼챠챠청챕_찾챨횪채챔책챠챵_116" data-name="횁책챌청챙첼챠챠청챕 찾챨횪채챔책챠챵 116" x1="44.41" y1="43.37" x2="44.41" y2="19.35" gradientTransform="translate(55.49 36.92) rotate(54.28)" gradientUnits="userSpaceOnUse">
      <stop offset="0" stop-color="#bb0181"/>
      <stop offset=".99" stop-color="#e51ba4"/>
    </linearGradient>
    <linearGradient id="_횁책챌청챙첼챠챠청챕_찾챨횪채챔책챠챵_57" data-name="횁책챌청챙첼챠챠청챕 찾챨횪채챔책챠챵 57" x1="-91.73" y1="126.22" x2="-91.73" y2="112.9" gradientTransform="translate(-16.41) rotate(-180) scale(1 -1)" gradientUnits="userSpaceOnUse">
      <stop offset="0" stop-color="#931a84"/>
      <stop offset="1" stop-color="#ae04b1"/>
    </linearGradient>
    <linearGradient id="_횁책챌청챙첼챠챠청챕_찾챨횪채챔책챠챵_80-2" data-name="횁책챌청챙첼챠챠청챕 찾챨횪채챔책챠챵 80" x1="-67.19" y1="163.61" x2="-67.19" y2="156.37" xlink:href="#_횁책챌청챙첼챠챠청챕_찾챨횪채챔책챠챵_80"/>
    <linearGradient id="_횁책챌청챙첼챠챠청챕_찾챨횪채챔책챠챵_20" data-name="횁책챌청챙첼챠챠청챕 찾챨횪채챔책챠챵 20" x1="-110.21" y1="148.74" x2="-110.21" y2="99" gradientTransform="translate(-16.41) rotate(-180) scale(1 -1)" gradientUnits="userSpaceOnUse">
      <stop offset="0" stop-color="#ffd7da"/>
      <stop offset=".45" stop-color="#ffdfde"/>
      <stop offset="1" stop-color="#fff0e8"/>
    </linearGradient>
    <linearGradient id="_횁책챌청챙첼챠챠청챕_찾챨횪채챔책챠챵_13" data-name="횁책챌청챙첼챠챠청챕 찾챨횪채챔책챠챵 13" x1="-87.68" y1="100.94" x2="-87.68" y2="12.64" gradientTransform="translate(203.42 14.76) rotate(7.79)" gradientUnits="userSpaceOnUse">
      <stop offset="0" stop-color="#ffd7da"/>
      <stop offset=".32" stop-color="#ffdfe1"/>
      <stop offset=".83" stop-color="#fff5f6"/>
      <stop offset="1" stop-color="#fff"/>
    </linearGradient>
    <linearGradient id="_횁책챌청챙첼챠챠청챕_찾챨횪채챔책챠챵_71" data-name="횁책챌청챙첼챠챠청챕 찾챨횪채챔책챠챵 71" x1="-96.03" y1="58.1" x2="-96.03" y2="31.62" gradientTransform="translate(203.42 14.76) rotate(7.79)" gradientUnits="userSpaceOnUse">
      <stop offset="0" stop-color="#fff"/>
      <stop offset="1" stop-color="#d91a81"/>
    </linearGradient>
    <radialGradient id="_횁책챌청챙첼챠챠청챕_찾챨횪채챔책챠챵_134" data-name="횁책챌청챙첼챠챠청챕 찾챨횪채챔책챠챵 134" cx="-94.83" cy="91.88" fx="-94.83" fy="91.88" r="55.58" gradientTransform="translate(203.42 14.76) rotate(7.79)" gradientUnits="userSpaceOnUse">
      <stop offset="0" stop-color="#dc16b1"/>
      <stop offset=".4" stop-color="#9517a9"/>
      <stop offset="1" stop-color="#5a1a88"/>
    </radialGradient>
    <radialGradient id="radial-gradient" cx="-94.83" cy="91.88" fx="-94.83" fy="91.88" r="55.58" gradientTransform="translate(203.42 14.76) rotate(7.79)" gradientUnits="userSpaceOnUse">
      <stop offset="0" stop-color="#000"/>
      <stop offset=".27" stop-color="#010002"/>
      <stop offset=".41" stop-color="#050009"/>
      <stop offset=".52" stop-color="#0b0017"/>
      <stop offset=".61" stop-color="#15002a"/>
      <stop offset=".69" stop-color="#210042"/>
      <stop offset=".77" stop-color="#300060"/>
      <stop offset=".84" stop-color="#420084"/>
      <stop offset=".9" stop-color="#5700ae"/>
      <stop offset=".96" stop-color="#6e00dc"/>
      <stop offset="1" stop-color="#8000ff"/>
    </radialGradient>
    <linearGradient id="_횁책챌청챙첼챠챠청챕_찾챨횪채챔책챠챵_13-2" data-name="횁책챌청챙첼챠챠청챕 찾챨횪채챔책챠챵 13" x1="620.42" y1="19.65" x2="620.42" y2="-7.63" gradientTransform="translate(709.38 -13.99) rotate(175.39) scale(1 -1.02) skewX(-2.79)" xlink:href="#_횁책챌청챙첼챠챠청챕_찾챨횪채챔책챠챵_13"/>
    <linearGradient id="_횁책챌청챙첼챠챠청챕_찾챨횪채챔책챠챵_107" data-name="횁책챌청챙첼챠챠청챕 찾챨횪채챔책챠챵 107" x1="620.42" y1="19.65" x2="620.42" y2="-2.37" gradientTransform="translate(709.38 -13.99) rotate(175.39) scale(1 -1.02) skewX(-2.79)" gradientUnits="userSpaceOnUse">
      <stop offset="0" stop-color="#d91a81"/>
      <stop offset="1" stop-color="#fff"/>
    </linearGradient>
    <linearGradient id="_횁책챌청챙첼챠챠청챕_찾챨횪채챔책챠챵_107-2" data-name="횁책챌청챙첼챠챠청챕 찾챨횪채챔책챠챵 107" x1="-114.19" y1="91.82" x2="-50.52" y2="91.82" gradientTransform="translate(203.42 14.76) rotate(7.79)" xlink:href="#_횁책챌청챙첼챠챠청챕_찾챨횪채챔책챠챵_107"/>
    <linearGradient id="_횁책챌청챙첼챠챠청챕_찾챨횪채챔책챠챵_35" data-name="횁책챌청챙첼챠챠청챕 찾챨횪채챔책챠챵 35" x1="-136.1" y1="87.88" x2="-136.1" y2="57.66" gradientTransform="translate(-2.9 24.03) rotate(170.14) scale(1 -1)" gradientUnits="userSpaceOnUse">
      <stop offset="0" stop-color="#ffc3c4"/>
      <stop offset=".51" stop-color="#ffbac7"/>
      <stop offset="1" stop-color="#ffaece"/>
    </linearGradient>
    <linearGradient id="_횁책챌청챙첼챠챠청챕_찾챨횪채챔책챠챵_44" data-name="횁책챌청챙첼챠챠청챕 찾챨횪채챔책챠챵 44" x1="-133.96" y1="84.48" x2="-133.96" y2="59.5" gradientTransform="translate(-2.9 24.03) rotate(170.14) scale(1 -1)" gradientUnits="userSpaceOnUse">
      <stop offset="0" stop-color="#ff7b7d"/>
      <stop offset=".35" stop-color="#f87585"/>
      <stop offset=".89" stop-color="#e7669b"/>
      <stop offset="1" stop-color="#e363a1"/>
    </linearGradient>
    <linearGradient id="_횁책챌청챙첼챠챠청챕_찾챨횪채챔책챠챵_13-3" data-name="횁책챌청챙첼챠챠청챕 찾챨횪채챔책챠챵 13" x1="-135.51" y1="81.59" x2="-135.51" y2="62.65" gradientTransform="translate(-2.9 24.03) rotate(170.14) scale(1 -1)" xlink:href="#_횁책챌청챙첼챠챠청챕_찾챨횪채챔책챠챵_13"/>
    <linearGradient id="_횁책챌청챙첼챠챠청챕_찾챨횪채챔책챠챵_13-4" data-name="횁책챌청챙첼챠챠청챕 찾챨횪채챔책챠챵 13" x1="-160.02" y1="76.35" x2="-160.02" y2="-.18" gradientTransform="translate(-10.94 14.42) rotate(174.92) scale(1 -1)" xlink:href="#_횁책챌청챙첼챠챠청챕_찾챨횪채챔책챠챵_13"/>
    <linearGradient id="_횁책챌청챙첼챠챠청챕_찾챨횪채챔책챠챵_20-2" data-name="횁책챌청챙첼챠챠청챕 찾챨횪채챔책챠챵 20" x1="-80.64" y1="159.37" x2="-80.64" y2="115.24" xlink:href="#_횁책챌청챙첼챠챠청챕_찾챨횪채챔책챠챵_20"/>
    <linearGradient id="_횁책챌청챙첼챠챠청챕_찾챨횪채챔책챠챵_57-2" data-name="횁책챌청챙첼챠챠청챕 찾챨횪채챔책챠챵 57" x1="-110.51" y1="150.4" x2="-110.51" y2="118.47" xlink:href="#_횁책챌청챙첼챠챠청챕_찾챨횪채챔책챠챵_57"/>
    <linearGradient id="_횁책챌청챙첼챠챠청챕_찾챨횪채챔책챠챵_57-3" data-name="횁책챌청챙첼챠챠청챕 찾챨횪채챔책챠챵 57" x1="-84.77" y1="130.63" x2="-84.77" y2="113.21" gradientTransform="translate(-13.73 -7) rotate(-174) scale(1 -1)" xlink:href="#_횁책챌청챙첼챠챠청챕_찾챨횪채챔책챠챵_57"/>
    <linearGradient id="_횁책챌청챙첼챠챠청챕_찾챨횪채챔책챠챵_89" data-name="횁책챌청챙첼챠챠청챕 찾챨횪채챔책챠챵 89" x1="-84.05" y1="129.18" x2="-84.05" y2="113.15" gradientTransform="translate(-13.73 -7) rotate(-174) scale(1 -1)" gradientUnits="userSpaceOnUse">
      <stop offset="0" stop-color="#e522d9"/>
      <stop offset="1" stop-color="#ff2483"/>
    </linearGradient>
    <linearGradient id="_횁책챌청챙첼챠챠청챕_찾챨횪채챔책챠챵_57-4" data-name="횁책챌청챙첼챠챠청챕 찾챨횪채챔책챠챵 57" x1="-193.36" y1="53.75" x2="-193.36" y2="36.33" gradientTransform="translate(21.82 -22.38) rotate(-117.35) scale(.65 -1)" xlink:href="#_횁책챌청챙첼챠챠청챕_찾챨횪채챔책챠챵_57"/>
    <linearGradient id="_횁책챌청챙첼챠챠청챕_찾챨횪채챔책챠챵_116-2" data-name="횁책챌청챙첼챠챠청챕 찾챨횪채챔책챠챵 116" x1="-192.63" y1="52.31" x2="-192.63" y2="36.29" gradientTransform="translate(21.82 -22.38) rotate(-117.35) scale(.65 -1)" xlink:href="#_횁책챌청챙첼챠챠청챕_찾챨횪채챔책챠챵_116"/>
    <linearGradient id="_횁책챌청챙첼챠챠청챕_찾챨횪채챔책챠챵_88-2" data-name="횁책챌청챙첼챠챠청챕 찾챨횪채챔책챠챵 88" x1="-113.73" y1="142.88" x2="-84.89" y2="142.88" xlink:href="#_횁책챌청챙첼챠챠청챕_찾챨횪채챔책챠챵_88"/>
    <linearGradient id="_횁책챌청챙첼챠챠청챕_찾챨횪채챔책챠챵_57-5" data-name="횁책챌청챙첼챠챠청챕 찾챨횪채챔책챠챵 57" x1="-127.88" y1="125.93" x2="-127.88" y2="99.45" xlink:href="#_횁책챌청챙첼챠챠청챕_찾챨횪채챔책챠챵_57"/>
    <linearGradient id="_횁책챌청챙첼챠챠청챕_찾챨횪채챔책챠챵_13-5" data-name="횁책챌청챙첼챠챠청챕 찾챨횪채챔책챠챵 13" x1="-98.75" y1="121.82" x2="-98.75" y2="102.34" gradientTransform="translate(-16.41) rotate(-180) scale(1 -1)" xlink:href="#_횁책챌청챙첼챠챠청챕_찾챨횪채챔책챠챵_13"/>
    <linearGradient id="_횁책챌청챙첼챠챠청챕_찾챨횪채챔책챠챵_81" data-name="횁책챌청챙첼챠챠청챕 찾챨횪채챔책챠챵 81" x1="-79.8" y1="117.96" x2="-79.8" y2="102.34" gradientTransform="translate(-16.41) rotate(-180) scale(1 -1)" gradientUnits="userSpaceOnUse">
      <stop offset="0" stop-color="#ff2443"/>
      <stop offset=".99" stop-color="#e522d9"/>
    </linearGradient>
    <linearGradient id="_횁책챌청챙첼챠챠청챕_찾챨횪채챔책챠챵_88-3" data-name="횁책챌청챙첼챠챠청챕 찾챨횪채챔책챠챵 88" x1="-88.61" y1="146.14" x2="-58.47" y2="146.14" xlink:href="#_횁책챌청챙첼챠챠청챕_찾챨횪채챔책챠챵_88"/>
    <radialGradient id="radial-gradient-2" cx="-144.4" cy="200.83" fx="-144.4" fy="200.83" r="31.96" gradientTransform="translate(-3.35 -62.36) rotate(-176.93) scale(.85 -.66)" gradientUnits="userSpaceOnUse">
      <stop offset=".02" stop-color="#f200a5"/>
      <stop offset=".17" stop-color="#bf0082"/>
      <stop offset=".4" stop-color="#7c0054"/>
      <stop offset=".6" stop-color="#460030"/>
      <stop offset=".77" stop-color="#200016"/>
      <stop offset=".91" stop-color="#080005"/>
      <stop offset="1" stop-color="#000"/>
    </radialGradient>
    <radialGradient id="radial-gradient-3" cx="-144.4" cy="200.83" fx="-144.4" fy="200.83" r="24.76" gradientTransform="translate(-3.35 -62.36) rotate(-176.93) scale(.85 -.66)" gradientUnits="userSpaceOnUse">
      <stop offset=".02" stop-color="#ce00f2"/>
      <stop offset=".17" stop-color="#a300bf"/>
      <stop offset=".4" stop-color="#69007c"/>
      <stop offset=".6" stop-color="#3c0046"/>
      <stop offset=".77" stop-color="#1b0020"/>
      <stop offset=".91" stop-color="#070008"/>
      <stop offset="1" stop-color="#000"/>
    </radialGradient>
    <radialGradient id="radial-gradient-4" cx="-1395.72" cy="86.36" fx="-1395.72" fy="86.36" r="31.95" gradientTransform="translate(602.55 -55.61) rotate(-8.65) scale(.38 .57) skewX(-7.57)" xlink:href="#radial-gradient-2"/>
    <radialGradient id="radial-gradient-5" cx="-1395.72" cy="86.36" fx="-1395.72" fy="86.36" r="24.76" gradientTransform="translate(602.55 -55.61) rotate(-8.65) scale(.38 .57) skewX(-7.57)" xlink:href="#radial-gradient-3"/>
  </defs>
  <g class="cls-39">
    <g id="Calque_2" data-name="Calque 2">
      <g id="Layer_3" data-name="Layer 3">
        <g>
          <g>
            <path class="cls-49" d="M153.29,3.73s10.57,11.52,9.44,36.08c-1.13,24.55-8.82,32.29-9.57,34.18-.75,1.89-3.72,12.21-9.41,18.63-5.69,6.42-20.85,9.3-20.85,9.3,0,0,2.85,4.29.51,14.86-2.34,10.57-7.87,10.45-7.87,10.45,0,0-6.58,12.17-8.06,13.46-1.48,1.3-1.02,8.61-5.92,10.92-4.91,2.3-14.66-1.21-14.66-1.21,0,0-8.37.43-14.32-4.48-5.95-4.91,15.31-24.1,15.31-24.1l59.34-68.37s9.55-3.69,9.79-19.33c.24-15.64-3.72-30.39-3.72-30.39Z"/>
            <g>
              <path class="cls-43" d="M32.55,139.21s-4.06,3.06-5.13,3.31c-1.07.25-4.63-2.48-8.65-4.81-4.03-2.33-8.65-4.5-13-8.34-4.34-3.84-6.11-7.11-5.73-7.55.38-.44,1.7-1.7,1.7-1.7l30.81,18.82v.27Z"/>
              <path class="cls-53" d="M15.09,131c8.24,3.72,13.84,8.5,15.48,9.07,1.63.57,4.62-2.46,9.71-4.62,1.15-.49,2.29-.86,3.53-1.12,4.23-.92,9.42-.52,18.56,1.02,11.41,1.91,14.71-4.52,15.12-17.99.02-.46.03-.93.04-1.39-.1.1-.45.07-1-.05-3.54-.77-15.41-5.51-23.03-6.91-.8-.15-1.71-.22-2.73-.23-10.12-.17-26.89,5.25-32.46,5.98-5.1.66-16.1,4.23-16.57,5.36-.48,1.13,5.1,7.17,13.34,10.88Z"/>
              <path class="cls-48" d="M23.68,113.72s10.39,8.13,10.67,24.93c0,0,2.89-14.52-8.66-25.48l-2.01.55Z"/>
              <path class="cls-10" d="M43.81,134.32h.01c4.23-.91,9.42-.51,18.56,1.03,11.41,1.91,14.71-4.52,15.12-17.99l-.96-1.44c-3.54-.77-15.41-5.51-23.03-6.91-.8-.15-1.71-.22-2.73-.23-.31.28-12.36,11.39-6.97,25.54Z"/>
              <path class="cls-42" d="M80.28,108.59c-10.36-1.12-14.04-5.46-17.81-6.67-.4-.12-.79-.22-1.19-.27-4.28-.53-6.6-.09-9.48-2.64-2.88-2.54-4.45-1.76-5.95-2.89-1.49-1.14-1.8-2.63-1.8-2.63,0,0-7.08-4.72-3.3-6.56,3.33-1.63,15.42-1.38,28.11,1.73h.02c1.73.43,3.47.9,5.2,1.43,14.44,4.44,25.58,7.58,28.52,9.51,0,0-10.87,10.21-22.32,8.99Z"/>
              <path class="cls-46" d="M62.47,101.92c-.4-.12-.79-.22-1.19-.27-4.28-.53-6.6-.09-9.48-2.64-2.29-2.02-3.76-1.94-5.02-2.4-.32-.11-.63-.26-.93-.5-1.49-1.14-1.8-2.63-1.8-2.63,0,0-7.08-4.72-3.3-6.56.14-.07.3-.13.47-.19,3.87-1.41,15.48-1.06,27.64,1.92h.02s.98,8.69-6.4,13.26Z"/>
              <path class="cls-10" d="M46.78,96.61h0c-.32-.1-.63-.26-.93-.49-1.49-1.14-1.8-2.63-1.8-2.63,0,0-7.08-4.72-3.3-6.56.14-.07.3-.13.47-.19-.12.38-.14.85.02,1.38.57,1.82,6.15,4.29,8.29,3.74,1.99-.52,6.54.67,7.03.72-.49.02-5.03-.87-6.5-.33-1.58.57-4.25.55-4.78,1.61-.83,1.65,1.49,2.75,1.49,2.75Z"/>
              <path class="cls-10" d="M48.76,95.88c-.31-1.16,1.23-3.35,3.49-2.42,2.26.94,1.25,5.25.6,5.57-.65.32-3.79-1.98-4.1-3.16Z"/>
              <path class="cls-40" d="M81.84,113.11s-7.62-1.41-10.96,2.93c-3.34,4.34-1.66,10.18-1.66,10.18,0,0,7.39-10.26,12.62-13.11Z"/>
              <path class="cls-35" d="M71.89,156.96c-.16,1.89-.06,3.87-.72,4.34-.66.47-6.8-.85-9.69,0-2.89.85-8.56,2.42-16.17,2.3-7.61-.13-15.04-2.33-15.54-2.77-.5-.44,1.38-4.47,1.38-4.47l40.75.6Z"/>
              <path class="cls-32" d="M115.37,100.12c3.09,2,3.31,17.41-2.35,30.25-5.66,12.84-19.37,20.14-30.14,18-10.77-2.14-15.77-17.27-10.99-25.2,6.96-11.54,10.79-8.78,17.84-14.95,7.05-6.17,11.51-11.67,25.64-8.1Z"/>
              <path class="cls-30" d="M143.98,87.97c-.54.66-1.13,1.28-1.78,1.87h-.01s-.01.02-.02.01c-4.81,4.37-12.34,6.87-19.07,8.54h-.03c-4.15,1.03-7.99,1.75-10.7,2.4-7.72,1.84-12.44,2.49-14.7.88-1.66-1.18-11.39-3.34-20.12-9.18-.02-.01-.04-.01-.04-.02h-.02s0-.02-.02-.02c-1.45-.97-2.87-2.04-4.23-3.23-9.53-8.35-12.58-40.42-8.02-51.47,5.43-13.18,35.8-25.57,58.12-21.1,22.32,4.48,32.04,20.56,33.76,28.8.06.28.11.59.14.91,1.04,9.08-6.46,33.33-13.25,41.62Z"/>
              <path class="cls-8" d="M64.71,54.43s1.09-11.39,4.67-15.88c3.58-4.49,14.78-.59,21.92.03,7.15.62,22.59-5.68,34.8-2.24,12.21,3.45,10.99,18.1,10.89,21.52-.1,3.43-72.28-3.44-72.28-3.44Z"/>
              <path class="cls-50" d="M129.3,84.94c-.75.96-1.73,1.87-2.9,2.73t-.02.02h-.01c-10.33,7.62-35.46,10.89-51.02.32-7.08-4.81-10.05-14.01-10.77-22.98-.63-7.8.46-15.42,2.04-19.77,3.39-9.34,10.34-6.52,15.38-4.59,6.31,2.4,13.5,2.7,26.35-.18,12.84-2.89,22.61-.37,26.28,5.48,4.3,6.89,2.86,28.51-5.33,38.98Z"/>
              <path class="cls-25" d="M129.3,84.94c-.75.96-1.73,1.87-2.9,2.73t-.02.02h-.01c-10.33,7.62-35.46,10.89-51.02.32-7.08-4.81-10.05-14.01-10.77-22.98-.63-7.8.46-15.42,2.04-19.77,3.39-9.34,10.34-6.52,15.38-4.59,6.31,2.4,13.5,2.7,26.35-.18,12.84-2.89,22.61-.37,26.28,5.48,4.3,6.89,2.86,28.51-5.33,38.98Z"/>
              <path class="cls-10" d="M129.3,84.94c-.75.96-1.73,1.87-2.9,2.73.5-.41,7.11-6.12-.5-15.36-7.88-9.59-61-17.85-61.31-7.28-.63-7.8.46-15.42,2.04-19.77,3.39-9.34,10.34-6.52,15.38-4.59,6.31,2.4,13.5,2.7,26.35-.18,12.84-2.89,22.61-.37,26.28,5.48,4.3,6.89,2.86,28.51-5.33,38.98Z"/>
              <path class="cls-37" d="M89.88,56.16c14.6-.86,19.93-16.68,14.47-23.79-.62-.81-1.38-1.5-2.29-2.05-7.88-4.76-18.38-1.86-22.48,3.9-1.16,1.64-2,3.7-2.41,5.9-1.44,7.53,1.88,16.68,12.7,16.04Z"/>
              <path class="cls-16" d="M89.02,47.9c7.85-.46,11.32-9.85,8.17-13.93-.35-.46-.79-.84-1.31-1.12-4.43-2.36-9.98,0-11.99,3.41-.55.94-.94,2.08-1.12,3.28-.62,3.99.98,8.67,6.25,8.36Z"/>
              <path class="cls-31" d="M90.03,47.21c6.71-.39,9.6-8.34,6.95-11.81-.3-.39-.67-.72-1.11-.96-3.75-2.06-8.51-.14-10.25,2.76-.48.8-.82,1.78-.98,2.8-.55,3.43.83,7.48,5.39,7.21Z"/>
              <path class="cls-3" d="M89.88,56.16c14.6-.86,19.93-16.68,14.47-23.79,2.68,5.21-.95,16.82-11.23,20.45-10.27,3.63-16.74-3.41-15.94-12.63,0-.02,0-.05,0-.07-1.44,7.53,1.88,16.68,12.7,16.04Z"/>
              <path class="cls-7" d="M142.17,89.85c-7.78,7.07-22.68,9.23-29.8,10.94-7.72,1.84-12.44,2.49-14.7.88-1.66-1.18-11.39-3.34-20.12-9.18.84.51,8.22,5.65,29.97,4.84,22.44-.85,33.96-7.16,34.66-7.49Z"/>
              <path class="cls-10" d="M143.98,87.97c-.54.66-1.13,1.28-1.78,1.87h-.01s-.01.02-.02.01c-4.81,4.37-12.34,6.87-19.07,8.54h-.03s9.2-3.33,19.28-15.32c14.58-17.33,14.89-36.72,14.89-36.72,1.04,9.08-6.46,33.33-13.25,41.62Z"/>
              <path class="cls-2" d="M143.02,29.27c-2.47.46-4.77,4.53-5.34,11.13-.85,9.88.79,24.37.46,32.31-.56,13.25,14.75-.81,18.31-16.61,3.56-15.8-10.69-27.35-13.42-26.83Z"/>
              <path class="cls-27" d="M71.57,51.11c-2.7.13-.18,4.8,1.78,5.18,1.96.38.49-5.29-1.78-5.18Z"/>
              <path class="cls-29" d="M73.88,64.05c-6.35.74-3.17,12.52,5.03,15.55,8.2,3.03,2.25-16.4-5.03-15.55Z"/>
              <path class="cls-27" d="M130.23,31.02c-2.97,1.02-.65,6.53,3.52,6.5,4.18-.03,2.21-8.46-3.52-6.5Z"/>
              <path class="cls-27" d="M137.1,77.61c-2.83.21-2.79,3.91-.67,4.91,2.12,1,2.47-5.04.67-4.91Z"/>
              <path class="cls-27" d="M102.08,97.15s4.95-.95,13.49-3.87c8.54-2.92,11.79-3.28,12.05-3.24.26.04-.81,5.01-8.94,6.36s-16.6.75-16.6.75Z"/>
              <path class="cls-27" d="M76.81,92.08c-2.22-1.66-2.79-3.78-2.53-4.02.26-.24,5.86,3.32,11.37,4.92,5.52,1.6,5.81,2.08,5.73,2.34-.08.26-8.67,1.17-14.57-3.24Z"/>
              <path class="cls-27" d="M96.6,49.08c-2.99.68.78-5.87,3.7-6.45s-.84,5.8-3.7,6.45Z"/>
              <path class="cls-29" d="M125.13,53.49c-1.04.19-.06,2.18,1.04,2.81,1.1.62,1.76-3.31-1.04-2.81Z"/>
              <path class="cls-29" d="M107.49,42.57s12.83-3.37,20.9.74,7.6,15.27,7.6,15.27c0,0-2.13-11.89-9.43-14.59-7.3-2.7-19.07-1.42-19.07-1.42Z"/>
              <path class="cls-38" d="M150.81,55.93c4.58-2.39,1.18,17.96-4.57,25.26-5.76,7.3-9.85,8.13-11.23,7.89-1.37-.25-.52-24.62,15.8-33.15Z"/>
              <path class="cls-36" d="M147.08,58.35s5.41,5.1-1.41,17.1-11.09,10.17-11.09,10.17c0,0,.32-18.56,12.5-27.26Z"/>
              <path class="cls-45" d="M148.17,61.86c-1.12-2.76-10.28,9.47-10.91,20.62,0,0,17.99-3.13,10.91-20.62Z"/>
              <path class="cls-18" d="M149.38,68.83c-.97-2.83-5.02,4.7-4.27,9.01.27,1.57,6.08-3.75,4.27-9.01Z"/>
              <path class="cls-6" d="M149.74,67.88s.24-4.25-4-3.42c-4.24.83-10.47,15.08-10.47,15.08,0,0,.94-8.29,6.32-15.34s8.78-8.87,10.72-7.97c1.94.9-.03,10.67-.54,11.72-.51,1.05-2.03,2.86-2.03,2.86v-2.93Z"/>
              <path class="cls-52" d="M147.04,76.76c3.29-2.69,10.33-11.35,12.73-27.64.79-5.37,1.08-11.58.55-18.68-2.12-28.6-13.51-34.63-11.88-27.99,0,0,.01.03.03.09,5.37,22,7.92,56.37,4.3,61.45-3.63,5.09-3.79,4.42-3.79,4.42-3.26,2.97-3.72,10.2-1.93,8.35Z"/>
              <path class="cls-9" d="M147.04,76.76c3.29-2.69,10.33-11.35,12.73-27.64-1.69,4.04-3.32,3.33-5.03-14.95-1.64-17.41-5.88-30.45-6.27-31.62,5.37,22,7.92,56.37,4.3,61.45-3.63,5.09-3.79,4.42-3.79,4.42-3.26,2.97-3.72,10.2-1.93,8.35Z"/>
              <path class="cls-11" d="M115.31,124.45s-3.05,10.91-9.01,15.62c0,0-2.22-15.55-17.97-20.19-15.75-4.64,11.94-7.81,11.94-7.81l15.04,12.37Z"/>
              <path class="cls-27" d="M156.82,45.5c.53,1.29,3.76-7.25.89-14.28-2.87-7.02-3.31-3.84-3.31-3.84,0,0,.59,13.7,2.42,18.12Z"/>
              <path class="cls-27" d="M147.35,68.27c.84.24-.76,2.41-2.97,2.56-2.2.15-1.25-3.79,2.97-2.56Z"/>
              <path class="cls-12" d="M96.43,146.69c-7.58,7.22-23.85-.77-23.85-.77,0,0-.35,10.1-.69,11.04-.35.94-7.61.28-10.16.85-2.55.57-4.59,1.95-16.17,1.45-11.58-.5-14.16-2.52-14.41-2.89-.25-.38,10.51-15.92,13.15-19.82,2.64-3.9,8.68-19.19,14.54-20.89,5.85-1.7,22.91,2.23,30.18,5.16,7.27,2.93,9.85,21.55,7.43,25.88Z"/>
              <path class="cls-47" d="M94.3,148.22s6.17-6.07,1.62-16.74c-4.55-10.67-14.08-13.01-14.08-13.01,0,0,10.72.58,18.4,7.25,7.68,6.67,7.08,16.24,3.87,21.24-2.42,3.77-10.01,4.24-12.98,2.4l3.17-1.14Z"/>
              <path class="cls-13" d="M63.3,114.94c3.69.16,1.68,12.89-5.54,15.83-7.22,2.94-7.92-3.62-6.54-7.74,1.38-4.12,7.16-8.31,12.07-8.09Z"/>
              <path class="cls-34" d="M63.3,114.94c1.93.5.23,10.63-6.08,13.77-6.31,3.14-7.62-.27-6.35-5.41,1.28-5.14,8.07-9.49,12.42-8.37Z"/>
              <path class="cls-44" d="M48.78,108.82c1.3,2.03-10.32,7.55-15.65,5.27-5.33-2.28,0-6.05,4.04-7.45,4.05-1.4,9.88-.53,11.61,2.18Z"/>
              <path class="cls-15" d="M48.78,108.82c.33,1.28-8.97,5.63-14.11,3.92-5.14-1.7-2.77-4.22,2.13-6.14,3.09-1.21,11.24-.66,11.98,2.22Z"/>
              <path class="cls-14" d="M97.32,139.7s-13.38-.33-24.2-5.27l-4.64,15.22,1.6,1.67s3.12-13.24,4.15-14.07c1.03-.83,10.41,3.22,23.09,2.45Z"/>
              <path class="cls-5" d="M74.07,90.09s-4.03,10.49,3.36,15.89,23.38-3.36,23.38-3.36c0,0-18.47-4.99-26.75-12.53Z"/>
              <path class="cls-17" d="M102.96,102.67s9.46-6.03,16.35-1.59c7.15,4.6,3.68,20.86-5.57,24.07-9.25,3.21-12.84-4.34-13.78-7.93s3-14.55,3-14.55Z"/>
              <path class="cls-51" d="M50.11,108.22c3.46,3.92,16.08,7.49,26.56,9.73,5,1.08,9.53,1.85,12.32,2.22,8.66,1.14,11.29,2.5,16.44.92,11.64-3.59,12.1-15.38,7.05-17.28,0,0-2.21-1.01-13.83-1.24-10.25-.19-15.88.52-23.97.19-1.07-.04-2.18-.1-3.35-.19-10.03-.72-26.34-.15-21.22,5.64Z"/>
              <path class="cls-33" d="M50.11,108.22c3.46,3.92,16.08,7.49,26.56,9.73.04-.1.07-.2.1-.3,2.77-9.31-2.05-14.88-2.05-14.88h-.04c-1.07-.05-2.18-.11-3.35-.2-10.03-.72-26.34-.15-21.22,5.64Z"/>
              <path class="cls-41" d="M72.2,154.04s-8.57-13.72-29.06-15.79l-1.08,1.46s11.92-.77,30.14,14.33Z"/>
              <path class="cls-10" d="M109.85,103.24s3.73-.24,3.16,8.32c-.57,8.56-13.62,10.11-13.62,10.11l2.68.15s3.57,6.17,12,3.21c8.44-2.96,8.98-16.26,8.98-16.26,0,0-1.05,10.28-5.9,13.05s-5.94,0-5.94,0c0,0,6.89-5.81,4.65-13.85-1.79-6.43-6.02-4.73-6.02-4.73Z"/>
              <path class="cls-10" d="M101.5,126.91s5.35,4.53,4.22,13.78c-1.13,9.25-5.66,4.03-7.36-3.84-1.7-7.87-7.65-14.55-7.03-15.04.61-.49,2.78-.06,2.78-.06,0,0-2.41-1.05-4.08-1.61-1.67-.56-6.71-1.17-6.71-1.17,0,0,9.57,3.54,11.08,14.87,1.51,11.33-11.09,16.47-21.81,12.08,0,0,9.81,4.99,18.55,3.44,0,0,7.34,2.44,11.13-.62,3.79-3.06,4.54-8.73,3.81-13.09-.73-4.36-4.57-8.74-4.57-8.74Z"/>
              <path class="cls-29" d="M63.14,148c3.14,1.51-7.58,7.36-16.83,7.17-9.25-.19-12.4-2.64-12.4-2.64,0,0,6.09-12.08,10.82-11.83s18.4,7.3,18.4,7.3Z"/>
              <path class="cls-29" d="M33.12,130.82c-.42,3.07-19.95-4.15-24.17-7.6s11.89-9.27,14.72-8.58c2.83.69,8.5,12.48,9.44,16.18Z"/>
              <path class="cls-1" d="M68.8,160.83c1.61-.85-1.27-5.76-4.57-5.66-5.6.17-14.21,7.74-14.21,7.74,0,0,9.46-.92,12.2-1.77,2.74-.85,6.58-.31,6.58-.31Z"/>
              <path class="cls-1" d="M27.24,141.95c.97-.13,3.84-6.62-1.57-10.14-5.41-3.52-17.89-.81-17.89-.81,0,0,17.75,11.18,19.47,10.95Z"/>
              <path class="cls-4" d="M68.47,149.65s-5.74-6.66-13.86-11c-8.12-4.34-11.48-.41-11.48-.41,0,0,10.82,1.11,25.34,11.41Z"/>
              <path class="cls-4" d="M34.35,138.65s2.5-8.69-1.23-17.56c-3.73-8.87-7.43-7.92-7.43-7.92,0,0,9.5,6.55,8.66,25.48Z"/>
              <path class="cls-27" d="M58.26,149.19c1.32,1.51-.32,3.07-2.46,2.13-2.13-.94,1.14-3.64,2.46-2.13Z"/>
              <path class="cls-27" d="M24.28,125.76c2.12,3.83-3.65,2.48-4.53.46-.88-2.01,3.02-3.19,4.53-.46Z"/>
              <path class="cls-27" d="M80.92,127.84c2.11,3.94-3.52,2.45-4.91.35-1.39-2.1,4.12-1.81,4.91-.35Z"/>
              <path class="cls-27" d="M90.16,111.65c.33,2.42-5.78,1.79-7.07-.76s6.79-1.23,7.07.76Z"/>
              <path class="cls-10" d="M102.08,121.82s-4.67,1.05-7.03.41c-2.36-.64-5.6.43-5.6.43,0,0-.72,1.83-9.97-.32-9.25-2.16-11.95-6.77-11.95-6.77l3.89.84s15.89,4.22,30.66,5.41Z"/>
              <path class="cls-28" d="M73.27,102.71c1.91.12,4.37,7.56.93,9.37-3.44,1.81-15.02-.14-19.25-3.04-4.23-2.89-3.6-5.12-3.6-5.12,0,0,6.71-2.14,21.92-1.22Z"/>
              <path class="cls-28" d="M67.44,89.09c3.18.84-4.8,3.58-12.75,2.59-7.95-.98-10.11-4.01-10.11-4.01,0,0,2.95-3.86,22.87,1.42Z"/>
              <path class="cls-26" d="M122.88,106.92c.28,1.52-1.87,4.92-2.94,5.98-1.07,1.05-2.27-7-6.36-9.45-4.09-2.45-7.76-2.23-7.76-2.23,0,0,14.97-5.6,17.06,5.71Z"/>
              <path class="cls-26" d="M105.09,132.91c.39,1.68-4.96,1.18-8.06-2.61-3.1-3.79-1.38-6.14-1.38-6.14,0,0,7.57.71,9.45,8.75Z"/>
              <path class="cls-10" d="M114.86,124.68s-2.97,4.85-7.21,4.32c-4.25-.54-10.13-7.37-14.72-8.24l9.15,1.06s1.51,2.49,5.71,3.34c4.2.85,7.07-.48,7.07-.48Z"/>
              <path class="cls-27" d="M131.24,45.35s-.35.57-4-1.07c-3.65-1.64-3.83-2.57-3.83-2.57,0,0,4.53.46,7.83,3.64Z"/>
            </g>
          </g>
          <g>
            <g>
              <path class="cls-24" d="M84.66,75.61c-.63,11.68,10.97,21.79,25.9,22.59,14.93.8,27.54-8.02,28.17-19.69.63-11.68-10.97-21.79-25.9-22.59-14.93-.8-27.54,8.02-28.17,19.69Z"/>
              <path class="cls-23" d="M90.75,75.94c-.49,9.05,8.5,16.89,20.07,17.51,11.57.62,21.34-6.21,21.83-15.26.49-9.05-8.5-16.89-20.07-17.51-11.57-.62-21.34,6.21-21.83,15.26Z"/>
              <path class="cls-20" d="M112.75,87.93c6.26.33,11.78-6.03,12.95-14.55.17-1.2-.81-2.26-2.02-2.21-1.93.08-4.49.36-8.99-1.06-5.32-1.68-6.86-5.45-9.58-6.77-1.09-.53-2.39.05-2.74,1.21-.5,1.7-.83,3.54-.93,5.47-.51,9.53,4.54,17.54,11.3,17.91Z"/>
            </g>
            <g>
              <path class="cls-19" d="M88.65,72.7c.63,10.14-4.28,19.19-10.97,20.2-6.69,1.02-12.63-6.38-13.26-16.52-.63-10.14,4.28-19.19,10.97-20.2,6.69-1.02,12.63,6.38,13.26,16.52Z"/>
              <path class="cls-22" d="M85.92,73.11c.49,7.86-3.31,14.87-8.5,15.65-5.18.79-9.78-4.94-10.28-12.8-.49-7.86,3.31-14.87,8.5-15.65s9.78,4.94,10.28,12.8Z"/>
              <path class="cls-20" d="M76.91,83.5c-2.8.43-5.59-4.47-6.52-11.21-.13-.95.26-1.81.8-1.81.87.01,2.04.17,3.99-1.09,2.31-1.48,2.83-4.52,3.99-5.64.46-.45,1.08-.02,1.29.89.31,1.34.54,2.79.68,4.32.68,7.56-1.21,14.06-4.23,14.54Z"/>
            </g>
            <path class="cls-21" d="M85.9,85.7s.4-2.37,4.23-2.36,5.55,3.61,5.55,3.61c0,0-5.63-3.29-9.79-1.25Z"/>
          </g>
        </g>
      </g>
    </g>
  </g>
</svg>