<?xml version="1.0" encoding="UTF-8"?>
<svg xmlns="http://www.w3.org/2000/svg" xmlns:xlink="http://www.w3.org/1999/xlink" viewBox="0 0 169.23 152.96">
  <defs>
    <style>
      .cls-1 {
        fill: #c22781;
        opacity: .2;
      }

      .cls-1, .cls-2, .cls-3, .cls-4, .cls-5, .cls-6, .cls-7, .cls-8, .cls-9, .cls-10, .cls-11, .cls-12 {
        mix-blend-mode: multiply;
      }

      .cls-13 {
        fill: url(#_횁책챌청챙첼챠챠청챕_찾챨횪채챔책챠챵_20-2);
      }

      .cls-14 {
        fill: url(#_횁책챌청챙첼챠챠청챕_찾챨횪채챔책챠챵_57-3);
      }

      .cls-15 {
        fill: url(#_횁책챌청챙첼챠챠청챕_찾챨횪채챔책챠챵_88-2);
      }

      .cls-16 {
        fill: #3bc7c2;
      }

      .cls-17 {
        fill: url(#_횁책챌청챙첼챠챠청챕_찾챨횪채챔책챠챵_57-5);
      }

      .cls-18 {
        fill: #731a88;
      }

      .cls-19 {
        fill: url(#radial-gradient-4);
      }

      .cls-19, .cls-20, .cls-21, .cls-22 {
        fill-rule: evenodd;
      }

      .cls-19, .cls-23, .cls-24, .cls-22, .cls-25 {
        mix-blend-mode: screen;
      }

      .cls-2 {
        fill: url(#_횁책챌청챙첼챠챠청챕_찾챨횪채챔책챠챵_107);
      }

      .cls-2, .cls-3, .cls-4, .cls-26, .cls-7, .cls-8, .cls-10, .cls-12 {
        opacity: .5;
      }

      .cls-27, .cls-20, .cls-28, .cls-26, .cls-29 {
        fill: #fff;
      }

      .cls-30 {
        fill: url(#_횁책챌청챙첼챠챠청챕_찾챨횪채챔책챠챵_13);
      }

      .cls-3 {
        fill: #d14894;
      }

      .cls-31 {
        fill: #3bffc2;
      }

      .cls-21 {
        fill: #4d0542;
      }

      .cls-32 {
        fill: url(#_횁책챌청챙첼챠챠청챕_찾챨횪채챔책챠챵_20);
      }

      .cls-33 {
        fill: url(#_횁책챌청챙첼챠챠청챕_찾챨횪채챔책챠챵_81);
      }

      .cls-34 {
        fill: url(#_횁책챌청챙첼챠챠청챕_찾챨횪채챔책챠챵_132);
      }

      .cls-35 {
        fill: url(#_횁책챌청챙첼챠챠청챕_찾챨횪채챔책챠챵_89);
      }

      .cls-36 {
        fill: url(#_횁책챌청챙첼챠챠청챕_찾챨횪채챔책챠챵_80-2);
      }

      .cls-37 {
        fill: url(#_횁책챌청챙첼챠챠청챕_찾챨횪채챔책챠챵_44);
      }

      .cls-23 {
        fill: url(#radial-gradient);
      }

      .cls-38 {
        fill: url(#_횁책챌청챙첼챠챠청챕_찾챨횪채챔책챠챵_13-2);
      }

      .cls-39 {
        fill: url(#_횁책챌청챙첼챠챠청챕_찾챨횪채챔책챠챵_35);
      }

      .cls-40 {
        isolation: isolate;
      }

      .cls-41 {
        fill: url(#_횁책챌청챙첼챠챠청챕_찾챨횪채챔책챠챵_57);
      }

      .cls-42 {
        fill: url(#_횁책챌청챙첼챠챠청챕_찾챨횪채챔책챠챵_106);
      }

      .cls-24 {
        fill: url(#radial-gradient-3);
      }

      .cls-43 {
        fill: url(#_횁책챌청챙첼챠챠청챕_찾챨횪채챔책챠챵_80);
      }

      .cls-44 {
        fill: url(#_횁책챌청챙첼챠챠청챕_찾챨횪채챔책챠챵_57-4);
      }

      .cls-45 {
        fill: url(#_횁책챌청챙첼챠챠청챕_찾챨횪채챔책챠챵_13-3);
      }

      .cls-22 {
        fill: url(#radial-gradient-5);
      }

      .cls-46 {
        fill: url(#_횁책챌청챙첼챠챠청챕_찾챨횪채챔책챠챵_116);
      }

      .cls-47 {
        fill: url(#_횁책챌청챙첼챠챠청챕_찾챨횪채챔책챠챵_57-2);
      }

      .cls-4 {
        fill: #ab0481;
      }

      .cls-5 {
        opacity: .8;
      }

      .cls-5, .cls-9, .cls-10 {
        fill: #ab2781;
      }

      .cls-28 {
        opacity: .4;
      }

      .cls-28, .cls-26, .cls-29 {
        mix-blend-mode: soft-light;
      }

      .cls-6 {
        fill: #c72781;
      }

      .cls-6, .cls-9, .cls-11 {
        opacity: .3;
      }

      .cls-48 {
        fill: url(#_횁책챌청챙첼챠챠청챕_찾챨횪채챔책챠챵_88);
      }

      .cls-49 {
        fill: #aaefff;
      }

      .cls-7, .cls-11 {
        fill: #e767a7;
      }

      .cls-8 {
        fill: url(#_횁책챌청챙첼챠챠청챕_찾챨횪채챔책챠챵_71);
      }

      .cls-25 {
        fill: url(#radial-gradient-2);
      }

      .cls-50 {
        fill: url(#_횁책챌청챙첼챠챠청챕_찾챨횪채챔책챠챵_13-5);
      }

      .cls-12 {
        fill: url(#_횁책챌청챙첼챠챠청챕_찾챨횪채챔책챠챵_71-2);
      }

      .cls-51 {
        fill: url(#_횁책챌청챙첼챠챠청챕_찾챨횪채챔책챠챵_13-4);
      }

      .cls-52 {
        fill: url(#_횁책챌청챙첼챠챠청챕_찾챨횪채챔책챠챵_30);
      }
    </style>
    <linearGradient id="_횁책챌청챙첼챠챠청챕_찾챨횪채챔책챠챵_106" data-name="횁책챌청챙첼챠챠청챕 찾챨횪채챔책챠챵 106" x1="328.4" y1="110.93" x2="328.4" y2="94.65" gradientTransform="translate(-215.84)" gradientUnits="userSpaceOnUse">
      <stop offset="0" stop-color="#ffb5b5"/>
      <stop offset=".28" stop-color="#ffb6bd"/>
      <stop offset=".72" stop-color="#ffbbd3"/>
      <stop offset="1" stop-color="#ffbfe6"/>
    </linearGradient>
    <linearGradient id="_횁책챌청챙첼챠챠청챕_찾챨횪채챔책챠챵_30" data-name="횁책챌청챙첼챠챠청챕 찾챨횪채챔책챠챵 30" x1="349.06" y1="140.94" x2="349.06" y2="106.28" gradientTransform="translate(-215.84)" gradientUnits="userSpaceOnUse">
      <stop offset="0" stop-color="#ffc3c4"/>
      <stop offset=".44" stop-color="#ffc4cc"/>
      <stop offset="1" stop-color="#ffc9de"/>
    </linearGradient>
    <linearGradient id="_횁책챌청챙첼챠챠청챕_찾챨횪채챔책챠챵_80" data-name="횁책챌청챙첼챠챠청챕 찾챨횪채챔책챠챵 80" x1="370.3" y1="152.96" x2="370.3" y2="119.77" gradientTransform="translate(-215.84)" gradientUnits="userSpaceOnUse">
      <stop offset="0" stop-color="#e522d9"/>
      <stop offset="1" stop-color="#ff2443"/>
    </linearGradient>
    <linearGradient id="_횁책챌청챙첼챠챠청챕_찾챨횪채챔책챠챵_13" data-name="횁책챌청챙첼챠챠청챕 찾챨횪채챔책챠챵 13" x1="281.35" y1="102.59" x2="281.35" y2="11.41" gradientTransform="translate(-215.84)" gradientUnits="userSpaceOnUse">
      <stop offset="0" stop-color="#ffd7da"/>
      <stop offset=".32" stop-color="#ffdfe1"/>
      <stop offset=".83" stop-color="#fff5f6"/>
      <stop offset="1" stop-color="#fff"/>
    </linearGradient>
    <linearGradient id="_횁책챌청챙첼챠챠청챕_찾챨횪채챔책챠챵_20" data-name="횁책챌청챙첼챠챠청챕 찾챨횪채챔책챠챵 20" x1="306.74" y1="136.38" x2="306.74" y2="98.49" gradientTransform="translate(-215.84)" gradientUnits="userSpaceOnUse">
      <stop offset="0" stop-color="#ffd7da"/>
      <stop offset=".45" stop-color="#ffdfde"/>
      <stop offset="1" stop-color="#fff0e8"/>
    </linearGradient>
    <linearGradient id="_횁책챌청챙첼챠챠청챕_찾챨횪채챔책챠챵_35" data-name="횁책챌청챙첼챠챠청챕 찾챨횪채챔책챠챵 35" x1="257.62" y1="28.27" x2="257.62" y2="-3.23" gradientTransform="translate(-224.82 39.96) rotate(4.78)" gradientUnits="userSpaceOnUse">
      <stop offset="0" stop-color="#ffc3c4"/>
      <stop offset=".51" stop-color="#ffbac7"/>
      <stop offset="1" stop-color="#ffaece"/>
    </linearGradient>
    <linearGradient id="_횁책챌청챙첼챠챠청챕_찾챨횪채챔책챠챵_44" data-name="횁책챌청챙첼챠챠청챕 찾챨횪채챔책챠챵 44" x1="259.84" y1="24.73" x2="259.84" y2="-1.32" gradientTransform="translate(-224.82 39.96) rotate(4.78)" gradientUnits="userSpaceOnUse">
      <stop offset="0" stop-color="#ff7b7d"/>
      <stop offset=".35" stop-color="#f87585"/>
      <stop offset=".89" stop-color="#e7669b"/>
      <stop offset="1" stop-color="#e363a1"/>
    </linearGradient>
    <linearGradient id="_횁책챌청챙첼챠챠청챕_찾챨횪채챔책챠챵_13-2" data-name="횁책챌청챙첼챠챠청챕 찾챨횪채챔책챠챵 13" x1="258.23" y1="21.71" x2="258.23" y2="1.97" gradientTransform="translate(-224.82 39.96) rotate(4.78)" xlink:href="#_횁책챌청챙첼챠챠청챕_찾챨횪채챔책챠챵_13"/>
    <linearGradient id="_횁책챌청챙첼챠챠청챕_찾챨횪채챔책챠챵_71" data-name="횁책챌청챙첼챠챠청챕 찾챨횪채챔책챠챵 71" x1="288.71" y1="73.27" x2="288.71" y2="18.16" gradientTransform="translate(-215.84)" gradientUnits="userSpaceOnUse">
      <stop offset="0" stop-color="#fff"/>
      <stop offset="1" stop-color="#d91a81"/>
    </linearGradient>
    <radialGradient id="_횁책챌청챙첼챠챠청챕_찾챨횪채챔책챠챵_132" data-name="횁책챌청챙첼챠챠청챕 찾챨횪채챔책챠챵 132" cx="298.26" cy="82.59" fx="298.26" fy="82.59" r="52.55" gradientTransform="translate(-215.84)" gradientUnits="userSpaceOnUse">
      <stop offset="0" stop-color="#dc16b1"/>
      <stop offset=".38" stop-color="#9517a9"/>
      <stop offset="1" stop-color="#5a1a88"/>
    </radialGradient>
    <radialGradient id="radial-gradient" cx="-782.82" cy="52.98" fx="-782.82" fy="52.98" r="36.6" gradientTransform="translate(-710.1) rotate(-180) scale(1 -1)" gradientUnits="userSpaceOnUse">
      <stop offset="0" stop-color="#000"/>
      <stop offset=".27" stop-color="#010002"/>
      <stop offset=".41" stop-color="#050009"/>
      <stop offset=".52" stop-color="#0b0017"/>
      <stop offset=".61" stop-color="#15002a"/>
      <stop offset=".69" stop-color="#210042"/>
      <stop offset=".77" stop-color="#300060"/>
      <stop offset=".84" stop-color="#420084"/>
      <stop offset=".9" stop-color="#5700ae"/>
      <stop offset=".96" stop-color="#6e00dc"/>
      <stop offset="1" stop-color="#8000ff"/>
    </radialGradient>
    <linearGradient id="_횁책챌청챙첼챠챠청챕_찾챨횪채챔책챠챵_71-2" data-name="횁책챌청챙첼챠챠청챕 찾챨횪채챔책챠챵 71" x1="248.47" y1="87.93" x2="327.92" y2="87.93" xlink:href="#_횁책챌청챙첼챠챠청챕_찾챨횪채챔책챠챵_71"/>
    <linearGradient id="_횁책챌청챙첼챠챠청챕_찾챨횪채챔책챠챵_13-3" data-name="횁책챌청챙첼챠챠청챕 찾챨횪채챔책챠챵 13" x1="212.81" y1="79.96" x2="212.81" y2=".18" gradientTransform="translate(-207.21 -.18) scale(1 .99) skewX(9.65)" xlink:href="#_횁책챌청챙첼챠챠청챕_찾챨횪채챔책챠챵_13"/>
    <linearGradient id="_횁책챌청챙첼챠챠청챕_찾챨횪채챔책챠챵_13-4" data-name="횁책챌청챙첼챠챠청챕 찾챨횪채챔책챠챵 13" x1="295.94" y1="43.15" x2="295.94" y2="14.25" xlink:href="#_횁책챌청챙첼챠챠청챕_찾챨횪채챔책챠챵_13"/>
    <linearGradient id="_횁책챌청챙첼챠챠청챕_찾챨횪채챔책챠챵_107" data-name="횁책챌청챙첼챠챠청챕 찾챨횪채챔책챠챵 107" x1="295.94" y1="43.15" x2="295.94" y2="19.82" gradientTransform="translate(-215.84)" gradientUnits="userSpaceOnUse">
      <stop offset="0" stop-color="#d91a81"/>
      <stop offset="1" stop-color="#fff"/>
    </linearGradient>
    <linearGradient id="_횁책챌청챙첼챠챠청챕_찾챨횪채챔책챠챵_13-5" data-name="횁책챌청챙첼챠챠청챕 찾챨횪채챔책챠챵 13" x1="274.88" y1="146.03" x2="274.88" y2="101.71" xlink:href="#_횁책챌청챙첼챠챠청챕_찾챨횪채챔책챠챵_13"/>
    <linearGradient id="_횁책챌청챙첼챠챠청챕_찾챨횪채챔책챠챵_20-2" data-name="횁책챌청챙첼챠챠청챕 찾챨횪채챔책챠챵 20" x1="339.9" y1="151.35" x2="339.9" y2="119.59" xlink:href="#_횁책챌청챙첼챠챠청챕_찾챨횪채챔책챠챵_20"/>
    <linearGradient id="_횁책챌청챙첼챠챠청챕_찾챨횪채챔책챠챵_57" data-name="횁책챌청챙첼챠챠청챕 찾챨횪채챔책챠챵 57" x1="315.35" y1="142.21" x2="315.35" y2="119.23" gradientTransform="translate(-215.84)" gradientUnits="userSpaceOnUse">
      <stop offset="0" stop-color="#931a84"/>
      <stop offset="1" stop-color="#ae04b1"/>
    </linearGradient>
    <linearGradient id="_횁책챌청챙첼챠챠청챕_찾챨횪채챔책챠챵_57-2" data-name="횁책챌청챙첼챠챠청챕 찾챨횪채챔책챠챵 57" x1="328.5" y1="125.9" x2="328.5" y2="105.9" xlink:href="#_횁책챌청챙첼챠챠청챕_찾챨횪채챔책챠챵_57"/>
    <linearGradient id="_횁책챌청챙첼챠챠청챕_찾챨횪채챔책챠챵_57-3" data-name="횁책챌청챙첼챠챠청챕 찾챨횪채챔책챠챵 57" x1="281.93" y1="124.42" x2="281.93" y2="98.8" xlink:href="#_횁책챌청챙첼챠챠청챕_찾챨횪채챔책챠챵_57"/>
    <linearGradient id="_횁책챌청챙첼챠챠청챕_찾챨횪채챔책챠챵_81" data-name="횁책챌청챙첼챠챠청챕 찾챨횪채챔책챠챵 81" x1="280.2" y1="146.03" x2="280.2" y2="128.59" gradientTransform="translate(-215.84)" gradientUnits="userSpaceOnUse">
      <stop offset="0" stop-color="#ff2443"/>
      <stop offset=".99" stop-color="#e522d9"/>
    </linearGradient>
    <linearGradient id="_횁책챌청챙첼챠챠청챕_찾챨횪채챔책챠챵_116" data-name="횁책챌청챙첼챠챠청챕 찾챨횪채챔책챠챵 116" x1="348.3" y1="111.07" x2="348.3" y2="94.65" gradientTransform="translate(-215.84)" gradientUnits="userSpaceOnUse">
      <stop offset="0" stop-color="#bb0181"/>
      <stop offset=".99" stop-color="#e51ba4"/>
    </linearGradient>
    <linearGradient id="_횁책챌청챙첼챠챠청챕_찾챨횪채챔책챠챵_57-4" data-name="횁책챌청챙첼챠챠청챕 찾챨횪채챔책챠챵 57" x1="303.98" y1="105.54" x2="303.98" y2="95.56" xlink:href="#_횁책챌청챙첼챠챠청챕_찾챨횪채챔책챠챵_57"/>
    <linearGradient id="_횁책챌청챙첼챠챠청챕_찾챨횪채챔책챠챵_80-2" data-name="횁책챌청챙첼챠챠청챕 찾챨횪채챔책챠챵 80" x1="304.79" y1="109.2" x2="304.79" y2="101.84" xlink:href="#_횁책챌청챙첼챠챠청챕_찾챨횪채챔책챠챵_80"/>
    <linearGradient id="_횁책챌청챙첼챠챠청챕_찾챨횪채챔책챠챵_88" data-name="횁책챌청챙첼챠챠청챕 찾챨횪채챔책챠챵 88" x1="305.18" y1="140.75" x2="353.1" y2="140.75" gradientTransform="translate(-215.84)" gradientUnits="userSpaceOnUse">
      <stop offset="0" stop-color="#ff2483"/>
      <stop offset=".99" stop-color="#e522d9"/>
    </linearGradient>
    <linearGradient id="_횁책챌청챙첼챠챠청챕_찾챨횪채챔책챠챵_88-2" data-name="횁책챌청챙첼챠챠청챕 찾챨횪채챔책챠챵 88" x1="351.73" y1="137.11" x2="356.68" y2="137.11" xlink:href="#_횁책챌청챙첼챠챠청챕_찾챨횪채챔책챠챵_88"/>
    <linearGradient id="_횁책챌청챙첼챠챠청챕_찾챨횪채챔책챠챵_57-5" data-name="횁책챌청챙첼챠챠청챕 찾챨횪채챔책챠챵 57" x1="32.34" y1="514.24" x2="32.34" y2="499.14" gradientTransform="translate(-284.58 -175) rotate(-49.8) scale(1.05 1)" xlink:href="#_횁책챌청챙첼챠챠청챕_찾챨횪채챔책챠챵_57"/>
    <linearGradient id="_횁책챌청챙첼챠챠청챕_찾챨횪채챔책챠챵_89" data-name="횁책챌청챙첼챠챠청챕 찾챨횪채챔책챠챵 89" x1="32.53" y1="513.07" x2="32.53" y2="499.42" gradientTransform="translate(-284.58 -175) rotate(-49.8) scale(1.05 1)" gradientUnits="userSpaceOnUse">
      <stop offset="0" stop-color="#e522d9"/>
      <stop offset="1" stop-color="#ff2483"/>
    </linearGradient>
    <radialGradient id="radial-gradient-2" cx="-125.68" cy="235.53" fx="-125.68" fy="235.53" r="31.95" gradientTransform="translate(168.6 -170.64) scale(.85 1)" gradientUnits="userSpaceOnUse">
      <stop offset=".02" stop-color="#f200a5"/>
      <stop offset=".17" stop-color="#bf0082"/>
      <stop offset=".4" stop-color="#7c0054"/>
      <stop offset=".6" stop-color="#460030"/>
      <stop offset=".77" stop-color="#200016"/>
      <stop offset=".91" stop-color="#080005"/>
      <stop offset="1" stop-color="#000"/>
    </radialGradient>
    <radialGradient id="radial-gradient-3" cx="-125.68" cy="235.53" fx="-125.68" fy="235.53" r="24.76" gradientTransform="translate(168.6 -170.64) scale(.85 1)" gradientUnits="userSpaceOnUse">
      <stop offset=".02" stop-color="#ce00f2"/>
      <stop offset=".17" stop-color="#a300bf"/>
      <stop offset=".4" stop-color="#69007c"/>
      <stop offset=".6" stop-color="#3c0046"/>
      <stop offset=".77" stop-color="#1b0020"/>
      <stop offset=".91" stop-color="#070008"/>
      <stop offset="1" stop-color="#000"/>
    </radialGradient>
    <radialGradient id="radial-gradient-4" cx="-89.36" cy="179.12" fx="-89.36" fy="179.12" r="16.22" gradientTransform="translate(164.55 -237.85) rotate(-4.42) scale(.66 1.62) skewX(-13.44)" xlink:href="#radial-gradient-2"/>
    <radialGradient id="radial-gradient-5" cx="-89.36" cy="179.12" fx="-89.36" fy="179.12" r="12.57" gradientTransform="translate(164.55 -237.85) rotate(-4.42) scale(.66 1.62) skewX(-13.44)" xlink:href="#radial-gradient-3"/>
  </defs>
  <g class="cls-40">
    <g id="Calque_2" data-name="Calque 2">
      <g id="Layer_3" data-name="Layer 3">
        <g>
          <g>
            <path class="cls-49" d="M159.39,139.99s7.85-8.82,9.06-13.38c1.21-4.55.84-6.74,0-7.38-.84-.63-4.6-1.61-12.42,0-7.83,1.61-9.41,2.69-9.97,1.31-.56-1.38-4.85-10.53-4.2-10.53s3.64-1.15,3.92-3.47c.28-2.32-3.46-14.01-18.67-14.63-15.21-.62-19.78,4.95-31.62,3.61-5.35-.61-5.74-1.15-5.74-1.15,0,0,18.29-9.46,26.13-22.89,7.84-13.44-1.03-51.62-15.55-57.22-14.52-5.61-50.57-9.48-70.38,13.36l60.95,89.46,30.9,17.47,37.58,5.45Z"/>
            <g>
              <path class="cls-42" d="M144.54,107.78c-.12,1.03-3.27,1.26-7.17-.64,0,0-2.63-.82-3.04-.87-.4-.05-.41.35.77.83,1.18.47,1.74,1.61,1.92,2.64s-.49,1.03-.62,1.16c-.14.13-4.5-.26-7.55-1.16-3.06-.9-2.54-2.15-4.18-2.62-.29-.08-1.1,0-2.31.15-2.6.35-7.06,1.12-11.95,1.49-5.59.42-11.76.34-16.44-1.39-10.66-3.95-13.41-8.88-13.41-8.88l4.85-1.84c2.7-.84,4.75-.64,8.64-.45h0c3.02.15,7.16.29,13.56-.05,5.65-.32,14.18-1.49,14.18-1.49,6.19-.07,10.36.3,13.28,1.5,6.82,2.77,9.58,10.59,9.47,11.63Z"/>
              <path class="cls-10" d="M110.42,108.76c-5.59.42-11.76.34-16.44-1.39-10.66-3.95-13.41-8.88-13.41-8.88l4.85-1.84c2.7-.84,4.75-.64,8.64-.45-1.78.73,1.58,10.45,13.34,12.02,1.19.15,2.19.34,3.02.54Z"/>
              <path class="cls-52" d="M156.01,139.6c.45,1.03-7.45,1.26-14.79,1.03-1.2-.04-2.34-.05-3.4-.03-5.43.06-8.93.65-9.32.11-.45-.66-.23-11.09-.57-12.01-.34-.92-11.01-1.95-11.01-1.95l-6.5-15.57s20.38-6.33,26.57-4.61c1.44.4,2.73,1.8,3.87,3.7,3.76,6.32,5.87,18.29,6.22,19,.46.92,6.54,4.92,8.95,10.32Z"/>
              <path class="cls-10" d="M140.84,110.28h0s-7.47-.27-11.77,10.33c-3.3,8.15,4.83,16.56,8.75,20-5.43.06-8.93.65-9.32.11-.45-.66-.23-11.09-.57-12.01-.34-.92-11.01-1.95-11.01-1.95l-6.5-15.57s20.38-6.33,26.57-4.61c1.44.4,2.73,1.8,3.87,3.7Z"/>
              <path class="cls-43" d="M163.13,119.77s4.16.58,4.58,1.14c.42.56.04,9.27-6.04,16.51-6.01,7.17-11.68,14.45-12.38,15.34-.7.88-8.21-1.41-8.21-1.41,0,0,7.11-2.6,9.36-6.26,2.25-3.67,8.55-7.9,10.73-15.55,2.17-7.64,1.96-9.77,1.96-9.77Z"/>
              <path class="cls-30" d="M113.16,70.22c-.13.51-.28,1-.43,1.48-.18.52-.39,1.05-.65,1.58-5.13,10.63-25.67,22.43-32.07,27.28,0,0-4.06,3.61-13.48,1.21h0s-.03-.02-.05-.02c-.45-.11-.92-.24-1.39-.38,0,0-18.91-.93-26.62-5.78-1.62-1.01-3.65-2.89-5.82-5.37h0c-2.81-3.2-5.84-7.44-8.5-12.18,0-.02-.02-.03-.02-.03-5.12-9.15-8.84-20.22-6.8-29.64,3.92-18.1,26.87-35.27,49.08-36.76,15.13-1.02,26.99,2.24,34.32,6.65,3.44,2.07,5.87,4.39,7.18,6.66,3.95,6.82,8.58,32.5,5.28,45.31Z"/>
              <path class="cls-32" d="M64.07,101.23c-1.21,1.33.33,17.5,16.84,31.6,11.66,9.96,35.17-3.96,36.8-6.02,1.63-2.06-2.8-13.5-8.47-16.34-5.68-2.84-11.65-3.53-16.55-5.68-4.9-2.15-8.64-5.3-10.98-5.95-5.51-1.53-17.64,2.38-17.64,2.38Z"/>
              <path class="cls-39" d="M21.89,57.44c-4.98-2.06.43,18.76,7.08,25.81,6.65,7.05,10.98,7.53,12.39,7.15,1.41-.38-1.73-25.61-19.47-32.96Z"/>
              <path class="cls-37" d="M25.99,59.6s-5.14,5.8,3.05,17.63c8.19,11.83,12.45,9.53,12.45,9.53,0,0-2.04-19.25-15.5-27.16Z"/>
              <path class="cls-10" d="M66.47,101.75c-.45-.11-.92-.24-1.39-.38,0,0-18.91-.93-26.62-5.78-1.62-1.01-3.65-2.89-5.82-5.37h0c-2.81-3.2-5.84-7.44-8.5-12.18.5.56,8.51,9.61,14.83,12.46,6.32,2.86,26.27,10.77,27.51,11.26Z"/>
              <path class="cls-38" d="M25.18,63.35c.9-2.97,11.55,8.88,13.23,20.4,0,0-18.97-1.59-13.23-20.4Z"/>
              <path class="cls-18" d="M24.57,70.7c.75-3.02,5.65,4.42,5.26,8.97-.14,1.66-6.66-3.33-5.26-8.97Z"/>
              <path class="cls-8" d="M113.16,70.22l-6.78,3.05-69.16-9.04s-6.66-9.99-5.68-22.02c.98-12.04,10.58-19.1,16.36-20.03,5.79-.94,23.76,2.98,33.84,1.87,10.08-1.12,12.77-6.66,18.95-5.79,3.44,2.07,5.87,4.39,7.18,6.66,3.95,6.82,8.58,32.5,5.28,45.31Z"/>
              <path class="cls-34" d="M111.21,65.98c-.47,1.39-1.04,2.72-1.71,3.97-.52.97-1.14,1.88-1.87,2.75v.02c-10.85,13.01-42.78,14.73-52.63,10.29-4.38-1.97-9.7-6.92-14.1-13.02-.02-.03-.04-.05-.05-.08-3.83-5.33-6.95-11.53-8.12-17.38-2.48-12.56,4.48-26,13.28-28.11,8.79-2.12,21.07,3.85,32.63,4.23,11.57.37,14.12-5.7,16.3-6.78,1.55-.77,4.31-2.79,9.58,1.67,5.84,4.96,11.93,27.21,6.69,42.44Z"/>
              <path class="cls-23" d="M111.21,65.98c-.47,1.39-1.04,2.72-1.71,3.97-.52.97-1.14,1.88-1.87,2.75v.02c-10.85,13.01-42.78,14.73-52.63,10.29-4.38-1.97-9.7-6.92-14.1-13.02-.02-.03-.04-.05-.05-.08-3.83-5.33-6.95-11.53-8.12-17.38-2.48-12.56,4.48-26,13.28-28.11,8.79-2.12,21.07,3.85,32.63,4.23,11.57.37,14.12-5.7,16.3-6.78,1.55-.77,4.31-2.79,9.58,1.67,5.84,4.96,11.93,27.21,6.69,42.44Z"/>
              <path class="cls-12" d="M112.08,73.27c-5.13,10.63-25.67,22.43-32.07,27.28,0,0-4.47,3.98-14.93.81,0,0-18.91-.93-26.62-5.78-1.62-1.01-3.65-2.89-5.82-5.37,4.77.86,18.3,2.87,34.56,1.44,21.9-1.92,35.71-6.44,44.89-18.38Z"/>
              <path class="cls-5" d="M24.1,69.74s-.64-4.39,3.84-3.92,12.26,14.69,12.26,14.69c0,0-1.74-8.53-7.98-15.34-6.24-6.82-9.94-8.4-11.87-7.29-1.94,1.11,1.02,11.08,1.65,12.12.63,1.04,2.38,2.78,2.38,2.78l-.27-3.04Z"/>
              <path class="cls-45" d="M27.69,78.72c-4.09-2.47-13.62-10.73-20.45-27.25-2.26-5.45-4.21-11.81-5.58-19.15C-3.87,2.72,6.17-4.52,6.28,2.46c0,0,0,.03,0,.1.42,23.11,7.06,58.67,12.13,63.57,5.08,4.9,5.06,4.19,5.06,4.19,4.14,2.76,6.55,10.15,4.22,8.41Z"/>
              <path class="cls-9" d="M27.69,78.72c-4.09-2.47-13.62-10.73-20.45-27.25,2.81,4,4.29,3.12,1.12-15.83C5.37,17.59,6.19,3.81,6.28,2.56c.42,23.11,7.06,58.67,12.13,63.57,5.08,4.9,5.06,4.19,5.06,4.19,4.14,2.76,6.55,10.15,4.22,8.41Z"/>
              <path class="cls-10" d="M111.21,65.98l-3.57,6.67c.62-1.39,10.69-24.79-13.57-26.94-24.95-2.2-61.3,12.97-53.23,24.2-3.83-5.33-6.95-11.53-8.12-17.38-2.48-12.56,4.48-26,13.28-28.11,8.79-2.12,21.07,3.85,32.63,4.23,11.57.37,14.12-5.7,16.3-6.78,1.55-.77,4.31-2.79,9.58,1.67,5.84,4.96,11.93,27.21,6.69,42.44Z"/>
              <path class="cls-51" d="M83.96,43.14c-15.47.32-23.23-15.54-18.45-23.32.54-.89,1.25-1.66,2.13-2.3,7.64-5.57,19.08-3.45,24.17,2.16,1.45,1.6,2.6,3.64,3.34,5.88,2.53,7.64.29,17.36-11.19,17.59Z"/>
              <path class="cls-16" d="M83.74,34.55c-8.32.18-13.24-9.22-10.48-13.69.31-.5.72-.93,1.23-1.26,4.34-2.8,10.5-.84,13.07,2.52.71.93,1.27,2.07,1.62,3.28,1.19,4.06.14,9.02-5.44,9.14Z"/>
              <path class="cls-31" d="M83.47,34.55c-7.11.16-11.23-7.8-8.91-11.6.26-.43.61-.79,1.04-1.08,3.67-2.43,8.93-.85,11.16,1.99.62.79,1.1,1.76,1.41,2.8,1.04,3.49.14,7.78-4.7,7.89Z"/>
              <path class="cls-2" d="M83.96,43.14c-15.47.32-23.23-15.54-18.45-23.32-2.11,5.59,3.28,17.26,14.59,20.15,11.3,2.89,17.15-4.91,15.06-14.35,0-.02,0-.05,0-.07,2.53,7.64.29,17.36-11.19,17.59Z"/>
              <path class="cls-27" d="M53.6,85.21c-1.24.55,4.39,6.36,13.25,5.7,8.86-.65,9.14-2.44,8.96-3.6-.19-1.16-20.06-3.05-22.21-2.11Z"/>
              <path class="cls-26" d="M50.65,59.6c-4.51,2.94,1.64,15.25,11.46,13.67,9.82-1.58-1.88-19.91-11.46-13.67Z"/>
              <path class="cls-27" d="M53.81,42.12c-1.9.7,1.32,5.37,3.31,4.55,1.99-.82-.28-5.67-3.31-4.55Z"/>
              <path class="cls-27" d="M75.24,33.18c-2.07.19-.64,3.89,2.6,3.48,3.24-.41-.73-3.65-2.6-3.48Z"/>
              <path class="cls-27" d="M90.52,32.83c-1.18.02-.44,2.16,0,2.1.44-.06,2.24-2.14,0-2.1Z"/>
              <path class="cls-27" d="M9.28,47.47c-.2,1.37-5.79-7.11-4.75-14.6,1.05-7.48,2.35-4.25,2.35-4.25,0,0,3.08,14.13,2.4,18.84Z"/>
              <path class="cls-27" d="M26.62,69.02c-.85.46,1.02,3.36,3.32,3.3,2.3-.06.95-5.6-3.32-3.3Z"/>
              <path class="cls-11" d="M66.76,99.96c-1.31-1.26-3.68-3.93.95-6.86,4.63-2.93,9.89-1.39,19.18-4.5,9.29-3.11,12.53-4.44,12.53-4.44,0,0-9.77,11.35-18.1,14.89-8.33,3.54-14.56.91-14.56.91Z"/>
              <path class="cls-50" d="M76.53,145.04c-5.59,2.58-20.72-.43-26.06-3.09-.15-.07-.3-.15-.45-.23-1.82-.9-3.7-1.86-5.35-2.92-.03-.02-.04-.03-.04-.03-.23-.15-.44-.29-.66-.44h0c-2.78-1.91-4.77-4.09-4.55-6.65.92-10.31,9.6-14.24,12.62-19.23,3-4.98,7.68-10.66,11.84-10.74,0,0,8.19,9.96,5.31,15.9-1.47,3.02-5.88,7.56-7.1,8.99-.2.24.77,1.31,2.34,1.98,1.12.47,2.49.95,3.88,1.26,3.38.74,3.49,2.47,3.49,2.47,2.21,1.15,5.36,4.42,6.48,7.45v.02s0,0,0,0c0,0,0,0,0,0,.78,2.15.54,4.18-1.77,5.24Z"/>
              <path class="cls-7" d="M69.17,117.61c-1.47,3.02-5.88,7.56-7.1,8.99,0,0-2.03-4.44-8.91-4.96-6.88-.52-11.16,5.6-12.21,9.07-1.03,3.37,2.79,7.39,3,7.61-2.78-1.9-4.77-4.08-4.55-6.64.92-10.31,9.6-14.24,12.62-19.23,3-4.98,7.68-10.66,11.84-10.74,0,0,8.19,9.96,5.31,15.9Z"/>
              <path class="cls-13" d="M84.83,135.04c1.56,1.39,8.37,10.58,19.41,11.62,13.46,1.27,34.61,5,37.66,4.68,3.08-.32,6.93-3.63,9.04-6.25,2.12-2.63,8.71-9.4,9.9-13.33,1.19-3.93,2.95-11.5,2.29-11.98-.66-.48-9.59-.11-19.24,2.9-3.54,1.1-8.06,2.61-20.19,2.08-11.64-.51-31.5-5.56-38.87,10.29Z"/>
              <path class="cls-41" d="M118.05,125.48s-4.3-6.58-17.54-6.24c-13.24.34-20.01,10.32-19.52,16.51.49,6.19,11.14,6.46,11.14,6.46,0,0-3.36-2.43-3.77-3.58-.41-1.16,3.98-15.93,29.69-13.15Z"/>
              <path class="cls-47" d="M121.24,125.9l-3.18-.42c-1.21-11.47-10.66-15.85-10.66-15.85l-3.88-1.42c2.68-2.95,8.94-3.43,13.33.56.93.83,1.76,1.87,2.47,3.12,4.07,7.22,1.92,14,1.92,14Z"/>
              <path class="cls-10" d="M119.72,112.65s2.16.48,5.56,4.79c3.39,4.31,1.26,6.62,0,7.36-1.26.75-3.79,0-3.79,0,0,0,.94-7.54-1.77-12.15Z"/>
              <path class="cls-10" d="M121.24,125.9l-3.18-.42c-1.21-11.47-10.66-15.85-10.66-15.85l-3.88-1.42c8.04.12,14.67,12.4,15.17,12.71.49.3,2.23.44,1.84-4.07-.39-4.51-3.69-8.09-3.69-8.09h.02c.93.84,1.76,1.88,2.47,3.13,4.07,7.22,1.92,14,1.92,14Z"/>
              <path class="cls-14" d="M60.27,103.51s3.95-1.28,7.28,6.28c2.18,4.94,1.19,8.94.52,9.67-.67.72-2.72,3.46-2.72,3.46,0,0,7.35,5.46,10.06-4.44,2.12-7.77-1.15-17.55-8.68-19.23-8.57-1.91-10.39,2.73-10.59,7.47,0,0,3.45-3,4.14-3.21Z"/>
              <path class="cls-33" d="M76.53,145.04c-5.59,2.58-20.72-.43-26.06-3.09-.15-.07-.3-.15-.45-.23.6-5.94,5.3-12.58,14.4-13.13,1.12.47,2.49.95,3.88,1.26,3.38.74,3.49,2.47,3.49,2.47,3.78,1.98,10.32,10.15,4.73,12.73Z"/>
              <path class="cls-46" d="M144.54,107.78c-.08.69-1.87,1.12-4.02.68-1.03-.21-5.79-2.13-6.19-2.19-.09,0-.15,0-.2.04-.15.1.05.42.97.79,1.18.47,1.74,1.61,1.92,2.64s-.38,1.18-.51,1.31c-.14.13-4.61-.41-7.66-1.31-3.06-.9-2.54-2.15-4.18-2.62-.29-.08-1.1,0-2.31.15-4.31-6.35-.57-12.62-.57-12.62,6.19-.07,10.33.36,13.28,1.5,10.7,4.11,9.58,10.59,9.47,11.63Z"/>
              <path class="cls-44" d="M87.04,95.56s7.24-.11,7.52,9.98c0,0-4.77-2.1-7.52-3.78-2.75-1.68-5.34-2.91-5.34-2.91,0,0,3.82-2.65,5.34-3.29Z"/>
              <path class="cls-36" d="M87.3,108.25c-2.98-1.25-5.27-3.65-4.99-5.24.06-.33.33-1.09,1.59-1.15h0c5.46-.26,11.04,3.32,11.61,4.86.2.55.06,1.11-.38,1.54-.6.58-1.82.94-3.33.94-1.34,0-2.92-.28-4.51-.95ZM83.95,102.84c-.61.03-.66.26-.67.34-.15.86,1.53,2.95,4.4,4.16,3.13,1.31,5.99.96,6.78.21.21-.2.19-.35.14-.49-.39-1.05-5.17-4.23-10.11-4.23-.18,0-.36,0-.53.01Z"/>
              <path class="cls-7" d="M71.84,102.46s3.33.03,5.97-1.07c1.76-.73,3.89-2.54,3.89-2.54l9.19,4.97s2.51,5.39-6.67,5.27c-9.17-.11-10.52-4.49-10.52-4.49l-1.87-2.15Z"/>
              <path class="cls-48" d="M89.34,135.47s1.82,3.88,14.4,6.56c12.59,2.68,32.89.82,32.89.82l.63,3.17s-21.25-.68-32.64-2.78c-11.38-2.1-12.85-4.73-15.29-7.77Z"/>
              <path class="cls-15" d="M138.63,150.66s-5.43-14.13,2.2-27.1l-1.32.31s-7.53,9.88-.89,26.79Z"/>
              <path class="cls-1" d="M147.55,152.35s-4.89-1.72-3-6.96c1.88-5.25,8.92-6.57,13.66-9,4.74-2.44,6.37-4.67,6.37-4.67,0,0-2.43,4.97-7.4,11.17-4.98,6.2-8.04,9.2-9.62,9.47Z"/>
              <path class="cls-3" d="M138.63,150.66s-4.43-10.09-3.84-17.77c.58-7.68,3.84-8.84,3.84-8.84l1.16-.25s-6.3,5.25-1.16,26.85Z"/>
              <path class="cls-10" d="M81.71,131.29s.95,2.43,4.28,3.17c3.33.74,4.51-6.53,12.81-9.37,8.3-2.84,19.26.39,19.26.39,0,0-9.34-1.35-16.68,2.46-7.34,3.8-7.53,9.76-6.26,12.8,1.27,3.04,6.64,5.53,6.64,5.53,0,0-3.84-.19-9.62-4.06,0,0-15.37-.14-10.43-10.92Z"/>
              <path class="cls-10" d="M57.35,101.71c-.78,1.92,3.67-.39,7.63,2.26,3.96,2.66,4.59,12.35,7.39,14.3,2.81,1.95,4.37-5.13,2.36-11.59,0,0,2.69.93,4.29,9.99,1.61,9.06-.56,12.25-2.98,11.52l-3.79-4.51s-2.97,2.11-6.9-.75c0,0,1.97-3.04,2.09-6.65.11-3.61.38-9.11-4.11-10.72-4.49-1.62-7.19,1.18-7.19,1.18,0,0,.06-3.11,1.21-5.01Z"/>
              <path class="cls-29" d="M137.26,136.36c-1.89,11.02,15.3,4.1,19.2-1.26,3.9-5.36,4.47-14.08,4.47-14.08,0,0-20.29-4.4-23.67,15.34Z"/>
              <path class="cls-6" d="M104.27,108.46s5.96,3.4,7.64,7.44c1.68,4.03-1.03,4.7-1.03,4.7,0,0,5.16,2.31,7.18,4.88,0,0-.18-13.19-13.79-17.02Z"/>
              <path class="cls-10" d="M90.14,96.43c-3.39-.74-3.01,1.89-2.53,3.41.49,1.52,3.15,4.01,3.15,4.01,0,0-7.29-4.19-9.06-5,0,0,4.13-3.05,5.34-3.29s3.1.87,3.1.87Z"/>
              <path class="cls-9" d="M126.27,108.22c.04-1.53,5.28-2.12,7.52,0,2.24,2.12.77,2.54.77,2.54,0,0-6.47-.53-8.29-2.54Z"/>
              <path class="cls-28" d="M124.06,94.88c-3.31,1.32,3.2,8.54,13.61,11.01,4.09.97,6.6.57,6.6.57,0,0,1.08-6.05-7.71-9.6-6.16-2.49-12.5-1.99-12.5-1.99Z"/>
              <path class="cls-11" d="M98.49,144.35c-1.41-3.67,5.93-8.08,17.22-4.47,11.29,3.61,14.85,9.69,14.85,9.69,0,0-15.83-1.73-22.12-2.47-6.29-.75-8.9-1.94-9.95-2.74Z"/>
              <path class="cls-10" d="M71.8,132.32s-5.96-3.18-6.28-3.3c0,0,2.59.85,4.03,1.2,1.44.35,2.25,2.1,2.25,2.1Z"/>
              <path class="cls-10" d="M76.53,145.04c-5.59,2.58-20.72-.43-26.06-3.09-.15-.07-.3-.15-.45-.23-1.82-.9-3.7-1.86-5.35-2.92.61.35,8.84,5.08,21.75,5.26,12.79.18,11.98-3.88,11.88-4.26h0s0,0,0,0c.78,2.15.54,4.18-1.77,5.24Z"/>
              <path class="cls-28" d="M51.67,140.4c-1.2-1.07,2.92-9.52,11.35-9.17,8.43.34,14.39,4.18,14.04,8.08-.34,3.9-13.76,5.96-25.39,1.09Z"/>
              <path class="cls-27" d="M105.93,134.29c-1.52,2.22,1.35,2.74,4.79,1.63,3.44-1.12-2.73-4.63-4.79-1.63Z"/>
              <path class="cls-27" d="M137.12,114.34c-1.61.6.23,2.59,1.25,2.63,1.02.04.36-3.23-1.25-2.63Z"/>
              <path class="cls-27" d="M149.03,134.12c-1.93,3.9,2.99,3.42,3.25.68.26-2.74-2.72-1.76-3.25-.68Z"/>
              <path class="cls-27" d="M82.37,114.27c-2.7.86,1.38,5.73,3.44,4.62,2.06-1.11,1.38-6.16-3.44-4.62Z"/>
              <path class="cls-4" d="M62.08,126.61s-3.69-4.84-9.48-4.98c0,0,4.64-2.21,7.79-.32,3.15,1.89,1.69,5.3,1.69,5.3Z"/>
              <path class="cls-27" d="M46.05,127.21c-2.65,1.44,1.89,4.36,3.55,2.29,1.66-2.06-2.18-3.04-3.55-2.29Z"/>
              <path class="cls-27" d="M102.42,99.77c-2.56.98.48,2.76,2.52,1.29,2.05-1.47-.97-1.88-2.52-1.29Z"/>
              <path class="cls-29" d="M58.55,112.02c-2.25,1.3-1.55,3.61,0,3.44s1.63-4.39,0-3.44Z"/>
              <path class="cls-26" d="M91.21,122.28c-4.19,3.76,5.58,3.55,12.74,1.03,7.17-2.52-7.77-5.5-12.74-1.03Z"/>
              <path class="cls-26" d="M109.1,106.28c-2.53-.17,4.83,8.56,7.41,9.62,2.58,1.05,5.6-8.77-7.41-9.62Z"/>
              <path class="cls-26" d="M65.84,99.69c-1.77,1.54,2.69,11.15,4.7,14.58,2.01,3.43,5.62-2.37,3.1-8.73-2.52-6.36-7.79-5.85-7.79-5.85Z"/>
              <path class="cls-17" d="M116.3,124.45c-3.8,1.48.81,7.4,9,7.28,5.89-.08,8.23-4.67,8.49-6.44.26-1.77-11.45-3.19-17.49-.84Z"/>
              <path class="cls-35" d="M115.6,125.23c-.97,1.55,1.07,4.8,9.24,4.64,5.21-.1,8.31-3.58,8.19-4.85-.12-1.27-3.82-1.98-9.91-1.8-3.84.12-7.1,1.32-7.53,2Z"/>
              <path class="cls-29" d="M34.12,48.59s1.25-17.56,10.39-20.98c9.14-3.43,18.6,0,18.6,0,0,0,1.41,13.48,11.26,14.88,0,0-4.7.56-9.83-3.83-5.13-4.39-3.92-8.49-5.13-9.24-1.21-.75-9.61-2.84-15.86.56-8.4,4.57-9.42,18.61-9.42,18.61Z"/>
              <path class="cls-29" d="M95.27,22.64s6.73-.7,10.58,4.87,4.67,15.54,4.67,15.54c0,0-4.17-18.92-15.24-20.41Z"/>
              <path class="cls-27" d="M38.51,33.17s3.85-2.25,5.63-3.49,3.17-2.91,3.17-2.91c0,0-5.2.18-8.8,6.41Z"/>
            </g>
          </g>
          <g>
            <g>
              <ellipse class="cls-25" cx="62.1" cy="64.89" rx="27.07" ry="31.96" transform="translate(-8.41 9.25) rotate(-7.98)"/>
              <ellipse class="cls-24" cx="62.1" cy="64.89" rx="20.98" ry="24.76" transform="translate(-8.41 9.25) rotate(-7.98)"/>
              <path class="cls-20" d="M74.11,62.33c1.32,9.45-3.03,17.87-9.73,18.81-6.7.94-13.2-5.96-14.52-15.41-1.32-9.45,3.03-17.87,9.73-18.81,6.7-.94,13.2,5.96,14.52,15.41Z"/>
            </g>
            <g>
              <path class="cls-19" d="M110.81,57.95c-.29,14.61-5.29,26.82-11.17,27.27-5.88.45-10.42-11.02-10.13-25.63s5.29-26.82,11.17-27.27c5.88-.45,10.42,11.02,10.13,25.63Z"/>
              <path class="cls-22" d="M108.41,58.14c-.22,11.32-4.1,20.78-8.65,21.13-4.56.35-8.07-8.54-7.85-19.86.22-11.32,4.1-20.78,8.65-21.13,4.56-.35,8.07,8.54,7.85,19.86Z"/>
              <path class="cls-20" d="M105.03,58.4c-.16,7.9-2.48,14.47-5.17,14.67-2.69.2-4.74-6.03-4.58-13.93.16-7.9,2.48-14.47,5.17-14.67,2.69-.2,4.74,6.03,4.58,13.93Z"/>
            </g>
            <path class="cls-21" d="M80.79,76.66s.51,2.21,4.34,2.01c3.83-.2,5.37-3.75,5.37-3.75,0,0-5.46,3.57-9.71,1.74Z"/>
          </g>
        </g>
      </g>
    </g>
  </g>
</svg>