<?xml version="1.0" encoding="UTF-8"?>
<svg xmlns="http://www.w3.org/2000/svg" xmlns:xlink="http://www.w3.org/1999/xlink" viewBox="0 0 126.89 190.3">
  <defs>
    <style>
      .cls-1 {
        fill: #c22781;
        opacity: .2;
      }

      .cls-1, .cls-2, .cls-3, .cls-4, .cls-5, .cls-6, .cls-7, .cls-8, .cls-9, .cls-10 {
        mix-blend-mode: multiply;
      }

      .cls-11 {
        fill: #000001;
      }

      .cls-12 {
        opacity: .6;
      }

      .cls-12, .cls-13, .cls-14, .cls-15, .cls-16 {
        fill: #fff;
      }

      .cls-12, .cls-15, .cls-16 {
        mix-blend-mode: soft-light;
      }

      .cls-17 {
        fill: url(#_횁책챌청챙첼챠챠청챕_찾챨횪채챔책챠챵_80-3);
      }

      .cls-18 {
        fill: #450089;
      }

      .cls-19 {
        fill: #200040;
      }

      .cls-20 {
        fill: #26004c;
      }

      .cls-21 {
        fill: #210041;
      }

      .cls-22 {
        fill: #390071;
      }

      .cls-23 {
        fill: #5c00b8;
      }

      .cls-24 {
        fill: url(#_횁책챌청챙첼챠챠청챕_찾챨횪채챔책챠챵_20-2);
      }

      .cls-25 {
        fill: #4c0098;
      }

      .cls-26 {
        fill: url(#_횁책챌청챙첼챠챠청챕_찾챨횪채챔책챠챵_57-3);
      }

      .cls-27 {
        fill: #230046;
      }

      .cls-28 {
        fill: #320064;
      }

      .cls-29 {
        fill: url(#_횁책챌청챙첼챠챠청챕_찾챨횪채챔책챠챵_88-2);
      }

      .cls-30 {
        fill: #204;
      }

      .cls-31 {
        fill: #6700cd;
      }

      .cls-32 {
        fill: #6800d0;
      }

      .cls-2 {
        opacity: .59;
      }

      .cls-2, .cls-6 {
        fill: #e767a7;
      }

      .cls-33 {
        fill: #18002f;
      }

      .cls-34 {
        fill: #0c0017;
      }

      .cls-35 {
        fill: #400080;
      }

      .cls-36 {
        fill: #010002;
      }

      .cls-37 {
        fill: #120024;
      }

      .cls-38 {
        fill: #26004b;
      }

      .cls-39 {
        fill: #6a00d3;
      }

      .cls-40 {
        fill: #3bc7c2;
      }

      .cls-41 {
        fill: #3f007e;
      }

      .cls-42 {
        fill: url(#_횁책챌청챙첼챠챠청챕_찾챨횪채챔책챠챵_81-2);
      }

      .cls-43 {
        fill: url(#_횁책챌청챙첼챠챠청챕_찾챨횪채챔책챠챵_57-5);
      }

      .cls-44 {
        fill: #08000f;
      }

      .cls-45 {
        fill: #6f00dd;
      }

      .cls-46 {
        fill: #7700ed;
      }

      .cls-47 {
        fill: #480090;
      }

      .cls-48 {
        fill: #0d0019;
      }

      .cls-49 {
        fill: url(#radial-gradient-4);
      }

      .cls-49, .cls-14, .cls-50, .cls-51 {
        fill-rule: evenodd;
      }

      .cls-49, .cls-52, .cls-53, .cls-54, .cls-51 {
        mix-blend-mode: screen;
      }

      .cls-55 {
        fill: #0c0019;
      }

      .cls-56 {
        fill: #090011;
      }

      .cls-57 {
        fill: #05000b;
      }

      .cls-58 {
        fill: #0e001c;
      }

      .cls-3 {
        fill: url(#_횁책챌청챙첼챠챠청챕_찾챨횪채챔책챠챵_107);
      }

      .cls-3, .cls-4, .cls-15, .cls-6, .cls-7, .cls-9, .cls-10 {
        opacity: .5;
      }

      .cls-59 {
        fill: #080010;
      }

      .cls-60 {
        fill: #310062;
      }

      .cls-61 {
        fill: #300060;
      }

      .cls-62 {
        fill: #1b0037;
      }

      .cls-63 {
        fill: #6100c0;
      }

      .cls-64 {
        fill: #7900f1;
      }

      .cls-65 {
        fill: #5b00b5;
      }

      .cls-66 {
        fill: #100021;
      }

      .cls-67 {
        fill: #2e005b;
      }

      .cls-68 {
        fill: #130026;
      }

      .cls-69 {
        fill: #5100a2;
      }

      .cls-70 {
        fill: url(#_횁책챌청챙첼챠챠청챕_찾챨횪채챔책챠챵_13-6);
      }

      .cls-71 {
        fill: #030007;
      }

      .cls-72 {
        fill: #15002b;
      }

      .cls-73 {
        fill: url(#_횁책챌청챙첼챠챠청챕_찾챨횪채챔책챠챵_13);
      }

      .cls-74 {
        fill: #50009f;
      }

      .cls-4 {
        fill: #d14894;
      }

      .cls-75 {
        fill: #0e001b;
      }

      .cls-76 {
        fill: #6500ca;
      }

      .cls-77 {
        fill: #180030;
      }

      .cls-78 {
        fill: #06000d;
      }

      .cls-79 {
        fill: #3bffc2;
      }

      .cls-80 {
        fill: #2f005d;
      }

      .cls-81 {
        fill: #7000e0;
      }

      .cls-50 {
        fill: #4d0542;
      }

      .cls-82 {
        fill: none;
      }

      .cls-83 {
        fill: #3a0073;
      }

      .cls-84 {
        fill: #1d0039;
      }

      .cls-85 {
        fill: #290053;
      }

      .cls-86 {
        fill: #7500ea;
      }

      .cls-87 {
        fill: #190032;
      }

      .cls-88 {
        fill: #4d009a;
      }

      .cls-89 {
        fill: url(#_횁책챌청챙첼챠챠청챕_찾챨횪채챔책챠챵_20);
      }

      .cls-90 {
        fill: #7c00f8;
      }

      .cls-91 {
        fill: url(#_횁책챌청챙첼챠챠청챕_찾챨횪채챔책챠챵_81);
      }

      .cls-92 {
        fill: #1f003d;
      }

      .cls-93 {
        fill: #140028;
      }

      .cls-94 {
        fill: #030006;
      }

      .cls-95 {
        fill: #030005;
      }

      .cls-96 {
        fill: #5300a4;
      }

      .cls-97 {
        fill: url(#_횁책챌청챙첼챠챠청챕_찾챨횪채챔책챠챵_89);
      }

      .cls-98 {
        fill: #5700ad;
      }

      .cls-99 {
        fill: #1d003a;
      }

      .cls-100 {
        fill: url(#_횁책챌청챙첼챠챠청챕_찾챨횪채챔책챠챵_80-2);
      }

      .cls-101 {
        fill: #0a0013;
      }

      .cls-102 {
        fill: #340068;
      }

      .cls-52 {
        fill: url(#radial-gradient);
      }

      .cls-103 {
        fill: url(#_횁책챌청챙첼챠챠청챕_찾챨횪채챔책챠챵_13-2);
      }

      .cls-104 {
        fill: #4a0093;
      }

      .cls-105 {
        fill: #240048;
      }

      .cls-106 {
        fill: #7400e6;
      }

      .cls-107 {
        fill: #0e001d;
      }

      .cls-108 {
        fill: #28004f;
      }

      .cls-109 {
        fill: #1e003c;
      }

      .cls-110 {
        fill: #46008c;
      }

      .cls-111 {
        isolation: isolate;
      }

      .cls-112 {
        fill: #4b0095;
      }

      .cls-113 {
        fill: #290051;
      }

      .cls-114 {
        fill: #0c0018;
      }

      .cls-115 {
        fill: #05000a;
      }

      .cls-116 {
        fill: #07000d;
      }

      .cls-117 {
        fill: #3b0075;
      }

      .cls-118 {
        fill: #020003;
      }

      .cls-119 {
        fill: #250049;
      }

      .cls-120 {
        fill: url(#_횁책챌청챙첼챠챠청챕_찾챨횪채챔책챠챵_57);
      }

      .cls-121 {
        fill: #6200c3;
      }

      .cls-122 {
        fill: #17002e;
      }

      .cls-123 {
        fill: #10001f;
      }

      .cls-124 {
        fill: #50a;
      }

      .cls-125 {
        fill: #0b0016;
      }

      .cls-126 {
        fill: #440087;
      }

      .cls-127 {
        fill: #0a0015;
      }

      .cls-53 {
        fill: url(#radial-gradient-3);
      }

      .cls-128 {
        fill: url(#_횁책챌청챙첼챠챠청챕_찾챨횪채챔책챠챵_80);
      }

      .cls-129 {
        fill: #6400c6;
      }

      .cls-130 {
        fill: #040007;
      }

      .cls-131 {
        fill: url(#_횁책챌청챙첼챠챠청챕_찾챨횪채챔책챠챵_57-4);
      }

      .cls-132 {
        fill: url(#_횁책챌청챙첼챠챠청챕_찾챨횪채챔책챠챵_13-3);
      }

      .cls-133 {
        fill: #210042;
      }

      .cls-134 {
        fill: #5f00be;
      }

      .cls-135 {
        fill: #1c0038;
      }

      .cls-136 {
        fill: url(#_횁책챌청챙첼챠챠청챕_찾챨횪채챔책챠챵_13-7);
      }

      .cls-137 {
        fill: #350069;
      }

      .cls-138 {
        fill: url(#_횁책챌청챙첼챠챠청챕_찾챨횪채챔책챠챵_128);
      }

      .cls-139 {
        fill: #5400a7;
      }

      .cls-140 {
        fill: #3e007c;
      }

      .cls-141 {
        fill: #020004;
      }

      .cls-142 {
        fill: #1b0036;
      }

      .cls-143 {
        fill: #16002d;
      }

      .cls-144 {
        fill: url(#_횁책챌청챙첼챠챠청챕_찾챨횪채챔책챠챵_89-2);
      }

      .cls-145 {
        fill: #050009;
      }

      .cls-146 {
        fill: #0d001b;
      }

      .cls-147 {
        fill: #6d00d9;
      }

      .cls-148 {
        fill: #0b0015;
      }

      .cls-149 {
        fill: url(#_횁책챌청챙첼챠챠청챕_찾챨횪채챔책챠챵_57-2);
      }

      .cls-150 {
        fill: #306;
      }

      .cls-151 {
        fill: #140029;
      }

      .cls-152 {
        fill: #2b0056;
      }

      .cls-153 {
        fill: #15002a;
      }

      .cls-154 {
        fill: #410082;
      }

      .cls-155 {
        fill: #090012;
      }

      .cls-156 {
        fill: #6b00d6;
      }

      .cls-157 {
        fill: #2c0058;
      }

      .cls-158 {
        fill: #37006d;
      }

      .cls-5, .cls-8 {
        opacity: .3;
      }

      .cls-5, .cls-9 {
        fill: #c72781;
      }

      .cls-159 {
        fill: #130027;
      }

      .cls-160 {
        fill: #5e00bb;
      }

      .cls-161 {
        fill: url(#_횁책챌청챙첼챠챠청챕_찾챨횪채챔책챠챵_88);
      }

      .cls-162 {
        fill: #aaefff;
      }

      .cls-163 {
        fill: #36006b;
      }

      .cls-164 {
        fill: #7b00f4;
      }

      .cls-165 {
        fill: #07000e;
      }

      .cls-7 {
        fill: url(#_횁책챌청챙첼챠챠청챕_찾챨횪채챔책챠챵_71);
      }

      .cls-166 {
        fill: #190031;
      }

      .cls-167 {
        fill: #2a0054;
      }

      .cls-168 {
        fill: #5800af;
      }

      .cls-169 {
        fill: #0d001a;
      }

      .cls-8, .cls-10 {
        fill: #ab2781;
      }

      .cls-170 {
        fill: #230045;
      }

      .cls-171 {
        fill: #38006f;
      }

      .cls-172 {
        fill: #080011;
      }

      .cls-173 {
        fill: #1a0034;
      }

      .cls-174 {
        fill: #120023;
      }

      .cls-175 {
        fill: #16002c;
      }

      .cls-176 {
        fill: #040008;
      }

      .cls-177 {
        fill: #020005;
      }

      .cls-178 {
        fill: #0f001e;
      }

      .cls-179 {
        fill: #1f003e;
      }

      .cls-180 {
        fill: #5900b2;
      }

      .cls-181 {
        fill: #0a0014;
      }

      .cls-182 {
        fill: #06000b;
      }

      .cls-183 {
        fill: #1a0033;
      }

      .cls-184 {
        fill: #102;
      }

      .cls-185 {
        fill: #06000c;
      }

      .cls-186 {
        fill: #2d0059;
      }

      .cls-187 {
        fill: #27004e;
      }

      .cls-188 {
        fill: #3d007a;
      }

      .cls-189 {
        fill: #2f005e;
      }

      .cls-190 {
        fill: #040009;
      }

      .cls-191 {
        fill: #0b0017;
      }

      .cls-192 {
        fill: #010001;
      }

      .cls-51 {
        fill: url(#radial-gradient-2);
      }

      .cls-193 {
        fill: #3c0078;
      }

      .cls-194 {
        fill: #7e00fb;
      }

      .cls-195 {
        clip-path: url(#clippath);
      }

      .cls-196 {
        fill: #010003;
      }

      .cls-197 {
        fill: #130025;
      }

      .cls-198 {
        fill: url(#_횁책챌청챙첼챠챠청챕_찾챨횪채챔책챠챵_57-6);
      }

      .cls-199 {
        fill: url(#_횁책챌청챙첼챠챠청챕_찾챨횪채챔책챠챵_13-5);
      }

      .cls-200 {
        fill: #4f009d;
      }

      .cls-201 {
        fill: url(#_횁책챌청챙첼챠챠청챕_찾챨횪채챔책챠챵_13-4);
      }

      .cls-202 {
        fill: #47008e;
      }

      .cls-203 {
        fill: #8000ff;
      }

      .cls-204 {
        fill: #7200e3;
      }

      .cls-205 {
        fill: #100020;
      }

      .cls-206 {
        fill: #430085;
      }
    </style>
    <linearGradient id="_횁책챌청챙첼챠챠청챕_찾챨횪채챔책챠챵_80" data-name="횁책챌청챙첼챠챠청챕 찾챨횪채챔책챠챵 80" x1="1251.58" y1="190.3" x2="1251.58" y2="178.61" gradientTransform="translate(1347.87) rotate(-180) scale(1 -1)" gradientUnits="userSpaceOnUse">
      <stop offset="0" stop-color="#e522d9"/>
      <stop offset="1" stop-color="#ff2443"/>
    </linearGradient>
    <linearGradient id="_횁책챌청챙첼챠챠청챕_찾챨횪채챔책챠챵_13" data-name="횁책챌청챙첼챠챠청챕 찾챨횪채챔책챠챵 13" x1="1283.52" y1="150.63" x2="1283.52" y2="96.82" gradientTransform="translate(1347.87) rotate(-180) scale(1 -1)" gradientUnits="userSpaceOnUse">
      <stop offset="0" stop-color="#ffd7da"/>
      <stop offset=".32" stop-color="#ffdfe1"/>
      <stop offset=".83" stop-color="#fff5f6"/>
      <stop offset="1" stop-color="#fff"/>
    </linearGradient>
    <linearGradient id="_횁책챌청챙첼챠챠청챕_찾챨횪채챔책챠챵_20" data-name="횁책챌청챙첼챠챠청챕 찾챨횪채챔책챠챵 20" x1="1256.29" y1="187.19" x2="1256.29" y2="134.52" gradientTransform="translate(1347.87) rotate(-180) scale(1 -1)" gradientUnits="userSpaceOnUse">
      <stop offset="0" stop-color="#ffd7da"/>
      <stop offset=".45" stop-color="#ffdfde"/>
      <stop offset="1" stop-color="#fff0e8"/>
    </linearGradient>
    <linearGradient id="_횁책챌청챙첼챠챠청챕_찾챨횪채챔책챠챵_57" data-name="횁책챌청챙첼챠챠청챕 찾챨횪채챔책챠챵 57" x1="1270.19" y1="154.65" x2="1270.19" y2="126.92" gradientTransform="translate(1347.87) rotate(-180) scale(1 -1)" gradientUnits="userSpaceOnUse">
      <stop offset="0" stop-color="#931a84"/>
      <stop offset="1" stop-color="#ae04b1"/>
    </linearGradient>
    <linearGradient id="_횁책챌청챙첼챠챠청챕_찾챨횪채챔책챠챵_88" data-name="횁책챌청챙첼챠챠청챕 찾챨횪채챔책챠챵 88" x1="1240.02" y1="170.03" x2="1271.14" y2="170.03" gradientTransform="translate(1347.87) rotate(-180) scale(1 -1)" gradientUnits="userSpaceOnUse">
      <stop offset="0" stop-color="#ff2483"/>
      <stop offset=".99" stop-color="#e522d9"/>
    </linearGradient>
    <linearGradient id="_횁책챌청챙첼챠챠청챕_찾챨횪채챔책챠챵_57-2" data-name="횁책챌청챙첼챠챠청챕 찾챨횪채챔책챠챵 57" x1="1127.89" y1="-92.28" x2="1127.89" y2="-109.03" gradientTransform="translate(1118.54 -323.5) rotate(150.03) scale(1 -1)" xlink:href="#_횁책챌청챙첼챠챠청챕_찾챨횪채챔책챠챵_57"/>
    <linearGradient id="_횁책챌청챙첼챠챠청챕_찾챨횪채챔책챠챵_89" data-name="횁책챌청챙첼챠챠청챕 찾챨횪채챔책챠챵 89" x1="1126.71" y1="-93.45" x2="1126.71" y2="-108.03" gradientTransform="translate(1118.54 -323.5) rotate(150.03) scale(1 -1)" gradientUnits="userSpaceOnUse">
      <stop offset="0" stop-color="#e522d9"/>
      <stop offset="1" stop-color="#ff2483"/>
    </linearGradient>
    <linearGradient id="_횁책챌청챙첼챠챠청챕_찾챨횪채챔책챠챵_13-2" data-name="횁책챌청챙첼챠챠청챕 찾챨횪채챔책챠챵 13" x1="1247.47" y1="129.48" x2="1247.47" y2="98.45" xlink:href="#_횁책챌청챙첼챠챠청챕_찾챨횪채챔책챠챵_13"/>
    <linearGradient id="_횁책챌청챙첼챠챠청챕_찾챨횪채챔책챠챵_81" data-name="횁책챌청챙첼챠챠청챕 찾챨횪채챔책챠챵 81" x1="1234.63" y1="129.49" x2="1234.63" y2="108.14" gradientTransform="translate(1347.87) rotate(-180) scale(1 -1)" gradientUnits="userSpaceOnUse">
      <stop offset="0" stop-color="#ff2443"/>
      <stop offset=".99" stop-color="#e522d9"/>
    </linearGradient>
    <linearGradient id="_횁책챌청챙첼챠챠청챕_찾챨횪채챔책챠챵_80-2" data-name="횁책챌청챙첼챠챠청챕 찾챨횪채챔책챠챵 80" x1="332.25" y1="190.3" x2="332.25" y2="178.61" gradientTransform="translate(-300.53)" xlink:href="#_횁책챌청챙첼챠챠청챕_찾챨횪채챔책챠챵_80"/>
    <linearGradient id="_횁책챌청챙첼챠챠청챕_찾챨횪채챔책챠챵_20-2" data-name="횁책챌청챙첼챠챠청챕 찾챨횪채챔책챠챵 20" x1="1311.5" y1="187.16" x2="1311.5" y2="134.52" xlink:href="#_횁책챌청챙첼챠챠청챕_찾챨횪채챔책챠챵_20"/>
    <linearGradient id="_횁책챌청챙첼챠챠청챕_찾챨횪채챔책챠챵_88-2" data-name="횁책챌청챙첼챠챠청챕 찾챨횪채챔책챠챵 88" x1="320.69" y1="170.31" x2="351.82" y2="170.31" gradientTransform="translate(-300.53)" xlink:href="#_횁책챌청챙첼챠챠청챕_찾챨횪채챔책챠챵_88"/>
    <linearGradient id="_횁책챌청챙첼챠챠청챕_찾챨횪채챔책챠챵_57-3" data-name="횁책챌청챙첼챠챠청챕 찾챨횪채챔책챠챵 57" x1="331.53" y1="366.98" x2="331.53" y2="350.23" gradientTransform="translate(-71.2 -323.5) rotate(29.97)" xlink:href="#_횁책챌청챙첼챠챠청챕_찾챨횪채챔책챠챵_57"/>
    <linearGradient id="_횁책챌청챙첼챠챠청챕_찾챨횪채챔책챠챵_89-2" data-name="횁책챌청챙첼챠챠청챕 찾챨횪채챔책챠챵 89" x1="330.39" y1="365.79" x2="330.39" y2="351.21" gradientTransform="translate(-71.2 -323.5) rotate(29.97)" xlink:href="#_횁책챌청챙첼챠챠청챕_찾챨횪채챔책챠챵_89"/>
    <linearGradient id="_횁책챌청챙첼챠챠청챕_찾챨횪채챔책챠챵_13-3" data-name="횁책챌청챙첼챠챠청챕 찾챨횪채챔책챠챵 13" x1="1320.9" y1="129.48" x2="1320.9" y2="98.45" xlink:href="#_횁책챌청챙첼챠챠청챕_찾챨횪채챔책챠챵_13"/>
    <linearGradient id="_횁책챌청챙첼챠챠청챕_찾챨횪채챔책챠챵_81-2" data-name="횁책챌청챙첼챠챠청챕 찾챨횪채챔책챠챵 81" x1="314.34" y1="129.49" x2="314.34" y2="108.17" gradientTransform="translate(-300.53)" xlink:href="#_횁책챌청챙첼챠챠청챕_찾챨횪채챔책챠챵_81"/>
    <linearGradient id="_횁책챌청챙첼챠챠청챕_찾챨횪채챔책챠챵_57-4" data-name="횁책챌청챙첼챠챠청챕 찾챨횪채챔책챠챵 57" x1="1298.97" y1="121.57" x2="1298.97" y2="95.52" xlink:href="#_횁책챌청챙첼챠챠청챕_찾챨횪채챔책챠챵_57"/>
    <linearGradient id="_횁책챌청챙첼챠챠청챕_찾챨횪채챔책챠챵_57-5" data-name="횁책챌청챙첼챠챠청챕 찾챨횪채챔책챠챵 57" x1="1268.42" y1="121.45" x2="1268.42" y2="95.52" xlink:href="#_횁책챌청챙첼챠챠청챕_찾챨횪채챔책챠챵_57"/>
    <linearGradient id="_횁책챌청챙첼챠챠청챕_찾챨횪채챔책챠챵_57-6" data-name="횁책챌청챙첼챠챠청챕 찾챨횪채챔책챠챵 57" x1="1297.52" x2="1297.52" y2="126.92" xlink:href="#_횁책챌청챙첼챠챠청챕_찾챨횪채챔책챠챵_57"/>
    <linearGradient id="_횁책챌청챙첼챠챠청챕_찾챨횪채챔책챠챵_80-3" data-name="횁책챌청챙첼챠챠청챕 찾챨횪채챔책챠챵 80" x1="1291.88" y1="120.56" x2="1291.88" y2="104.61" xlink:href="#_횁책챌청챙첼챠챠청챕_찾챨횪채챔책챠챵_80"/>
    <linearGradient id="_횁책챌청챙첼챠챠청챕_찾챨횪채챔책챠챵_13-4" data-name="횁책챌청챙첼챠챠청챕 찾챨횪채챔책챠챵 13" x1="1233.6" y1="72.64" x2="1233.6" y2="0" xlink:href="#_횁책챌청챙첼챠챠청챕_찾챨횪채챔책챠챵_13"/>
    <linearGradient id="_횁책챌청챙첼챠챠청챕_찾챨횪채챔책챠챵_13-5" data-name="횁책챌청챙첼챠챠청챕 찾챨횪채챔책챠챵 13" x1="1260.79" y1="100.84" x2="1260.79" y2="10.77" xlink:href="#_횁책챌청챙첼챠챠청챕_찾챨횪채챔책챠챵_13"/>
    <linearGradient id="_횁책챌청챙첼챠챠청챕_찾챨횪채챔책챠챵_13-6" data-name="횁책챌청챙첼챠챠청챕 찾챨횪채챔책챠챵 13" x1="1308.68" y1="100.84" x2="1308.68" y2="10.77" xlink:href="#_횁책챌청챙첼챠챠청챕_찾챨횪채챔책챠챵_13"/>
    <radialGradient id="_횁책챌청챙첼챠챠청챕_찾챨횪채챔책챠챵_128" data-name="횁책챌청챙첼챠챠청챕 찾챨횪채챔책챠챵 128" cx="1286.97" cy="89.5" fx="1286.97" fy="89.5" r="63.95" gradientTransform="translate(1347.87) rotate(-180) scale(1 -1)" gradientUnits="userSpaceOnUse">
      <stop offset="0" stop-color="#dc16b1"/>
      <stop offset=".41" stop-color="#9517a9"/>
      <stop offset=".51" stop-color="#8517a0"/>
      <stop offset=".69" stop-color="#6d1992"/>
      <stop offset=".86" stop-color="#5e198a"/>
      <stop offset="1" stop-color="#5a1a88"/>
    </radialGradient>
    <clipPath id="clippath">
      <path class="cls-82" d="M21.34,37.7c3.07-6.54,14.65-9.63,24.63-6.26,9.98,3.37,17.16,2.41,17.16,2.41,0,0,7.19.96,17.16-2.41,9.98-3.37,21.56-.28,24.63,6.26,2.77,5.89,2.59,17.56-.36,27.84,0,0,0,.02,0,.03-2.27,7.9-6.16,14.98-11.62,17.98-12.56,6.93-29.79,6.4-29.79,6.4,0,0-17.24.52-29.79-6.4-6.77-3.73-11.14-13.72-12.98-23.77,0,0,0-.03,0-.07-1.56-8.59-1.26-17.21.99-22Z"/>
    </clipPath>
    <linearGradient id="_횁책챌청챙첼챠챠청챕_찾챨횪채챔책챠챵_71" data-name="횁책챌청챙첼챠챠청챕 찾챨횪채챔책챠챵 71" x1="1284.77" y1="50.88" x2="1284.77" y2="26.4" gradientTransform="translate(1347.87) rotate(-180) scale(1 -1)" gradientUnits="userSpaceOnUse">
      <stop offset="0" stop-color="#fff"/>
      <stop offset="1" stop-color="#d91a81"/>
    </linearGradient>
    <linearGradient id="_횁책챌청챙첼챠챠청챕_찾챨횪채챔책챠챵_13-7" data-name="횁책챌청챙첼챠챠청챕 찾챨횪채챔책챠챵 13" x1="1285.11" y1="42.84" x2="1285.11" y2="15.29" xlink:href="#_횁책챌청챙첼챠챠청챕_찾챨횪채챔책챠챵_13"/>
    <linearGradient id="_횁책챌청챙첼챠챠청챕_찾챨횪채챔책챠챵_107" data-name="횁책챌청챙첼챠챠청챕 찾챨횪채챔책챠챵 107" x1="1282.43" y1="42.66" x2="1285.87" y2="23.48" gradientTransform="translate(1347.87) rotate(-180) scale(1 -1)" gradientUnits="userSpaceOnUse">
      <stop offset="0" stop-color="#d91a81"/>
      <stop offset="1" stop-color="#fff"/>
    </linearGradient>
    <radialGradient id="radial-gradient" cx="1373.02" cy="257.37" fx="1373.02" fy="257.37" r="31.95" gradientTransform="translate(341.4 1229.75) rotate(-90) scale(.85 -1)" gradientUnits="userSpaceOnUse">
      <stop offset=".02" stop-color="#f200a5"/>
      <stop offset=".17" stop-color="#bf0082"/>
      <stop offset=".4" stop-color="#7c0054"/>
      <stop offset=".6" stop-color="#460030"/>
      <stop offset=".77" stop-color="#200016"/>
      <stop offset=".91" stop-color="#080005"/>
      <stop offset="1" stop-color="#000"/>
    </radialGradient>
    <radialGradient id="radial-gradient-2" cx="1373.02" cy="257.37" fx="1373.02" fy="257.37" r="24.76" gradientTransform="translate(1266.2 -82.52) rotate(-174.7) scale(.85 -1)" gradientUnits="userSpaceOnUse">
      <stop offset=".02" stop-color="#ce00f2"/>
      <stop offset=".17" stop-color="#a300bf"/>
      <stop offset=".4" stop-color="#69007c"/>
      <stop offset=".6" stop-color="#3c0046"/>
      <stop offset=".77" stop-color="#1b0020"/>
      <stop offset=".91" stop-color="#070008"/>
      <stop offset="1" stop-color="#000"/>
    </radialGradient>
    <radialGradient id="radial-gradient-3" cx="964.86" cy="225.31" fx="964.86" fy="225.31" r="31.95" gradientTransform="translate(-776.06 -158.94) scale(.85 1)" xlink:href="#radial-gradient"/>
    <radialGradient id="radial-gradient-4" cx="964.86" cy="225.31" fx="964.86" fy="225.31" gradientTransform="translate(-793.37 -82.52) rotate(-5.3) scale(.85 1)" xlink:href="#radial-gradient-2"/>
  </defs>
  <g class="cls-111">
    <g id="Calque_2" data-name="Calque 2">
      <g id="Layer_3" data-name="Layer 3">
        <g>
          <g>
            <path class="cls-162" d="M118.2,10.77s5.22,7.42,4.72,27.29c-.5,19.87-13.44,33.74-14.18,34.58s-2.99,7.53-7.47,13.52c-4.48,5.98-18.56,9.73-18.49,10.66.07.93,3.35,3.17,3.35,3.17,0,0,12.09,8.43,15.45,8.74,3.36.31,3.96-.96,7.28-.72,3.31.25,11.45-1.18,13.13-.93s2.17,3.63.68,5.31c-1.13,1.29-2.6,1.66-2.6,1.66,0,0,6.43,3.69,6.8,10.01.32,5.42-4.5,3.68-10.23,4.3-5.73.62-33.04-8.72-33.04-8.72,0,0,1.17,5.42,1.81,6.17.64.75,4.54.87,5.85,5.82,1.31,4.95.32,8.37.32,8.37,0,0,11.94,20.87,16.79,26.08,4.85,5.21,8.71,11.39,9.7,16.01,1,4.62-3.37,7.4-3.37,7.4l-19.94-3.85-31.62-68.26,5.44-40.11,36.52-9.36s14.29,9.36,13.1-57.13Z"/>
            <g>
              <path class="cls-128" d="M114.7,186.13c.42.81.67,3.01,0,3.34-.67.34-11.21,1.69-18.11,0-6.91-1.69-8.59-3.71-12.72-4.47-4.13-.76-5.67-2.02-6.2-2.27-.54-.25.19-4.13.19-4.13l36.85,7.53Z"/>
              <path class="cls-73" d="M73.4,97.44c1.44.45,5.01,16.26,8.71,24.43,3.71,8.17,4.02,10.73,4.02,14.52s-12.22,14.24-21.65,14.24-21.57-12.47-21.91-16.51c-.34-4.04,3.59-10.11,7.08-19.88,3.48-9.77,4.38-15.39,5.95-16.8,1.57-1.4,17.8,0,17.8,0Z"/>
              <path class="cls-89" d="M68.58,150.06c2.53,1.97,6.24,13.36,7.23,18.84,2.15,11.96,1.66,10.51,6.5,11.7,6.52,1.59,7.44,2.77,12.45,5.04,7.18,2.53,19.62,1.42,19.82.67.2-9.71-16.6-31.16-24.29-44.7h0c-2.15-3.45-3.73-6.03-4.14-6.8-1.43-2.69-17.56,15.27-17.56,15.27Z"/>
              <path class="cls-9" d="M68.58,150.06c1.97.91,5.24,11.69,6.6,15.96.25.78.66,2.88.79,3.77-.32-2.85.23-14.77,3.48-22.52,3.67-8.73,10.51-5.82,10.82-5.67-2.15-3.45-3.73-6.03-4.14-6.8-1.43-2.69-17.56,15.27-17.56,15.27Z"/>
              <path class="cls-120" d="M65.08,150.62c.27,1.16,6.29,4.03,6.29,4.03l-.39-1.45c3.25-12.25,14.84-16.04,16.09-15.71,1.25.34,2.03,2.21,2.03,2.21,1.29-2.81,1.45-5.75.79-8.09h0c-.05-.2-.11-.38-.18-.57,0,0,0-.03,0-.04-1.33-3.73-4.81-5.66-8.94-2.5-2.53,1.95-5.4,5.34-7.98,8.91l-.02.03s-.02.04-.04.06c-4.31,5.98-7.81,12.39-7.65,13.12Z"/>
              <path class="cls-161" d="M76.73,174s16.97-12.49,30.08-6.14l1.03,1.64s-12.35-5.27-31.12,4.5Z"/>
              <path class="cls-149" d="M97.03,159c4.73-4.62-3.08-13.05-7.1-13.93-4.03-.88-6.72,3.85-4.08,10.24,2.64,6.4,9.66,5.18,11.19,3.68Z"/>
              <path class="cls-97" d="M97.94,155.34c.4-3.47-4.13-10.09-8.29-9.76-4.16.33-3.26,5.58-1.66,8.59,2.55,4.8,9.34,6.38,9.95,1.17Z"/>
              <path class="cls-103" d="M75.05,112.04c2.17,6.16,10.93,9.13,19.64,11.48.11.03.21.05.32.09.01,0,.01,0,.01,0h.01s0,0,.02,0c1.58.43,3.15.89,4.7,1.34,6.88,2.04,13.33,4.18,17.85,4.46,5.64.36,9.64-.97,9.06-5.43-.57-4.46-5.57-7.59-6.61-8.72-1.05-1.13-1.23-1.24-1.23-1.24l.47-.31c3.94-.82,4.18-5.17,2.95-5.48-1.22-.3-3.24.06-5.57.52-2.32.46-3.59.65-6.27.24-2.67-.41-5.97.2-6.96.61-.12.05-.35.07-.67.04-2.16-.14-8.47-1.96-12.73-4.2-4.87-2.56-11.95-7.18-14.99-7.03,0,0-2.18,7.43,0,13.59Z"/>
              <path class="cls-91" d="M99.75,124.97c6.88,2.04,13.33,4.18,17.85,4.47,5.63.36,9.64-.97,9.06-5.44-.58-4.46-5.58-7.58-6.62-8.71-1.05-1.13-1.22-1.23-1.22-1.23l.47-.31c4.16-1.01,4.17-5.17,2.95-5.48-1.22-.31-3.24.05-5.57.52-2.32.46-3.59.66-6.27.24-2.66-.41-5.97.2-6.96.62-.12.05-.35.06-.67.04,0,0-.04,9.74-3.02,15.29Z"/>
              <path class="cls-100" d="M13.31,186.13c-.42.81-.67,3.01,0,3.34.67.34,11.21,1.69,18.11,0,6.91-1.69,8.59-3.71,12.72-4.47,4.13-.76,5.67-2.02,6.2-2.27.54-.25-.19-4.13-.19-4.13l-36.85,7.53Z"/>
              <path class="cls-24" d="M13.31,186.13c-.12,1.77,20.63,1.51,24.58-2.88,1.74-1.46,8.69-1.64,11.7-3.91,1.65-.74,1.54-6.19,3-11.73h0c1.06-4.23,4.76-16.48,6.84-17.56,0,.03-14.72-16.42-17.3-15.5-7.29,12.79-27.43,39.65-28.82,51.58Z"/>
              <path class="cls-29" d="M51.29,174.51s-16.98-13-30.09-6.64l-1.03,1.64s12.36-4.76,31.13,5Z"/>
              <path class="cls-9" d="M37.75,141.57s6.51-1.81,10.13,9.07c3.63,10.87,4.71,17.62,4.71,17.62l.54-2.65c.08-.36,4.33-14.63,6.3-15.54,0,0-16.13-17.96-17.56-15.27-.41.77-1.97,3.34-4.12,6.78Z"/>
              <path class="cls-26" d="M30.97,159c-4.73-4.62,3.08-13.05,7.1-13.93,4.03-.88,6.72,3.85,4.08,10.24-2.64,6.4-9.66,5.18-11.19,3.68Z"/>
              <path class="cls-144" d="M30.1,155.34c-.4-3.47,4.13-10.09,8.29-9.76,4.16.33,3.26,5.58,1.66,8.59-2.55,4.8-9.34,6.38-9.95,1.17Z"/>
              <path class="cls-132" d="M.01,124.5v.02c-.21,4.05,3.79,5.26,9.33,4.91,4.63-.28,11.24-2.43,18.29-4.46,1.71-.49,3.44-.99,5.19-1.44.89-.23,1.77-.47,2.66-.73.02,0,.04,0,.05,0h.01c7.96-2.25,15.4-5.21,17.4-10.74,2.23-6.15,0-13.59,0-13.59-3.11-.15-10.37,4.46-15.36,7.03-4.37,2.24-10.82,4.06-13.05,4.2-.33.03-.57,0-.68-.04-1.02-.41-4.41-1.02-7.14-.61-2.73.41-2.99.53-5.38.07-2.38-.46-5.47-1.14-6.73-.84-1.25.31-.65,4.54,3.01,5.49l.47.31s-.18.11-1.25,1.24c-1.07,1.13-6.19,4.25-6.78,8.72-.02.18-.04.35-.04.51Z"/>
              <path class="cls-42" d="M27.63,124.97c-7.05,2.04-13.66,4.18-18.29,4.47-5.77.36-9.87-.97-9.28-5.44.59-4.46,5.71-7.58,6.78-8.71,1.07-1.13,1.25-1.23,1.25-1.23l-.48-.31c-3.65-.86-4.25-5.18-3-5.49,1.25-.31,4.34.38,6.72.84s2.65.35,5.39-.07c2.73-.41,6.12.2,7.13.62.12.05.36.06.69.04,0,0,.04,9.74,3.1,15.29Z"/>
              <path class="cls-131" d="M44.71,117.03h0s.02.06.02.06c.94,2.49,1.89,4.25,2,4.46v.02s1.2-2.84,1.2-2.84c1.76-6.29,7.16-20.64,7.16-20.64,0,0-.47-2.39-2.49-2.56-1.78-.15-5.98.7-8.48,5.91-.35.7-.65,1.48-.92,2.34-1.3,4.23.09,9.53,1.49,13.24Z"/>
              <path class="cls-43" d="M73.34,98.1s5.41,14.35,7.16,20.64l1.42,2.71s.81-1.68,1.8-4.32c1.32-3.48,2.56-8.4,1.28-12.55-.62-2.04-1.46-3.66-2.38-4.92-2.37-3.29-5.34-4.25-6.79-4.13-2.02.17-2.49,2.56-2.49,2.56Z"/>
              <path class="cls-198" d="M38.92,139.71s.77-1.88,2.02-2.21c1.25-.34,12.84,3.45,16.09,15.71l-.27,1.45s5.91-2.87,6.17-4.03c.15-.66-2.73-6.03-6.51-11.5h0v-.02c-2.86-4.14-6.23-8.35-9.18-10.6-4.51-3.45-8.25-.82-9.24,3.6h0c-.51,2.27-.28,4.99.92,7.6Z"/>
              <path class="cls-17" d="M53.01,119.81c-2.05-1.67-2.52-5.6-1.79-8.42,1.01-3.92,3.24-6.57,5.7-6.76,1.51-.12,2.8.77,3.53,2.45h0c1.01,2.34,1.43,10.67-3.34,12.99-.75.36-1.42.51-1.99.51-.92,0-1.62-.37-2.1-.76ZM59.54,107.46c-.56-1.29-1.46-1.95-2.55-1.86-1.66.13-3.8,2.05-4.82,6.03-.71,2.79-.04,6.18,1.46,7.42.82.67,1.84.71,3.04.13,4.16-2.01,3.76-9.65,2.87-11.71h0Z"/>
              <path class="cls-6" d="M76.08,105.55c.87,2.44-5.4,9.91-14.74,10.26-9.35.36-8.73-8.19-8.73-10.95s2.49-6.77,2.49-6.77c0,0,3.16,1.32,8.04.81,4.89-.51,10.27-1.46,10.27-1.46l2.68,8.1Z"/>
              <path class="cls-10" d="M44.71,117.04l.02.05,2,4.46v.02s1.2-2.84,1.2-2.84c1.76-6.29,7.16-20.64,7.16-20.64,0,0-.47-2.39-2.49-2.56-1.78-.15-5.98.7-8.48,5.91,4.52-4.4,6.62-1.93,6.79,0,.17,1.92-2.41,15.23-3.39,16.33-.94,1.04-2.64-.58-2.81-.74Z"/>
              <path class="cls-10" d="M73.34,98.1s5.41,14.35,7.39,20.51l1.19,2.84s.81-1.68,1.8-4.32v-.02s-.94,2.28-1.64,1.81c-.7-.48-3.63-7.63-4.89-13.86-1.26-6.23.8-8.84,5.42-5.39-2.37-3.29-5.34-4.25-6.79-4.13-2.02.17-2.49,2.56-2.49,2.56Z"/>
              <path class="cls-201" d="M106.89,72.64s4.68-3.73,7.13-9.1c1.68-3.66,3.79-8.8,5.36-14.98,0-.04.02-.05.02-.05,2-7.85,3.12-17.39,1.36-27.68C117.61,2.45,110.29-1.01,109.97.22c-.08.32.85,4.24,2.02,10v.02c3.28,16.28,8.29,47.2-3.24,52.61l-1.86,9.79Z"/>
              <path class="cls-199" d="M63.13,10.77v90.07s5.56-.08,7.08-2.28c.88-1.28,22.41-4.22,30.66-13.65,1.14-1.3,2.21-3.01,3.19-5.04,0,0,0,0,0,0h0c6.22-12.74,9.25-37.76,4.89-48.37-5.06-12.3-25.95-19.21-45.84-20.73Z"/>
              <path class="cls-70" d="M22.2,79.88c.99,2.03,2.06,3.74,3.19,5.03,8.25,9.44,29.78,12.37,30.66,13.65,1.52,2.2,7.08,2.28,7.08,2.28V10.77c-19.89,1.52-40.78,8.43-45.84,20.73-4.36,10.61-1.33,35.65,4.9,48.38Z"/>
              <path class="cls-138" d="M21.34,37.7c3.07-6.54,14.65-9.63,24.63-6.26,9.98,3.37,17.16,2.41,17.16,2.41,0,0,7.19.96,17.16-2.41,9.98-3.37,21.56-.28,24.63,6.26,2.77,5.89,2.59,17.56-.36,27.84,0,0,0,.02,0,.03-2.27,7.9-6.16,14.98-11.62,17.98-12.56,6.93-29.79,6.4-29.79,6.4,0,0-17.24.52-29.79-6.4-6.77-3.73-11.14-13.72-12.98-23.77,0,0,0-.03,0-.07-1.56-8.59-1.26-17.21.99-22Z"/>
              <g class="cls-54">
                <g class="cls-195">
                  <rect class="cls-203" x="18.8" y="28.07" width="88.89" height="62.4"/>
                  <path class="cls-203" d="M109.82,70.98c-.42-22.09-21.85-39.6-47.87-39.11-26.02.49-46.77,18.8-46.36,40.89.1,5.52,1.52,10.76,4,15.5,1.24,2.37,2.74,4.62,4.47,6.71v-3.5h78.13v2.03c1.65-2.16,3.07-4.46,4.22-6.88,2.29-4.83,3.51-10.12,3.41-15.64Z"/>
                  <path class="cls-194" d="M109.64,70.97c-.42-22.01-21.76-39.45-47.68-38.96-25.92.49-46.59,18.72-46.17,40.73.1,5.5,1.52,10.72,3.98,15.44,1.23,2.36,2.73,4.6,4.45,6.69v-3.39h77.82v1.93c1.65-2.15,3.06-4.44,4.2-6.85,2.28-4.81,3.5-10.08,3.4-15.58Z"/>
                  <path class="cls-90" d="M109.45,70.96c-.41-21.92-21.68-39.29-47.49-38.81-25.81.49-46.41,18.65-45.99,40.57.1,5.48,1.51,10.68,3.96,15.38,1.23,2.35,2.72,4.58,4.44,6.66v-3.29h77.52v1.82c1.64-2.14,3.04-4.43,4.18-6.82,2.28-4.79,3.49-10.04,3.38-15.52Z"/>
                  <path class="cls-164" d="M109.27,70.94c-.41-21.83-21.59-39.14-47.3-38.65-25.71.49-46.22,18.58-45.81,40.41.1,5.46,1.5,10.63,3.95,15.32,1.22,2.34,2.71,4.56,4.42,6.63v-3.18h77.21v1.72c1.63-2.13,3.03-4.41,4.17-6.8,2.27-4.77,3.47-10,3.37-15.46Z"/>
                  <path class="cls-64" d="M109.09,70.93c-.41-21.75-21.5-38.98-47.11-38.5-25.61.48-46.04,18.5-45.63,40.25.1,5.44,1.5,10.59,3.93,15.26,1.22,2.33,2.7,4.54,4.4,6.61v-3.07h76.9v1.62c1.63-2.13,3.02-4.39,4.15-6.77,2.26-4.76,3.46-9.96,3.35-15.4Z"/>
                  <path class="cls-46" d="M108.9,70.92c-.41-21.66-21.42-38.83-46.93-38.35-25.51.48-45.86,18.43-45.45,40.09.1,5.41,1.49,10.55,3.92,15.2,1.21,2.32,2.68,4.53,4.38,6.58v-2.96h76.6v1.52c1.62-2.12,3.01-4.37,4.13-6.74,2.25-4.74,3.44-9.92,3.34-15.33Z"/>
                  <path class="cls-86" d="M108.72,70.9c-.41-21.57-21.33-38.67-46.74-38.19-25.41.48-45.67,18.36-45.27,39.93.1,5.39,1.49,10.51,3.9,15.14,1.21,2.31,2.67,4.51,4.37,6.56v-2.86h76.29v1.42c1.61-2.11,3-4.36,4.12-6.72,2.24-4.72,3.43-9.88,3.33-15.27Z"/>
                  <path class="cls-106" d="M108.53,70.89c-.41-21.49-21.25-38.52-46.55-38.04-25.3.48-45.49,18.28-45.08,39.77.1,5.37,1.48,10.46,3.89,15.08,1.2,2.31,2.66,4.49,4.35,6.53v-2.75h75.99v1.31c1.61-2.1,2.98-4.34,4.1-6.69,2.23-4.7,3.42-9.84,3.31-15.21Z"/>
                  <path class="cls-204" d="M108.35,70.88c-.4-21.4-21.16-38.36-46.36-37.89-25.2.48-45.31,18.21-44.9,39.61.1,5.35,1.47,10.42,3.87,15.01,1.2,2.3,2.65,4.47,4.33,6.5v-2.64h75.68v1.21c1.6-2.09,2.97-4.32,4.08-6.66,2.22-4.68,3.4-9.8,3.3-15.15Z"/>
                  <path class="cls-81" d="M108.17,70.86c-.4-21.31-21.08-38.21-46.18-37.73-25.1.47-45.12,18.14-44.72,39.45.1,5.33,1.47,10.38,3.86,14.95,1.19,2.29,2.64,4.45,4.31,6.48v-2.53h69.93v6.93c8.09-7.14,13-16.88,12.8-27.54Z"/>
                  <path class="cls-45" d="M107.98,70.85c-.4-21.23-20.99-38.05-45.99-37.58-25,.47-44.94,18.06-44.54,39.29.1,5.31,1.46,10.34,3.84,14.89,1.19,2.28,2.63,4.44,4.3,6.45v-2.42h69.65v6.8c8.06-7.11,12.94-16.81,12.74-27.43Z"/>
                  <path class="cls-147" d="M107.8,70.83c-.4-21.14-20.9-37.9-45.8-37.43-24.9.47-44.76,17.99-44.36,39.13.1,5.29,1.46,10.3,3.82,14.83,1.18,2.27,2.62,4.42,4.28,6.42v-2.32h69.36v6.67c8.03-7.08,12.89-16.75,12.69-27.31Z"/>
                  <path class="cls-156" d="M107.62,70.82c-.4-21.05-20.82-37.74-45.61-37.27-24.79.47-44.57,17.91-44.17,38.97.1,5.26,1.45,10.25,3.81,14.77,1.18,2.26,2.61,4.4,4.26,6.4v-2.21h69.08v6.55c7.99-7.05,12.84-16.68,12.64-27.2Z"/>
                  <path class="cls-39" d="M107.43,70.81c-.4-20.97-20.73-37.59-45.43-37.12s-44.39,17.84-43.99,38.81c.1,5.24,1.44,10.21,3.79,14.71,1.17,2.25,2.6,4.38,4.24,6.37v-2.1h68.79v6.42c7.96-7.02,12.79-16.61,12.59-27.09Z"/>
                  <path class="cls-32" d="M107.25,70.79c-.39-20.88-20.65-37.43-45.24-36.97-24.59.46-44.21,17.77-43.81,38.65.1,5.22,1.44,10.17,3.78,14.65,1.17,2.24,2.59,4.36,4.23,6.34v-1.99h68.51v6.3c7.93-6.99,12.73-16.54,12.54-26.98Z"/>
                  <path class="cls-31" d="M107.06,70.78c-.39-20.79-20.56-37.27-45.05-36.81-24.49.46-44.02,17.69-43.63,38.49.1,5.2,1.43,10.13,3.76,14.59,1.16,2.23,2.58,4.35,4.21,6.32v-1.89h68.23v6.17c7.9-6.96,12.68-16.47,12.48-26.87Z"/>
                  <path class="cls-76" d="M106.88,70.77c-.39-20.71-20.48-37.12-44.86-36.66-24.39.46-43.84,17.62-43.45,38.33.1,5.18,1.43,10.08,3.75,14.53,1.16,2.22,2.57,4.33,4.19,6.29v-1.78h67.94v6.05c7.86-6.94,12.63-16.4,12.43-26.76Z"/>
                  <path class="cls-129" d="M106.7,70.75c-.39-20.62-20.39-36.96-44.67-36.51-24.28.46-43.65,17.55-43.27,38.17.1,5.15,1.42,10.04,3.73,14.47,1.15,2.21,2.56,4.31,4.17,6.27v-1.67h67.66v5.92c7.83-6.91,12.57-16.33,12.38-26.64Z"/>
                  <path class="cls-121" d="M106.51,70.74c-.39-20.53-20.3-36.81-44.49-36.35-24.18.46-43.47,17.47-43.08,38,.19,10.27,5.27,19.47,13.32,26.05v-6.96h61.92v5.8c7.8-6.88,12.52-16.26,12.33-26.53Z"/>
                  <path class="cls-63" d="M106.33,70.73c-.39-20.45-20.22-36.65-44.3-36.2-24.08.45-43.29,17.4-42.9,37.84.19,10.22,5.25,19.39,13.26,25.94v-6.83h61.66v5.67c7.76-6.85,12.47-16.2,12.28-26.42Z"/>
                  <path class="cls-134" d="M106.14,70.71c-.38-20.36-20.13-36.5-44.11-36.05-23.98.45-43.1,17.32-42.72,37.68.19,10.18,5.23,19.3,13.21,25.83v-6.7h61.4v5.54c7.73-6.82,12.42-16.13,12.22-26.31Z"/>
                  <path class="cls-160" d="M105.96,70.7c-.38-20.27-20.05-36.34-43.92-35.89-23.88.45-42.92,17.25-42.54,37.52.19,10.14,5.2,19.22,13.15,25.72v-6.57h61.14v5.42c7.7-6.79,12.36-16.06,12.17-26.2Z"/>
                  <path class="cls-23" d="M105.78,70.69c-.38-20.19-19.96-36.19-43.74-35.74-23.77.45-42.74,17.18-42.36,37.36.19,10.09,5.18,19.14,13.1,25.61v-6.44h60.88v5.29c7.67-6.76,12.31-15.99,12.12-26.08Z"/>
                  <path class="cls-65" d="M105.59,70.67c-.38-20.1-19.88-36.03-43.55-35.59-23.67.45-42.55,17.1-42.18,37.2.19,10.05,5.16,19.06,13.04,25.5v-6.31h60.62v5.17c7.63-6.73,12.26-15.92,12.07-25.97Z"/>
                  <path class="cls-180" d="M105.41,70.66c-.38-20.01-19.79-35.88-43.36-35.43-23.57.44-42.37,17.03-41.99,37.04.19,10.01,5.14,18.98,12.98,25.39v-6.18h60.35v5.04c7.6-6.7,12.21-15.85,12.02-25.86Z"/>
                  <path class="cls-168" d="M105.22,70.64c-.38-19.93-19.71-35.72-43.17-35.28-23.47.44-42.19,16.96-41.81,36.88.19,9.96,5.11,18.89,12.93,25.28v-6.05h60.09v4.92c7.57-6.67,12.15-15.78,11.96-25.75Z"/>
                  <path class="cls-98" d="M105.04,70.63c-.37-19.84-19.62-35.57-42.99-35.13-23.37.44-42,16.88-41.63,36.72.19,9.92,5.09,18.81,12.87,25.17v-5.92h59.83v4.79c7.53-6.65,12.1-15.72,11.91-25.64Z"/>
                  <path class="cls-124" d="M104.86,70.62c-.37-19.75-19.53-35.41-42.8-34.97-23.26.44-41.82,16.81-41.45,36.56.19,9.88,5.07,18.73,12.81,25.06v-5.79h59.57v4.67c7.5-6.62,12.05-15.65,11.86-25.52Z"/>
                  <path class="cls-139" d="M104.67,70.6c-.37-19.67-19.45-35.26-42.61-34.82-23.16.44-41.64,16.73-41.27,36.4.19,9.83,5.05,18.65,12.76,24.95v-5.66h59.31v4.54c7.47-6.59,11.99-15.58,11.81-25.41Z"/>
                  <path class="cls-96" d="M104.49,70.59c-.37-19.58-19.36-35.1-42.42-34.67-23.06.44-41.45,16.66-41.08,36.24.18,9.79,5.03,18.57,12.7,24.84v-5.53h59.05v4.42c7.43-6.56,11.94-15.51,11.76-25.3Z"/>
                  <path class="cls-69" d="M104.3,70.58c-.37-19.49-19.28-34.95-42.23-34.51-22.96.43-41.27,16.59-40.9,36.08.18,9.75,5,18.48,12.65,24.73v-5.4h58.79v4.29c7.4-6.53,11.89-15.44,11.7-25.19Z"/>
                  <path class="cls-74" d="M104.12,70.56c-.37-19.41-19.19-34.79-42.05-34.36-22.86.43-41.09,16.51-40.72,35.92.18,9.7,4.98,18.4,12.59,24.62v-5.27h58.53v4.16c7.37-6.5,11.84-15.37,11.65-25.08Z"/>
                  <path class="cls-200" d="M103.94,70.55c-.36-19.32-19.11-34.63-41.86-34.21-22.75.43-40.9,16.44-40.54,35.76.18,9.66,4.96,18.32,12.53,24.51v-5.14h58.26v4.04c7.34-6.47,11.78-15.3,11.6-24.96Z"/>
                  <path class="cls-88" d="M103.75,70.54c-.36-19.23-19.02-34.48-41.67-34.05-22.65.43-40.72,16.37-40.36,35.6.18,9.62,4.94,18.24,12.48,24.4v-5.01h58v3.91c7.3-6.44,11.73-15.24,11.55-24.85Z"/>
                  <path class="cls-25" d="M103.57,70.52c-.36-19.15-18.93-34.32-41.48-33.9-22.55.43-40.54,16.29-40.18,35.44.18,9.57,4.91,18.15,12.42,24.29v-4.88h57.74v3.79c7.27-6.41,11.68-15.17,11.5-24.74Z"/>
                  <path class="cls-112" d="M103.38,70.51c-.36-19.06-18.85-34.17-41.3-33.75-22.45.42-40.35,16.22-39.99,35.28.18,9.53,4.89,18.07,12.36,24.18v-4.75h57.48v3.66c7.24-6.38,11.62-15.1,11.44-24.63Z"/>
                  <path class="cls-104" d="M103.2,70.49c-.36-18.97-18.76-34.01-41.11-33.59-22.35.42-40.17,16.14-39.81,35.12.18,9.49,4.87,17.99,12.31,24.07v-4.62h57.22v3.54c7.2-6.36,11.57-15.03,11.39-24.52Z"/>
                  <path class="cls-47" d="M103.02,70.48c-.36-18.89-18.68-33.86-40.92-33.44-22.24.42-39.99,16.07-39.63,34.96.18,9.44,4.85,17.91,12.25,23.96v-4.49h56.96v3.41c7.17-6.33,11.52-14.96,11.34-24.4Z"/>
                  <path class="cls-202" d="M102.83,70.47c-.35-18.8-18.59-33.7-40.73-33.28s-39.8,16-39.45,34.8c.18,9.4,4.83,17.83,12.2,23.85v-4.35h56.7v3.29c7.14-6.3,11.47-14.89,11.29-24.29Z"/>
                  <path class="cls-110" d="M102.65,70.45c-.35-18.71-18.51-33.55-40.55-33.13-22.04.42-39.62,15.92-39.27,34.64.18,9.36,4.8,17.74,12.14,23.74v-4.22h56.44v3.16c7.11-6.27,11.41-14.82,11.24-24.18Z"/>
                  <path class="cls-18" d="M102.47,70.44c-.35-18.63-18.42-33.39-40.36-32.98-21.94.41-39.44,15.85-39.08,34.48.18,9.31,4.78,17.66,12.08,23.63v-4.09h56.17v3.03c7.07-6.24,11.36-14.75,11.18-24.07Z"/>
                  <path class="cls-126" d="M102.28,70.43c-.35-18.54-18.33-33.24-40.17-32.82-21.84.41-39.25,15.78-38.9,34.32.18,9.27,4.76,17.58,12.03,23.52v-3.96h55.91v2.91c7.04-6.21,11.31-14.69,11.13-23.96Z"/>
                  <path class="cls-206" d="M102.1,70.41c-.35-18.45-18.25-33.08-39.98-32.67-21.73.41-39.07,15.7-38.72,34.16.17,9.23,4.74,17.5,11.97,23.41v-3.83h55.65v2.78c7.01-6.18,11.25-14.62,11.08-23.84Z"/>
                  <path class="cls-154" d="M101.91,70.4c-.35-18.37-18.16-32.93-39.79-32.52-21.63.41-38.89,15.63-38.54,34,.17,9.18,4.71,17.42,11.92,23.3v-3.7h55.39v2.66c6.97-6.15,11.2-14.55,11.03-23.73Z"/>
                  <path class="cls-35" d="M101.73,70.39c-.34-18.28-18.08-32.77-39.61-32.36-21.53.41-38.7,15.56-38.36,33.84.17,9.14,4.69,17.33,11.86,23.19v-3.57h55.13v2.53c6.94-6.12,11.15-14.48,10.98-23.62Z"/>
                  <path class="cls-41" d="M101.55,70.37c-.34-18.19-17.99-32.62-39.42-32.21-21.43.4-38.52,15.48-38.18,33.68.17,9.1,4.67,17.25,11.8,23.08v-3.44h54.87v2.41c6.91-6.09,11.1-14.41,10.92-23.51Z"/>
                  <path class="cls-140" d="M101.36,70.36c-.34-18.11-17.91-32.46-39.23-32.06s-38.34,15.41-37.99,33.51c.17,9.05,4.65,17.17,11.75,22.97v-3.31h54.61v2.28c6.88-6.06,11.04-14.34,10.87-23.4Z"/>
                  <path class="cls-188" d="M101.18,70.35c-.34-18.02-17.82-32.3-39.04-31.9-21.22.4-38.15,15.33-37.81,33.35.17,9.01,4.63,17.09,11.69,22.86v-3.18h54.35v2.16c6.84-6.04,10.99-14.27,10.82-23.28Z"/>
                  <path class="cls-193" d="M100.99,70.33c-.34-17.93-17.73-32.15-38.86-31.75s-37.97,15.26-37.63,33.19c.17,8.97,4.6,17,11.63,22.75v-3.05h54.08v2.03c6.81-6.01,10.94-14.21,10.77-23.17Z"/>
                  <path class="cls-117" d="M100.81,70.32c-.34-17.85-17.65-31.99-38.67-31.6s-37.79,15.19-37.45,33.03c.17,8.92,4.58,16.92,11.58,22.64v-2.92h53.82v1.9c6.78-5.98,10.88-14.14,10.72-23.06Z"/>
                  <path class="cls-83" d="M100.63,70.3c-.34-17.76-17.56-31.84-38.48-31.44-20.92.39-37.6,15.11-37.27,32.87.17,8.88,4.56,16.84,11.52,22.53v-2.79h53.56v1.78c6.74-5.95,10.83-14.07,10.66-22.95Z"/>
                  <path class="cls-22" d="M100.44,70.29c-.33-17.67-17.48-31.68-38.29-31.29-20.82.39-37.42,15.04-37.09,32.71.17,8.84,4.54,16.76,11.47,22.42v-2.66h53.3v1.65c6.71-5.92,10.78-14,10.61-22.84Z"/>
                  <path class="cls-171" d="M100.26,70.28c-.33-17.59-17.39-31.53-38.11-31.14-20.71.39-37.24,14.97-36.9,32.55.17,8.79,4.51,16.68,11.41,22.31v-2.53h53.04v1.53c6.68-5.89,10.73-13.93,10.56-22.73Z"/>
                  <path class="cls-158" d="M100.07,70.26c-.33-17.5-17.31-31.37-37.92-30.98-20.61.39-37.05,14.89-36.72,32.39.17,8.75,4.49,16.59,11.35,22.2v-2.4h52.78v1.4c6.65-5.86,10.67-13.86,10.51-22.61Z"/>
                  <path class="cls-163" d="M99.89,70.25c-.33-17.41-17.22-31.22-37.73-30.83-20.51.39-36.87,14.82-36.54,32.23.16,8.71,4.47,16.51,11.3,22.09v-2.27h52.52v1.28c6.61-5.83,10.62-13.79,10.46-22.5Z"/>
                  <path class="cls-137" d="M99.71,70.24c-.33-17.33-17.14-31.06-37.54-30.68-20.41.39-36.68,14.74-36.36,32.07.16,8.66,4.45,16.43,11.24,21.98v-2.14h52.26v1.15c6.58-5.8,10.57-13.73,10.4-22.39Z"/>
                  <path class="cls-102" d="M99.52,70.22c-.33-17.24-17.05-30.91-37.35-30.52s-36.5,14.67-36.18,31.91c.16,8.62,4.42,16.35,11.18,21.87v-2.01h51.99v1.03c6.55-5.77,10.51-13.66,10.35-22.28Z"/>
                  <path class="cls-150" d="M99.34,70.21c-.32-17.15-16.96-30.75-37.17-30.37s-36.32,14.6-35.99,31.75c.16,8.58,4.4,16.27,11.13,21.76v-1.88h51.73v.9c6.51-5.75,10.46-13.59,10.3-22.17Z"/>
                  <path class="cls-28" d="M99.15,70.2c-.32-17.07-16.88-30.6-36.98-30.22-20.1.38-36.13,14.52-35.81,31.59.16,8.53,4.38,16.18,11.07,21.65v-1.75h51.47v.77c6.48-5.72,10.41-13.52,10.25-22.05Z"/>
                  <path class="cls-60" d="M98.97,70.18c-.32-16.98-16.79-30.44-36.79-30.06-20,.38-35.95,14.45-35.63,31.43.16,8.49,4.36,16.1,11.02,21.54v-1.61h51.21v.65c6.45-5.69,10.36-13.45,10.2-21.94Z"/>
                  <path class="cls-61" d="M98.79,70.17c-.32-16.89-16.71-30.29-36.6-29.91s-35.77,14.38-35.45,31.27c.16,8.45,4.34,16.02,10.96,21.43v-1.48h50.95v.52c6.41-5.66,10.3-13.38,10.14-21.83Z"/>
                  <path class="cls-189" d="M98.6,70.15c-.32-16.81-16.62-30.13-36.42-29.76-19.79.37-35.58,14.3-35.27,31.11.16,8.4,4.31,15.94,10.9,21.32v-1.35h50.69v.4c6.38-5.63,10.25-13.31,10.09-21.72Z"/>
                  <path class="cls-80" d="M98.42,70.14c-.32-16.72-16.54-29.98-36.23-29.6-19.69.37-35.4,14.23-35.09,30.95.16,8.36,4.29,15.85,10.85,21.21v-1.22h50.43v.27c6.35-5.6,10.2-13.25,10.04-21.61Z"/>
                  <path class="cls-67" d="M98.23,70.13c-.31-16.63-16.45-29.82-36.04-29.45-19.59.37-35.22,14.15-34.9,30.79.16,8.32,4.27,15.77,10.79,21.1v-1.09h50.16v.15c6.32-5.57,10.14-13.18,9.99-21.49Z"/>
                  <path class="cls-186" d="M98.05,70.11c-.31-16.55-16.36-29.66-35.85-29.3-19.49.37-35.03,14.08-34.72,30.63.16,8.27,4.25,15.69,10.74,20.99v-.96h49.9v.02c6.28-5.54,10.09-13.11,9.94-21.38Z"/>
                  <path class="cls-157" d="M97.87,70.1c-.31-16.46-16.28-29.51-35.66-29.14-19.39.37-34.85,14.01-34.54,30.47.16,8.23,4.22,15.61,10.68,20.88v-.83h38.61v6.49c4.17-1.59,7.91-3.84,11.04-6.6,6.25-5.51,10.04-13.04,9.88-21.27Z"/>
                  <path class="cls-152" d="M97.68,70.09c-.31-16.37-16.19-29.35-35.48-28.99-19.28.36-34.67,13.93-34.36,30.31.15,8.19,4.2,15.53,10.62,20.77v-.7h38.4v6.33c4.15-1.58,7.87-3.82,10.98-6.56,6.22-5.48,9.99-12.97,9.83-21.16Z"/>
                  <path class="cls-167" d="M97.5,70.07c-.31-16.29-16.11-29.2-35.29-28.84-19.18.36-34.48,13.86-34.18,30.15.15,8.14,4.18,15.44,10.57,20.66v-.57h38.2v6.17c4.13-1.57,7.83-3.8,10.92-6.53,6.18-5.46,9.93-12.9,9.78-21.05Z"/>
                  <path class="cls-85" d="M97.31,70.06c-.31-16.2-16.02-29.04-35.1-28.68s-34.3,13.79-33.99,29.99c.15,8.1,4.16,15.36,10.51,20.55v-.44h38v6.01c4.11-1.56,7.79-3.78,10.86-6.49,6.15-5.43,9.88-12.83,9.73-20.93Z"/>
                  <path class="cls-113" d="M97.13,70.05c-.3-16.11-15.94-28.89-34.91-28.53s-34.12,13.71-33.81,29.83c.15,8.06,4.14,15.28,10.45,20.44v-.31h37.79v5.85c4.08-1.55,7.75-3.76,10.8-6.46,6.12-5.4,9.83-12.76,9.68-20.82Z"/>
                  <path class="cls-108" d="M96.95,70.03c-.3-16.03-15.85-28.73-34.73-28.38-18.88.36-33.93,13.64-33.63,29.67.15,8.01,4.11,15.2,10.4,20.33v-.18h37.59v5.69c4.06-1.55,7.7-3.74,10.75-6.42,6.09-5.37,9.77-12.7,9.62-20.71Z"/>
                  <path class="cls-187" d="M96.76,70.02c-.3-15.94-15.76-28.58-34.54-28.22-18.77.35-33.75,13.56-33.45,29.51.15,7.97,4.09,15.12,10.34,20.22v-.05h37.39v5.53c4.04-1.54,7.66-3.72,10.69-6.39,6.05-5.34,9.72-12.63,9.57-20.6Z"/>
                  <path class="cls-20" d="M96.58,70.01c-.3-15.85-15.68-28.42-34.35-28.07-18.67.35-33.57,13.49-33.27,29.35.15,7.93,4.07,15.03,10.29,20.11,3.11,2.54,6.79,4.57,10.86,5.95v-5.87h26.32v5.37c4.02-1.53,7.62-3.7,10.63-6.36,6.02-5.31,9.67-12.56,9.52-20.49Z"/>
                  <path class="cls-38" d="M96.4,69.99c-.3-15.77-15.59-28.27-34.16-27.92-18.57.35-33.38,13.42-33.09,29.19.15,7.88,4.05,14.95,10.23,20,3.09,2.53,6.75,4.55,10.8,5.92v-5.71h26.18v5.21c4-1.52,7.58-3.68,10.57-6.32,5.99-5.28,9.62-12.49,9.47-20.37Z"/>
                  <path class="cls-119" d="M96.21,69.98c-.3-15.68-15.51-28.11-33.98-27.76-18.47.35-33.2,13.34-32.9,29.02.15,7.84,4.02,14.87,10.17,19.89,3.07,2.51,6.72,4.52,10.74,5.88v-5.54h26.03v5.05c3.97-1.51,7.54-3.66,10.51-6.29,5.95-5.25,9.56-12.42,9.42-20.26Z"/>
                  <path class="cls-105" d="M96.03,69.96c-.29-15.6-15.42-27.96-33.79-27.61-18.37.35-33.02,13.27-32.72,28.86.15,7.8,4,14.79,10.12,19.78,3.06,2.5,6.68,4.5,10.68,5.85v-5.38h25.89v4.89c3.95-1.5,7.5-3.64,10.46-6.25,5.92-5.22,9.51-12.35,9.36-20.15Z"/>
                  <path class="cls-27" d="M95.84,69.95c-.29-15.51-15.34-27.8-33.6-27.46-18.26.34-32.83,13.2-32.54,28.7.15,7.75,3.98,14.7,10.06,19.67,3.04,2.48,6.64,4.47,10.63,5.82v-5.22h25.74v4.73c3.93-1.5,7.45-3.62,10.4-6.22,5.89-5.19,9.46-12.28,9.31-20.04Z"/>
                  <path class="cls-170" d="M95.66,69.94c-.29-15.42-15.25-27.65-33.41-27.3s-32.65,13.12-32.36,28.54c.15,7.71,3.96,14.62,10,19.56,3.02,2.47,6.6,4.45,10.57,5.79v-5.05h25.6v4.57c3.91-1.49,7.41-3.6,10.34-6.18,5.86-5.17,9.4-12.22,9.26-19.93Z"/>
                  <path class="cls-30" d="M95.48,69.92c-.29-15.34-15.16-27.49-33.22-27.15-18.06.34-32.47,13.05-32.18,28.38.14,7.67,3.94,14.54,9.95,19.45,3.01,2.46,6.57,4.42,10.51,5.75v-4.89h12.77v6.83c18.06-.34,32.47-13.05,32.18-28.38Z"/>
                  <ellipse class="cls-133" cx="62.78" cy="70.52" rx="32.52" ry="27.61" transform="translate(-1.32 1.2) rotate(-1.08)"/>
                  <ellipse class="cls-21" cx="62.78" cy="70.51" rx="32.34" ry="27.46" transform="translate(-1.32 1.2) rotate(-1.08)"/>
                  <ellipse class="cls-19" cx="62.78" cy="70.49" rx="32.15" ry="27.3" transform="translate(-1.32 1.2) rotate(-1.08)"/>
                  <ellipse class="cls-179" cx="62.78" cy="70.47" rx="31.97" ry="27.14" transform="translate(-1.32 1.2) rotate(-1.08)"/>
                  <ellipse class="cls-92" cx="62.78" cy="70.46" rx="31.78" ry="26.99" transform="translate(-1.32 1.2) rotate(-1.08)"/>
                  <ellipse class="cls-109" cx="62.78" cy="70.44" rx="31.6" ry="26.83" transform="translate(-1.32 1.2) rotate(-1.08)"/>
                  <ellipse class="cls-99" cx="62.78" cy="70.42" rx="31.41" ry="26.67" transform="translate(-1.32 1.2) rotate(-1.08)"/>
                  <ellipse class="cls-84" cx="62.78" cy="70.4" rx="31.23" ry="26.52" transform="translate(-1.32 1.2) rotate(-1.08)"/>
                  <ellipse class="cls-135" cx="62.78" cy="70.39" rx="31.04" ry="26.36" transform="translate(-1.32 1.2) rotate(-1.08)"/>
                  <ellipse class="cls-62" cx="62.78" cy="70.37" rx="30.86" ry="26.2" transform="translate(-1.32 1.2) rotate(-1.08)"/>
                  <ellipse class="cls-142" cx="62.78" cy="70.35" rx="30.67" ry="26.05" transform="translate(-1.32 1.2) rotate(-1.08)"/>
                  <ellipse class="cls-173" cx="62.78" cy="70.34" rx="30.49" ry="25.89" transform="translate(-1.32 1.2) rotate(-1.08)"/>
                  <ellipse class="cls-183" cx="62.79" cy="70.32" rx="30.3" ry="25.73" transform="translate(-1.32 1.2) rotate(-1.08)"/>
                  <ellipse class="cls-87" cx="62.79" cy="70.3" rx="30.12" ry="25.57" transform="translate(-1.32 1.2) rotate(-1.08)"/>
                  <ellipse class="cls-166" cx="62.79" cy="70.28" rx="29.93" ry="25.42" transform="translate(-1.31 1.2) rotate(-1.08)"/>
                  <ellipse class="cls-77" cx="62.79" cy="70.27" rx="29.75" ry="25.26" transform="translate(-1.31 1.2) rotate(-1.08)"/>
                  <ellipse class="cls-33" cx="62.79" cy="70.25" rx="29.57" ry="25.1" transform="translate(-1.31 1.2) rotate(-1.08)"/>
                  <ellipse class="cls-122" cx="62.79" cy="70.23" rx="29.38" ry="24.95" transform="translate(-1.31 1.2) rotate(-1.08)"/>
                  <ellipse class="cls-143" cx="62.79" cy="70.22" rx="29.2" ry="24.79" transform="translate(-1.31 1.2) rotate(-1.08)"/>
                  <ellipse class="cls-175" cx="62.79" cy="70.2" rx="29.01" ry="24.63" transform="translate(-1.31 1.2) rotate(-1.08)"/>
                  <ellipse class="cls-72" cx="62.79" cy="70.18" rx="28.83" ry="24.48" transform="translate(-1.31 1.2) rotate(-1.08)"/>
                  <ellipse class="cls-153" cx="62.79" cy="70.16" rx="28.64" ry="24.32" transform="translate(-1.31 1.2) rotate(-1.08)"/>
                  <ellipse class="cls-151" cx="62.79" cy="70.15" rx="28.46" ry="24.16" transform="translate(-1.31 1.2) rotate(-1.08)"/>
                  <ellipse class="cls-93" cx="62.79" cy="70.13" rx="28.27" ry="24.01" transform="translate(-1.31 1.2) rotate(-1.08)"/>
                  <ellipse class="cls-159" cx="62.8" cy="70.11" rx="28.09" ry="23.85" transform="translate(-1.31 1.2) rotate(-1.08)"/>
                  <ellipse class="cls-68" cx="62.8" cy="70.1" rx="27.9" ry="23.69" transform="translate(-1.31 1.2) rotate(-1.08)"/>
                  <ellipse class="cls-197" cx="62.8" cy="70.08" rx="27.72" ry="23.54" transform="translate(-1.31 1.2) rotate(-1.08)"/>
                  <ellipse class="cls-37" cx="62.8" cy="70.06" rx="27.53" ry="23.38" transform="translate(-1.31 1.2) rotate(-1.08)"/>
                  <ellipse class="cls-174" cx="62.8" cy="70.05" rx="27.35" ry="23.22" transform="translate(-1.31 1.2) rotate(-1.08)"/>
                  <ellipse class="cls-184" cx="62.8" cy="70.03" rx="27.16" ry="23.06" transform="translate(-1.31 1.2) rotate(-1.08)"/>
                  <ellipse class="cls-184" cx="62.8" cy="70.01" rx="26.98" ry="22.91" transform="translate(-1.31 1.2) rotate(-1.08)"/>
                  <ellipse class="cls-66" cx="62.8" cy="69.99" rx="26.79" ry="22.75" transform="translate(-1.31 1.2) rotate(-1.08)"/>
                  <ellipse class="cls-205" cx="62.8" cy="69.98" rx="26.61" ry="22.59" transform="translate(-1.31 1.2) rotate(-1.08)"/>
                  <ellipse class="cls-123" cx="62.8" cy="69.96" rx="26.42" ry="22.44" transform="translate(-1.31 1.2) rotate(-1.08)"/>
                  <ellipse class="cls-178" cx="62.8" cy="69.94" rx="26.24" ry="22.28" transform="translate(-1.31 1.2) rotate(-1.08)"/>
                  <ellipse class="cls-178" cx="62.8" cy="69.93" rx="26.05" ry="22.12" transform="translate(-1.31 1.2) rotate(-1.08)"/>
                  <ellipse class="cls-107" cx="62.8" cy="69.91" rx="25.87" ry="21.97" transform="translate(-1.31 1.2) rotate(-1.08)"/>
                  <ellipse class="cls-58" cx="62.81" cy="69.89" rx="25.68" ry="21.81" transform="translate(-1.31 1.2) rotate(-1.08)"/>
                  <ellipse class="cls-75" cx="62.81" cy="69.87" rx="25.5" ry="21.65" transform="translate(-1.31 1.2) rotate(-1.08)"/>
                  <ellipse class="cls-146" cx="62.81" cy="69.86" rx="25.32" ry="21.5" transform="translate(-1.31 1.2) rotate(-1.08)"/>
                  <ellipse class="cls-169" cx="62.81" cy="69.84" rx="25.13" ry="21.34" transform="translate(-1.31 1.2) rotate(-1.08)"/>
                  <ellipse class="cls-48" cx="62.81" cy="69.82" rx="24.95" ry="21.18" transform="translate(-1.31 1.2) rotate(-1.08)"/>
                  <ellipse class="cls-55" cx="62.81" cy="69.81" rx="24.76" ry="21.02" transform="translate(-1.31 1.2) rotate(-1.08)"/>
                  <ellipse class="cls-114" cx="62.81" cy="69.79" rx="24.58" ry="20.87" transform="translate(-1.31 1.2) rotate(-1.08)"/>
                  <ellipse class="cls-34" cx="62.81" cy="69.77" rx="24.39" ry="20.71" transform="translate(-1.31 1.2) rotate(-1.08)"/>
                  <ellipse class="cls-191" cx="62.81" cy="69.75" rx="24.21" ry="20.55" transform="translate(-1.3 1.2) rotate(-1.08)"/>
                  <ellipse class="cls-125" cx="62.81" cy="69.74" rx="24.02" ry="20.4" transform="translate(-1.3 1.2) rotate(-1.08)"/>
                  <ellipse class="cls-148" cx="62.81" cy="69.72" rx="23.84" ry="20.24" transform="translate(-1.3 1.2) rotate(-1.08)"/>
                  <ellipse class="cls-127" cx="62.81" cy="69.7" rx="23.65" ry="20.08" transform="translate(-1.3 1.2) rotate(-1.08)"/>
                  <ellipse class="cls-181" cx="62.82" cy="69.69" rx="23.47" ry="19.93" transform="translate(-1.3 1.2) rotate(-1.08)"/>
                  <ellipse class="cls-181" cx="62.82" cy="69.67" rx="23.28" ry="19.77" transform="translate(-1.3 1.2) rotate(-1.08)"/>
                  <ellipse class="cls-101" cx="62.82" cy="69.65" rx="23.1" ry="19.61" transform="translate(-1.3 1.2) rotate(-1.08)"/>
                  <ellipse class="cls-155" cx="62.82" cy="69.64" rx="22.91" ry="19.46" transform="translate(-1.3 1.2) rotate(-1.08)"/>
                  <ellipse class="cls-155" cx="62.82" cy="69.62" rx="22.73" ry="19.3" transform="translate(-1.3 1.2) rotate(-1.08)"/>
                  <path class="cls-56" d="M85.36,69.18c-.2-10.57-10.45-18.95-22.9-18.71-12.45.23-22.38,8.99-22.18,19.56.2,10.57,10.45,18.95,22.9,18.71,12.45-.23,22.38-8.99,22.18-19.56Z"/>
                  <ellipse class="cls-172" cx="62.82" cy="69.58" rx="22.36" ry="18.98" transform="translate(-1.3 1.2) rotate(-1.08)"/>
                  <ellipse class="cls-59" cx="62.82" cy="69.57" rx="22.17" ry="18.83" transform="translate(-1.3 1.2) rotate(-1.08)"/>
                  <ellipse class="cls-59" cx="62.82" cy="69.55" rx="21.99" ry="18.67" transform="translate(-1.3 1.2) rotate(-1.08)"/>
                  <ellipse class="cls-44" cx="62.82" cy="69.53" rx="21.8" ry="18.51" transform="translate(-1.3 1.2) rotate(-1.08)"/>
                  <ellipse class="cls-44" cx="62.82" cy="69.52" rx="21.62" ry="18.36" transform="translate(-1.3 1.2) rotate(-1.08)"/>
                  <ellipse class="cls-165" cx="62.82" cy="69.5" rx="21.43" ry="18.2" transform="translate(-1.3 1.2) rotate(-1.08)"/>
                  <ellipse class="cls-165" cx="62.83" cy="69.48" rx="21.25" ry="18.04" transform="translate(-1.3 1.2) rotate(-1.08)"/>
                  <ellipse class="cls-165" cx="62.83" cy="69.46" rx="21.07" ry="17.89" transform="translate(-1.3 1.2) rotate(-1.08)"/>
                  <ellipse class="cls-116" cx="62.83" cy="69.45" rx="20.88" ry="17.73" transform="translate(-1.3 1.2) rotate(-1.08)"/>
                  <ellipse class="cls-78" cx="62.83" cy="69.43" rx="20.7" ry="17.57" transform="translate(-1.3 1.2) rotate(-1.08)"/>
                  <ellipse class="cls-185" cx="62.83" cy="69.41" rx="20.51" ry="17.42" transform="translate(-1.3 1.2) rotate(-1.08)"/>
                  <ellipse class="cls-185" cx="62.83" cy="69.4" rx="20.33" ry="17.26" transform="translate(-1.3 1.2) rotate(-1.08)"/>
                  <ellipse class="cls-185" cx="62.83" cy="69.38" rx="20.14" ry="17.1" transform="translate(-1.3 1.2) rotate(-1.08)"/>
                  <ellipse class="cls-182" cx="62.83" cy="69.36" rx="19.96" ry="16.95" transform="translate(-1.3 1.2) rotate(-1.08)"/>
                  <path class="cls-57" d="M82.6,68.97c-.18-9.27-9.17-16.62-20.08-16.41-10.92.21-19.63,7.89-19.45,17.16.17,9.27,9.17,16.62,20.08,16.41,10.92-.21,19.63-7.89,19.45-17.16Z"/>
                  <ellipse class="cls-115" cx="62.83" cy="69.33" rx="19.59" ry="16.63" transform="translate(-1.3 1.2) rotate(-1.08)"/>
                  <ellipse class="cls-115" cx="62.83" cy="69.31" rx="19.4" ry="16.47" transform="translate(-1.3 1.2) rotate(-1.08)"/>
                  <path class="cls-115" d="M82.05,68.93c-.17-9.01-8.91-16.15-19.52-15.95-10.61.2-19.08,7.67-18.91,16.68.17,9.01,8.91,16.15,19.52,15.95,10.61-.2,19.08-7.67,18.91-16.68Z"/>
                  <ellipse class="cls-145" cx="62.84" cy="69.28" rx="19.03" ry="16.16" transform="translate(-1.3 1.2) rotate(-1.08)"/>
                  <ellipse class="cls-145" cx="62.84" cy="69.26" rx="18.85" ry="16" transform="translate(-1.3 1.2) rotate(-1.08)"/>
                  <ellipse class="cls-190" cx="62.84" cy="69.24" rx="18.66" ry="15.85" transform="translate(-1.29 1.2) rotate(-1.08)"/>
                  <ellipse class="cls-176" cx="62.84" cy="69.23" rx="18.48" ry="15.69" transform="translate(-1.29 1.2) rotate(-1.08)"/>
                  <ellipse class="cls-176" cx="62.84" cy="69.21" rx="18.29" ry="15.53" transform="translate(-1.29 1.2) rotate(-1.08)"/>
                  <ellipse class="cls-176" cx="62.84" cy="69.19" rx="18.11" ry="15.38" transform="translate(-1.29 1.2) rotate(-1.08)"/>
                  <ellipse class="cls-176" cx="62.84" cy="69.17" rx="17.92" ry="15.22" transform="translate(-1.29 1.2) rotate(-1.08)"/>
                  <ellipse class="cls-130" cx="62.84" cy="69.16" rx="17.74" ry="15.06" transform="translate(-1.29 1.2) rotate(-1.08)"/>
                  <ellipse class="cls-130" cx="62.84" cy="69.14" rx="17.55" ry="14.91" transform="translate(-1.29 1.2) rotate(-1.08)"/>
                  <ellipse class="cls-71" cx="62.84" cy="69.12" rx="17.37" ry="14.75" transform="translate(-1.29 1.2) rotate(-1.08)"/>
                  <ellipse class="cls-94" cx="62.84" cy="69.11" rx="17.18" ry="14.59" transform="translate(-1.29 1.2) rotate(-1.08)"/>
                  <ellipse class="cls-94" cx="62.84" cy="69.09" rx="17" ry="14.43" transform="translate(-1.29 1.2) rotate(-1.08)"/>
                  <path class="cls-94" d="M79.66,68.75c-.15-7.88-7.8-14.13-17.08-13.96-9.29.18-16.69,6.71-16.54,14.59.15,7.88,7.8,14.13,17.08,13.96,9.29-.18,16.69-6.71,16.54-14.59Z"/>
                  <ellipse class="cls-94" cx="62.85" cy="69.05" rx="16.63" ry="14.12" transform="translate(-1.29 1.2) rotate(-1.08)"/>
                  <ellipse class="cls-94" cx="62.85" cy="69.04" rx="16.45" ry="13.96" transform="translate(-1.29 1.2) rotate(-1.08)"/>
                  <ellipse class="cls-95" cx="62.85" cy="69.02" rx="16.26" ry="13.81" transform="translate(-1.29 1.2) rotate(-1.08)"/>
                  <ellipse class="cls-95" cx="62.85" cy="69" rx="16.08" ry="13.65" transform="translate(-1.29 1.2) rotate(-1.08)"/>
                  <ellipse class="cls-177" cx="62.85" cy="68.99" rx="15.89" ry="13.49" transform="translate(-1.29 1.2) rotate(-1.08)"/>
                  <ellipse class="cls-177" cx="62.85" cy="68.97" rx="15.71" ry="13.34" transform="translate(-1.29 1.2) rotate(-1.08)"/>
                  <path class="cls-141" d="M78.37,68.66c-.14-7.28-7.2-13.05-15.77-12.88-8.57.16-15.41,6.19-15.27,13.47s7.2,13.05,15.77,12.88,15.41-6.19,15.27-13.47Z"/>
                  <ellipse class="cls-141" cx="62.85" cy="68.93" rx="15.34" ry="13.02" transform="translate(-1.29 1.2) rotate(-1.08)"/>
                  <ellipse class="cls-141" cx="62.85" cy="68.92" rx="15.15" ry="12.87" transform="translate(-1.29 1.2) rotate(-1.08)"/>
                  <ellipse class="cls-141" cx="62.85" cy="68.9" rx="14.97" ry="12.71" transform="translate(-1.29 1.2) rotate(-1.08)"/>
                  <path class="cls-141" d="M77.63,68.6c-.13-6.93-6.85-12.43-15.02-12.27-8.16.15-14.67,5.9-14.54,12.83s6.85,12.43,15.02,12.27c8.16-.15,14.67-5.9,14.54-12.83Z"/>
                  <ellipse class="cls-141" cx="62.85" cy="68.87" rx="14.6" ry="12.4" transform="translate(-1.29 1.2) rotate(-1.08)"/>
                  <path class="cls-118" d="M77.27,68.58c-.13-6.76-6.68-12.11-14.64-11.96s-14.31,5.75-14.18,12.51,6.68,12.11,14.64,11.96c7.96-.15,14.31-5.75,14.18-12.51Z"/>
                  <ellipse class="cls-118" cx="62.86" cy="68.83" rx="14.23" ry="12.08" transform="translate(-1.29 1.2) rotate(-1.08)"/>
                  <ellipse class="cls-118" cx="62.86" cy="68.82" rx="14.04" ry="11.92" transform="translate(-1.29 1.2) rotate(-1.08)"/>
                  <ellipse class="cls-196" cx="62.86" cy="68.8" rx="13.86" ry="11.77" transform="translate(-1.29 1.2) rotate(-1.08)"/>
                  <path class="cls-196" d="M76.53,68.52c-.12-6.41-6.34-11.49-13.89-11.35-7.55.14-13.57,5.46-13.45,11.87.12,6.41,6.34,11.49,13.89,11.35,7.55-.14,13.57-5.46,13.45-11.87Z"/>
                  <path class="cls-196" d="M76.35,68.51c-.12-6.32-6.25-11.34-13.7-11.2-7.45.14-13.39,5.38-13.27,11.71s6.25,11.34,13.7,11.2c7.45-.14,13.39-5.38,13.27-11.71Z"/>
                  <ellipse class="cls-196" cx="62.86" cy="68.75" rx="13.3" ry="11.3" transform="translate(-1.29 1.2) rotate(-1.08)"/>
                  <path class="cls-36" d="M75.98,68.48c-.12-6.15-6.08-11.03-13.33-10.89s-13.02,5.23-12.91,11.39c.12,6.15,6.08,11.03,13.33,10.89,7.24-.14,13.02-5.23,12.91-11.39Z"/>
                  <path class="cls-36" d="M75.79,68.47c-.11-6.06-6-10.87-13.14-10.74-7.14.13-12.84,5.16-12.73,11.23s6,10.87,13.14,10.74,12.84-5.16,12.73-11.23Z"/>
                  <ellipse class="cls-36" cx="62.86" cy="68.7" rx="12.75" ry="10.83" transform="translate(-1.28 1.2) rotate(-1.08)"/>
                  <path class="cls-36" d="M75.43,68.44c-.11-5.89-5.83-10.56-12.76-10.43-6.94.13-12.47,5.01-12.36,10.9.11,5.89,5.83,10.56,12.76,10.43,6.94-.13,12.47-5.01,12.36-10.9Z"/>
                  <ellipse class="cls-36" cx="62.86" cy="68.66" rx="12.38" ry="10.51" transform="translate(-1.28 1.2) rotate(-1.08)"/>
                  <path class="cls-36" d="M75.06,68.41c-.11-5.72-5.65-10.25-12.39-10.12-6.73.13-12.11,4.87-12,10.58.11,5.72,5.65,10.25,12.39,10.12,6.73-.13,12.11-4.87,12-10.58Z"/>
                  <path class="cls-36" d="M74.87,68.4c-.11-5.63-5.57-10.1-12.2-9.97-6.63.13-11.92,4.79-11.82,10.42.11,5.63,5.57,10.1,12.2,9.97,6.63-.13,11.92-4.79,11.82-10.42Z"/>
                  <path class="cls-36" d="M74.69,68.39c-.1-5.54-5.48-9.94-12.01-9.82s-11.74,4.72-11.63,10.26c.1,5.54,5.48,9.94,12.01,9.82s11.74-4.72,11.63-10.26Z"/>
                  <path class="cls-36" d="M74.51,68.37c-.1-5.46-5.4-9.78-11.83-9.66-6.43.12-11.56,4.64-11.45,10.1.1,5.46,5.4,9.78,11.83,9.66,6.43-.12,11.56-4.64,11.45-10.1Z"/>
                  <path class="cls-192" d="M74.32,68.36c-.1-5.37-5.31-9.63-11.64-9.51-6.33.12-11.37,4.57-11.27,9.94.1,5.37,5.31,9.63,11.64,9.51,6.33-.12,11.37-4.57,11.27-9.94Z"/>
                  <path class="cls-192" d="M74.14,68.35c-.1-5.28-5.23-9.47-11.45-9.36-6.22.12-11.19,4.5-11.09,9.78s5.23,9.47,11.45,9.36,11.19-4.5,11.09-9.78Z"/>
                  <path class="cls-192" d="M73.96,68.33c-.1-5.2-5.14-9.32-11.26-9.2-6.12.12-11.01,4.42-10.91,9.62.1,5.2,5.14,9.32,11.26,9.2,6.12-.12,11.01-4.42,10.91-9.62Z"/>
                  <path class="cls-192" d="M73.77,68.32c-.1-5.11-5.05-9.16-11.07-9.05s-10.82,4.35-10.73,9.46c.1,5.11,5.05,9.16,11.07,9.05,6.02-.11,10.82-4.35,10.73-9.46Z"/>
                  <path class="cls-192" d="M73.59,68.31c-.09-5.02-4.97-9.01-10.89-8.9-5.92.11-10.64,4.28-10.54,9.3.09,5.02,4.97,9.01,10.89,8.9,5.92-.11,10.64-4.28,10.54-9.3Z"/>
                  <path class="cls-192" d="M73.4,68.29c-.09-4.94-4.88-8.85-10.7-8.74-5.82.11-10.46,4.2-10.36,9.14s4.88,8.85,10.7,8.74c5.82-.11,10.46-4.2,10.36-9.14Z"/>
                  <path class="cls-192" d="M73.22,68.28c-.09-4.85-4.8-8.7-10.51-8.59s-10.27,4.13-10.18,8.98c.09,4.85,4.8,8.7,10.51,8.59s10.27-4.13,10.18-8.98Z"/>
                  <path class="cls-11" d="M73.04,68.26c-.09-4.77-4.71-8.54-10.32-8.44s-10.09,4.05-10,8.82c.09,4.77,4.71,8.54,10.32,8.44,5.61-.11,10.09-4.05,10-8.82Z"/>
                  <path class="cls-11" d="M72.85,68.25c-.09-4.68-4.63-8.39-10.14-8.28-5.51.1-9.9,3.98-9.82,8.66.09,4.68,4.63,8.39,10.14,8.28,5.51-.1,9.9-3.98,9.82-8.66Z"/>
                  <path class="cls-11" d="M72.67,68.24c-.09-4.59-4.54-8.23-9.95-8.13-5.41.1-9.72,3.91-9.63,8.5.09,4.59,4.54,8.23,9.95,8.13,5.41-.1,9.72-3.91,9.63-8.5Z"/>
                  <path class="cls-11" d="M72.48,68.22c-.09-4.51-4.46-8.08-9.76-7.98-5.31.1-9.54,3.83-9.45,8.34s4.46,8.08,9.76,7.98,9.54-3.83,9.45-8.34Z"/>
                  <path class="cls-11" d="M72.3,68.21c-.08-4.42-4.37-7.92-9.57-7.82-5.2.1-9.35,3.76-9.27,8.18.08,4.42,4.37,7.92,9.57,7.82,5.2-.1,9.35-3.76,9.27-8.18Z"/>
                  <path class="cls-11" d="M72.12,68.2c-.08-4.33-4.28-7.77-9.39-7.67-5.1.1-9.17,3.69-9.09,8.02.08,4.33,4.28,7.77,9.39,7.67,5.1-.1,9.17-3.69,9.09-8.02Z"/>
                  <path class="cls-11" d="M71.93,68.18c-.08-4.25-4.2-7.61-9.2-7.52s-8.99,3.61-8.91,7.86,4.2,7.61,9.2,7.52c5-.09,8.99-3.61,8.91-7.86Z"/>
                  <path class="cls-11" d="M71.75,68.17c-.08-4.16-4.11-7.45-9.01-7.36-4.9.09-8.8,3.54-8.73,7.7.08,4.16,4.11,7.45,9.01,7.36,4.9-.09,8.8-3.54,8.73-7.7Z"/>
                  <path class="cls-11" d="M71.56,68.16c-.08-4.07-4.03-7.3-8.82-7.21s-8.62,3.46-8.54,7.54c.08,4.07,4.03,7.3,8.82,7.21s8.62-3.46,8.54-7.54Z"/>
                  <path d="M71.38,68.14c-.08-3.99-3.94-7.14-8.63-7.06-4.69.09-8.44,3.39-8.36,7.38.08,3.99,3.94,7.14,8.63,7.06,4.69-.09,8.44-3.39,8.36-7.38Z"/>
                  <path d="M71.2,68.13c-.07-3.9-3.86-6.99-8.45-6.9-4.59.09-8.25,3.32-8.18,7.22.07,3.9,3.86,6.99,8.45,6.9s8.25-3.32,8.18-7.22Z"/>
                  <path d="M71.01,68.12c-.07-3.81-3.77-6.83-8.26-6.75s-8.07,3.24-8,7.06c.07,3.81,3.77,6.83,8.26,6.75,4.49-.08,8.07-3.24,8-7.06Z"/>
                  <path d="M70.83,68.1c-.07-3.73-3.68-6.68-8.07-6.6-4.39.08-7.89,3.17-7.82,6.9.07,3.73,3.68,6.68,8.07,6.6s7.89-3.17,7.82-6.9Z"/>
                  <path d="M70.64,68.09c-.07-3.64-3.6-6.52-7.88-6.44-4.29.08-7.7,3.1-7.64,6.74.07,3.64,3.6,6.52,7.88,6.44,4.29-.08,7.7-3.1,7.64-6.73Z"/>
                  <path d="M70.46,68.07c-.07-3.55-3.51-6.37-7.7-6.29-4.18.08-7.52,3.02-7.45,6.57.07,3.55,3.51,6.37,7.7,6.29s7.52-3.02,7.45-6.57Z"/>
                  <path d="M70.28,68.06c-.07-3.47-3.43-6.21-7.51-6.14-4.08.08-7.34,2.95-7.27,6.41.07,3.47,3.43,6.21,7.51,6.14,4.08-.08,7.34-2.95,7.27-6.41Z"/>
                  <path d="M70.09,68.05c-.06-3.38-3.34-6.06-7.32-5.98-3.98.08-7.15,2.88-7.09,6.25.06,3.38,3.34,6.06,7.32,5.98,3.98-.08,7.15-2.88,7.09-6.25Z"/>
                  <path d="M69.91,68.03c-.06-3.29-3.26-5.9-7.13-5.83s-6.97,2.8-6.91,6.09c.06,3.29,3.26,5.9,7.13,5.83,3.88-.07,6.97-2.8,6.91-6.09Z"/>
                  <path d="M69.72,68.02c-.06-3.21-3.17-5.75-6.95-5.68s-6.79,2.73-6.73,5.93c.06,3.21,3.17,5.75,6.95,5.68,3.78-.07,6.79-2.73,6.73-5.93Z"/>
                  <path d="M69.54,68.01c-.06-3.12-3.08-5.59-6.76-5.52-3.67.07-6.6,2.65-6.54,5.77.06,3.12,3.08,5.59,6.76,5.52,3.67-.07,6.6-2.65,6.54-5.77Z"/>
                  <path d="M69.36,67.99c-.06-3.03-3-5.44-6.57-5.37s-6.42,2.58-6.36,5.61c.06,3.03,3,5.44,6.57,5.37,3.57-.07,6.42-2.58,6.36-5.61Z"/>
                  <path d="M69.17,67.98c-.06-2.95-2.91-5.28-6.38-5.22-3.47.07-6.24,2.51-6.18,5.45.06,2.95,2.91,5.28,6.38,5.22s6.24-2.51,6.18-5.45Z"/>
                  <path d="M68.99,67.97c-.05-2.86-2.83-5.13-6.19-5.06-3.37.06-6.05,2.43-6,5.29.05,2.86,2.83,5.13,6.19,5.06,3.37-.06,6.05-2.43,6-5.29Z"/>
                  <ellipse cx="62.89" cy="68.06" rx="5.91" ry="5.02" transform="translate(-1.27 1.2) rotate(-1.08)"/>
                  <path d="M68.62,67.94c-.05-2.69-2.66-4.81-5.82-4.76-3.16.06-5.69,2.29-5.64,4.97.05,2.69,2.66,4.81,5.82,4.76,3.16-.06,5.69-2.29,5.64-4.97Z"/>
                  <path d="M68.44,67.92c-.05-2.6-2.57-4.66-5.63-4.6-3.06.06-5.5,2.21-5.45,4.81.05,2.6,2.57,4.66,5.63,4.6,3.06-.06,5.5-2.21,5.45-4.81Z"/>
                  <path d="M68.25,67.91c-.05-2.51-2.48-4.5-5.44-4.45s-5.32,2.14-5.27,4.65,2.48,4.5,5.44,4.45c2.96-.06,5.32-2.14,5.27-4.65Z"/>
                  <path d="M68.07,67.9c-.05-2.43-2.4-4.35-5.26-4.29-2.86.05-5.14,2.06-5.09,4.49.05,2.43,2.4,4.35,5.26,4.29s5.14-2.06,5.09-4.49Z"/>
                  <path d="M67.89,67.88c-.04-2.34-2.31-4.19-5.07-4.14-2.75.05-4.95,1.99-4.91,4.33.04,2.34,2.31,4.19,5.07,4.14,2.75-.05,4.95-1.99,4.91-4.33Z"/>
                  <path d="M67.7,67.87c-.04-2.25-2.23-4.04-4.88-3.99-2.65.05-4.77,1.92-4.73,4.17s2.23,4.04,4.88,3.99c2.65-.05,4.77-1.92,4.73-4.17Z"/>
                  <path d="M67.52,67.86c-.04-2.17-2.14-3.88-4.69-3.83-2.55.05-4.59,1.84-4.54,4.01.04,2.17,2.14,3.88,4.69,3.83,2.55-.05,4.59-1.84,4.54-4.01Z"/>
                  <path d="M67.33,67.84c-.04-2.08-2.06-3.73-4.51-3.68-2.45.05-4.4,1.77-4.36,3.85.04,2.08,2.06,3.73,4.51,3.68,2.45-.05,4.4-1.77,4.36-3.85Z"/>
                  <path d="M67.15,67.83c-.04-1.99-1.97-3.57-4.32-3.53-2.35.04-4.22,1.7-4.18,3.69s1.97,3.57,4.32,3.53,4.22-1.7,4.18-3.69Z"/>
                  <path d="M66.97,67.82c-.04-1.91-1.88-3.42-4.13-3.37-2.24.04-4.04,1.62-4,3.53.04,1.91,1.88,3.42,4.13,3.37,2.24-.04,4.04-1.62,4-3.53Z"/>
                  <path d="M66.78,67.8c-.03-1.82-1.8-3.26-3.94-3.22-2.14.04-3.85,1.55-3.82,3.37s1.8,3.26,3.94,3.22,3.85-1.55,3.82-3.37Z"/>
                  <path d="M66.6,67.79c-.03-1.73-1.71-3.11-3.75-3.07-2.04.04-3.67,1.47-3.64,3.21.03,1.73,1.71,3.11,3.75,3.07,2.04-.04,3.67-1.47,3.64-3.21Z"/>
                  <path d="M66.41,67.78c-.03-1.65-1.63-2.95-3.57-2.91-1.94.04-3.48,1.4-3.45,3.05.03,1.65,1.63,2.95,3.57,2.91,1.94-.04,3.49-1.4,3.45-3.05Z"/>
                  <path d="M66.23,67.76c-.03-1.56-1.54-2.8-3.38-2.76-1.84.03-3.3,1.33-3.27,2.89.03,1.56,1.54,2.8,3.38,2.76,1.84-.03,3.3-1.33,3.27-2.89Z"/>
                  <path d="M66.05,67.75c-.03-1.47-1.46-2.64-3.19-2.61-1.73.03-3.12,1.25-3.09,2.73.03,1.47,1.46,2.64,3.19,2.61,1.73-.03,3.12-1.25,3.09-2.73Z"/>
                  <path d="M65.86,67.73c-.03-1.39-1.37-2.48-3-2.45-1.63.03-2.93,1.18-2.91,2.57s1.37,2.48,3,2.45c1.63-.03,2.93-1.18,2.91-2.57Z"/>
                  <path d="M65.68,67.72c-.02-1.3-1.29-2.33-2.82-2.3s-2.75,1.11-2.73,2.41c.02,1.3,1.29,2.33,2.82,2.3,1.53-.03,2.75-1.11,2.73-2.41Z"/>
                  <path d="M65.49,67.71c-.02-1.21-1.2-2.17-2.63-2.15-1.43.03-2.57,1.03-2.55,2.24.02,1.21,1.2,2.17,2.63,2.15,1.43-.03,2.57-1.03,2.55-2.24Z"/>
                  <path d="M65.31,67.69c-.02-1.13-1.11-2.02-2.44-1.99-1.33.03-2.38.96-2.36,2.08.02,1.13,1.11,2.02,2.44,1.99,1.33-.03,2.38-.96,2.36-2.08Z"/>
                  <path d="M65.13,67.68c-.02-1.04-1.03-1.86-2.25-1.84s-2.2.88-2.18,1.92c.02,1.04,1.03,1.86,2.25,1.84s2.2-.88,2.18-1.92Z"/>
                  <path d="M64.94,67.67c-.02-.95-.94-1.71-2.06-1.69-1.12.02-2.02.81-2,1.76s.94,1.71,2.06,1.69c1.12-.02,2.02-.81,2-1.76Z"/>
                  <path d="M64.76,67.65c-.02-.87-.86-1.55-1.88-1.53-1.02.02-1.83.74-1.82,1.6.02.87.86,1.55,1.88,1.53,1.02-.02,1.83-.74,1.82-1.6Z"/>
                  <path d="M64.57,67.64c-.01-.78-.77-1.4-1.69-1.38-.92.02-1.65.66-1.64,1.44.01.78.77,1.4,1.69,1.38s1.65-.66,1.64-1.44Z"/>
                  <ellipse cx="62.91" cy="67.65" rx="1.48" ry="1.26" transform="translate(-1.26 1.2) rotate(-1.08)"/>
                  <path d="M64.21,67.61c-.01-.61-.6-1.09-1.31-1.07s-1.28.52-1.27,1.12c.01.61.6,1.09,1.31,1.07.71-.01,1.28-.52,1.27-1.12Z"/>
                  <path d="M64.02,67.6c0-.52-.51-.93-1.13-.92-.61.01-1.1.44-1.09.96,0,.52.51.93,1.13.92.61-.01,1.1-.44,1.09-.96Z"/>
                  <path d="M63.84,67.59c0-.43-.43-.78-.94-.77-.51,0-.92.37-.91.8s.43.78.94.77c.51,0,.92-.37.91-.8Z"/>
                  <path d="M63.65,67.57c0-.35-.34-.62-.75-.61-.41,0-.73.29-.73.64,0,.35.34.62.75.61s.73-.29.73-.64Z"/>
                  <path d="M63.47,67.56c0-.26-.26-.47-.56-.46-.31,0-.55.22-.55.48s.26.47.56.46c.31,0,.55-.22.55-.48Z"/>
                  <path d="M63.29,67.54c0-.17-.17-.31-.38-.31-.2,0-.37.15-.36.32,0,.17.17.31.38.31.2,0,.37-.15.36-.32Z"/>
                  <path d="M63.1,67.53c0-.09-.09-.16-.19-.15-.1,0-.18.07-.18.16,0,.09.09.16.19.15.1,0,.18-.07.18-.16Z"/>
                </g>
              </g>
              <path class="cls-10" d="M20.36,59.7c-.11-.83-.2-8.94,33.56-11.02,3.23-.2,6.3-.31,9.21-.35,29.31-.36,43.28,7.21,41.43,17.2,2.95-10.28,3.13-21.95.36-27.84-3.07-6.54-14.65-9.63-24.63-6.26-9.97,3.37-17.16,2.41-17.16,2.41,0,0-7.19.96-17.16-2.41-9.98-3.37-21.56-.28-24.63,6.26-2.25,4.79-2.54,13.41-.99,22Z"/>
              <path class="cls-7" d="M106.89,50.88s1.1-17.61-5.59-21.82c-8.17-5.14-27.11,3.95-41.07,2.27-13.95-1.69-21.46-6.02-31.59-4.68-11.23,1.49-9.27,24.23-9.27,24.23h87.51Z"/>
              <path class="cls-136" d="M60.87,42.69c12.3,1.6,17.71-10.3,17.07-16.63h0c-.06-.72-.21-1.36-.44-1.9-6.08-14.77-25.77-7.83-28.7-2.43-.61,1.13-1.04,2.63-1.2,4.32h0c-.63,6.34,2.46,15.23,13.27,16.64Z"/>
              <path class="cls-3" d="M60.87,42.69c12.3,1.6,17.71-10.3,17.07-16.63,0,.44-.53,14.35-14.92,13.14-14.36-1.22-15.39-12.76-15.41-13.14-.63,6.33,2.46,15.23,13.27,16.63Z"/>
              <path class="cls-40" d="M71.05,23.06c1.86,4.21-.96,13.15-10,11.75-8.61-1.34-8.04-10.18-5.45-13.3,3.42-4.12,12.65-4.78,15.45,1.55Z"/>
              <path class="cls-79" d="M70.39,25.32c1.71,3.41-.88,10.64-9.19,9.51-7.92-1.08-7.39-8.24-5.01-10.76,3.14-3.34,11.64-3.87,14.21,1.26Z"/>
              <path class="cls-2" d="M22.2,79.87v.02c.99,2.03,2.06,3.74,3.19,5.03,8.25,9.44,29.78,12.37,30.66,13.65,1.52,2.2,7.08,2.28,7.08,2.28,0,0,5.56-.08,7.08-2.28.88-1.28,22.41-4.22,30.66-13.65,1.14-1.3,2.21-3.01,3.19-5.04-.38.44-12.9,14.31-40.94,14.31s-40.94-14.32-40.94-14.32Z"/>
              <path class="cls-8" d="M106.89,72.64s4.68-3.73,7.13-9.1c1.68-3.66,3.79-8.8,5.36-14.98-.21.55-1.93,4.93-2.77,5.45-.9.57,1.68-11.33,0-25.89-.81-6.99-2.78-13.26-4.62-17.89,3.28,16.28,8.29,47.2-3.24,52.61l-1.86,9.79Z"/>
              <path class="cls-10" d="M118.82,114.04c-.95.36-2.41,3.9-6.29,4.13-3.88.22-5.27-1.46-5.27-1.46,0,0,.32,2.52,5.4,3.37,5.08.85,7.44-2.24,7.41-3.25-.03-1.01-1.25-2.78-1.25-2.78Z"/>
              <path class="cls-10" d="M8.09,114.04s1.72.36,2.12.61c.39.25.55,1.71,4.33,2.89,3.78,1.18,6.19,1.19,6.19,1.19,0,0-1.43,1.23-6.9.89-5.47-.34-6.28-3.85-6.31-4.16-.03-.31.59-1.43.59-1.43Z"/>
              <path class="cls-10" d="M84.09,102.16s5.93,5.99,8.31,13.66c2.38,7.67-6.19,4.54-9.61,3.58,0,0,2.16-6.14,1.3-17.23Z"/>
              <path class="cls-10" d="M43.84,102.07s-5.79,6.5-7.56,13.75,7.62,4.03,9.29,3.13c0,0-3.32-6.31-1.73-16.88Z"/>
              <path class="cls-10" d="M.01,124.52c-.21,4.05,3.79,5.26,9.33,4.91,4.63-.28,11.24-2.43,18.29-4.46,1.71-.49,3.44-.99,5.19-1.44.89-.23,1.77-.47,2.66-.73-1.26.34-22.29,6.01-28.67,5.59-5.95-.38-6.7-3.32-6.79-3.87Z"/>
              <path class="cls-10" d="M95.05,123.62c1.58.43,3.15.89,4.7,1.34,6.88,2.04,13.33,4.18,17.85,4.46,5.64.36,9.64-.97,9.06-5.43,0,0-.52,4.35-8.65,4.39-7.89.04-21.89-4.49-22.95-4.77Z"/>
              <path class="cls-10" d="M89.69,130.98s.02.04.03.06c0,0,0-.03,0-.04l-.02-.02Z"/>
              <path class="cls-10" d="M65.08,150.62c.27,1.16,6.29,4.03,6.29,4.03l-.39-1.45c3.25-12.25,14.84-16.04,16.09-15.71,1.25.34,2.03,2.21,2.03,2.21,1.29-2.81,1.45-5.75.79-8.09.33,2.51-5.44,4.02-10.45,8.12-5.42,4.44-7.23,8.82-10.87,9.27-3.46.43,3.45-10.4,4.15-11.5-4.31,5.98-7.81,12.39-7.65,13.12Z"/>
              <path class="cls-10" d="M38.92,139.71s.77-1.88,2.02-2.21c1.25-.34,12.84,3.45,16.09,15.71l-.27,1.45s5.91-2.87,6.17-4.03c.15-.66-2.73-6.03-6.51-11.5.18.36,3.4,7,2.53,8.1-.88,1.14-3.58-.97-7.37-5.39-3.78-4.42-13.58-7.24-13.58-9.72-.51,2.26-.28,4.98.92,7.59Z"/>
              <path class="cls-5" d="M81.88,127.76c-3.5,1.3-13.23,11.86-17.53,12.31-4.3.45-14.36-10.43-17.36-11.76,0,0,11.79,11.34,15.95,22.31h2.14s8.89-15.65,16.8-22.86Z"/>
              <path class="cls-1" d="M99.86,190.04c-5.72-.31-12.17-11.32-15.07-15.25-2.9-3.93-7.05,5.34-6.44,7.36.62,2.02,5.94,2.58,8.3,3.37,2.37.79,7.97,4.55,13.2,4.52Z"/>
              <path class="cls-1" d="M49.61,182.9s.32-8.81-4.26-9.04c-4.58-.23-7.4,7.38-12.02,11.74-4.62,4.37-8.61,4.7-8.61,4.7,0,0,9.35-1.33,12.23-2.6,2.89-1.27,7.76-2.86,9.78-3.65,2.02-.79,2.88-1.16,2.88-1.16Z"/>
              <path class="cls-16" d="M112.03,177.52c2.58,5.46-2.91,7.46-12.17,5.58-9.26-1.88-15.07-10.39-15.07-10.39,0,0,5.94-5.11,13.94-4.38,8,.73,13.3,9.2,13.3,9.2Z"/>
              <path class="cls-16" d="M43.21,171.42c.68.6-6.12,10.94-13.72,12.38-7.59,1.44-14.47-.25-14.89-.92-.42-.67,4.38-11.8,8.87-13.77,4.49-1.96,16.78-.28,19.74,2.31Z"/>
              <path class="cls-13" d="M44.6,163.78c.97,1.75,4.73-2.47,1.52-5.2-.67-.57-2.78,2.93-1.52,5.2Z"/>
              <path class="cls-13" d="M34.49,174.73c.65,2.37-4.17,4.27-4.99,1.29-.82-2.98,4.8-1.97,4.99-1.29Z"/>
              <path class="cls-13" d="M97.97,179.36c1.01-2.22-2.74-4.55-4.25-2.44-1.52,2.11,3.45,4.21,4.25,2.44Z"/>
              <path class="cls-13" d="M83.8,158.89c1.81,1.72.06,3.68-1.01,2.73-1.07-.95-.56-4.22,1.01-2.73Z"/>
              <path class="cls-13" d="M73.34,117.13c4.63.87,3.86,6.63,1.5,7.97-2.36,1.35-4.02-8.45-1.5-7.97Z"/>
              <path class="cls-13" d="M50.89,20.66c1.82.09,1.8,3.37-.9,4.27-2.7.9-1.4-4.38.9-4.27Z"/>
              <path class="cls-13" d="M70.89,33.27c3.24.69,1.18,4.21-2.61,3.88-3.79-.34.25-4.38,2.61-3.88Z"/>
              <path class="cls-15" d="M95.55,60.14c5.59,3.65-2.04,18.91-14.21,16.95-12.17-1.96,2.33-24.7,14.21-16.95Z"/>
              <path class="cls-13" d="M88.53,42.12c1.69.62-1.18,4.77-2.95,4.05-1.77-.73.25-5.04,2.95-4.05Z"/>
              <path class="cls-16" d="M29.51,38.62c3.59-.45-.69,8.12-2.26,8.44-1.56.32-1.34-7.99,2.26-8.44Z"/>
              <path class="cls-4" d="M106.81,167.87s-1.74-3.64-9.58-3.45c-7.84.19-16.8,7.42-16.8,7.42,0,0,14.55-8.67,26.37-3.97Z"/>
              <path class="cls-4" d="M51.29,174.51s-11.16-9.86-18.94-10.1c-7.78-.24-11.15,3.46-11.15,3.46,0,0,2.65-2.11,11.67-1.18,9.02.93,18.42,7.82,18.42,7.82Z"/>
              <path class="cls-8" d="M19.15,119.69c1.66.4.98,6.18-7.47,6.13-8.44-.05-6.17-7.74-4.18-9.14s9.83,2.58,11.65,3.02Z"/>
              <path class="cls-8" d="M119.38,116.69c1.89.82,6.05,12.1-7.03,10.22-8.65-1.24-5.69-9.55-4.78-9.47.91.09,5.44,2.06,11.81-.76Z"/>
              <path class="cls-15" d="M52.59,135.24c1.56,3.07-7.46,2.75-8.95-.73-1.49-3.47,4.47-8.14,8.95.73Z"/>
              <path class="cls-15" d="M84.79,129.48c4.78,2.78,2.05,6.05-5.78,7.87-7.84,1.81-.1-11.29,5.78-7.87Z"/>
              <path class="cls-15" d="M50.27,99.81c1.4.8.25,7.85-3.55,8.33-3.79.48-2.66-6.11-1.49-7.3,1.17-1.18,3.23-2.06,5.04-1.03Z"/>
              <path class="cls-15" d="M82.63,99.66c2.27,1.96,2.31,8.15,0,9.64-2.31,1.49-6.11-4.73-5.3-8.15.81-3.42,4.01-2.61,5.3-1.49Z"/>
              <path class="cls-13" d="M40.81,89.96c3.67-1-7.6-5.2-9.53-4.83-1.93.37,5.86,5.83,9.53,4.83Z"/>
              <path class="cls-13" d="M95.66,111.31c1.02,1.95-3.41.93-3.55-.56-.14-1.49,2.52-1.4,3.55.56Z"/>
              <path class="cls-13" d="M54.38,123.96c.78.21,1.11,2.29-.42,3.33s-2.26-4.06.42-3.33Z"/>
              <path class="cls-16" d="M105.1,48.07s-2.14-9.95-11.7-12.87c-7.65-2.34-14.53.17-14.53.17,0,0,6.56-3.93,15.96-1.36,9.39,2.57,10.26,14.06,10.26,14.06Z"/>
              <path class="cls-16" d="M47.23,34.02s-10.72-3.52-18.57-.16c-7.85,3.36-7.95,15.33-7.95,15.33,0,0,.33-12.26,10.37-14.49,9.73-2.16,16.15-.68,16.15-.68Z"/>
              <path class="cls-12" d="M21.89,109.81c1.08.78,1.93,5.65-1.62,7.3-3.55,1.66-6.38-5.14-5.54-6.62.84-1.48,5.6-1.8,7.15-.68Z"/>
              <path class="cls-12" d="M112,109.72c2.29,1.46,3.34,6.33-.02,7.43-3.36,1.1-7.65-4.01-7.7-5.18-.05-1.17,4.34-4.39,7.72-2.25Z"/>
            </g>
          </g>
          <g>
            <g>
              <ellipse class="cls-52" cx="84.03" cy="66.37" rx="31.96" ry="27.07" transform="translate(10.19 143.92) rotate(-84.7)"/>
              <path class="cls-51" d="M63.14,64.43c-1.26,13.62,7.07,25.52,18.6,26.59,11.54,1.07,21.91-9.1,23.17-22.72,1.26-13.62-7.07-25.52-18.6-26.59-11.54-1.07-21.91,9.1-23.17,22.72Z"/>
              <path class="cls-14" d="M71.92,64.37c-.88,9.5,3.86,17.71,10.6,18.33,6.73.62,12.91-6.57,13.79-16.07.88-9.5-3.86-17.71-10.6-18.33-6.73-.62-12.91,6.57-13.79,16.07Z"/>
            </g>
            <g>
              <ellipse class="cls-53" cx="41.48" cy="66.37" rx="27.07" ry="31.96" transform="translate(-5.95 4.11) rotate(-5.3)"/>
              <path class="cls-49" d="M62.37,64.43c1.26,13.62-7.07,25.52-18.6,26.59-11.54,1.07-21.91-9.1-23.17-22.72-1.26-13.62,7.07-25.52,18.6-26.59,11.54-1.07,21.91,9.1,23.17,22.72Z"/>
              <path class="cls-14" d="M53.6,64.37c.88,9.5-3.86,17.71-10.6,18.33-6.73.62-12.91-6.57-13.79-16.07-.88-9.5,3.86-17.71,10.6-18.33,6.73-.62,12.91,6.57,13.79,16.07Z"/>
            </g>
            <path class="cls-50" d="M67.3,78.38s-1.08,5.15-4.91,4.99c-3.83-.16-4.82-6.63-4.82-6.63,0,0,5.5,3.51,9.73,1.63Z"/>
          </g>
        </g>
      </g>
    </g>
  </g>
</svg>