<?xml version="1.0" encoding="UTF-8"?>
<svg xmlns="http://www.w3.org/2000/svg" xmlns:xlink="http://www.w3.org/1999/xlink" viewBox="0 0 118.49 199.36">
  <defs>
    <style>
      .cls-1 {
        fill: #c22781;
        opacity: .2;
      }

      .cls-1, .cls-2, .cls-3, .cls-4, .cls-5, .cls-6, .cls-7, .cls-8, .cls-9, .cls-10, .cls-11, .cls-12, .cls-13, .cls-14 {
        mix-blend-mode: multiply;
      }

      .cls-15 {
        opacity: .6;
      }

      .cls-15, .cls-16, .cls-17, .cls-18, .cls-19, .cls-20 {
        fill: #fff;
      }

      .cls-15, .cls-18, .cls-19, .cls-20 {
        mix-blend-mode: soft-light;
      }

      .cls-21 {
        fill: url(#_Áåçûìÿííûé_ãðàäèåíò_80-3);
      }

      .cls-22 {
        fill: url(#_Áåçûìÿííûé_ãðàäèåíò_20-2);
      }

      .cls-23 {
        fill: url(#_Áåçûìÿííûé_ãðàäèåíò_57-3);
      }

      .cls-24 {
        fill: url(#_Áåçûìÿííûé_ãðàäèåíò_88-2);
      }

      .cls-25 {
        fill: #3bc7c2;
      }

      .cls-26 {
        fill: url(#_Áåçûìÿííûé_ãðàäèåíò_81-2);
      }

      .cls-27 {
        fill: url(#_Áåçûìÿííûé_ãðàäèåíò_57-5);
      }

      .cls-28 {
        fill: #731a88;
      }

      .cls-29 {
        fill: url(#radial-gradient-4);
      }

      .cls-29, .cls-17, .cls-30, .cls-31, .cls-32, .cls-33 {
        fill-rule: evenodd;
      }

      .cls-29, .cls-34, .cls-31, .cls-32, .cls-33 {
        mix-blend-mode: screen;
      }

      .cls-2 {
        fill: url(#_Áåçûìÿííûé_ãðàäèåíò_107);
      }

      .cls-2, .cls-3, .cls-5, .cls-19, .cls-8, .cls-9, .cls-11, .cls-12, .cls-14 {
        opacity: .5;
      }

      .cls-35 {
        fill: url(#_Áåçûìÿííûé_ãðàäèåíò_13-6);
      }

      .cls-36 {
        fill: url(#_Áåçûìÿííûé_ãðàäèåíò_13);
      }

      .cls-3 {
        fill: #d14894;
      }

      .cls-37 {
        fill: #3bffc2;
      }

      .cls-18, .cls-7, .cls-10, .cls-13 {
        opacity: .3;
      }

      .cls-30 {
        fill: #4d0542;
      }

      .cls-38 {
        fill: url(#_Áåçûìÿííûé_ãðàäèåíò_20);
      }

      .cls-39 {
        fill: url(#_Áåçûìÿííûé_ãðàäèåíò_81);
      }

      .cls-40 {
        fill: url(#_Áåçûìÿííûé_ãðàäèåíò_132);
      }

      .cls-41 {
        fill: url(#_Áåçûìÿííûé_ãðàäèåíò_89);
      }

      .cls-42 {
        fill: url(#_Áåçûìÿííûé_ãðàäèåíò_80-2);
      }

      .cls-43 {
        fill: url(#_Áåçûìÿííûé_ãðàäèåíò_44);
      }

      .cls-34 {
        fill: url(#radial-gradient);
      }

      .cls-44 {
        fill: url(#_Áåçûìÿííûé_ãðàäèåíò_13-2);
      }

      .cls-45 {
        fill: url(#_Áåçûìÿííûé_ãðàäèåíò_35);
      }

      .cls-46 {
        isolation: isolate;
      }

      .cls-47 {
        fill: url(#_Áåçûìÿííûé_ãðàäèåíò_57);
      }

      .cls-4, .cls-6, .cls-10, .cls-12 {
        fill: #ab2781;
      }

      .cls-48 {
        fill: url(#_Áåçûìÿííûé_ãðàäèåíò_80);
      }

      .cls-49 {
        fill: url(#_Áåçûìÿííûé_ãðàäèåíò_57-4);
      }

      .cls-50 {
        fill: url(#_Áåçûìÿííûé_ãðàäèåíò_13-3);
      }

      .cls-31 {
        fill: url(#radial-gradient-5);
      }

      .cls-32 {
        fill: url(#radial-gradient-3);
      }

      .cls-51 {
        fill: url(#_Áåçûìÿííûé_ãðàäèåíò_89-2);
      }

      .cls-52 {
        fill: url(#_Áåçûìÿííûé_ãðàäèåíò_57-2);
      }

      .cls-5 {
        fill: #ab0481;
      }

      .cls-6 {
        opacity: .8;
      }

      .cls-7, .cls-11 {
        fill: #c72781;
      }

      .cls-53 {
        fill: url(#_Áåçûìÿííûé_ãðàäèåíò_88);
      }

      .cls-54 {
        fill: #aaefff;
      }

      .cls-8, .cls-13 {
        fill: #e767a7;
      }

      .cls-9 {
        fill: url(#_Áåçûìÿííûé_ãðàäèåíò_71);
      }

      .cls-33 {
        fill: url(#radial-gradient-2);
      }

      .cls-55 {
        fill: url(#_Áåçûìÿííûé_ãðàäèåíò_57-6);
      }

      .cls-56 {
        fill: url(#_Áåçûìÿííûé_ãðàäèåíò_13-5);
      }

      .cls-14 {
        fill: url(#_Áåçûìÿííûé_ãðàäèåíò_71-2);
      }

      .cls-57 {
        fill: url(#_Áåçûìÿííûé_ãðàäèåíò_13-4);
      }

      .cls-58 {
        fill: url(#_Áåçûìÿííûé_ãðàäèåíò_30);
      }
    </style>
    <linearGradient id="_Áåçûìÿííûé_ãðàäèåíò_13" data-name="Áåçûìÿííûé ãðàäèåíò 13" x1="-1133.83" y1="115.43" x2="-1133.83" y2="83.02" gradientTransform="translate(-1110.89) rotate(-180) scale(1 -1)" gradientUnits="userSpaceOnUse">
      <stop offset="0" stop-color="#ffd7da"/>
      <stop offset=".32" stop-color="#ffdfe1"/>
      <stop offset=".83" stop-color="#fff5f6"/>
      <stop offset="1" stop-color="#fff"/>
    </linearGradient>
    <linearGradient id="_Áåçûìÿííûé_ãðàäèåíò_81" data-name="Áåçûìÿííûé ãðàäèåíò 81" x1="-1120.45" y1="111.96" x2="-1120.45" y2="83.02" gradientTransform="translate(-1110.89) rotate(-180) scale(1 -1)" gradientUnits="userSpaceOnUse">
      <stop offset="0" stop-color="#ff2443"/>
      <stop offset=".99" stop-color="#e522d9"/>
    </linearGradient>
    <linearGradient id="_Áåçûìÿííûé_ãðàäèåíò_80" data-name="Áåçûìÿííûé ãðàäèåíò 80" x1="-1185.71" y1="199.36" x2="-1185.71" y2="189.29" gradientTransform="translate(-1110.89) rotate(-180) scale(1 -1)" gradientUnits="userSpaceOnUse">
      <stop offset="0" stop-color="#e522d9"/>
      <stop offset="1" stop-color="#ff2443"/>
    </linearGradient>
    <linearGradient id="_Áåçûìÿííûé_ãðàäèåíò_80-2" data-name="Áåçûìÿííûé ãðàäèåíò 80" x1="-1136.87" y1="196.54" x2="-1136.87" y2="188.11" xlink:href="#_Áåçûìÿííûé_ãðàäèåíò_80"/>
    <linearGradient id="_Áåçûìÿííûé_ãðàäèåíò_30" data-name="Áåçûìÿííûé ãðàäèåíò 30" x1="-1142.88" y1="192.75" x2="-1142.88" y2="137.74" gradientTransform="translate(-1110.89) rotate(-180) scale(1 -1)" gradientUnits="userSpaceOnUse">
      <stop offset="0" stop-color="#ffc3c4"/>
      <stop offset=".44" stop-color="#ffc4cc"/>
      <stop offset="1" stop-color="#ffc9de"/>
    </linearGradient>
    <linearGradient id="_Áåçûìÿííûé_ãðàäèåíò_20" data-name="Áåçûìÿííûé ãðàäèåíò 20" x1="-1184.66" y1="194.83" x2="-1184.66" y2="131.71" gradientTransform="translate(-1110.89) rotate(-180) scale(1 -1)" gradientUnits="userSpaceOnUse">
      <stop offset="0" stop-color="#ffd7da"/>
      <stop offset=".45" stop-color="#ffdfde"/>
      <stop offset="1" stop-color="#fff0e8"/>
    </linearGradient>
    <linearGradient id="_Áåçûìÿííûé_ãðàäèåíò_20-2" data-name="Áåçûìÿííûé ãðàäèåíò 20" x1="-1168.35" y1="156.84" x2="-1168.35" y2="99.85" xlink:href="#_Áåçûìÿííûé_ãðàäèåíò_20"/>
    <linearGradient id="_Áåçûìÿííûé_ãðàäèåíò_80-3" data-name="Áåçûìÿííûé ãðàäèåíò 80" x1="-1153.26" y1="125.82" x2="-1153.26" y2="109.43" xlink:href="#_Áåçûìÿííûé_ãðàäèåíò_80"/>
    <linearGradient id="_Áåçûìÿííûé_ãðàäèåíò_57" data-name="Áåçûìÿííûé ãðàäèåíò 57" x1="-1178.49" y1="162.74" x2="-1178.49" y2="129.07" gradientTransform="translate(-1110.89) rotate(-180) scale(1 -1)" gradientUnits="userSpaceOnUse">
      <stop offset="0" stop-color="#931a84"/>
      <stop offset="1" stop-color="#ae04b1"/>
    </linearGradient>
    <linearGradient id="_Áåçûìÿííûé_ãðàäèåíò_13-2" data-name="Áåçûìÿííûé ãðàäèåíò 13" x1="-1188.59" y1="139.18" x2="-1188.59" y2="101.77" xlink:href="#_Áåçûìÿííûé_ãðàäèåíò_13"/>
    <linearGradient id="_Áåçûìÿííûé_ãðàäèåíò_13-3" data-name="Áåçûìÿííûé ãðàäèåíò 13" x1="-1170.48" y1="103.39" x2="-1170.48" y2="12.22" xlink:href="#_Áåçûìÿííûé_ãðàäèåíò_13"/>
    <linearGradient id="_Áåçûìÿííûé_ãðàäèåíò_35" data-name="Áåçûìÿííûé ãðàäèåíò 35" x1="-1191.76" y1="133.4" x2="-1191.76" y2="101.9" gradientTransform="translate(-1103.15 56.74) rotate(175.22) scale(1 -1)" gradientUnits="userSpaceOnUse">
      <stop offset="0" stop-color="#ffc3c4"/>
      <stop offset=".51" stop-color="#ffbac7"/>
      <stop offset="1" stop-color="#ffaece"/>
    </linearGradient>
    <linearGradient id="_Áåçûìÿííûé_ãðàäèåíò_44" data-name="Áåçûìÿííûé ãðàäèåíò 44" x1="-1189.54" y1="129.86" x2="-1189.54" y2="103.81" gradientTransform="translate(-1103.15 56.74) rotate(175.22) scale(1 -1)" gradientUnits="userSpaceOnUse">
      <stop offset="0" stop-color="#ff7b7d"/>
      <stop offset=".35" stop-color="#f87585"/>
      <stop offset=".89" stop-color="#e7669b"/>
      <stop offset="1" stop-color="#e363a1"/>
    </linearGradient>
    <linearGradient id="_Áåçûìÿííûé_ãðàäèåíò_13-4" data-name="Áåçûìÿííûé ãðàäèåíò 13" x1="-1191.15" y1="126.84" x2="-1191.15" y2="107.1" gradientTransform="translate(-1103.15 56.74) rotate(175.22) scale(1 -1)" xlink:href="#_Áåçûìÿííûé_ãðàäèåíò_13"/>
    <linearGradient id="_Áåçûìÿííûé_ãðàäèåíò_57-2" data-name="Áåçûìÿííûé ãðàäèåíò 57" x1="-1173.88" y1="122.6" x2="-1173.88" y2="99.07" xlink:href="#_Áåçûìÿííûé_ãðàäèåíò_57"/>
    <linearGradient id="_Áåçûìÿííûé_ãðàäèåíò_57-3" data-name="Áåçûìÿííûé ãðàäèåíò 57" x1="-1149.63" y1="120.48" x2="-1149.63" y2="98" xlink:href="#_Áåçûìÿííûé_ãðàäèåíò_57"/>
    <linearGradient id="_Áåçûìÿííûé_ãðàäèåíò_57-4" data-name="Áåçûìÿííûé ãðàäèåíò 57" x1="-1157.44" y1="162.75" x2="-1157.44" y2="133.2" xlink:href="#_Áåçûìÿííûé_ãðàäèåíò_57"/>
    <linearGradient id="_Áåçûìÿííûé_ãðàäèåíò_57-5" data-name="Áåçûìÿííûé ãðàäèåíò 57" x1="-1185.97" y1="172.99" x2="-1185.97" y2="154.44" xlink:href="#_Áåçûìÿííûé_ãðàäèåíò_57"/>
    <linearGradient id="_Áåçûìÿííûé_ãðàäèåíò_57-6" data-name="Áåçûìÿííûé ãðàäèåíò 57" x1="-1139.29" y1="169.28" x2="-1139.29" y2="154.44" xlink:href="#_Áåçûìÿííûé_ãðàäèåíò_57"/>
    <linearGradient id="_Áåçûìÿííûé_ãðàäèåíò_89" data-name="Áåçûìÿííûé ãðàäèåíò 89" x1="-1186.66" y1="171.35" x2="-1186.66" y2="155.2" gradientTransform="translate(-1110.89) rotate(-180) scale(1 -1)" gradientUnits="userSpaceOnUse">
      <stop offset="0" stop-color="#e522d9"/>
      <stop offset="1" stop-color="#ff2483"/>
    </linearGradient>
    <linearGradient id="_Áåçûìÿííûé_ãðàäèåíò_89-2" data-name="Áåçûìÿííûé ãðàäèåíò 89" x1="-1139.15" y1="167.98" x2="-1139.15" y2="154.44" xlink:href="#_Áåçûìÿííûé_ãðàäèåíò_89"/>
    <linearGradient id="_Áåçûìÿííûé_ãðàäèåíò_71" data-name="Áåçûìÿííûé ãðàäèåíò 71" x1="-1163.12" y1="74.07" x2="-1163.12" y2="18.96" gradientTransform="translate(-1110.89) rotate(-180) scale(1 -1)" gradientUnits="userSpaceOnUse">
      <stop offset="0" stop-color="#fff"/>
      <stop offset="1" stop-color="#d91a81"/>
    </linearGradient>
    <radialGradient id="_Áåçûìÿííûé_ãðàäèåíò_132" data-name="Áåçûìÿííûé ãðàäèåíò 132" cx="-1150.96" cy="84.2" fx="-1150.96" fy="84.2" r="59.08" gradientTransform="translate(-1110.89) rotate(-180) scale(1 -1)" gradientUnits="userSpaceOnUse">
      <stop offset="0" stop-color="#dc16b1"/>
      <stop offset=".38" stop-color="#9517a9"/>
      <stop offset="1" stop-color="#5a1a88"/>
    </radialGradient>
    <radialGradient id="radial-gradient" cx="-1150.96" cy="84.2" fx="-1150.96" fy="84.2" r="59.08" gradientTransform="translate(-1110.89) rotate(-180) scale(1 -1)" gradientUnits="userSpaceOnUse">
      <stop offset="0" stop-color="#000"/>
      <stop offset=".27" stop-color="#010002"/>
      <stop offset=".41" stop-color="#050009"/>
      <stop offset=".52" stop-color="#0b0017"/>
      <stop offset=".61" stop-color="#15002a"/>
      <stop offset=".69" stop-color="#210042"/>
      <stop offset=".77" stop-color="#300060"/>
      <stop offset=".84" stop-color="#420084"/>
      <stop offset=".9" stop-color="#5700ae"/>
      <stop offset=".96" stop-color="#6e00dc"/>
      <stop offset="1" stop-color="#8000ff"/>
    </radialGradient>
    <linearGradient id="_Áåçûìÿííûé_ãðàäèåíò_71-2" data-name="Áåçûìÿííûé ãðàäèåíò 71" x1="-1203.36" y1="88.73" x2="-1123.91" y2="88.73" xlink:href="#_Áåçûìÿííûé_ãðàäèåíò_71"/>
    <linearGradient id="_Áåçûìÿííûé_ãðàäèåíò_13-5" data-name="Áåçûìÿííûé ãðàäèåíò 13" x1="-1216.8" y1="79.79" x2="-1216.8" y2="0" xlink:href="#_Áåçûìÿííûé_ãðàäèåíò_13"/>
    <linearGradient id="_Áåçûìÿííûé_ãðàäèåíò_88" data-name="Áåçûìÿííûé ãðàäèåíò 88" x1="-1156.43" y1="180.56" x2="-1128.45" y2="180.56" gradientTransform="translate(-1110.89) rotate(-180) scale(1 -1)" gradientUnits="userSpaceOnUse">
      <stop offset="0" stop-color="#ff2483"/>
      <stop offset=".99" stop-color="#e522d9"/>
    </linearGradient>
    <linearGradient id="_Áåçûìÿííûé_ãðàäèåíò_88-2" data-name="Áåçûìÿííûé ãðàäèåíò 88" x1="-1196.53" y1="181.94" x2="-1167.94" y2="181.94" xlink:href="#_Áåçûìÿííûé_ãðàäèåíò_88"/>
    <linearGradient id="_Áåçûìÿííûé_ãðàäèåíò_81-2" data-name="Áåçûìÿííûé ãðàäèåíò 81" x1="-1186.34" y1="139.61" x2="-1186.34" y2="121.69" xlink:href="#_Áåçûìÿííûé_ãðàäèåíò_81"/>
    <linearGradient id="_Áåçûìÿííûé_ãðàäèåíò_13-6" data-name="Áåçûìÿííûé ãðàäèåíò 13" x1="-1155.9" y1="43.95" x2="-1155.9" y2="15.05" xlink:href="#_Áåçûìÿííûé_ãðàäèåíò_13"/>
    <linearGradient id="_Áåçûìÿííûé_ãðàäèåíò_107" data-name="Áåçûìÿííûé ãðàäèåíò 107" x1="-1155.9" y1="43.95" x2="-1155.9" y2="20.62" gradientTransform="translate(-1110.89) rotate(-180) scale(1 -1)" gradientUnits="userSpaceOnUse">
      <stop offset="0" stop-color="#d91a81"/>
      <stop offset="1" stop-color="#fff"/>
    </linearGradient>
    <radialGradient id="radial-gradient-2" cx="-1497.04" cy="161.93" fx="-1497.04" fy="161.93" r="16.22" gradientTransform="translate(1280.29 -235.56) rotate(-1.38) scale(.82 1.62) skewX(-11.98)" gradientUnits="userSpaceOnUse">
      <stop offset=".02" stop-color="#f200a5"/>
      <stop offset=".17" stop-color="#bf0082"/>
      <stop offset=".4" stop-color="#7c0054"/>
      <stop offset=".6" stop-color="#460030"/>
      <stop offset=".77" stop-color="#200016"/>
      <stop offset=".91" stop-color="#080005"/>
      <stop offset="1" stop-color="#000"/>
    </radialGradient>
    <radialGradient id="radial-gradient-3" cx="-1497.04" cy="161.93" fx="-1497.04" fy="161.93" r="12.57" gradientTransform="translate(1280.29 -235.56) rotate(-1.38) scale(.82 1.62) skewX(-11.98)" gradientUnits="userSpaceOnUse">
      <stop offset=".02" stop-color="#ce00f2"/>
      <stop offset=".17" stop-color="#a300bf"/>
      <stop offset=".4" stop-color="#69007c"/>
      <stop offset=".6" stop-color="#3c0046"/>
      <stop offset=".77" stop-color="#1b0020"/>
      <stop offset=".91" stop-color="#070008"/>
      <stop offset="1" stop-color="#000"/>
    </radialGradient>
    <radialGradient id="radial-gradient-4" cx="-1101.44" cy="28.95" fx="-1101.44" fy="28.95" r="19.03" gradientTransform="translate(1188.7 22.47) rotate(-1.58) scale(1.03 .43)" xlink:href="#radial-gradient-2"/>
    <radialGradient id="radial-gradient-5" cx="-1101.44" cy="28.95" fx="-1101.44" fy="28.95" r="14.75" gradientTransform="translate(1188.7 22.47) rotate(-1.58) scale(1.03 .43)" xlink:href="#radial-gradient-3"/>
  </defs>
  <g class="cls-46">
    <g id="Calque_2" data-name="Calque 2">
      <g id="Layer_3" data-name="Layer 3">
        <g>
          <g>
            <path class="cls-54" d="M104.11,73.12s13.16-14.81,14.28-34.96c1.12-20.15-7.46-33.27-7.46-33.27,0,0-.29,33.47-1.5,44.85-1.21,11.38-5.31,23.38-5.31,23.38Z"/>
            <path class="cls-54" d="M104.75,71.63s-8.79,21.1-15.76,25.85c-6.97,4.76-24.02,4.28-24.02,4.28,0,0,20.43,5.19,28.03,9.07,7.6,3.88,1.34,12.64-3.76,19.82-5.1,7.17-8.89,7.92-8.89,7.92,0,0,2.67,15.71,4.07,23.28s2.58,12.9,2.95,15.4c.37,2.5,4.82,7.99,5.79,13.2.97,5.21-.92,7.73-.92,7.73l-22.41-9.75-1.97-69.44-12.57-28.66,49.46-18.7Z"/>
            <g>
              <path class="cls-36" d="M.05,105.03c.2,3.49,2.8,5.38,5.84,6.19h0c.75.2,1.53.33,2.29.4,2.99.29,5.62.1,7.75.33.66.07,1.27.18,1.83.35.76.25,2.23.85,4.22,1.48h0c2.23.7,5.12,1.4,8.43,1.6,1.32.07,2.71.07,4.15-.05,1.68-.13,3.43-.41,5.22-.91,10.64-2.93,4.05-13.98,4.05-13.98-1.08-.44-3.35-.75-5.99-1.04-4.32-.49-9.64-.98-12.37-2.09-2.06-.84-3.83-1.44-5.18-2.04-1.03-.44-1.83-.89-2.32-1.42-.25-.26-.41-.53-.51-.84-.56-1.77-4.07-3.64-5.56-6.82-1.5-3.17-1.74-3.47-2.42-3.03-.69.44-2.66,2.82-.75,7.16-.28-.11-4.7-1.85-6.27-1.85s-2.11,2.98-1.99,6.59c.13,3.61-.68,5.6-.43,9.96Z"/>
              <path class="cls-39" d="M.05,105.03c.2,3.49,2.8,5.38,5.84,6.19h0c.75.2,1.53.33,2.29.4,2.99.29,5.62.1,7.75.33,2.05-3.61,3.43-9.51,3.13-13.93v-.03c-.1-1.66-.45-3.1-1.09-4.14-.25-.26-.41-.53-.51-.84-.56-1.77-4.07-3.64-5.56-6.82-1.5-3.17-1.74-3.47-2.42-3.03-.69.44-2.66,2.82-.75,7.16-.28-.11-4.7-1.85-6.27-1.85s-2.11,2.98-1.99,6.59c.13,3.61-.68,5.6-.43,9.96Z"/>
              <path class="cls-8" d="M20.31,95.28h0s4.62,14.67,7.36,18.03c.85,1.04,1.82,1.68,2.77,2.08,1.32.07,2.71.07,4.15-.05l3.28-15.93c-4.32-.49-9.64-.98-12.37-2.09-2.06-.84-3.83-1.44-5.18-2.04Z"/>
              <path class="cls-48" d="M57.45,194.83c.8.18,5.64,1.02,12.36,3.36,6.72,2.33,21.65.56,22.43,0,.67-.48.2-3.44.04-4.28,0,0,0-.02,0-.06-.02-.11-.03-.17-.03-.17l-2.83-.35-18.45-2.31-13.7-1.72s0,.03,0,.09c0,.03,0,.06,0,.1,0,.02,0,.05,0,.09,0,.04,0,.09,0,.14,0,.03,0,.06,0,.09-.13,1.34-.41,4.9.24,5.04Z"/>
              <path class="cls-42" d="M6.02,193.55c.22.33,1.67.95,3.98,1.53,0,0,.03,0,.08,0,3.05.78,7.56,1.49,12.64,1.45,8.98-.06,10.37-1.62,12.85-1.7,2.49-.1,10.15-.29,10.39-1.15.19-.67-.26-2.49-.41-3.46-.06-.3-.08-.51-.05-.59h-.36s-12.36-.49-12.36-.49l-25.38-.99-.84-.03s-.03.2-.08.52c-.21,1.3-.68,4.56-.45,4.92Z"/>
              <path class="cls-58" d="M6.55,188.11c.46.93,2.61,2.51,9.24,3.82,6.63,1.31,17.54.84,19.69,0,2.15-.84,9.43-1.4,9.89-1.96.47-.56-.09-4.11,0-5.88.03-.57.17-1.51.43-2.66.54-2.38,1.63-5.69,3.4-8.54,2.61-4.2,5.78-8.2,6.43-9.62.06-.14.13-.34.2-.63.67-2.72,1.63-11.57,1.63-11.57,0,0-17.84-16.11-17.59-12.91.11,1.4-.83,4.62-2.37,8.21-.07.17-.15.33-.22.5-2,4.5-4.92,9.49-7.95,12.21-5.6,5.04-9.15,12.78-12.97,16.14-3.83,3.36-10.26,11.95-9.8,12.88Z"/>
              <path class="cls-38" d="M55.29,158.47c.07,1.33.3,2.49.59,3.55.08.24.15.46.22.68,0,.02,0,.04.02.05h0c.88,2.62,2.15,4.59,2.29,6.9,0,.09.02.18.02.27,0,.35,0,.84-.03,1.41,0,.02,0,.05,0,.08-.26,5.14-1.81,17.56-.94,18.49.98,1.02,6.8,1.8,13.64,3.79,6.84,1.99,21.15.99,21.15,0s-.49-4.48-3.36-9.58c-2.86-5.1-2.86-3.48-3.49-8.46-.62-4.97-3.6-12.93-3.85-20.28-.11-3.36-.38-8-1.04-12.31-.26-1.58-.55-3.11-.91-4.52-.21-.81-.43-1.59-.69-2.3-.11-.32-.23-.62-.34-.91-.67-1.64-1.49-2.93-2.49-3.6,0,0-21.03,21.53-20.77,26.75Z"/>
              <path class="cls-22" d="M62.48,102c2.39.48.9,11.37,4.26,18.37,3.36,7,7.09,7.49,9.33,11.35,2.24,3.86-12.57,23.52-20.4,25.01-7.84,1.49-16.05-11.45-16.05-21.77s-1.74-13.69-.62-21.65c1.12-7.96,3.36-11.57,5.85-13.06,2.49-1.49,17.64,1.76,17.64,1.76Z"/>
              <path class="cls-21" d="M42.44,125.75c-1.89-.49-3.76-3.74-3.4-9.7.18-2.99.91-5.09,2.11-6.06.56-.46,1.21-.64,1.89-.54h0c.49.07.92.46,1.28,1.14,1.53,2.9,1.93,11.12.66,13.74-.46.95-1.19,1.48-2.02,1.48-.17,0-.35-.02-.53-.07ZM42.9,110.43c-.4-.06-.78.05-1.13.33-.56.45-1.53,1.75-1.75,5.35-.35,5.73,1.45,8.36,2.67,8.68.76.2,1.21-.47,1.41-.89,1.12-2.33.73-10.25-.64-12.85-.23-.44-.44-.61-.55-.63h0Z"/>
              <path class="cls-47" d="M55.88,162.09c.11.3.19.5.23.6,0,.02,0,.04.02.05.24-.4,5.37-9.23,13.31-17.37,6.45-6.61,8.79-8.61,9.48-9.15.18-.15.25-.19.25-.19l.44,2.48c.52-1.11.76-2.25.76-3.31,0-4.37-3.94-7.8-8.33-5.3-5.47,3.11-15.37,22.83-16.73,25.14-1.07,1.8.06,5.53.59,7.04Z"/>
              <path class="cls-8" d="M63.68,101.77c-2.12.3-3.95,13.4-14.96,16.08-11.01,2.67-8.72-9.58-8.7-13.56s1.8-5.21,1.8-5.21c0,0,1.34,1.6,6,3.1,4.67,1.49,15.86-.4,15.86-.4Z"/>
              <path class="cls-44" d="M74.14,120.27c.25.21-.03.98-.24,1.46-.11.25-.2.41-.2.41,0,0-2.94-.83-5.78.62-2.85,1.45-3.89,2.13-3.8,2.93.1.79,1.59,1.63,2.66,1.3,1.07-.32,1.59-.14,1.59-.14-3.23,1.62-5.95,6.54-4.06,9.56,3.27,5.23,15.4,2.06,19.41-1.4,1.05-.91,2.33-2.29,3.65-3.89.99-1.2,2.01-2.53,2.96-3.88,0,0,0,0,0-.02,2.61-3.67,4.76-7.48,4.76-9.19,0-3.17-1.77-6.16-8.49-8.4-4.62-1.54-12.74-5.3-18.42-7-2.6-.78-4.69-1.12-5.72-.63-3.95,1.88-2.21,13.86,2.39,15.91.14.06.29.13.42.18,4.44,1.88,8.48,1.89,8.85,2.19Z"/>
              <path class="cls-50" d="M11.94,71.02c.13.51.28,1,.43,1.48.18.52.39,1.05.65,1.58,5.13,10.63,25.67,22.43,32.07,27.28,0,0,4.06,3.61,13.48,1.21h0s.03-.02.05-.02c.45-.11.92-.24,1.39-.38,0,0,18.91-.93,26.62-5.78,1.62-1.01,3.65-2.89,5.82-5.37h0c2.81-3.2,5.84-7.44,8.5-12.18,0-.02.02-.03.02-.03,5.12-9.15,8.84-20.22,6.8-29.64-3.92-18.1-26.87-35.27-49.08-36.76-15.13-1.02-26.99,2.24-34.32,6.65-3.44,2.07-5.87,4.39-7.18,6.66-3.95,6.82-8.58,32.5-5.28,45.31Z"/>
              <path class="cls-45" d="M103.21,58.24c4.98-2.06-.43,18.76-7.08,25.81-6.65,7.05-10.98,7.53-12.39,7.15s1.73-25.61,19.47-32.96Z"/>
              <path class="cls-43" d="M99.11,60.4s5.14,5.8-3.05,17.63c-8.19,11.83-12.45,9.53-12.45,9.53,0,0,2.04-19.25,15.5-27.16Z"/>
              <path class="cls-12" d="M58.63,102.55c.45-.11.92-.24,1.39-.38,0,0,18.91-.93,26.62-5.78,1.62-1.01,3.65-2.89,5.82-5.37h0c2.81-3.2,5.84-7.44,8.5-12.18-.5.56-8.51,9.61-14.83,12.46-6.32,2.86-26.27,10.77-27.51,11.26Z"/>
              <path class="cls-57" d="M99.92,64.15c-.9-2.97-11.55,8.88-13.23,20.4,0,0,18.97-1.59,13.23-20.4Z"/>
              <path class="cls-28" d="M100.53,71.5c-.75-3.02-5.65,4.42-5.27,8.97.14,1.66,6.66-3.33,5.27-8.97Z"/>
              <path class="cls-52" d="M58.93,116.79c.04.07.07.14.11.21,0,0,0,.02,0,.03.23.41.45.82.69,1.2,0,0,.02.02.03.03,1.55,2.51,3.37,4.16,4.81,4.31,3.32.37,3.29-3.58,3.29-3.58,0,0-2.34.81-3.18-5.82-.84-6.62,3.53-10.55,3.53-10.55l1.34.42c-.51-.91-1.21-1.67-2.03-2.3-3.95-2.98-10.59-2.34-11.04,4.71-.28,4.14.85,8.19,2.45,11.33Z"/>
              <path class="cls-23" d="M38.67,120.48s-.34-6.87,1.33-12.24c1.66-5.38,4.54-7.28,4.54-7.28l-4.26-2.96s-2.64-.17-4.76,2.3h0c-1.17,1.39-2.19,3.59-2.49,7.09-.84,9.8,5.65,13.08,5.65,13.08Z"/>
              <path class="cls-7" d="M39.53,131.15s1.99,13,11.47,15.5c8.45,2.23,14.98-12.46,19.43-15.5,0,0-13.12,18.25-15.45,26.41,0,0-9.28-4.81-12.45-12.09-3.17-7.28-2.94-12.26-2.94-12.26l-.07-2.05Z"/>
              <path class="cls-49" d="M39.6,133.2s-3.93,3.96-2.16,13.01c1.77,9.05,14.97,16.38,18.68,16.54,0,0-.93-5.1-1.41-5.92-.48-.82-7.29-4.74-10.74-10.15-3.45-5.41-4.37-13.47-4.37-13.47Z"/>
              <path class="cls-27" d="M77.27,172.92c7.1-1.81,4.27-14.22.89-17.29-3.38-3.07-8.58-.03-9.59,7.57-1.01,7.6,6.4,10.31,8.7,9.72Z"/>
              <path class="cls-55" d="M32.39,154.72c3.38-1.93,2.95,6.47-.65,11.15-3.49,4.54-7.98,3.54-9.42,2.61-1.44-.93,4.69-10.7,10.07-13.76Z"/>
              <path class="cls-41" d="M79.56,169.56c2.31-3.11,1.62-11.97-2.55-13.95-4.17-1.98-6.21,3.55-6.35,7.32-.22,6.02,5.43,11.29,8.9,6.63Z"/>
              <path class="cls-51" d="M32.99,154.45c1.71.25,1.12,7-1.98,10.5s-7.46,3.39-8.3,2.49c-.84-.9,2.08-5.51,4.36-8.45,2.28-2.94,5.16-4.66,5.92-4.55Z"/>
              <path class="cls-9" d="M11.94,71.02l6.78,3.05,69.16-9.04s6.66-9.99,5.68-22.02c-.98-12.04-10.58-19.1-16.36-20.03-5.79-.94-23.76,2.98-33.84,1.87-10.08-1.12-12.77-6.66-18.95-5.79-3.44,2.07-5.87,4.39-7.18,6.66-3.95,6.82-8.58,32.5-5.28,45.31Z"/>
              <path class="cls-12" d="M67.72,120.13s-4.43,1.8-7.44-1.08c0,0,2.16,8.17,5.29,12.1,4.64,5.83,8.2.88,8.2.88,0,0-4.59-6.4-6.5-10.71l.46-1.19Z"/>
              <path class="cls-40" d="M13.89,66.78c.47,1.39,1.04,2.72,1.71,3.97.52.97,1.14,1.88,1.87,2.75v.02c10.85,13.01,42.78,14.73,52.63,10.29,4.38-1.97,9.7-6.92,14.1-13.02.02-.03.04-.05.05-.08,3.83-5.33,6.95-11.53,8.12-17.38,2.48-12.56-4.48-26-13.28-28.11-8.79-2.12-21.07,3.85-32.63,4.23-11.57.37-14.12-5.7-16.3-6.78-1.55-.77-4.31-2.79-9.58,1.67-5.84,4.96-11.93,27.21-6.69,42.44Z"/>
              <path class="cls-34" d="M13.89,66.78c.47,1.39,1.04,2.72,1.71,3.97.52.97,1.14,1.88,1.87,2.75v.02c10.85,13.01,42.78,14.73,52.63,10.29,4.38-1.97,9.7-6.92,14.1-13.02.02-.03.04-.05.05-.08,3.83-5.33,6.95-11.53,8.12-17.38,2.48-12.56-4.48-26-13.28-28.11-8.79-2.12-21.07,3.85-32.63,4.23-11.57.37-14.12-5.7-16.3-6.78-1.55-.77-4.31-2.79-9.58,1.67-5.84,4.96-11.93,27.21-6.69,42.44Z"/>
              <path class="cls-14" d="M13.02,74.07c5.13,10.63,25.67,22.43,32.07,27.28,0,0,4.47,3.98,14.93.81,0,0,18.91-.93,26.62-5.78,1.62-1.01,3.65-2.89,5.82-5.37-4.77.86-18.3,2.87-34.56,1.44-21.9-1.92-35.71-6.44-44.89-18.38Z"/>
              <path class="cls-6" d="M101,70.54s.64-4.39-3.84-3.92c-4.48.47-12.26,14.69-12.26,14.69,0,0,1.74-8.53,7.98-15.34,6.24-6.82,9.94-8.4,11.87-7.29,1.94,1.11-1.02,11.08-1.65,12.12-.63,1.04-2.38,2.78-2.38,2.78l.27-3.04Z"/>
              <path class="cls-56" d="M97.36,79.52c3.66-2.49,11.78-10.83,15.77-27.53,1.32-5.51,2.19-11.93,2.29-19.35.44-29.89-10.83-37.21-9.75-30.16,0,0,0,.03.02.1,3.55,23.34,3.01,59.27-1.21,64.21-4.24,4.95-4.34,4.24-4.34,4.24-3.66,2.79-4.81,10.25-2.78,8.49Z"/>
              <path class="cls-10" d="M97.36,79.52c3.66-2.49,11.78-10.83,15.77-27.53-2.13,4.04-3.75,3.15-3.84-15.99-.1-18.23-3.29-32.16-3.6-33.42,3.55,23.34,3.01,59.27-1.21,64.21-4.24,4.95-4.34,4.24-4.34,4.24-3.66,2.79-4.81,10.25-2.78,8.49Z"/>
              <path class="cls-4" d="M79.81,139.41c-4.58.18-6.66,2.33-10.38,5.96-3.72,3.64-5.78-4.34-4.77-7.05,1.01-2.71,14.49-2.8,14.49-2.8l.66,3.88Z"/>
              <path class="cls-12" d="M40.11,101.43s-2.03,12.34-1.44,19.05c0,0-.34-6.87,1.33-12.24,1.66-5.38,4.54-7.28,4.54-7.28l-4.26-2.96s-2.64-.17-4.76,2.3c.23-.08,3.69-1.34,4.59,1.12Z"/>
              <path class="cls-12" d="M59.77,118.26c1.55,2.51,3.37,4.16,4.81,4.31,3.32.37,3.29-3.58,3.29-3.58,0,0-2.34.81-3.18-5.82-.84-6.62,3.53-10.55,3.53-10.55l1.34.42c-.51-.91-1.21-1.67-2.03-2.3-.54.22-2.95,1.56-3.83,8.48-1,7.81.48,9.26.58,10.1.07.7-2.98.56-4.5-1.07Z"/>
              <path class="cls-12" d="M58.93,116.79c.04.07.07.14.11.21-.21-.72-.22-.69-.11-.21Z"/>
              <path class="cls-8" d="M65.29,118.08c4.44,1.88,8.48,1.89,8.85,2.19,0,0-2.38-6.4,2.16-10.64,4.54-4.23,15.78,3.34,16.58,6.81.77,3.37-2.35,10.34-2.53,10.78,2.61-3.67,4.76-7.48,4.76-9.19,0-3.17-1.77-6.16-8.49-8.4-4.62-1.54-12.74-5.3-18.42-7-.26.07-3.8,1.11-4.2,7.62-.26,4.2.5,6.56,1.29,7.83Z"/>
              <path class="cls-53" d="M45.36,184.84s-16.7-15.96-27.8-10.83c0,0,12.97-4.85,27.98,14.09l-.18-3.27Z"/>
              <path class="cls-24" d="M85.64,177.39s-14.96-7.19-28.59,8.76l.15,1.96s8.8-16.13,28.44-10.72Z"/>
              <path class="cls-11" d="M43.97,165.93c1.35,7.07,1.83,15.5,1.83,15.5.54-2.38,1.63-5.69,3.4-8.54,2.61-4.2,5.78-8.2,6.43-9.62.06-.14.13-.34.2-.63-13.98-5.09-17.86-14.91-18.34-16.27-.03-.1-.05-.16-.05-.16,0,0-.16.22-.17.66-.03,2.26,4.96,9.97,6.7,19.06Z"/>
              <path class="cls-12" d="M58.4,171.32s0,.05,0,.08v.02s0-.03,0-.1Z"/>
              <path class="cls-12" d="M55.88,162.09c.11.3.19.5.23.6,0,.02,0,.04.02.05h0c.88,2.62,2.15,4.59,2.29,6.9.18-3.35,2.84-13.41,9.19-21.44,8.49-10.73,12.89-5.15,12.89-5.15h0c-.26-1.59-.55-3.12-.91-4.53.52-1.11.76-2.25.76-3.31-.52-.07-1.11-.05-1.79.11-2.68.61-5.25,3.6-11.89,10.89-7.56,8.31-10.51,13.93-10.79,15.8,0,.03,0,.06,0,.08Z"/>
              <path class="cls-26" d="M64.11,136.06h0s.02.04.04.07c1.39,2.2,3.27,3.49,7.27,3.49,4.49,0,9.99-2.62,12.29-4.6,1.05-.91,2.33-2.29,3.65-3.89-.03-.18-.06-.35-.09-.53-1.88-9.94-13.39-8.86-13.39-8.86-.11.25-.2.41-.2.41,0,0-.2-.06-.53-.11-.97-.17-3.38-.7-5.5.37-2.85,1.45-3.64,2.48-3.55,3.28.1.79,1.59,1.63,2.66,1.3,1.07-.32,1.59-.14,1.59-.14-3.08,2.22-6.15,6.19-4.26,9.21Z"/>
              <path class="cls-1" d="M57.45,194.83c.8.18,5.64,1.02,12.36,3.36,6.72,2.33,21.65.56,22.43,0,0,0-9.08,1.11-14.35.65-5.28-.46-5.98-.98-6.3-1.45-.32-.46,1.26-2.1,1.82-2.56.56-.47,5.13.93,10.69.51,5.55-.42,8.19-1.44,8.19-1.44,0,0,0-.02,0-.06-.02-.28-.14-1.4-.26-1.91,0,0-.72.73-2.6,1.39-1.93.69-5.08,1.3-9.94.99-4.09-.26-6.61-1.65-8.51-3.31-2.56-2.22-3.99-4.88-6.56-5.84-4.48-1.67-7.14,4.12-7.14,4.12,0,0,0,.03,0,.09,0,.03,0,.06,0,.1,0,.02,0,.05,0,.09,0,.04,0,.09,0,.14,0,.03,0,.06,0,.09-.09,1.23-.28,4.32.24,5.04Z"/>
              <path class="cls-1" d="M26.55,195.8c-3.8,1.12-15.38-.54-16.48-.71,3.05.78,7.56,1.49,12.64,1.45,8.98-.06,10.37-1.62,12.85-1.7,2.49-.1,10.15-.29,10.39-1.15.19-.67-.26-2.49-.41-3.46l-.18-.25s-.08-.14-.24-.35c-.69-.99-2.82-4.22-6.39-3.66-2.33.36-4.01,2.06-5.97,3.17-1.7.97-3.7,1.92-6.79,2.36-5.96.85-15.89-.74-18.6-3.36-.31-.29-.51-.59-.62-.91,0,0-.35.26-.3,1.4,0,0,5.58,4.54,17.28,4.42,11.7-.13,6.79,1.56,2.81,2.74Z"/>
              <path class="cls-3" d="M44.12,183.73s-6.31-6.91-13.69-10.27c-7.37-3.37-12.88.56-12.88.56,0,0,11.61-3.22,26.57,9.71Z"/>
              <path class="cls-3" d="M85.64,177.39s-.74-3.85-10.94-2.29c-10.2,1.56-17.65,11.06-17.65,11.06,0,0,14.46-15.1,28.59-8.76Z"/>
              <path class="cls-12" d="M13.89,66.78l3.57,6.67c-.62-1.39-10.69-24.79,13.57-26.94,24.95-2.2,61.3,12.97,53.23,24.2,3.83-5.33,6.95-11.53,8.12-17.38,2.48-12.56-4.48-26-13.28-28.11-8.79-2.12-21.07,3.85-32.63,4.23-11.57.37-14.12-5.7-16.3-6.78-1.55-.77-4.31-2.79-9.58,1.67-5.84,4.96-11.93,27.21-6.69,42.44Z"/>
              <path class="cls-6" d="M8.48,90.23s2.68,1.72,3.41,4.45.74,8.25-1.42,11.16c-1.96,2.64-6.56,1.08-6.56,1.08l-2.52.33s2.61.03,3.05.4c.44.37-.5,2.27-.5,2.27,0,0,1.77-.74,2.24-1.74.47-1,3.67,3.07,5.97-3.88,2.3-6.95.03-13.63-3.67-14.07Z"/>
              <path class="cls-12" d="M64.12,125.69c.1.79,1.59,1.63,2.66,1.3,1.07-.32,1.59-.14,1.59-.14,2.32-1.38,1.67-5.16-.44-4.09-2.85,1.45-3.89,2.13-3.8,2.93Z"/>
              <path class="cls-12" d="M8.19,85.14c2.49-1.38,3.54,5.25,3.21,5.95-.34.7-2.66-.76-2.66-.76,0,0-1.4-3.12-.55-5.19Z"/>
              <path class="cls-12" d="M5.9,111.22c.75.2,1.53.33,2.29.4,2.99.29,5.62.1,7.75.33.66.07,1.27.18,1.83.35.76.25,2.23.85,4.22,1.48-.2-.14-3.29-1.15-3.94-2.24-.84-1.4,1.84-7.72,1.03-13.52-.04.58-.61,8.22-2.59,10.62-2.45,2.97-10.25,2.56-10.59,2.57Z"/>
              <path class="cls-12" d="M64.16,136.13c1.39,2.2,3.27,3.49,7.27,3.49,4.49,0,9.99-2.62,12.29-4.6,1.05-.91,2.33-2.29,3.65-3.89-.03-.18-.06-.35-.09-.53-3.02,2.81-7.94,7.18-12.9,7.53-8.68.62-9.84-1.53-10.23-2Z"/>
              <path class="cls-12" d="M56.1,162.69s-4.8,7.18-8.26,6.38c-3.46-.8-8.31-18.15-8.31-18.15,0,0,8.08,9.68,16.57,11.77Z"/>
              <path class="cls-19" d="M49.32,153.3c3.77,3.51-4.6,4.01-8.96-2.38-4.35-6.39-1.68-10.12-1.24-10.37s4.79,7.71,10.2,12.75Z"/>
              <path class="cls-19" d="M63.59,144.42c2.15-.88-2.72,7.27-4.73,10.98-1.41,2.59-3.57,3.07-3.57,3.07,0,0,.94-11.05,8.3-14.05Z"/>
              <path class="cls-20" d="M39.34,181.44c2.61,2.54-7.18,9.72-16.63,9.78-9.45.06-12.71-3.41-13.27-4.89-.56-1.48,4.39-11.37,11.66-12.21,7.28-.84,18.24,7.32,18.24,7.32Z"/>
              <path class="cls-20" d="M88.94,193.06c6.25-1.87-2.01-12.11-5.79-14.65-3.77-2.54-15.46-.57-18.5,3.03,0,0,1.29,6.08,10.04,9.78,8.75,3.7,14.25,1.84,14.25,1.84Z"/>
              <path class="cls-19" d="M64.36,102.22c.62.39-2.29,8.54-2.19,11.57s-5.69-2.41-5.18-7.08c.61-5.55,6.51-5.04,7.37-4.5Z"/>
              <path class="cls-35" d="M41.14,43.94c15.47.33,23.23-15.54,18.45-23.32-.54-.89-1.25-1.66-2.13-2.3-7.64-5.57-19.08-3.45-24.17,2.16-1.45,1.6-2.6,3.64-3.34,5.88-2.53,7.64-.29,17.36,11.19,17.59Z"/>
              <path class="cls-25" d="M41.35,35.35c8.32.18,13.24-9.22,10.48-13.69-.31-.5-.72-.93-1.23-1.26-4.34-2.8-10.5-.84-13.07,2.52-.71.93-1.27,2.07-1.62,3.28-1.19,4.06-.14,9.02,5.44,9.14Z"/>
              <path class="cls-37" d="M41.63,35.35c7.11.16,11.23-7.8,8.91-11.6-.26-.43-.61-.79-1.04-1.08-3.67-2.43-8.93-.85-11.16,1.99-.62.79-1.1,1.76-1.41,2.8-1.04,3.49-.14,7.78,4.7,7.89Z"/>
              <path class="cls-2" d="M41.14,43.94c15.47.33,23.23-15.54,18.45-23.32,2.11,5.59-3.28,17.26-14.59,20.15-11.3,2.89-17.15-4.91-15.06-14.35,0-.02,0-.05,0-.07-2.53,7.64-.29,17.36,11.19,17.59Z"/>
              <path class="cls-19" d="M39.82,100.76c.83.51-.85,9.81-1.5,11.82-.65,2.01-5.26-.95-5.12-5.43.14-4.48,2.68-6.3,3.81-6.75,1.13-.45,2.25.02,2.81.36Z"/>
              <path class="cls-16" d="M71.5,86.01c1.24.55-4.39,6.36-13.25,5.7-8.86-.65-9.14-2.44-8.96-3.6s20.06-3.05,22.21-2.11Z"/>
              <path class="cls-19" d="M74.45,60.4c4.51,2.94-1.64,15.25-11.46,13.67-9.82-1.58,1.88-19.91,11.46-13.67Z"/>
              <path class="cls-16" d="M71.29,42.92c1.9.7-1.32,5.36-3.31,4.55-1.99-.82.28-5.67,3.31-4.55Z"/>
              <path class="cls-16" d="M49.86,33.98c2.07.2.64,3.89-2.6,3.48-3.24-.41.73-3.65,2.6-3.48Z"/>
              <path class="cls-16" d="M34.57,33.63c1.18.02.44,2.16,0,2.1-.44-.06-2.24-2.14,0-2.1Z"/>
              <path class="cls-16" d="M55.88,122.2c2.52.88,1.68,4.74-1.04,4.86-2.72.12-2.17-5.98,1.04-4.86Z"/>
              <path class="cls-16" d="M87.64,113.54c2.05,1.5-2.36,4.04-3.83,3.11-1.47-.93,1.87-4.53,3.83-3.11Z"/>
              <path class="cls-5" d="M74.14,120.27s-.08-6.2,5.01-7.6c0,0-2.99-.5-4.88,2-1.9,2.5-.13,5.61-.13,5.61Z"/>
              <path class="cls-16" d="M73.77,184.35c1.79,2.87-3.03,4.85-4.22,1.55-1.19-3.29,3.29-3.05,4.22-1.55Z"/>
              <path class="cls-16" d="M30.34,183.73c1.58.76-.47,3.63-2.89,3.17-2.43-.47-.19-4.65,2.89-3.17Z"/>
              <path class="cls-16" d="M40.33,164.06c2.21,1.18-.56,7.08-2.42,7.26-1.87.18.3-8.4,2.42-7.26Z"/>
              <path class="cls-12" d="M57.45,151.07s-2.35,2.02-5.7,1.34-8.79-6.89-10.52-11.86c0,0,2.4,11.45,13.61,16.58l2.61-6.06Z"/>
              <path class="cls-16" d="M73.77,172.71c.57.41-1.37,1.21-2.43-.28-1.06-1.49,1.34-.51,2.43.28Z"/>
              <path class="cls-16" d="M24.75,83.6c1.5.64-2.89-5.53-6.72-7.8-3.83-2.27-4.08-1.1-4.08-1.1,0,0,3.99,6.01,10.8,8.9Z"/>
              <path class="cls-16" d="M110.41,47.95c.43,1.38,4.57-7.19,2.24-14.74-2.33-7.56-3.08-4.29-3.08-4.29,0,0-.65,14.28.84,19.04Z"/>
              <path class="cls-16" d="M98.48,69.82c.85.46-1.02,3.36-3.32,3.3-2.3-.06-.95-5.6,3.32-3.3Z"/>
              <path class="cls-13" d="M58.34,100.76c1.31-1.26,3.68-3.93-.95-6.86-4.63-2.93-9.89-1.39-19.18-4.5-9.29-3.11-12.53-4.44-12.53-4.44,0,0,9.77,11.35,18.1,14.89,8.33,3.54,14.56.91,14.56.91Z"/>
              <path class="cls-20" d="M20.73,39.18c2.15.4-.19,3.32-1.77,3.57-1.59.25-.75-4.04,1.77-3.57Z"/>
              <path class="cls-20" d="M91.32,48.66s-1.24-10.68-5.84-15.98c-4.6-5.31-7.56-6.54-12.5-6.35s-10.33,2.04-10.33,2.04c0,0,8.21-1.96,13.5-.79s12.27,10.17,15.17,21.09Z"/>
              <path class="cls-20" d="M30.25,24.55s-2.75-2.01-6.77-.42c-4.01,1.59-6.58,8.77-6.58,8.77,0,0,5.69-10.12,13.34-8.35Z"/>
              <path class="cls-15" d="M11.46,96.4c.26,3.36-9.83,2.94-10.08-1.96-.25-4.9,1.57-5.41,1.95-5.32.37.09,7.58.33,8.13,7.28Z"/>
              <path class="cls-18" d="M71.08,124.82c3.26-1.61,8.73-1.17,9.8,2.24,2.9,9.28-11.23,10.64-15.14,7.41-3.92-3.23,4.17-9.07,5.35-9.65Z"/>
            </g>
          </g>
          <g>
            <g>
              <path class="cls-33" d="M38.59,57.43c-1.21,14.58-8.18,26.54-15.56,26.72-7.38.18-12.38-11.5-11.16-26.08s8.18-26.54,15.56-26.72c7.38-.18,12.38,11.5,11.16,26.08Z"/>
              <path class="cls-32" d="M35.58,57.5c-.94,11.3-6.34,20.57-12.05,20.7-5.72.14-9.59-8.91-8.65-20.2.94-11.3,6.34-20.57,12.05-20.7s9.59,8.91,8.65,20.2Z"/>
              <path class="cls-17" d="M31.35,57.61c-.67,7.88-3.94,14.33-7.32,14.41-3.38.08-5.58-6.25-4.91-14.13.66-7.88,3.94-14.33,7.32-14.41,3.38-.08,5.58,6.25,4.91,14.13Z"/>
            </g>
            <path class="cls-30" d="M34.02,73.29s-.25,5.26,3.5,6.07,6.33-5.2,6.33-5.2c0,0-6.2,2.01-9.83-.86Z"/>
            <g>
              <path class="cls-29" d="M79.79,65.38c.12,4.5-8.51,8.38-19.28,8.68-10.77.3-19.6-3.11-19.73-7.61-.12-4.5,8.51-8.38,19.28-8.68,10.77-.3,19.6,3.11,19.73,7.61Z"/>
              <path class="cls-31" d="M75.4,65.5c.1,3.49-6.59,6.5-14.94,6.73s-15.19-2.41-15.29-5.89c-.1-3.49,6.59-6.5,14.94-6.73,8.35-.23,15.19,2.41,15.29,5.89Z"/>
              <path class="cls-17" d="M49.67,69.2s8.68-5.28,21.67-2.1c0,0-13.6-10.92-21.67,2.1Z"/>
            </g>
          </g>
        </g>
      </g>
    </g>
  </g>
</svg>