<?xml version="1.0" encoding="UTF-8"?>
<svg xmlns="http://www.w3.org/2000/svg" xmlns:xlink="http://www.w3.org/1999/xlink" viewBox="0 0 124.37 198.31">
  <defs>
    <style>
      .cls-1 {
        fill: #c22781;
        opacity: .2;
      }

      .cls-1, .cls-2, .cls-3, .cls-4, .cls-5, .cls-6, .cls-7, .cls-8, .cls-9, .cls-10, .cls-11 {
        mix-blend-mode: multiply;
      }

      .cls-12 {
        fill: url(#_횁책챌청챙첼챠챠청챕_찾챨횪채챔책챠챵_80-3);
      }

      .cls-13 {
        fill: url(#_횁책챌청챙첼챠챠청챕_찾챨횪채챔책챠챵_20-2);
      }

      .cls-14 {
        fill: url(#_횁책챌청챙첼챠챠청챕_찾챨횪채챔책챠챵_57-3);
      }

      .cls-15 {
        fill: url(#_횁책챌청챙첼챠챠청챕_찾챨횪채챔책챠챵_88-2);
      }

      .cls-16 {
        fill: #3bc7c2;
      }

      .cls-17 {
        fill: url(#_횁책챌청챙첼챠챠청챕_찾챨횪채챔책챠챵_81-2);
      }

      .cls-18 {
        fill: url(#_횁책챌청챙첼챠챠청챕_찾챨횪채챔책챠챵_57-5);
      }

      .cls-19 {
        fill: #731a88;
      }

      .cls-20 {
        fill: url(#radial-gradient-4);
      }

      .cls-20, .cls-21, .cls-22, .cls-23, .cls-24 {
        fill-rule: evenodd;
      }

      .cls-20, .cls-25, .cls-23, .cls-24, .cls-26 {
        mix-blend-mode: screen;
      }

      .cls-2 {
        fill: url(#_횁책챌청챙첼챠챠청챕_찾챨횪채챔책챠챵_107);
      }

      .cls-2, .cls-3, .cls-4, .cls-27, .cls-6, .cls-7, .cls-9, .cls-11 {
        opacity: .5;
      }

      .cls-28, .cls-21, .cls-27, .cls-29 {
        fill: #fff;
      }

      .cls-30 {
        fill: url(#_횁책챌청챙첼챠챠청챕_찾챨횪채챔책챠챵_13);
      }

      .cls-3 {
        fill: #d14894;
      }

      .cls-31 {
        fill: #3bffc2;
      }

      .cls-22 {
        fill: #4d0542;
      }

      .cls-32 {
        fill: url(#_횁책챌청챙첼챠챠청챕_찾챨횪채챔책챠챵_20);
      }

      .cls-33 {
        fill: url(#_횁책챌청챙첼챠챠청챕_찾챨횪채챔책챠챵_81);
      }

      .cls-34 {
        fill: url(#_횁책챌청챙첼챠챠청챕_찾챨횪채챔책챠챵_89);
      }

      .cls-35 {
        fill: url(#_횁책챌청챙첼챠챠청챕_찾챨횪채챔책챠챵_80-2);
      }

      .cls-36 {
        fill: url(#_횁책챌청챙첼챠챠청챕_찾챨횪채챔책챠챵_44);
      }

      .cls-25 {
        fill: url(#radial-gradient);
      }

      .cls-37 {
        fill: url(#_횁책챌청챙첼챠챠청챕_찾챨횪채챔책챠챵_13-2);
      }

      .cls-38 {
        fill: url(#_횁책챌청챙첼챠챠청챕_찾챨횪채챔책챠챵_35);
      }

      .cls-39 {
        isolation: isolate;
      }

      .cls-40 {
        fill: url(#_횁책챌청챙첼챠챠청챕_찾챨횪채챔책챠챵_57);
      }

      .cls-41 {
        fill: url(#_횁책챌청챙첼챠챠청챕_찾챨횪채챔책챠챵_130);
      }

      .cls-42 {
        fill: url(#_횁책챌청챙첼챠챠청챕_찾챨횪채챔책챠챵_80-4);
      }

      .cls-43 {
        fill: url(#_횁책챌청챙첼챠챠청챕_찾챨횪채챔책챠챵_106);
      }

      .cls-44 {
        fill: url(#_횁책챌청챙첼챠챠청챕_찾챨횪채챔책챠챵_80);
      }

      .cls-45 {
        fill: url(#_횁책챌청챙첼챠챠청챕_찾챨횪채챔책챠챵_57-4);
      }

      .cls-46 {
        fill: url(#_횁책챌청챙첼챠챠청챕_찾챨횪채챔책챠챵_13-3);
      }

      .cls-23 {
        fill: url(#radial-gradient-5);
      }

      .cls-24 {
        fill: url(#radial-gradient-3);
      }

      .cls-47 {
        fill: url(#_횁책챌청챙첼챠챠청챕_찾챨횪채챔책챠챵_89-2);
      }

      .cls-48 {
        fill: url(#_횁책챌청챙첼챠챠청챕_찾챨횪채챔책챠챵_57-2);
      }

      .cls-4 {
        fill: #ab0481;
      }

      .cls-5 {
        opacity: .8;
      }

      .cls-5, .cls-8, .cls-9 {
        fill: #ab2781;
      }

      .cls-27, .cls-29 {
        mix-blend-mode: soft-light;
      }

      .cls-49 {
        fill: url(#_횁책챌청챙첼챠챠청챕_찾챨횪채챔책챠챵_88);
      }

      .cls-50 {
        fill: #aaefff;
      }

      .cls-6, .cls-10 {
        fill: #e767a7;
      }

      .cls-7 {
        fill: url(#_횁책챌청챙첼챠챠청챕_찾챨횪채챔책챠챵_71);
      }

      .cls-8, .cls-10 {
        opacity: .3;
      }

      .cls-26 {
        fill: url(#radial-gradient-2);
      }

      .cls-51 {
        fill: url(#_횁책챌청챙첼챠챠청챕_찾챨횪채챔책챠챵_13-5);
      }

      .cls-11 {
        fill: url(#_횁책챌청챙첼챠챠청챕_찾챨횪채챔책챠챵_71-2);
      }

      .cls-52 {
        fill: url(#_횁책챌청챙첼챠챠청챕_찾챨횪채챔책챠챵_13-4);
      }

      .cls-53 {
        fill: url(#_횁책챌청챙첼챠챠청챕_찾챨횪채챔책챠챵_30);
      }
    </style>
    <linearGradient id="_횁책챌청챙첼챠챠청챕_찾챨횪채챔책챠챵_80" data-name="횁책챌청챙첼챠챠청챕 찾챨횪채챔책챠챵 80" x1="875.17" y1="188.08" x2="875.17" y2="152.96" gradientTransform="translate(995.3) rotate(-180) scale(1 -1)" gradientUnits="userSpaceOnUse">
      <stop offset="0" stop-color="#e522d9"/>
      <stop offset="1" stop-color="#ff2443"/>
    </linearGradient>
    <linearGradient id="_횁책챌청챙첼챠챠청챕_찾챨횪채챔책챠챵_30" data-name="횁책챌청챙첼챠챠청챕 찾챨횪채챔책챠챵 30" x1="896.71" y1="187.66" x2="896.71" y2="146.93" gradientTransform="translate(995.3) rotate(-180) scale(1 -1)" gradientUnits="userSpaceOnUse">
      <stop offset="0" stop-color="#ffc3c4"/>
      <stop offset=".44" stop-color="#ffc4cc"/>
      <stop offset="1" stop-color="#ffc9de"/>
    </linearGradient>
    <linearGradient id="_횁책챌청챙첼챠챠청챕_찾챨횪채챔책챠챵_80-2" data-name="횁책챌청챙첼챠챠청챕 찾챨횪채챔책챠챵 80" x1="888.18" y1="179.69" x2="888.18" y2="152.96" xlink:href="#_횁책챌청챙첼챠챠청챕_찾챨횪채챔책챠챵_80"/>
    <linearGradient id="_횁책챌청챙첼챠챠청챕_찾챨횪채챔책챠챵_57" data-name="횁책챌청챙첼챠챠청챕 찾챨횪채챔책챠챵 57" x1="905.27" y1="179.58" x2="905.27" y2="172.88" gradientTransform="translate(995.3) rotate(-180) scale(1 -1)" gradientUnits="userSpaceOnUse">
      <stop offset="0" stop-color="#931a84"/>
      <stop offset="1" stop-color="#ae04b1"/>
    </linearGradient>
    <linearGradient id="_횁책챌청챙첼챠챠청챕_찾챨횪채챔책챠챵_89" data-name="횁책챌청챙첼챠챠청챕 찾챨횪채챔책챠챵 89" x1="905.94" y1="179.68" x2="905.94" y2="174.18" gradientTransform="translate(995.3) rotate(-180) scale(1 -1)" gradientUnits="userSpaceOnUse">
      <stop offset="0" stop-color="#e522d9"/>
      <stop offset="1" stop-color="#ff2483"/>
    </linearGradient>
    <linearGradient id="_횁책챌청챙첼챠챠청챕_찾챨횪채챔책챠챵_80-3" data-name="횁책챌청챙첼챠챠청챕 찾챨횪채챔책챠챵 80" x1="936.15" y1="198.31" x2="936.15" y2="189.27" xlink:href="#_횁책챌청챙첼챠챠청챕_찾챨횪채챔책챠챵_80"/>
    <linearGradient id="_횁책챌청챙첼챠챠청챕_찾챨횪채챔책챠챵_106" data-name="횁책챌청챙첼챠챠청챕 찾챨횪채챔책챠챵 106" x1="969.09" y1="141.74" x2="969.09" y2="111.88" gradientTransform="translate(995.3) rotate(-180) scale(1 -1)" gradientUnits="userSpaceOnUse">
      <stop offset="0" stop-color="#ffb5b5"/>
      <stop offset=".28" stop-color="#ffb6bd"/>
      <stop offset=".72" stop-color="#ffbbd3"/>
      <stop offset="1" stop-color="#ffbfe6"/>
    </linearGradient>
    <linearGradient id="_횁책챌청챙첼챠챠청챕_찾챨횪채챔책챠챵_57-2" data-name="횁책챌청챙첼챠챠청챕 찾챨횪채챔책챠챵 57" x1="953.41" y1="134.35" x2="953.41" y2="109.43" xlink:href="#_횁책챌청챙첼챠챠청챕_찾챨횪채챔책챠챵_57"/>
    <linearGradient id="_횁책챌청챙첼챠챠청챕_찾챨횪채챔책챠챵_20" data-name="횁책챌청챙첼챠챠청챕 찾챨횪채챔책챠챵 20" x1="930.18" y1="163.64" x2="930.18" y2="107.48" gradientTransform="translate(995.3) rotate(-180) scale(1 -1)" gradientUnits="userSpaceOnUse">
      <stop offset="0" stop-color="#ffd7da"/>
      <stop offset=".45" stop-color="#ffdfde"/>
      <stop offset="1" stop-color="#fff0e8"/>
    </linearGradient>
    <linearGradient id="_횁책챌청챙첼챠챠청챕_찾챨횪채챔책챠챵_13" data-name="횁책챌청챙첼챠챠청챕 찾챨횪채챔책챠챵 13" x1="922.29" y1="18.15" x2="922.29" y2="-73.03" gradientTransform="translate(961.79 -70.65) rotate(169.83) scale(1 -1)" gradientUnits="userSpaceOnUse">
      <stop offset="0" stop-color="#ffd7da"/>
      <stop offset=".32" stop-color="#ffdfe1"/>
      <stop offset=".83" stop-color="#fff5f6"/>
      <stop offset="1" stop-color="#fff"/>
    </linearGradient>
    <linearGradient id="_횁책챌청챙첼챠챠청챕_찾챨횪채챔책챠챵_35" data-name="횁책챌청챙첼챠챠청챕 찾챨횪채챔책챠챵 35" x1="890.94" y1="-38.23" x2="890.94" y2="-69.73" gradientTransform="translate(960.9 -101.99) rotate(165.05) scale(1 -1)" gradientUnits="userSpaceOnUse">
      <stop offset="0" stop-color="#ffc3c4"/>
      <stop offset=".51" stop-color="#ffbac7"/>
      <stop offset="1" stop-color="#ffaece"/>
    </linearGradient>
    <linearGradient id="_횁책챌청챙첼챠챠청챕_찾챨횪채챔책챠챵_44" data-name="횁책챌청챙첼챠챠청챕 찾챨횪채챔책챠챵 44" x1="893.17" y1="-41.77" x2="893.17" y2="-67.82" gradientTransform="translate(960.9 -101.99) rotate(165.05) scale(1 -1)" gradientUnits="userSpaceOnUse">
      <stop offset="0" stop-color="#ff7b7d"/>
      <stop offset=".35" stop-color="#f87585"/>
      <stop offset=".89" stop-color="#e7669b"/>
      <stop offset="1" stop-color="#e363a1"/>
    </linearGradient>
    <linearGradient id="_횁책챌청챙첼챠챠청챕_찾챨횪채챔책챠챵_13-2" data-name="횁책챌청챙첼챠챠청챕 찾챨횪채챔책챠챵 13" x1="891.56" y1="-44.79" x2="891.56" y2="-64.53" gradientTransform="translate(960.9 -101.99) rotate(165.05) scale(1 -1)" xlink:href="#_횁책챌청챙첼챠챠청챕_찾챨횪채챔책챠챵_13"/>
    <linearGradient id="_횁책챌청챙첼챠챠청챕_찾챨횪채챔책챠챵_71" data-name="횁책챌청챙첼챠챠청챕 찾챨횪채챔책챠챵 71" x1="929.65" y1="-11.17" x2="929.65" y2="-66.28" gradientTransform="translate(961.79 -70.65) rotate(169.83) scale(1 -1)" gradientUnits="userSpaceOnUse">
      <stop offset="0" stop-color="#fff"/>
      <stop offset="1" stop-color="#d91a81"/>
    </linearGradient>
    <radialGradient id="_횁책챌청챙첼챠챠청챕_찾챨횪채챔책챠챵_130" data-name="횁책챌청챙첼챠챠청챕 찾챨횪채챔책챠챵 130" cx="945.83" cy="679.44" fx="945.83" fy="679.44" r="77.78" gradientTransform="translate(850.93 -689.7) rotate(169.83) scale(1 -.92)" gradientUnits="userSpaceOnUse">
      <stop offset="0" stop-color="#dc16b1"/>
      <stop offset=".28" stop-color="#9517a9"/>
      <stop offset="1" stop-color="#5a1a88"/>
    </radialGradient>
    <radialGradient id="radial-gradient" cx="954.74" cy="62.32" fx="954.74" fy="62.32" r="36.54" gradientTransform="translate(995.3) rotate(-180) scale(1 -1)" gradientUnits="userSpaceOnUse">
      <stop offset="0" stop-color="#000"/>
      <stop offset=".27" stop-color="#010002"/>
      <stop offset=".41" stop-color="#050009"/>
      <stop offset=".52" stop-color="#0b0017"/>
      <stop offset=".61" stop-color="#15002a"/>
      <stop offset=".69" stop-color="#210042"/>
      <stop offset=".77" stop-color="#300060"/>
      <stop offset=".84" stop-color="#420084"/>
      <stop offset=".9" stop-color="#5700ae"/>
      <stop offset=".96" stop-color="#6e00dc"/>
      <stop offset="1" stop-color="#8000ff"/>
    </radialGradient>
    <linearGradient id="_횁책챌청챙첼챠챠청챕_찾챨횪채챔책챠챵_71-2" data-name="횁책챌청챙첼챠챠청챕 찾챨횪채챔책챠챵 71" x1="889.41" y1="3.49" x2="968.86" y2="3.49" xlink:href="#_횁책챌청챙첼챠챠청챕_찾챨횪채챔책챠챵_71"/>
    <linearGradient id="_횁책챌청챙첼챠챠청챕_찾챨횪채챔책챠챵_13-3" data-name="횁책챌청챙첼챠챠청챕 찾챨횪채챔책챠챵 13" x1="875.98" y1="-5.46" x2="875.98" y2="-85.24" xlink:href="#_횁책챌청챙첼챠챠청챕_찾챨횪채챔책챠챵_13"/>
    <linearGradient id="_횁책챌청챙첼챠챠청챕_찾챨횪채챔책챠챵_13-4" data-name="횁책챌청챙첼챠챠청챕 찾챨횪채챔책챠챵 13" x1="936.88" y1="-41.29" x2="936.88" y2="-70.19" xlink:href="#_횁책챌청챙첼챠챠청챕_찾챨횪채챔책챠챵_13"/>
    <linearGradient id="_횁책챌청챙첼챠챠청챕_찾챨횪채챔책챠챵_107" data-name="횁책챌청챙첼챠챠청챕 찾챨횪채챔책챠챵 107" x1="936.88" y1="-41.29" x2="936.88" y2="-64.62" gradientTransform="translate(961.79 -70.65) rotate(169.83) scale(1 -1)" gradientUnits="userSpaceOnUse">
      <stop offset="0" stop-color="#d91a81"/>
      <stop offset="1" stop-color="#fff"/>
    </linearGradient>
    <linearGradient id="_횁책챌청챙첼챠챠청챕_찾챨횪채챔책챠챵_81" data-name="횁책챌청챙첼챠챠청챕 찾챨횪채챔책챠챵 81" x1="977.92" y1="137.75" x2="977.92" y2="113.26" gradientTransform="translate(995.3) rotate(-180) scale(1 -1)" gradientUnits="userSpaceOnUse">
      <stop offset="0" stop-color="#ff2443"/>
      <stop offset=".99" stop-color="#e522d9"/>
    </linearGradient>
    <linearGradient id="_횁책챌청챙첼챠챠청챕_찾챨횪채챔책챠챵_20-2" data-name="횁책챌청챙첼챠챠청챕 찾챨횪채챔책챠챵 20" x1="931.25" y1="194.28" x2="931.25" y2="141.69" xlink:href="#_횁책챌청챙첼챠챠청챕_찾챨횪채챔책챠챵_20"/>
    <linearGradient id="_횁책챌청챙첼챠챠청챕_찾챨횪채챔책챠챵_57-3" data-name="횁책챌청챙첼챠챠청챕 찾챨횪채챔책챠챵 57" x1="919.76" y1="161.53" x2="919.76" y2="133.29" xlink:href="#_횁책챌청챙첼챠챠청챕_찾챨횪채챔책챠챵_57"/>
    <linearGradient id="_횁책챌청챙첼챠챠청챕_찾챨횪채챔책챠챵_88" data-name="횁책챌청챙첼챠챠청챕 찾챨횪채챔책챠챵 88" x1="915.6" y1="178.99" x2="950.19" y2="178.99" gradientTransform="translate(995.3) rotate(-180) scale(1 -1)" gradientUnits="userSpaceOnUse">
      <stop offset="0" stop-color="#ff2483"/>
      <stop offset=".99" stop-color="#e522d9"/>
    </linearGradient>
    <linearGradient id="_횁책챌청챙첼챠챠청챕_찾챨횪채챔책챠챵_88-2" data-name="횁책챌청챙첼챠챠청챕 찾챨횪채챔책챠챵 88" x1="906.28" y1="164.5" x2="924.84" y2="164.5" xlink:href="#_횁책챌청챙첼챠챠청챕_찾챨횪채챔책챠챵_88"/>
    <linearGradient id="_횁책챌청챙첼챠챠청챕_찾챨횪채챔책챠챵_57-4" data-name="횁책챌청챙첼챠챠청챕 찾챨횪채챔책챠챵 57" x1="941.58" y1="166.35" x2="941.58" y2="149.13" xlink:href="#_횁책챌청챙첼챠챠청챕_찾챨횪채챔책챠챵_57"/>
    <linearGradient id="_횁책챌청챙첼챠챠청챕_찾챨횪채챔책챠챵_89-2" data-name="횁책챌청챙첼챠챠청챕 찾챨횪채챔책챠챵 89" x1="942.28" y1="164.93" x2="942.28" y2="149.08" xlink:href="#_횁책챌청챙첼챠챠청챕_찾챨횪채챔책챠챵_89"/>
    <linearGradient id="_횁책챌청챙첼챠챠청챕_찾챨횪채챔책챠챵_80-4" data-name="횁책챌청챙첼챠챠청챕 찾챨횪채챔책챠챵 80" x1="950.76" y1="134.89" x2="950.76" y2="118.69" xlink:href="#_횁책챌청챙첼챠챠청챕_찾챨횪채챔책챠챵_80"/>
    <linearGradient id="_횁책챌청챙첼챠챠청챕_찾챨횪채챔책챠챵_13-5" data-name="횁책챌청챙첼챠챠청챕 찾챨횪채챔책챠챵 13" x1="777.27" y1="-135.24" x2="777.27" y2="-172.65" gradientTransform="translate(820.68 -171.41) rotate(147.45) scale(1 -1)" xlink:href="#_횁책챌청챙첼챠챠청챕_찾챨횪채챔책챠챵_13"/>
    <linearGradient id="_횁책챌청챙첼챠챠청챕_찾챨횪채챔책챠챵_57-5" data-name="횁책챌청챙첼챠챠청챕 찾챨횪채챔책챠챵 57" x1="931.48" y1="126.81" x2="931.48" y2="104.55" xlink:href="#_횁책챌청챙첼챠챠청챕_찾챨횪채챔책챠챵_57"/>
    <linearGradient id="_횁책챌청챙첼챠챠청챕_찾챨횪채챔책챠챵_81-2" data-name="횁책챌청챙첼챠챠청챕 찾챨횪채챔책챠챵 81" x1="779.52" y1="-134.81" x2="779.52" y2="-153.83" gradientTransform="translate(820.68 -171.41) rotate(147.45) scale(1 -1)" xlink:href="#_횁책챌청챙첼챠챠청챕_찾챨횪채챔책챠챵_81"/>
    <radialGradient id="radial-gradient-2" cx="1025.44" cy="250.15" fx="1025.44" fy="250.15" r="31.95" gradientTransform="translate(303.44 941.47) rotate(-90) scale(.85 -1)" gradientUnits="userSpaceOnUse">
      <stop offset=".02" stop-color="#f200a5"/>
      <stop offset=".17" stop-color="#bf0082"/>
      <stop offset=".4" stop-color="#7c0054"/>
      <stop offset=".6" stop-color="#460030"/>
      <stop offset=".77" stop-color="#200016"/>
      <stop offset=".91" stop-color="#080005"/>
      <stop offset="1" stop-color="#000"/>
    </radialGradient>
    <radialGradient id="radial-gradient-3" cx="1025.44" cy="250.15" fx="1025.44" fy="250.15" r="24.76" gradientTransform="translate(941.56 -96.29) rotate(-174.7) scale(.85 -1)" gradientUnits="userSpaceOnUse">
      <stop offset=".02" stop-color="#ce00f2"/>
      <stop offset=".17" stop-color="#a300bf"/>
      <stop offset=".4" stop-color="#69007c"/>
      <stop offset=".6" stop-color="#3c0046"/>
      <stop offset=".77" stop-color="#1b0020"/>
      <stop offset=".91" stop-color="#070008"/>
      <stop offset="1" stop-color="#000"/>
    </radialGradient>
    <radialGradient id="radial-gradient-4" cx="1147.69" cy="190.67" fx="1147.69" fy="190.67" r="16.22" gradientTransform="translate(747.92 -214.28) rotate(-178.27) scale(.66 -1.62) skewX(-13.45)" xlink:href="#radial-gradient-2"/>
    <radialGradient id="radial-gradient-5" cx="1147.69" cy="190.67" fx="1147.69" fy="190.67" r="12.57" gradientTransform="translate(747.92 -214.28) rotate(-178.27) scale(.66 -1.62) skewX(-13.45)" xlink:href="#radial-gradient-3"/>
  </defs>
  <g class="cls-39">
    <g id="Calque_2" data-name="Calque 2">
      <g id="Layer_3" data-name="Layer 3">
        <g>
          <g>
            <path class="cls-50" d="M100.11,33.64s3.16,11.91,1.86,24.5c-1.31,12.58-11.56,32.96-14.3,36.83-2.74,3.87-7.95,7.45-7.95,7.45,0,0,11.75-2.33,15.26.78,3.51,3.11,3.81,11.28,1.61,22.31-2.2,11.03-6.74,12.25-6.74,12.25,0,0,2.37,4.39,2.96,9.18s12.26,5.91,17.75,5.04c5.49-.87,8.61-1.89,9.6-.88s1.62,17.93,2.42,23.1c.81,5.17-52.93-19.8-52.93-19.8l-10.84-42.77,40.14-64.75,1.19-13.23Z"/>
            <g>
              <path class="cls-44" d="M115.89,153.43s2.46-.68,3.11-.4,2.24,8.28,2.71,14.26,2.33,15.04,2.33,17.56.75,2.89,0,3.17-3.55-.62-3.55-.62l-4.6-33.97Z"/>
              <path class="cls-53" d="M89.33,146.93s4.67,3.52,9.64,5.14c4.98,1.62,15.55.5,16.92,1.37,1.37.87,2.74,10.06,2.61,14.55s4.08,12.73,1.99,19.42c-.62,1.99-15.43-8.09-16.92-8.21-1.49-.12-10.59.25-15.56-2.11-4.97-2.36-10.3-8.2-11.81-14.12-1.5-5.91,13.12-16.03,13.12-16.03Z"/>
              <path class="cls-35" d="M110.67,152.96s-.65,6.54-3.36,16.27c-2.26,8.12-3.73,9.95-3.73,9.95l1.18.5s1.93-6.01,3.86-13.36c1.93-7.35,2.05-13.36,2.05-13.36Z"/>
              <path class="cls-40" d="M97.82,178.99s-5.03,1.42-9.37-.14c-4.34-1.56-6.2-5.97-6.2-5.97,0,0,11.28,4.05,15.58,6.1Z"/>
              <path class="cls-34" d="M95.79,179.38s-7.48-3.87-12.84-5.2c0,0,3.35,6.98,12.84,5.2Z"/>
              <path class="cls-9" d="M93.23,149.44s4.96,6.69.78,18.54c-3.19,9.06-13.5,3-13.5,3,0,0-1.86-1.99-2.52-4.05l14.27-18.06.97.57Z"/>
              <path class="cls-12" d="M38.08,196.42c.32.16,3.54,1.29,7.81,1.71.7.08,1.44.13,2.19.16,5.32.19,14.93-1.12,20.06-2.62,5.13-1.49,11.39-1.11,12.04-1.96.65-.84-.47-4.44-.47-4.44,0,0-.85.06-2.29.16-3.09.22-8.92.63-15.17,1.11-11.35.87-24.06,1.96-24.12,2.46-.12.91-.4,3.23-.05,3.42Z"/>
              <path class="cls-43" d="M5.53,120.04h0c.02,1.84.54,4.06,1.5,6.32,1.3,3.1,7.46,7.95,13.7,11.38h.02c4.53,2.49,9.09,4.22,11.88,3.97.57-.05,1.14-.17,1.7-.33.13-.04.22-.07.26-.09.01,0,.02,0,.03,0h0c5.94-1.99,11.48-10.03,12.19-14.55.78-5-4.27-14.86-4.27-14.86,0,0-9,9.35-10.66,10.2-1.19.61-3.91.51-5.11-.2h0c-.29-.16-.47-.35-.56-.58-.42-1.21-2.3-2.6-4.5-4.77-2.23-2.16-4.04-3.37-4.56-3.28s-1.64,1.61-.55,4.61c0,0,1.27.95,1.33,1.77,0,0-6.06-4.3-9.51-4.03-1.99.17-2.9,1.94-2.88,4.43Z"/>
              <path class="cls-48" d="M40.52,109.43s-4.78,2.64-3.92,11.41c.86,8.77,6.54,13.51,6.54,13.51,0,0,3.67-7.72,4.1-12.46s-4.34-11.33-4.34-11.33l-2.38-1.13Z"/>
              <path class="cls-32" d="M58.78,108.46c5.17,1.36,6.44,13.88,15.4,19.48,8.96,5.6,15.49,9.44,14.59,18.03-.9,8.58-7.65,23.39-28.74,15.37s-19.63-45.2-17.47-50.69,16.22-2.18,16.22-2.18Z"/>
              <path class="cls-30" d="M4.57,86.64c.22.48.45.94.69,1.38.27.48.57.97.92,1.44,6.93,9.55,29.23,17.54,36.39,21.19,0,0,4.63,2.84,13.49-1.19h0s.03-.03.05-.03c.43-.19.86-.39,1.3-.62,0,0,18.45-4.25,25.18-10.39,1.41-1.28,3.09-3.49,4.78-6.31h0c2.2-3.65,4.44-8.35,6.21-13.5,0-.02.01-.03.01-.03,3.42-9.91,5.12-21.46,1.45-30.37-7.06-17.13-32.68-29.97-54.8-27.51-15.07,1.66-26.17,6.97-32.6,12.61-3.02,2.64-5,5.36-5.89,7.82-2.68,7.41-2.7,33.51,2.81,45.53Z"/>
              <path class="cls-38" d="M92.15,57.94c4.53-2.91,2.89,18.54-2.41,26.66-5.3,8.11-9.48,9.36-10.93,9.23-1.45-.13-2.82-25.52,13.34-35.89Z"/>
              <path class="cls-36" d="M88.49,60.79s6.09,4.8.12,17.89c-5.97,13.09-10.57,11.58-10.57,11.58,0,0-1.39-19.31,10.46-29.47Z"/>
              <path class="cls-9" d="M56.1,109.43c.43-.19.86-.39,1.3-.62,0,0,18.45-4.25,25.18-10.39,1.41-1.28,3.09-3.49,4.78-6.31h0c2.2-3.65,4.44-8.35,6.21-13.5-.4.64-6.68,10.97-12.4,14.88-5.72,3.93-23.95,15.24-25.09,15.94Z"/>
              <path class="cls-37" d="M89.95,64.34c-1.41-2.76-9.8,10.78-9.42,22.42,0,0,18.39-4.91,9.42-22.42Z"/>
              <path class="cls-19" d="M91.85,71.47c-1.27-2.84-4.78,5.35-3.6,9.76.43,1.61,5.97-4.46,3.6-9.76Z"/>
              <path class="cls-7" d="M4.57,86.64l7.21,1.81,66.47-21.12s4.79-11.01,1.7-22.68c-3.1-11.67-13.79-16.93-19.64-16.83-5.87.1-22.86,7.13-32.98,7.82-10.12.67-13.74-4.3-19.68-2.35-3.02,2.64-5,5.36-5.89,7.82-2.68,7.41-2.7,33.51,2.81,45.53Z"/>
              <path class="cls-41" d="M5.74,82.13c.71,1.28,1.51,2.49,2.39,3.6.68.86,1.46,1.65,2.33,2.37v.02c12.99,10.89,44.71,6.94,53.62.84,3.97-2.71,8.33-8.53,11.58-15.31.01-.03.03-.06.03-.09,2.83-5.92,4.81-12.58,4.92-18.55.22-12.8-9-24.8-18.03-25.32-9.02-.53-20.06,7.51-31.37,9.92-11.33,2.41-14.91-3.12-17.24-3.79-1.66-.48-4.74-1.98-9.14,3.34-4.87,5.92-6.93,28.89.91,42.96Z"/>
              <path class="cls-25" d="M5.74,82.13c.71,1.28,1.51,2.49,2.39,3.6.68.86,1.46,1.65,2.33,2.37v.02c12.99,10.89,44.71,6.94,53.62.84,3.97-2.71,8.33-8.53,11.58-15.31.01-.03.03-.06.03-.09,2.83-5.92,4.81-12.58,4.92-18.55.22-12.8-9-24.8-18.03-25.32-9.02-.53-20.06,7.51-31.37,9.92-11.33,2.41-14.91-3.12-17.24-3.79-1.66-.48-4.74-1.98-9.14,3.34-4.87,5.92-6.93,28.89.91,42.96Z"/>
              <path class="cls-11" d="M6.17,89.46c6.93,9.55,29.23,17.54,36.39,21.19,0,0,5.1,3.13,14.84-1.84,0,0,18.45-4.25,25.18-10.39,1.41-1.28,3.09-3.49,4.78-6.31-4.54,1.69-17.51,6.05-33.77,7.52-21.89,1.98-36.28-.03-47.43-10.16Z"/>
              <path class="cls-5" d="M92.14,70.44s-.15-4.43-4.47-3.18c-4.33,1.25-9.47,16.63-9.47,16.63,0,0,.21-8.7,5.14-16.51,4.94-7.81,8.3-10.02,10.4-9.27,2.1.75.96,11.08.52,12.22s-1.85,3.16-1.85,3.16l-.27-3.04Z"/>
              <path class="cls-46" d="M90.15,79.92c3.17-3.1,9.68-12.75,10.66-29.88.33-5.65.05-12.13-1.16-19.45C94.81,1.09,82.41-4.12,84.73,2.63c0,0,.01.03.04.09,7.61,22.35,13.44,57.8,10.15,63.41-3.29,5.62-3.53,4.94-3.53,4.94-3.11,3.39-2.92,10.94-1.23,8.85Z"/>
              <path class="cls-8" d="M90.15,79.92c3.17-3.1,9.68-12.75,10.66-29.88-1.38,4.35-3.14,3.77-6.6-15.06-3.32-17.93-8.92-31.07-9.44-32.26,7.61,22.35,13.44,57.8,10.15,63.41-3.29,5.62-3.53,4.94-3.53,4.94-3.11,3.39-2.92,10.94-1.23,8.85Z"/>
              <path class="cls-9" d="M5.74,82.13l4.69,5.93c-.86-1.26-14.9-22.51,8.6-28.91,24.17-6.57,62.62,1.94,56.67,14.42,2.83-5.92,4.81-12.58,4.92-18.55.22-12.8-9-24.8-18.03-25.32-9.02-.53-20.06,7.51-31.37,9.92-11.33,2.41-14.91-3.12-17.24-3.79-1.66-.48-4.74-1.98-9.14,3.34-4.87,5.92-6.93,28.89.91,42.96Z"/>
              <path class="cls-52" d="M28.53,54.83c15.29-2.41,20.11-19.4,14.04-26.22-.69-.78-1.53-1.42-2.5-1.89-8.51-4.13-19.39-.02-23.41,6.39-1.14,1.83-1.92,4.05-2.25,6.38-1.14,7.97,2.78,17.13,14.12,15.34Z"/>
              <path class="cls-16" d="M27.22,46.33c8.23-1.29,11.41-11.41,7.9-15.32-.39-.44-.87-.79-1.43-1.02-4.76-1.99-10.48,1.03-12.42,4.79-.53,1.04-.88,2.26-1.02,3.52-.45,4.21,1.45,8.9,6.97,8.04Z"/>
              <path class="cls-31" d="M27.5,46.29c7.03-1.1,9.68-9.66,6.72-12.99-.33-.38-.74-.67-1.21-.88-4.04-1.75-8.94.74-10.63,3.93-.47.88-.77,1.93-.89,3.01-.41,3.62,1.24,7.68,6.02,6.93Z"/>
              <path class="cls-2" d="M28.53,54.83c15.29-2.41,20.11-19.4,14.04-26.22,3.06,5.13-.18,17.56-10.8,22.41-10.61,4.84-17.75-1.8-17.36-11.47,0-.02,0-.05,0-.07-1.14,7.97,2.78,17.13,14.12,15.34Z"/>
              <path class="cls-28" d="M65.84,90.88c1.32.32-3.19,7.03-12.03,7.95-8.84.92-9.43-.78-9.45-1.96-.02-1.18,19.21-6.55,21.49-6Z"/>
              <path class="cls-27" d="M64.22,65.15c4.96,2.1,1.08,15.3-8.86,15.48-9.94.18-1.67-19.93,8.86-15.48Z"/>
              <path class="cls-28" d="M58.02,48.5c2,.36-.35,5.51-2.46,5.06-2.1-.45-.73-5.63,2.46-5.06Z"/>
              <path class="cls-28" d="M35.35,43.49c2.07-.17,1.31,3.71-1.95,3.88-3.26.17.07-3.72,1.95-3.88Z"/>
              <path class="cls-28" d="M20.25,45.85c1.17-.19.81,2.05.37,2.06-.44.02-2.58-1.71-.37-2.06Z"/>
              <path class="cls-28" d="M19.4,96.76c1.59.36-3.82-4.93-7.99-6.5-4.17-1.56-4.21-.36-4.21-.36,0,0,4.99,5.21,12.2,6.86Z"/>
              <path class="cls-28" d="M97.41,46.54c.67,1.29,3.23-7.88-.4-14.91-3.63-7.03-3.79-3.68-3.79-3.68,0,0,1.88,14.17,4.19,18.59Z"/>
              <path class="cls-28" d="M89.54,70.17c.92.3-.41,3.49-2.68,3.83-2.28.35-1.93-5.34,2.68-3.83Z"/>
              <path class="cls-10" d="M55.49,107.72c1.06-1.47,2.93-4.52-2.15-6.59-5.08-2.06-9.98.38-19.67-1.04-9.69-1.42-13.11-2.16-13.11-2.16,0,0,11.62,9.45,20.45,11.46,8.83,2.01,14.49-1.68,14.49-1.68Z"/>
              <path class="cls-33" d="M7.03,126.37c1.3,3.1,7.46,7.94,13.7,11.38h.02c11.13-4.51,8.11-15.3,8.11-15.3l-2.1-.57c-.28-.16-.47-.35-.56-.58-.43-1.21-2.3-2.6-4.51-4.77-2.22-2.15-4.04-3.37-4.56-3.28-.52.08-1.64,1.61-.55,4.61,0,0,1.27.94,1.32,1.77,0,0-6.05-4.31-9.51-4.03-3.46.29-3.63,5.41-1.38,10.76Z"/>
              <path class="cls-13" d="M77.99,141.74c8.37.51,10.67.56,11.84,7.47,1.18,6.91-3.4,16.61-11.84,17.73,0,0,1.78,9.64,1.99,15.12s.25,6.59-.27,7.22c-.52.62-6.12,1.99-9.97,2.36-3.86.37-10.33,2.36-18.41,2.61-8.09.25-12.57-.87-13.19-1.24-.62-.37,5.33-13.56,6.99-16.17s.5-16.51,3.44-20.72c6-8.58,18.73-15.03,29.43-14.37Z"/>
              <path class="cls-14" d="M86.66,161.53s8.14-4.15,4.82-18.11c-3.34-14.04-18.72-14.04-32.67,3.51,0,0,10.36-6.88,21.58-5.04,11.22,1.85,10.5,13.77,6.27,19.64Z"/>
              <path class="cls-49" d="M79.7,183.79s-20.2-11.63-34.59-6.97l.66-2.36s13.67-2.84,33.93,9.33Z"/>
              <path class="cls-15" d="M89.02,148.95s-4.16,6.22-16.27,11.95v19.16l-2.3-1.07s1.12-17.65,1.32-18.58c.2-.93,11.44-4.23,17.25-11.45Z"/>
              <path class="cls-45" d="M58.28,149.13c3.65-.22,2.98,12.5-3.8,16.14-6.79,3.64-8.16-2.74-7.23-6.93.93-4.19,6.18-8.91,11.03-9.21Z"/>
              <path class="cls-47" d="M58.28,149.13c1.95.29,1.33,10.43-4.55,14.17s-7.52.52-6.8-4.66c.72-5.18,6.95-10.17,11.35-9.51Z"/>
              <path class="cls-42" d="M44.38,134.83c-1.41-.37-2.4-4.67-2.58-5.52-.84-3.89-.96-8.67,1.21-10.44h0c.14-.11.52-.34,1.09-.02,1.62.91,4.27,6,3.66,10.59-.38,2.88-1,4.52-1.94,5.15-.29.19-.61.29-.95.29-.16,0-.32-.02-.48-.06ZM42.48,127.55c.57,3.76,1.72,6.15,2.15,6.33.24.06.44.04.64-.09.46-.31,1.1-1.33,1.52-4.47.61-4.55-2.34-9.35-3.21-9.63-1.27,1.11-1.68,4.03-1.1,7.87Z"/>
              <path class="cls-51" d="M79.57,118.82c.32.04.5.84.59,1.36.04.27.06.45.06.45,0,0-2.92.88-4.54,3.63s-2.13,3.89-1.63,4.51c.51.61,2.21.52,2.94-.34.73-.85,1.26-.97,1.26-.97-1.45,3.11-1.5,8.71,1.73,10.25,5.57,2.65,14.08-6.55,15.61-11.62.4-1.33.74-3.18.99-5.25.19-1.55.33-3.21.41-4.87,0,0,0,0,0-.02.22-4.5-.01-8.86-.93-10.31-1.71-2.67-4.81-4.23-11.68-2.51-4.72,1.19-13.59,2.39-19.29,4.01-2.61.74-4.56,1.58-5.16,2.55-2.32,3.71,5.6,12.87,10.58,12.12.15-.02.31-.05.45-.08,4.76-.8,8.17-2.97,8.63-2.92Z"/>
              <path class="cls-6" d="M70.94,121.74c4.76-.8,8.17-2.97,8.63-2.92,0,0-5.45-4.11-3.9-10.13,1.55-6,15.1-5.68,17.64-3.18,2.46,2.43,3.58,9.98,3.67,10.45.22-4.5-.01-8.86-.93-10.31-1.71-2.67-4.81-4.23-11.68-2.51-4.72,1.19-14.81,2.72-20.51,4.34-.18.2-2.47,4.3.7,10,2.04,3.67,4.67,4.41,6.39,4.26Z"/>
              <path class="cls-28" d="M87.33,105.89c2.54.16.18,4.68-1.55,4.68-1.74,0-.86-4.83,1.55-4.68Z"/>
              <path class="cls-4" d="M79.57,118.82s-3.4-5.19.13-9.1c0,0-2.79,1.19-3.04,4.31-.26,3.13,2.91,4.79,2.91,4.79Z"/>
              <path class="cls-18" d="M66.37,106.8s-6.4-5.34-10.56.44c-4.33,6.02,5.89,19.57,12.73,19.57,5.32,0,4.2-5.46,4.2-5.46l-2.27.46s-5.75-1.31-6.91-8.12c-1.03-6,.44-6.23.44-6.23l2.36-.67Z"/>
              <path class="cls-6" d="M55.02,109.9s-.07,13.03-6.46,17.81c-6.4,4.78-8.73-3.8-9.92-10.61-1.19-6.81,1.36-7.67,1.36-7.67,0,0,1.74.56,2.91,1.13,1.17.58,8.36.77,12.12-.66Z"/>
              <path class="cls-9" d="M78.56,133.29s-4.56,2.47-11.58-1.5c-9.61-5.43-11.58-18.2-11.58-18.2,0,0,1.82,5.73,6.39,8.55,4.57,2.81,3.69-1.49,2.47-4.76-1.21-3.27-.84-4.56-.84-4.56,0,0,4.15,6.99,6.39,8.11,2.24,1.12,2.93.42,2.93.42,0,0,.83,2.88-1.22,4.56,0,0,1.89,1.8,6.14,4.24l.9,3.14Z"/>
              <path class="cls-9" d="M36.52,117.95s-1.78,1.61-4.21,9.76c-2.43,8.15.48,12.46,2.1,12.73,1.62.26,4.25-.53,8.16-5.35l-.3-1.79s-4.89-4.45-5.76-15.34Z"/>
              <path class="cls-9" d="M17.92,119.64s1.18,1.72,1.36,2.11-.93,4.18,1.56,7.73c0,0-3.79.62-5.29-4.23-1.49-4.85,2.37-5.61,2.37-5.61Z"/>
              <path class="cls-5" d="M34.62,141.28s0,0-.03,0c.01,0,.02,0,.03,0h0Z"/>
              <path class="cls-5" d="M5.53,120.05c.02,1.83.54,4.05,1.5,6.31,1.3,3.1,7.46,7.95,13.7,11.38h.02c4.53,2.49,9.09,4.22,11.88,3.97.57-.05,1.14-.17,1.7-.33-1.17.3-5.96.94-14.94-5.52-10.28-7.4-13.75-15.56-13.86-15.81Z"/>
              <path class="cls-1" d="M120.13,175.77c-.84-2.82-5.14-4.73-6.17-11.26-1.03-6.53,1.93-11.07,1.93-11.07,0,0,4.25-.89,4.66,5.28.41,6.17-.42,17.06-.42,17.06Z"/>
              <path class="cls-1" d="M45.89,198.13c.7.08,1.44.13,2.19.16,5.32.19,14.93-1.12,20.06-2.62,5.13-1.49,11.39-1.11,12.04-1.96-.98.29-1.36-2.07-2.76-4.28-.98-1.54-2.46-2.99-4.98-3.46-3.42-.62-7.05,1.89-10.18,4.57-2.51,2.12-4.71,4.34-6.24,5.13-2.57,1.32-7.68,2.14-10.12,2.46Z"/>
              <path class="cls-3" d="M70.46,178.99s-8.54-4.65-16.73-6.33c-8.19-1.68-7.95,1.81-7.95,1.81,0,0,9.67-1.72,24.68,4.52Z"/>
              <path class="cls-9" d="M86.66,161.53s2.98-10.32-3.71-16.06c-7.41-6.35-21.23-.46-24.14,1.45,0,0,10.43-8.67,20.38-7.74,9.95.93,12.26,6.03,13,8.65.74,2.61,1.16,8.73-5.54,13.7Z"/>
              <path class="cls-27" d="M74.93,134.65c1.76-.37,3.08,2.52,2.77,3.36-.31.84-6.68,2.2-10.71,3.84-4.03,1.64-4.1,1.48-4.1,1.48,0,0,4.86-7.19,12.04-8.68Z"/>
              <path class="cls-17" d="M79.62,137.52h.01s.03.02.07.03c2.35,1.1,4.63,1.18,8-.97,3.79-2.42,7.01-7.58,7.89-10.49.4-1.33.74-3.18.99-5.25-.12-.13-.24-.27-.36-.4-6.93-7.36-16.39-1.41-16.39-1.41.04.27.39,1.59.39,1.59,0,0-.2.06-.51.19-.9.38-3.23,1.23-4.44,3.28-1.62,2.75-1.73,4.05-1.23,4.68.51.61,2.21.52,2.94-.34.73-.85,1.26-.97,1.26-.97-1.41,3.53-1.85,8.52,1.37,10.05Z"/>
              <path class="cls-9" d="M74.04,128.78c.51.61,2.21.52,2.94-.34.73-.85,1.26-.97,1.26-.97,1.21-2.41.05-3.49-2.55-2.78-1.63,1.65-2.16,3.46-1.66,4.09Z"/>
              <path class="cls-9" d="M79.7,137.56c2.35,1.1,4.63,1.18,8-.97,3.79-2.42,7.01-7.58,7.89-10.49.4-1.33.74-3.18.99-5.25-.12-.13-.24-.27-.36-.4-1.04,3.99-2.83,10.32-6.82,13.29-6.98,5.19-9.12,4.01-9.7,3.82Z"/>
              <path class="cls-27" d="M62.31,105.88c1.06.3.42,8.84-.37,11.87-.79,3.03-7.65-2.61-6.81-7.51.84-4.9,6.32-4.61,7.19-4.36Z"/>
              <path class="cls-3" d="M110.08,157s-1.53,10.08-5.2,15.2c-3.67,5.12-1.31,6.99-1.31,6.99,0,0,3.87-5.56,6.51-22.19Z"/>
              <path class="cls-6" d="M63.82,141.28s-12.54-.37-15.26,2.32c-2.72,2.7-1.42,5.47-1.42,5.47l2.53,4.12s2.95-2.75,6.06-4.24c3.11-1.49,3.76-2.57,3.76-2.57l4.32-5.11Z"/>
              <path class="cls-28" d="M73.46,147.41c4.48,1.2-1.77,3.38-3.83,3.38s.28-4.33,3.83-3.38Z"/>
              <path class="cls-28" d="M64.05,180.65c2.96,1.3-2.11,4.79-3.58,3.14-1.47-1.65,2.09-3.79,3.58-3.14Z"/>
              <path class="cls-28" d="M58.96,130.11c.3,1.94-1.45,3.67-2.24.56-.8-3.11,1.68-4.17,2.24-.56Z"/>
              <path class="cls-28" d="M117.7,183.79c.13,2.19-3.98.03-3.95-1.84.03-1.87,3.86.31,3.95,1.84Z"/>
              <path class="cls-29" d="M118.49,187.26c1.54-1.29-.23-10.53-3.31-16.04-3.08-5.51-4.19-6.23-5.1-6.72s-4.89,11.64-3.63,14.68c1.26,3.05,12.03,8.07,12.03,8.07Z"/>
              <path class="cls-29" d="M72.85,181.24c1.21.84-8.48,8.33-18.07,9.89-9.59,1.56-13.89.08-14.82-.59-.93-.67,4.92-12.91,6.71-14.15,1.79-1.24,16.89-1.66,26.18,4.85Z"/>
              <path class="cls-6" d="M77.99,166.93v-2.36s6.32-.68,9.43-3.98c0,0-2.64,5.47-9.43,6.34Z"/>
              <path class="cls-28" d="M64.05,174.18c1.01-.04.05-1.39-1.01-1.67-1.06-.28-1.12,1.75,1.01,1.67Z"/>
              <path class="cls-27" d="M110.45,153.04c.44.28-.95,9.23-2.88,10.73-1.93,1.49-9.64-3.33-11-6.34-1.36-3.01-1.81-6.35-1.81-6.35,0,0,8.67,3,15.69,1.96Z"/>
              <path class="cls-9" d="M29.02,128.19s-3.67-3.78-3.86-5.09c-.19-1.31,1.05-1.8,1.05-1.8,0,0,.14.4.28.46.43.19,2.37.68,2.37.68,0,0,.53,2.61.16,5.74Z"/>
              <path class="cls-29" d="M80,56.47s-1.24-14.68-8.09-19.91c-6.84-5.23-11.2-5.16-15.24-4.73-4.04.44-9.39,3.24-9.39,3.24,0,0,8.4-3.05,14-1.74,5.6,1.31,14.39,9.2,18.72,23.14Z"/>
              <path class="cls-29" d="M12.66,38.34s-5.07-.24-8.21,5.14c-3.14,5.38-2.71,9.6-2.71,9.6,0,0,5.23-12.41,10.92-14.74Z"/>
            </g>
            <path class="cls-28" d="M75.02,40.06s-3.88-.85-6.35-2.86c-2.47-2.01-2.89-3.56-2.89-3.56,0,0,5.38.46,9.25,6.42Z"/>
          </g>
          <g>
            <g>
              <ellipse class="cls-26" cx="53.31" cy="72.59" rx="31.96" ry="27.07" transform="translate(-23.89 118.97) rotate(-84.7)"/>
              <path class="cls-24" d="M32.42,70.65c-1.26,13.62,7.07,25.52,18.6,26.59,11.54,1.07,21.91-9.1,23.17-22.72,1.26-13.62-7.07-25.52-18.6-26.59-11.54-1.07-21.91,9.1-23.17,22.72Z"/>
              <path class="cls-21" d="M41.2,70.59c-.88,9.5,3.86,17.71,10.6,18.33,6.73.62,12.91-6.57,13.79-16.07.88-9.5-3.86-17.71-10.6-18.33-6.73-.62-12.91,6.57-13.79,16.07Z"/>
            </g>
            <g>
              <path class="cls-20" d="M2.49,72.87c.97,14.58,6.54,26.54,12.43,26.72,5.9.18,9.89-11.5,8.92-26.08-.97-14.58-6.54-26.54-12.43-26.72-5.9-.18-9.89,11.5-8.92,26.08Z"/>
              <path class="cls-23" d="M4.89,72.94c.75,11.3,5.06,20.57,9.63,20.7,4.57.14,7.66-8.91,6.91-20.2-.75-11.3-5.06-20.57-9.63-20.7s-7.66,8.91-6.91,20.2Z"/>
              <path class="cls-21" d="M8.28,73.05c.53,7.88,3.15,14.33,5.85,14.41,2.7.08,4.46-6.25,3.92-14.13-.53-7.88-3.15-14.33-5.85-14.41-2.7-.08-4.46,6.25-3.92,14.13Z"/>
            </g>
            <path class="cls-22" d="M34.77,87.86s-.77,2.15-4.6,1.99-4.72-2.33-4.72-2.33c0,0,5.1,2.22,9.33.34Z"/>
          </g>
        </g>
      </g>
    </g>
  </g>
</svg>