<?xml version="1.0" encoding="UTF-8"?>
<svg xmlns="http://www.w3.org/2000/svg" xmlns:xlink="http://www.w3.org/1999/xlink" viewBox="0 0 110.71 200.54">
  <defs>
    <style>
      .cls-1 {
        fill: #c22781;
      }

      .cls-1, .cls-2 {
        opacity: .2;
      }

      .cls-1, .cls-2, .cls-3, .cls-4, .cls-5, .cls-6, .cls-7, .cls-8, .cls-9, .cls-10 {
        mix-blend-mode: multiply;
      }

      .cls-11 {
        fill: #000001;
      }

      .cls-12 {
        fill: url(#_Áåçûìÿííûé_ãðàäèåíò_80-3);
      }

      .cls-13 {
        fill: #450089;
      }

      .cls-14 {
        fill: #200040;
      }

      .cls-15 {
        fill: #26004c;
      }

      .cls-16 {
        fill: #210041;
      }

      .cls-17 {
        fill: #390071;
      }

      .cls-18 {
        fill: #5c00b8;
      }

      .cls-19 {
        fill: #4c0098;
      }

      .cls-20 {
        fill: url(#_Áåçûìÿííûé_ãðàäèåíò_57-3);
      }

      .cls-21 {
        fill: #230046;
      }

      .cls-22 {
        fill: #320064;
      }

      .cls-23 {
        fill: url(#_Áåçûìÿííûé_ãðàäèåíò_88-2);
      }

      .cls-24 {
        fill: #204;
      }

      .cls-25 {
        fill: #6700cd;
      }

      .cls-26 {
        fill: #6800d0;
      }

      .cls-27 {
        fill: #18002f;
      }

      .cls-28 {
        fill: #0c0017;
      }

      .cls-29 {
        fill: #400080;
      }

      .cls-30 {
        fill: #010002;
      }

      .cls-31 {
        fill: #120024;
      }

      .cls-32 {
        fill: #26004b;
      }

      .cls-33 {
        fill: #6a00d3;
      }

      .cls-34 {
        fill: #3f007e;
      }

      .cls-35 {
        fill: url(#_Áåçûìÿííûé_ãðàäèåíò_57-5);
      }

      .cls-36 {
        fill: #08000f;
      }

      .cls-37 {
        fill: #6f00dd;
      }

      .cls-38 {
        fill: #7700ed;
      }

      .cls-2 {
        fill: #c42781;
      }

      .cls-39 {
        fill: #480090;
      }

      .cls-40 {
        fill: #0d0019;
      }

      .cls-41 {
        fill: url(#radial-gradient-4);
      }

      .cls-41, .cls-42, .cls-43, .cls-44 {
        fill-rule: evenodd;
      }

      .cls-41, .cls-45, .cls-44, .cls-46, .cls-47 {
        mix-blend-mode: screen;
      }

      .cls-48 {
        fill: #0c0019;
      }

      .cls-49 {
        fill: #090011;
      }

      .cls-50 {
        fill: #05000b;
      }

      .cls-51 {
        fill: #0e001c;
      }

      .cls-52 {
        fill: #d10000;
      }

      .cls-3 {
        fill: url(#_Áåçûìÿííûé_ãðàäèåíò_107);
      }

      .cls-3, .cls-4, .cls-5, .cls-53, .cls-7, .cls-8, .cls-9, .cls-10 {
        opacity: .5;
      }

      .cls-54 {
        fill: #080010;
      }

      .cls-55 {
        fill: #310062;
      }

      .cls-56 {
        fill: #300060;
      }

      .cls-57, .cls-42, .cls-58, .cls-53, .cls-59 {
        fill: #fff;
      }

      .cls-60 {
        fill: #1b0037;
      }

      .cls-61 {
        fill: #6100c0;
      }

      .cls-62 {
        fill: #7900f1;
      }

      .cls-63 {
        fill: #5b00b5;
      }

      .cls-64 {
        fill: #100021;
      }

      .cls-65 {
        fill: #2e005b;
      }

      .cls-66 {
        fill: #130026;
      }

      .cls-67 {
        fill: #5100a2;
      }

      .cls-68 {
        fill: #030007;
      }

      .cls-69 {
        fill: #15002b;
      }

      .cls-70 {
        fill: url(#_Áåçûìÿííûé_ãðàäèåíò_13);
      }

      .cls-71 {
        fill: #50009f;
      }

      .cls-4 {
        fill: #d14894;
      }

      .cls-72 {
        fill: #0e001b;
      }

      .cls-73 {
        fill: #6500ca;
      }

      .cls-74 {
        fill: #180030;
      }

      .cls-75 {
        fill: #06000d;
      }

      .cls-76 {
        fill: #2f005d;
      }

      .cls-77 {
        fill: url(#_Áåçûìÿííûé_ãðàäèåíò_30-2);
      }

      .cls-58, .cls-6 {
        opacity: .3;
      }

      .cls-58, .cls-53, .cls-59 {
        mix-blend-mode: soft-light;
      }

      .cls-78 {
        fill: #7000e0;
      }

      .cls-43 {
        fill: #4d0542;
      }

      .cls-79 {
        fill: none;
      }

      .cls-80 {
        fill: #3a0073;
      }

      .cls-81 {
        fill: #1d0039;
      }

      .cls-82 {
        fill: #290053;
      }

      .cls-83 {
        fill: #7500ea;
      }

      .cls-84 {
        fill: #190032;
      }

      .cls-85 {
        fill: #4d009a;
      }

      .cls-86 {
        fill: url(#_Áåçûìÿííûé_ãðàäèåíò_20);
      }

      .cls-87 {
        fill: #7c00f8;
      }

      .cls-88 {
        fill: url(#_Áåçûìÿííûé_ãðàäèåíò_81);
      }

      .cls-89 {
        fill: #1f003d;
      }

      .cls-90 {
        fill: #140028;
      }

      .cls-91 {
        fill: #030006;
      }

      .cls-92 {
        fill: #030005;
      }

      .cls-93 {
        fill: #5300a4;
      }

      .cls-94 {
        fill: url(#_Áåçûìÿííûé_ãðàäèåíò_89);
      }

      .cls-95 {
        fill: #5700ad;
      }

      .cls-96 {
        fill: #1d003a;
      }

      .cls-97 {
        fill: url(#_Áåçûìÿííûé_ãðàäèåíò_80-2);
      }

      .cls-98 {
        fill: #0a0013;
      }

      .cls-99 {
        fill: #340068;
      }

      .cls-45 {
        fill: url(#radial-gradient);
      }

      .cls-100 {
        fill: url(#_Áåçûìÿííûé_ãðàäèåíò_13-2);
      }

      .cls-101 {
        fill: #4a0093;
      }

      .cls-102 {
        fill: #240048;
      }

      .cls-103 {
        fill: #7400e6;
      }

      .cls-104 {
        fill: #0e001d;
      }

      .cls-105 {
        fill: #28004f;
      }

      .cls-106 {
        fill: #1e003c;
      }

      .cls-107 {
        fill: #46008c;
      }

      .cls-108 {
        isolation: isolate;
      }

      .cls-109 {
        fill: #4b0095;
      }

      .cls-110 {
        fill: #290051;
      }

      .cls-111 {
        fill: #0c0018;
      }

      .cls-112 {
        fill: #05000a;
      }

      .cls-113 {
        fill: #07000d;
      }

      .cls-114 {
        fill: #3b0075;
      }

      .cls-115 {
        fill: #020003;
      }

      .cls-116 {
        fill: #250049;
      }

      .cls-117 {
        fill: url(#_Áåçûìÿííûé_ãðàäèåíò_57);
      }

      .cls-118 {
        fill: url(#_Áåçûìÿííûé_ãðàäèåíò_88-3);
      }

      .cls-119 {
        fill: url(#_Áåçûìÿííûé_ãðàäèåíò_106);
      }

      .cls-120 {
        fill: #6200c3;
      }

      .cls-121 {
        fill: #17002e;
      }

      .cls-122 {
        fill: #10001f;
      }

      .cls-123 {
        fill: #50a;
      }

      .cls-124 {
        fill: #0b0016;
      }

      .cls-125 {
        fill: #440087;
      }

      .cls-126 {
        fill: #0a0015;
      }

      .cls-127 {
        fill: url(#_Áåçûìÿííûé_ãðàäèåíò_80);
      }

      .cls-128 {
        fill: #6400c6;
      }

      .cls-129 {
        fill: #040007;
      }

      .cls-130 {
        fill: url(#_Áåçûìÿííûé_ãðàäèåíò_57-4);
      }

      .cls-131 {
        fill: url(#_Áåçûìÿííûé_ãðàäèåíò_13-3);
      }

      .cls-132 {
        fill: #210042;
      }

      .cls-133 {
        fill: #5f00be;
      }

      .cls-134 {
        fill: #1c0038;
      }

      .cls-135 {
        fill: #350069;
      }

      .cls-136 {
        fill: #5400a7;
      }

      .cls-137 {
        fill: url(#_Áåçûìÿííûé_ãðàäèåíò_116);
      }

      .cls-138 {
        fill: #3e007c;
      }

      .cls-139 {
        fill: #020004;
      }

      .cls-44 {
        fill: url(#radial-gradient-3);
      }

      .cls-140 {
        fill: #1b0036;
      }

      .cls-141 {
        fill: #16002d;
      }

      .cls-142 {
        fill: url(#_Áåçûìÿííûé_ãðàäèåíò_89-2);
      }

      .cls-143 {
        fill: #050009;
      }

      .cls-144 {
        fill: #0d001b;
      }

      .cls-145 {
        fill: #6d00d9;
      }

      .cls-146 {
        fill: #0b0015;
      }

      .cls-147 {
        fill: url(#_Áåçûìÿííûé_ãðàäèåíò_57-2);
      }

      .cls-148 {
        fill: #306;
      }

      .cls-149 {
        fill: #140029;
      }

      .cls-150 {
        fill: #2b0056;
      }

      .cls-151 {
        fill: #15002a;
      }

      .cls-152 {
        fill: #410082;
      }

      .cls-153 {
        fill: #090012;
      }

      .cls-5 {
        fill: #ba0e81;
      }

      .cls-154 {
        fill: #6b00d6;
      }

      .cls-155 {
        fill: #2c0058;
      }

      .cls-156 {
        fill: #37006d;
      }

      .cls-6 {
        fill: #c72781;
      }

      .cls-157 {
        fill: #130027;
      }

      .cls-158 {
        fill: #5e00bb;
      }

      .cls-159 {
        fill: url(#_Áåçûìÿííûé_ãðàäèåíò_88);
      }

      .cls-7 {
        fill: url(#_Áåçûìÿííûé_ãðàäèåíò_107-2);
      }

      .cls-160 {
        fill: #aaefff;
      }

      .cls-161 {
        fill: #36006b;
      }

      .cls-8 {
        fill: #e767a7;
      }

      .cls-162 {
        fill: #7b00f4;
      }

      .cls-163 {
        fill: #07000e;
      }

      .cls-9 {
        fill: url(#_Áåçûìÿííûé_ãðàäèåíò_71);
      }

      .cls-164 {
        fill: #190031;
      }

      .cls-165 {
        fill: #2a0054;
      }

      .cls-166 {
        fill: #5800af;
      }

      .cls-167 {
        fill: #0d001a;
      }

      .cls-168 {
        fill: #230045;
      }

      .cls-169 {
        fill: #38006f;
      }

      .cls-170 {
        fill: #080011;
      }

      .cls-171 {
        fill: url(#_Áåçûìÿííûé_ãðàäèåíò_134);
      }

      .cls-172 {
        fill: #1a0034;
      }

      .cls-173 {
        fill: #120023;
      }

      .cls-174 {
        fill: #16002c;
      }

      .cls-175 {
        fill: #040008;
      }

      .cls-176 {
        fill: #020005;
      }

      .cls-177 {
        fill: #0f001e;
      }

      .cls-178 {
        fill: #1f003e;
      }

      .cls-179 {
        fill: #5900b2;
      }

      .cls-180 {
        fill: #0a0014;
      }

      .cls-47 {
        fill: url(#radial-gradient-2);
      }

      .cls-181 {
        fill: #06000b;
      }

      .cls-182 {
        fill: #1a0033;
      }

      .cls-183 {
        fill: #102;
      }

      .cls-184 {
        fill: #06000c;
      }

      .cls-185 {
        fill: #2d0059;
      }

      .cls-186 {
        fill: #27004e;
      }

      .cls-187 {
        fill: #ff3636;
      }

      .cls-188 {
        fill: #3d007a;
      }

      .cls-189 {
        fill: #2f005e;
      }

      .cls-190 {
        fill: #040009;
      }

      .cls-191 {
        fill: #0b0017;
      }

      .cls-192 {
        fill: #010001;
      }

      .cls-193 {
        fill: #3c0078;
      }

      .cls-10 {
        fill: #ab2781;
      }

      .cls-194 {
        fill: #7e00fb;
      }

      .cls-195 {
        clip-path: url(#clippath);
      }

      .cls-196 {
        fill: #010003;
      }

      .cls-197 {
        fill: #130025;
      }

      .cls-198 {
        fill: url(#_Áåçûìÿííûé_ãðàäèåíò_57-6);
      }

      .cls-199 {
        fill: #4f009d;
      }

      .cls-200 {
        fill: #47008e;
      }

      .cls-201 {
        fill: #8000ff;
      }

      .cls-202 {
        fill: #7200e3;
      }

      .cls-203 {
        fill: #100020;
      }

      .cls-204 {
        fill: url(#_Áåçûìÿííûé_ãðàäèåíò_30);
      }

      .cls-205 {
        fill: #430085;
      }
    </style>
    <linearGradient id="_Áåçûìÿííûé_ãðàäèåíò_80" data-name="Áåçûìÿííûé ãðàäèåíò 80" x1="242.68" y1="200.54" x2="242.68" y2="163.71" gradientTransform="translate(281.53) rotate(-180) scale(1 -1)" gradientUnits="userSpaceOnUse">
      <stop offset="0" stop-color="#e522d9"/>
      <stop offset="1" stop-color="#ff2443"/>
    </linearGradient>
    <linearGradient id="_Áåçûìÿííûé_ãðàäèåíò_80-2" data-name="Áåçûìÿííûé ãðàäèåíò 80" x1="196.93" y1="199.2" x2="196.93" y2="174.23" xlink:href="#_Áåçûìÿííûé_ãðàäèåíò_80"/>
    <linearGradient id="_Áåçûìÿííûé_ãðàäèåíò_106" data-name="Áåçûìÿííûé ãðàäèåíò 106" x1="193.24" y1="136.13" x2="193.24" y2="93.55" gradientTransform="translate(281.53) rotate(-180) scale(1 -1)" gradientUnits="userSpaceOnUse">
      <stop offset="0" stop-color="#ffb5b5"/>
      <stop offset=".28" stop-color="#ffb6bd"/>
      <stop offset=".72" stop-color="#ffbbd3"/>
      <stop offset="1" stop-color="#ffbfe6"/>
    </linearGradient>
    <linearGradient id="_Áåçûìÿííûé_ãðàäèåíò_30" data-name="Áåçûìÿííûé ãðàäèåíò 30" x1="195.85" y1="195.17" x2="195.85" y2="128.85" gradientTransform="translate(281.53) rotate(-180) scale(1 -1)" gradientUnits="userSpaceOnUse">
      <stop offset="0" stop-color="#ffc3c4"/>
      <stop offset=".44" stop-color="#ffc4cc"/>
      <stop offset="1" stop-color="#ffc9de"/>
    </linearGradient>
    <linearGradient id="_Áåçûìÿííûé_ãðàäèåíò_13" data-name="Áåçûìÿííûé ãðàäèåíò 13" x1="223.23" y1="93.55" x2="223.23" y2="0" gradientTransform="translate(281.53) rotate(-180) scale(1 -1)" gradientUnits="userSpaceOnUse">
      <stop offset="0" stop-color="#ffd7da"/>
      <stop offset=".32" stop-color="#ffdfe1"/>
      <stop offset=".83" stop-color="#fff5f6"/>
      <stop offset="1" stop-color="#fff"/>
    </linearGradient>
    <linearGradient id="_Áåçûìÿííûé_ãðàäèåíò_20" data-name="Áåçûìÿííûé ãðàäèåíò 20" x1="216.5" y1="146.79" x2="216.5" y2="89.48" gradientTransform="translate(281.53) rotate(-180) scale(1 -1)" gradientUnits="userSpaceOnUse">
      <stop offset="0" stop-color="#ffd7da"/>
      <stop offset=".45" stop-color="#ffdfde"/>
      <stop offset="1" stop-color="#fff0e8"/>
    </linearGradient>
    <linearGradient id="_Áåçûìÿííûé_ãðàäèåíò_80-3" data-name="Áåçûìÿííûé ãðàäèåíò 80" x1="220.4" y1="115.83" x2="220.4" y2="100.45" xlink:href="#_Áåçûìÿííûé_ãðàäèåíò_80"/>
    <linearGradient id="_Áåçûìÿííûé_ãðàäèåíò_13-2" data-name="Áåçûìÿííûé ãðàäèåíò 13" x1="256.59" y1="137.09" x2="256.59" y2="89.99" xlink:href="#_Áåçûìÿííûé_ãðàäèåíò_13"/>
    <linearGradient id="_Áåçûìÿííûé_ãðàäèåíò_30-2" data-name="Áåçûìÿííûé ãðàäèåíò 30" x1="233.45" y1="198.37" x2="233.45" y2="131.61" xlink:href="#_Áåçûìÿííûé_ãðàäèåíò_30"/>
    <linearGradient id="_Áåçûìÿííûé_ãðàäèåíò_57" data-name="Áåçûìÿííûé ãðàäèåíò 57" x1="235.15" y1="113.69" x2="235.15" y2="85.94" gradientTransform="translate(281.53) rotate(-180) scale(1 -1)" gradientUnits="userSpaceOnUse">
      <stop offset="0" stop-color="#931a84"/>
      <stop offset="1" stop-color="#ae04b1"/>
    </linearGradient>
    <linearGradient id="_Áåçûìÿííûé_ãðàäèåíò_57-2" data-name="Áåçûìÿííûé ãðàäèåíò 57" x1="208.46" y1="113.41" x2="208.46" y2="91.62" xlink:href="#_Áåçûìÿííûé_ãðàäèåíò_57"/>
    <linearGradient id="_Áåçûìÿííûé_ãðàäèåíò_71" data-name="Áåçûìÿííûé ãðàäèåíò 71" x1="214.37" y1="48.16" x2="214.37" y2="20.11" gradientTransform="translate(281.53) rotate(-180) scale(1 -1)" gradientUnits="userSpaceOnUse">
      <stop offset="0" stop-color="#fff"/>
      <stop offset="1" stop-color="#d91a81"/>
    </linearGradient>
    <linearGradient id="_Áåçûìÿííûé_ãðàäèåíò_88" data-name="Áåçûìÿííûé ãðàäèåíò 88" x1="238.31" y1="164.35" x2="238.31" y2="133.81" gradientTransform="translate(281.53) rotate(-180) scale(1 -1)" gradientUnits="userSpaceOnUse">
      <stop offset="0" stop-color="#ff2483"/>
      <stop offset=".99" stop-color="#e522d9"/>
    </linearGradient>
    <linearGradient id="_Áåçûìÿííûé_ãðàäèåíò_57-3" data-name="Áåçûìÿííûé ãðàäèåíò 57" x1="224.93" y1="152.92" x2="224.93" y2="125.02" xlink:href="#_Áåçûìÿííûé_ãðàäèåíò_57"/>
    <linearGradient id="_Áåçûìÿííûé_ãðàäèåíò_57-4" data-name="Áåçûìÿííûé ãðàäèåíò 57" x1="203.68" y1="152.59" x2="203.68" y2="123.43" xlink:href="#_Áåçûìÿííûé_ãðàäèåíò_57"/>
    <linearGradient id="_Áåçûìÿííûé_ãðàäèåíò_81" data-name="Áåçûìÿííûé ãðàäèåíò 81" x1="267.71" y1="137.09" x2="267.71" y2="111.11" gradientTransform="translate(281.53) rotate(-180) scale(1 -1)" gradientUnits="userSpaceOnUse">
      <stop offset="0" stop-color="#ff2443"/>
      <stop offset=".99" stop-color="#e522d9"/>
    </linearGradient>
    <linearGradient id="_Áåçûìÿííûé_ãðàäèåíò_116" data-name="Áåçûìÿííûé ãðàäèåíò 116" x1="182.89" y1="136.13" x2="182.89" y2="113.26" gradientTransform="translate(281.53) rotate(-180) scale(1 -1)" gradientUnits="userSpaceOnUse">
      <stop offset="0" stop-color="#bb0181"/>
      <stop offset=".99" stop-color="#e51ba4"/>
    </linearGradient>
    <radialGradient id="_Áåçûìÿííûé_ãðàäèåíò_134" data-name="Áåçûìÿííûé ãðàäèåíò 134" cx="215.65" cy="83.95" fx="215.65" fy="83.95" r="58.88" gradientTransform="translate(281.53) rotate(-180) scale(1 -1)" gradientUnits="userSpaceOnUse">
      <stop offset="0" stop-color="#dc16b1"/>
      <stop offset=".4" stop-color="#9517a9"/>
      <stop offset="1" stop-color="#5a1a88"/>
    </radialGradient>
    <clipPath id="clippath">
      <path class="cls-79" d="M33.15,70.92c.65,1.11,1.55,2.22,2.65,3.28t.02.02h0c9.75,9.49,35.66,16.52,53.5,7.65,8.12-4.03,12.56-13.27,14.6-22.58,1.78-8.1,1.73-16.25.7-21.04-2.22-10.29-9.92-8.32-15.48-7.02-6.96,1.62-14.56.9-27.63-3.97-13.06-4.88-23.68-3.63-28.37,1.98-5.51,6.62-7.09,29.52,0,41.67Z"/>
    </clipPath>
    <linearGradient id="_Áåçûìÿííûé_ãðàäèåíò_13-3" data-name="Áåçûìÿííûé ãðàäèåíò 13" x1="606.78" y1="44.66" x2="606.78" y2="15.77" gradientTransform="translate(-505.81 -128.88) rotate(12.39) scale(1 1.02) skewX(-2.8)" xlink:href="#_Áåçûìÿííûé_ãðàäèåíò_13"/>
    <linearGradient id="_Áåçûìÿííûé_ãðàäèåíò_107" data-name="Áåçûìÿííûé ãðàäèåíò 107" x1="606.78" y1="44.66" x2="606.78" y2="21.33" gradientTransform="translate(-505.81 -128.88) rotate(12.39) scale(1 1.02) skewX(-2.8)" gradientUnits="userSpaceOnUse">
      <stop offset="0" stop-color="#d91a81"/>
      <stop offset="1" stop-color="#fff"/>
    </linearGradient>
    <linearGradient id="_Áåçûìÿííûé_ãðàäèåíò_88-2" data-name="Áåçûìÿííûé ãðàäèåíò 88" x1="237.2" y1="180.82" x2="237.2" y2="161.07" xlink:href="#_Áåçûìÿííûé_ãðàäèåíò_88"/>
    <linearGradient id="_Áåçûìÿííûé_ãðàäèåíò_88-3" data-name="Áåçûìÿííûé ãðàäèåíò 88" x1="197.56" y1="175.06" x2="197.56" y2="171.99" xlink:href="#_Áåçûìÿííûé_ãðàäèåíò_88"/>
    <linearGradient id="_Áåçûìÿííûé_ãðàäèåíò_57-5" data-name="Áåçûìÿííûé ãðàäèåíò 57" x1="189.7" y1="167.6" x2="189.7" y2="151.01" xlink:href="#_Áåçûìÿííûé_ãðàäèåíò_57"/>
    <linearGradient id="_Áåçûìÿííûé_ãðàäèåíò_57-6" data-name="Áåçûìÿííûé ãðàäèåíò 57" x1="246.1" y1="159.61" x2="246.1" y2="144.34" gradientTransform="translate(269.35 -39.27) rotate(168.34) scale(1 -1)" xlink:href="#_Áåçûìÿííûé_ãðàäèåíò_57"/>
    <linearGradient id="_Áåçûìÿííûé_ãðàäèåíò_89" data-name="Áåçûìÿííûé ãðàäèåíò 89" x1="189.27" y1="166.26" x2="189.27" y2="151.35" gradientTransform="translate(281.53) rotate(-180) scale(1 -1)" gradientUnits="userSpaceOnUse">
      <stop offset="0" stop-color="#e522d9"/>
      <stop offset="1" stop-color="#ff2483"/>
    </linearGradient>
    <linearGradient id="_Áåçûìÿííûé_ãðàäèåíò_89-2" data-name="Áåçûìÿííûé ãðàäèåíò 89" x1="245.19" y1="159.1" x2="245.19" y2="144.81" gradientTransform="translate(269.35 -39.27) rotate(168.34) scale(1 -1)" xlink:href="#_Áåçûìÿííûé_ãðàäèåíò_89"/>
    <linearGradient id="_Áåçûìÿííûé_ãðàäèåíò_107-2" data-name="Áåçûìÿííûé ãðàäèåíò 107" x1="195.14" y1="83.89" x2="262.59" y2="83.89" gradientTransform="translate(281.53) rotate(-180) scale(1 -1)" xlink:href="#_Áåçûìÿííûé_ãðàäèåíò_107"/>
    <radialGradient id="radial-gradient" cx="198.27" cy="246.6" fx="198.27" fy="246.6" r="31.96" gradientTransform="translate(245.25 -90.37) rotate(89.98) scale(.77)" gradientUnits="userSpaceOnUse">
      <stop offset=".02" stop-color="#f200a5"/>
      <stop offset=".17" stop-color="#bf0082"/>
      <stop offset=".4" stop-color="#7c0054"/>
      <stop offset=".6" stop-color="#460030"/>
      <stop offset=".77" stop-color="#200016"/>
      <stop offset=".91" stop-color="#080005"/>
      <stop offset="1" stop-color="#000"/>
    </radialGradient>
    <radialGradient id="radial-gradient-2" cx="198.27" cy="246.6" fx="198.27" fy="246.6" r="24.76" gradientTransform="translate(245.29 -90.31) rotate(89.99) scale(.77)" gradientUnits="userSpaceOnUse">
      <stop offset=".02" stop-color="#ce00f2"/>
      <stop offset=".17" stop-color="#a300bf"/>
      <stop offset=".4" stop-color="#69007c"/>
      <stop offset=".6" stop-color="#3c0046"/>
      <stop offset=".77" stop-color="#1b0020"/>
      <stop offset=".91" stop-color="#070008"/>
      <stop offset="1" stop-color="#000"/>
    </radialGradient>
    <radialGradient id="radial-gradient-3" cx="958.47" cy="332.45" fx="958.47" fy="332.45" r="31.95" gradientTransform="translate(458.5 188.88) rotate(-136.51) scale(.44 -.49) skewX(-24.36)" xlink:href="#radial-gradient"/>
    <radialGradient id="radial-gradient-4" cx="958.47" cy="332.45" fx="958.47" fy="332.45" r="24.76" gradientTransform="translate(458.5 188.88) rotate(-136.51) scale(.44 -.49) skewX(-24.36)" xlink:href="#radial-gradient-2"/>
  </defs>
  <g class="cls-108">
    <g id="Calque_2" data-name="Calque 2">
      <g id="Layer_3" data-name="Layer 3">
        <g>
          <g>
            <path class="cls-160" d="M107.64,33.02s3.67,11.98-3.15,32.13c-6.82,20.16-19.27,24.32-23.06,25.26-3.79.93-4.63,1.35-4.63,1.35,0,0,3.95,3.76,5.38,8.06,1.43,4.31,9.41,8.84,15.46,14.47,6.04,5.63,10.97,15,11.74,16.53.77,1.53-22.99-6.12-22.99-6.12,0,0,4.22,5.82,4.44,9.16.22,3.35-.35,5.11-.35,5.11,0,0,4.78,11.75,7.17,20.33,2.38,8.58,3.88,20.02,4.34,21.52.47,1.5,2.38,9.65,1.33,13.92-1.05,4.28-21.9-9.58-21.9-9.58l-5.01-43.84-23.48-62.87,54.7-45.44Z"/>
            <g>
              <path class="cls-127" d="M25.79,167.02c-.07,1.4.46,4.7,3.36,8.14,2.33,2.77,2.69,4.96,4.05,8.6v.02s0,0,0,0c.7,1.87,1.66,4.14,3.32,7.04,2.33,4.14,4.76,6.54,6.76,7.92.08.06.16.11.23.16.13.09.26.17.37.25.03.02.07.04.1.06,1.79,1.09,3.15,1.33,3.61,1.33.51,0,1.31-.34,2.14-.79,0,0,0,0,0,0h0c.79-.43,1.6-.97,2.19-1.38l-15.63-22.83-6.43-9.39-1.67-2.44s-2.02,2.11-2.3,2.67c-.05.11-.09.32-.1.64Z"/>
              <path class="cls-97" d="M65.89,180.26c.03.18.79.66,2,1.4,2.76,1.69,7.87,4.78,12.06,8.81,0,0,.03.02.08.07.32.31.62.61.92.93,4.96,5.16,14.71,7.45,18.63,7.72.9.06,1.5.02,1.65-.12.47-.39,1.05-1.62,1.49-2.67.36-.89.63-1.64.63-1.64l-22.53-13.08-8.77-5.09-4.05-2.35s-2.24,5.4-2.11,6.03Z"/>
              <path class="cls-119" d="M71.35,115.96c6.65,7.35,12.17,7.68,15.24,9.89.32.24.61.48.88.77,2.8,2.99,3.73,5.04,7.38,5.79,3.63.76,3.88,2.42,5.62,2.93,1.74.49,3.11-.13,3.11-.13,0,0,7.71,2.74,7.09-1.24-.54-3.51-7.45-12.7-16.98-20.69h-.02c-1.3-1.1-2.64-2.18-4.03-3.2-11.57-8.58-20.28-15.37-23.46-16.52,0,0-2.17,14.28,5.17,22.41Z"/>
              <path class="cls-204" d="M83.69,128.85c-.89,3.31,7.37,11.54,10.54,23.37,3.17,11.84,3.32,17.08,5.18,23.82,1.87,6.75,4.29,11.42,3.92,18.7,0,0-5.44,2.18-15.04-3.3-9.6-5.48-11.96-9.59-15.94-12.01-3.98-2.42-4.35-5.21-4.35-5.21,0,0,1.62-3.61,2.12-8.62.5-5.01-1.37-18.82-1.37-18.82l14.95-17.92Z"/>
              <path class="cls-70" d="M17.3,71.99c.47.77,1,1.51,1.61,2.22h0s0,.02.02.02c4.42,5.28,11.97,8.98,18.79,11.7h.03c4.21,1.68,8.14,2.98,10.88,4.06,7.84,3.04,12.7,4.39,15.31,3.03,1.91-1,12.43-1.87,22.44-6.75.02,0,.04,0,.05-.02h.02s0-.02.02-.02c1.66-.81,3.31-1.73,4.91-2.79,11.2-7.4,19-40.62,15.8-52.87C103.37,15.96,73.28-1.4,49.21.09,25.14,1.59,12.63,17.07,9.64,25.47c-.1.29-.2.6-.28.94-2.39,9.38,2,35.91,7.94,45.58Z"/>
              <path class="cls-86" d="M46.41,94.48c.15,2.71.66,6.59,1.67,11.8,2.43,12.37-.53,21.83.47,24.96.99,3.14,18.82,15.41,20.19,15.54,1.37.12,5.1-1.37,9.83-7.09,4.73-5.72,7.22-12.57,2.87-26.28-1.9-5.96-5.45-10.59-8.73-13.96-4.26-4.39-8.04-6.66-7.11-6.94,0,0-16.95-2.52-18.2-2.99-.72-.28-1.18,1.24-.98,4.96Z"/>
              <path class="cls-12" d="M62.29,115.81c-2.94-.28-6.41-4.04-6.69-8.97-.14-2.52.55-4.6,1.91-5.7.72-.58,1.57-.82,2.28-.62h0c3.12.86,8.25,5.2,6.57,11.79-.58,2.26-1.91,3.52-3.69,3.52-.12,0-.25,0-.38-.02ZM58.13,101.91c-.52.42-1.72,1.75-1.55,4.88.24,4.31,3.26,7.8,5.8,8.04,1.45.15,2.53-.84,3.02-2.76,1.49-5.86-3.17-9.85-5.88-10.6h0c-.08-.02-.16-.03-.25-.03-.35,0-.77.17-1.15.47Z"/>
              <path class="cls-8" d="M46.41,94.48c5.21,4.67,13.78,11.24,20.48,10.99,8.91-.32,6.62-4.8,5.82-6.02-4.26-4.39-8.04-6.66-7.11-6.94,0,0-16.95-2.52-18.2-2.99-.72-.28-1.18,1.24-.98,4.96Z"/>
              <path class="cls-100" d="M.19,132.97c.75,1.86,3.27,4.04,8.51,3.42,5.24-.62,8.32-4.54,8.32-4.54,0,0,.46.75-.04,2.3-.49,1.56.13,2.61,1.12,2.92.99.32,4.26-3.36,6.01-5.41,1.73-2.05,1.79-4.89,3.54-9.05,1.74-4.17,17.27-8.44,21-15.09,3.73-6.65-2.24-17.53-2.24-17.53-3.51.74-8.27,3.32-13.5,7.85-3.94,3.41-12.28,7.86-19.13,13.27-2.23,1.75-4.29,3.61-6,5.57C.81,124.63-.56,131.1.19,132.97Z"/>
              <path class="cls-77" d="M67.99,148.65c-.65,3.77-1.8,6.05-4.42,16.34-2.61,10.29-5.54,13.76-6.16,17.19-.62,3.43-3.23,14.01-5.1,15.75-1.87,1.74-9.33-1.49-13.93-11.63-4.6-10.14-4.98-11.03-7.59-15.25-2.61-4.22-2.61-7.33-2.61-7.33,0,0,3.23-4.23,5.85-6.22,2.61-1.99,11.92-18.03,13.8-25.87,0,0,17.05,10.19,20.17,17.04Z"/>
              <path class="cls-117" d="M46.52,110.11s1.44-6.72-.92-12.28c-2.36-5.55-4.81-5.61-4.81-5.61l-2.22,1.32s-.91-7.61,6.31-7.61,11.42,12.08,8.34,21.58c-3.08,9.5-10.13,5.21-10.13,5.21l3.43-2.62Z"/>
              <path class="cls-147" d="M81.43,113.41s2.39-9.78-1.34-16.21c-3.73-6.42-9.68-5.72-11.29-5.38-1.61.33-4.85,1.2-4.85,1.2,0,0,8.27.96,17.48,20.39Z"/>
              <path class="cls-9" d="M105.32,48.16s.49-12.12-2.62-17.34c-3.11-5.23-15.43-2.74-23.02-3.11-7.59-.37-22.89-9.21-36.21-7.34-13.31,1.87-14.13,17.42-14.52,21.03-.39,3.61,76.36,6.77,76.36,6.77Z"/>
              <path class="cls-159" d="M51.92,134.21s-4.85,19.96-15.78,30.14l-1.6-.64s12.53-12.17,16.82-29.9l.56.4Z"/>
              <path class="cls-20" d="M66.88,152.58s-6.74-14.45-12.64-17.31c-5.91-2.86-7.01-1.6-7.14-1.22-.13.38-.57,1.55-.57,1.55,0,0-4.04-3.31-2.55-8.2,1.49-4.89,19.97-3.98,25.57,19.38,0,0-.93,7.83-2.66,5.79Z"/>
              <path class="cls-130" d="M83.67,126.82s-.54,5.2-3.57,9.9c-3.03,4.7-12.1,9.75-12.1,9.75,0,0-1.37,5.24-.62,6.04.75.8,13.19-3.83,18.66-11.07,5.48-7.24.75-14.2-2.46-18l.09,3.39Z"/>
              <path class="cls-88" d="M.19,132.97c.75,1.86,3.27,4.04,8.51,3.42,4.11-.48,6.88-3,7.9-4.07h0s0,0,0,.02c0,.02-.03.04-.04.08-.1.26-.23.64-.35,1.2-.15.61-.05,1.21.19,1.74.37.86,1.09,1.52,1.71,1.7.99.32,4.26-3.36,6.01-5.41.7-.83,1.12-1.78,1.5-2.91,0-.02.02-.05.03-.07.12-.35.23-.72.34-1.11,0-.03,0-.04,0-.04.41-1.4.87-3.02,1.65-4.92,0,0-3.01-10.22-13.87-11.5-2.23,1.75-4.29,3.61-6,5.57-2.69,3.06-4.54,5.91-5.76,8.35h0s-.03.07-.05.12c-1.91,3.85-2.25,6.69-1.78,7.83Z"/>
              <path class="cls-137" d="M86.59,125.85c.32.24.61.48.88.77,2.8,2.99,3.73,5.04,7.38,5.79,2.9.6,3.64,1.78,4.71,2.49.27.19.56.33.92.43,1.74.49,3.11-.13,3.11-.13,0,0,7.71,2.74,7.09-1.24-.02-.15-.06-.31-.11-.47-1.01-3.8-7.74-12.56-16.87-20.22h-.02s-7.51,4.25-7.08,12.58Z"/>
              <path class="cls-171" d="M33.15,70.92c.65,1.11,1.55,2.22,2.65,3.28t.02.02h0c9.75,9.49,35.66,16.52,53.5,7.65,8.12-4.03,12.56-13.27,14.6-22.58,1.78-8.1,1.73-16.25.7-21.04-2.22-10.29-9.92-8.32-15.48-7.02-6.96,1.62-14.56.9-27.63-3.97-13.06-4.88-23.68-3.63-28.37,1.98-5.51,6.62-7.09,29.52,0,41.67Z"/>
              <path class="cls-10" d="M33.15,70.92c.65,1.11,1.55,2.22,2.65,3.28-.46-.5-6.58-7.45,2.73-16.06,9.64-8.93,66.58-9.98,65.4,1.15,1.78-8.1,1.73-16.25.7-21.04-2.22-10.29-9.92-8.32-15.48-7.02-6.96,1.62-14.56.9-27.63-3.97-13.06-4.88-23.68-3.63-28.37,1.98-5.51,6.62-7.09,29.52,0,41.67Z"/>
              <g class="cls-46">
                <g class="cls-195">
                  <rect class="cls-201" x="26.06" y="22.39" width="79.66" height="68.35"/>
                  <path class="cls-201" d="M58.84,91.74h43.04v4.49c2.32-1.84,4.47-3.91,6.4-6.19h-1.56v-51.01h6.62c-5.69-10.41-15.39-18.73-27.76-22.5v4.87h-35.59v-1.68c-10.53,5.46-18.88,14.9-22.57,27.01-3.69,12.11-2.02,24.6,3.66,35.01,2.84,5.2,6.69,9.89,11.37,13.74v-3.74h16.38Z"/>
                  <path class="cls-194" d="M58.89,91.74h42.87v4.35c2.31-1.84,4.45-3.9,6.38-6.17h-1.42v-50.81h6.46c-5.66-10.37-15.33-18.66-27.65-22.41v4.69h-35.45v-1.52c-10.48,5.44-18.81,14.84-22.49,26.9-3.68,12.06-2.01,24.51,3.65,34.87,2.83,5.18,6.66,9.85,11.33,13.69v-3.6h16.32Z"/>
                  <path class="cls-87" d="M58.94,91.74h42.7v4.21c2.3-1.83,4.43-3.88,6.35-6.14h-1.28v-50.61h6.3c-5.64-10.33-15.27-18.58-27.54-22.33v4.52h-35.31v-1.36c-10.44,5.42-18.73,14.78-22.4,26.8-3.66,12.02-2.01,24.41,3.64,34.74,2.82,5.16,6.64,9.81,11.28,13.63v-3.46h16.26Z"/>
                  <path class="cls-162" d="M59,91.74h42.53v4.07c2.29-1.82,4.42-3.87,6.33-6.12h-1.14v-50.41h6.14c-5.62-10.29-15.21-18.51-27.43-22.24v4.35h-35.17v-1.2c-10.4,5.4-18.66,14.72-22.31,26.69-3.65,11.97-2,24.31,3.62,34.6,2.81,5.14,6.61,9.77,11.24,13.58v-3.32h16.19Z"/>
                  <path class="cls-62" d="M59.05,91.74h42.36v3.93c2.28-1.81,4.4-3.85,6.3-6.09h-1v-50.21h5.98c-5.6-10.24-15.15-18.44-27.32-22.15v4.18h-35.03v-1.04c-10.36,5.38-18.59,14.67-22.22,26.59-3.63,11.92-1.99,24.22,3.61,34.46,2.8,5.12,6.59,9.73,11.19,13.52v-3.18h16.13Z"/>
                  <path class="cls-38" d="M59.1,91.74h42.19v3.78c2.28-1.81,4.38-3.84,6.28-6.07h-.86v-50.01h5.82c-5.57-10.2-15.09-18.36-27.21-22.06v4.01h-34.89v-.88c-10.32,5.36-18.51,14.61-22.13,26.48-3.62,11.87-1.98,24.12,3.59,34.32,2.79,5.1,6.56,9.69,11.15,13.47v-3.05h16.06Z"/>
                  <path class="cls-83" d="M59.15,91.74h42.03v3.64c2.27-1.8,4.36-3.82,6.25-6.04h-.71v-49.81h5.66c-5.55-10.16-15.03-18.29-27.1-21.97v3.83h-34.75v-.72c-10.28,5.34-18.44,14.55-22.04,26.37-3.61,11.83-1.97,24.02,3.58,34.19,2.78,5.08,6.53,9.65,11.1,13.42v-2.91h16Z"/>
                  <path class="cls-103" d="M59.21,91.74h41.86v3.5c2.26-1.79,4.35-3.8,6.23-6.02h-.57v-49.61h5.49c-5.53-10.12-14.97-18.22-27-21.88v3.66h-34.61v-.56c-10.24,5.31-18.36,14.49-21.95,26.27-3.59,11.78-1.97,23.93,3.56,34.05,2.77,5.06,6.51,9.62,11.06,13.36v-2.77h15.94Z"/>
                  <path class="cls-202" d="M59.26,91.74h41.69v3.36c2.25-1.78,4.33-3.79,6.2-6h-.43v-49.41h5.33c-5.51-10.08-14.91-18.14-26.89-21.8v3.49h-34.47v-.4c-10.2,5.29-18.29,14.43-21.87,26.16-3.58,11.73-1.96,23.83,3.55,33.91,2.75,5.04,6.48,9.58,11.02,13.31v-2.63h15.87Z"/>
                  <path class="cls-78" d="M59.31,91.74h41.52v3.22c2.24-1.78,4.31-3.77,6.18-5.97h-.29v-49.21h5.17c-5.49-10.04-14.84-18.07-26.78-21.71v3.32h-34.33v-.24c-10.15,5.27-18.22,14.37-21.78,26.06-3.56,11.68-1.95,23.73,3.54,33.77,2.74,5.02,6.45,9.54,10.97,13.25v-2.5h15.81Z"/>
                  <path class="cls-37" d="M59.36,91.74h41.35v3.08c2.23-1.77,4.29-3.76,6.15-5.95h-.15v-49.01h5.01c-5.46-10-14.78-18-26.67-21.62v3.15h-34.19v-.08c-10.11,5.25-18.14,14.32-21.69,25.95-3.55,11.64-1.94,23.64,3.52,33.64,2.73,5,6.43,9.5,10.93,13.2v-2.36h15.74Z"/>
                  <path class="cls-145" d="M59.42,91.74h41.18v2.94c2.22-1.76,4.28-3.74,6.13-5.92h0v-48.81h4.85c-5.44-9.96-14.72-17.92-26.56-21.53-11.84-3.61-23.98-2.18-34.05,3.05-10.07,5.23-18.07,14.26-21.6,25.85-3.53,11.59-1.93,23.54,3.51,33.5,2.72,4.98,6.4,9.46,10.88,13.15v-2.22h15.68Z"/>
                  <path class="cls-154" d="M59.47,91.74h41.01v2.8c2.21-1.76,4.26-3.73,6.1-5.9,1.84-2.17,3.48-4.54,4.88-7.09h-4.75v-41.52h4.69c-5.42-9.92-14.66-17.85-26.45-21.44s-23.88-2.17-33.92,3.04c-10.03,5.21-17.99,14.2-21.51,25.74-3.52,11.54-1.93,23.45,3.49,33.36,2.71,4.96,6.38,9.42,10.84,13.09v-2.08h15.61Z"/>
                  <path class="cls-33" d="M59.52,91.74h40.84v2.66c2.2-1.75,4.24-3.71,6.07-5.87,1.83-2.16,3.47-4.52,4.86-7.06h-4.58v-41.35h4.53c-5.4-9.88-14.6-17.78-26.34-21.35-11.74-3.58-23.79-2.16-33.78,3.03-9.99,5.19-17.92,14.14-21.42,25.63-3.5,11.49-1.92,23.35,3.48,33.23,2.7,4.94,6.35,9.38,10.79,13.04v-1.95h15.55Z"/>
                  <path class="cls-26" d="M59.57,91.74h40.68v2.52c2.19-1.74,4.22-3.7,6.05-5.85,1.83-2.15,3.45-4.5,4.84-7.03h-4.42v-41.18h4.37c-5.37-9.84-14.54-17.7-26.23-21.27s-23.69-2.15-33.64,3.01c-9.95,5.16-17.85,14.08-21.34,25.53-3.49,11.45-1.91,23.25,3.46,33.09,2.69,4.92,6.32,9.34,10.75,12.99v-1.81h15.49Z"/>
                  <path class="cls-25" d="M59.63,91.74h33.5v6.92c4.95-2.57,9.4-6.08,13.04-10.37,1.82-2.14,3.44-4.48,4.82-7h-4.26v-41.01h4.2c-5.35-9.8-14.48-17.63-26.12-21.18-11.64-3.55-23.59-2.14-33.5,3s-17.77,14.02-21.25,25.42c-3.48,11.4-1.9,23.16,3.45,32.95,2.68,4.9,6.3,9.3,10.7,12.93v-1.67h15.42Z"/>
                  <path class="cls-73" d="M59.68,91.74h33.36v6.76c4.93-2.56,9.36-6.05,12.98-10.32,1.81-2.13,3.42-4.46,4.8-6.97h-4.1v-40.84h4.04c-5.33-9.75-14.42-17.56-26.02-21.09-11.59-3.53-23.49-2.13-33.36,2.99-9.87,5.12-17.7,13.96-21.16,25.32-3.46,11.35-1.89,23.06,3.43,32.81,2.66,4.88,6.27,9.27,10.66,12.88v-1.53h15.36Z"/>
                  <path class="cls-128" d="M59.73,91.74h33.22v6.6c4.91-2.55,9.32-6.03,12.93-10.28,1.8-2.13,3.41-4.45,4.78-6.94h-3.94v-40.67h3.88c-5.31-9.71-14.36-17.48-25.91-21-11.54-3.52-23.39-2.13-33.22,2.98-9.82,5.1-17.62,13.91-21.07,25.21s-1.89,22.96,3.42,32.68c2.65,4.86,6.24,9.23,10.61,12.82v-1.4h15.29Z"/>
                  <path class="cls-120" d="M59.78,91.74h33.08v6.44c4.89-2.54,9.28-6,12.87-10.24,1.8-2.12,3.39-4.43,4.76-6.91h-3.78v-40.5h3.72c-5.28-9.67-14.3-17.41-25.8-20.91-11.5-3.51-23.3-2.12-33.08,2.96s-17.55,13.85-20.98,25.1c-3.43,11.26-1.88,22.87,3.41,32.54,2.64,4.84,6.22,9.19,10.57,12.77v-1.26h15.23Z"/>
                  <path class="cls-61" d="M59.84,91.74h32.94v6.28c9.74-5.06,17.48-13.79,20.89-25h-6.95v-32.4h3.56c-5.26-9.63-14.24-17.34-25.69-20.83-11.45-3.49-23.2-2.11-32.94,2.95-9.74,5.06-17.48,13.79-20.89,25-3.42,11.21-1.87,22.77,3.39,32.4,2.63,4.82,6.19,9.15,10.53,12.72v-1.12h15.16Z"/>
                  <path class="cls-133" d="M59.89,91.74h32.8v6.12c9.7-5.04,17.4-13.73,20.8-24.89h-6.78v-32.26h3.4c-5.24-9.59-14.18-17.26-25.58-20.74-11.4-3.48-23.1-2.1-32.8,2.94-9.7,5.04-17.4,13.73-20.8,24.89-3.4,11.16-1.86,22.67,3.38,32.26,2.62,4.8,6.17,9.11,10.48,12.66v-.98h15.1Z"/>
                  <path class="cls-158" d="M59.94,91.74h32.66v5.96c9.66-5.01,17.33-13.67,20.72-24.79h-6.6v-32.13h3.24c-5.22-9.55-14.12-17.19-25.47-20.65-11.35-3.46-23-2.09-32.66,2.93-9.66,5.01-17.33,13.67-20.72,24.79-3.39,11.11-1.85,22.58,3.36,32.13,2.61,4.78,6.14,9.07,10.44,12.61v-.85h15.04Z"/>
                  <path class="cls-18" d="M59.99,91.74h32.52v5.8c9.62-4.99,17.25-13.61,20.63-24.68h-6.42v-31.99h3.08c-5.2-9.51-14.06-17.11-25.36-20.56-11.3-3.45-22.9-2.08-32.52,2.91-9.62,4.99-17.25,13.61-20.63,24.68s-1.85,22.48,3.35,31.99c2.6,4.75,6.11,9.03,10.39,12.55v-.71h14.97Z"/>
                  <path class="cls-63" d="M60.05,91.74h32.38v5.64c9.58-4.97,17.18-13.56,20.54-24.57h-6.25v-31.85h2.91c-5.17-9.47-14-17.04-25.25-20.47-11.25-3.43-22.8-2.07-32.38,2.9-9.58,4.97-17.18,13.56-20.54,24.57-3.36,11.02-1.84,22.38,3.33,31.85,2.59,4.73,6.09,8.99,10.35,12.5v-.57h14.91Z"/>
                  <path class="cls-179" d="M60.1,91.74h32.24v5.48c9.54-4.95,17.11-13.5,20.45-24.47h-6.07v-31.72h2.75c-5.15-9.43-13.94-16.97-25.15-20.38-11.21-3.42-22.71-2.06-32.24,2.89s-17.11,13.5-20.45,24.47-1.83,22.29,3.32,31.72c2.58,4.71,6.06,8.96,10.3,12.45v-.43h14.84Z"/>
                  <path class="cls-166" d="M60.15,91.74h32.1v5.32c9.49-4.93,17.03-13.44,20.36-24.36h-5.9v-31.58h2.59c-5.13-9.39-13.88-16.89-25.04-20.3s-22.61-2.05-32.1,2.88c-9.49,4.93-17.03,13.44-20.36,24.36-3.33,10.92-1.82,22.19,3.31,31.58,2.56,4.69,6.03,8.92,10.26,12.39v-.3h14.78Z"/>
                  <path class="cls-95" d="M60.2,91.74h31.96v5.16c9.45-4.91,16.96-13.38,20.27-24.26h-5.72v-31.44h2.43c-5.11-9.35-13.82-16.82-24.93-20.21-11.11-3.39-22.51-2.04-31.96,2.86-9.45,4.91-16.96,13.38-20.27,24.26-3.32,10.88-1.82,22.09,3.29,31.44,2.55,4.67,6.01,8.88,10.21,12.34v-.16h14.71Z"/>
                  <path class="cls-123" d="M60.26,91.74h31.82v5c9.41-4.89,16.88-13.32,20.18-24.15h-5.55v-31.3h2.27c-5.08-9.31-13.76-16.75-24.82-20.12-22.12-6.74-45.4,5.34-52.01,27-3.3,10.83-1.81,22,3.28,31.3,2.54,4.65,5.98,8.84,10.17,12.28v-.02h14.65Z"/>
                  <path class="cls-136" d="M60.31,91.74h31.68v4.84c9.37-4.86,16.81-13.26,20.1-24.04h-5.37v-31.17h2.11c-5.06-9.26-13.7-16.67-24.71-20.03-22.02-6.71-45.2,5.32-51.78,26.88-3.29,10.78-1.8,21.9,3.26,31.17,2.53,4.63,5.96,8.8,10.12,12.23,2.08,1.72,4.35,3.25,6.79,4.56v-4.44h7.79Z"/>
                  <path class="cls-93" d="M60.36,91.74h31.54v4.69c9.33-4.84,16.73-13.21,20.01-23.94h-5.19v-31.03h1.95c-5.04-9.22-13.64-16.6-24.6-19.94-21.93-6.68-45.01,5.3-51.55,26.76-3.27,10.73-1.79,21.8,3.25,31.03,2.52,4.61,5.93,8.76,10.08,12.18,2.07,1.71,4.33,3.23,6.76,4.54v-4.28h7.76Z"/>
                  <path class="cls-67" d="M60.41,91.74h31.4v4.53c9.29-4.82,16.66-13.15,19.92-23.83h-5.02v-30.89h1.78c-5.02-9.18-13.58-16.53-24.49-19.85-21.83-6.66-44.81,5.27-51.32,26.65-3.26,10.69-1.78,21.71,3.23,30.89,2.51,4.59,5.9,8.72,10.03,12.12,2.07,1.7,4.32,3.22,6.73,4.52v-4.12h7.73Z"/>
                  <path class="cls-71" d="M60.47,91.74h31.26v4.37c9.25-4.8,16.59-13.09,19.83-23.73h-4.84v-30.75h1.62c-5-9.14-13.52-16.45-24.38-19.77-21.73-6.63-44.61,5.25-51.09,26.53-3.24,10.64-1.78,21.61,3.22,30.75,2.5,4.57,5.88,8.68,9.99,12.07,2.06,1.69,4.3,3.2,6.7,4.5v-3.97h7.69Z"/>
                  <path class="cls-199" d="M60.52,91.74h31.12v4.21c9.2-4.78,16.51-13.03,19.74-23.62h-4.67v-30.62h1.46c-4.97-9.1-13.46-16.38-24.27-19.68-21.63-6.6-44.41,5.23-50.87,26.41-6.46,21.18,5.84,43.7,27.48,50.3v-6.99Z"/>
                  <path class="cls-85" d="M60.57,91.74h30.98v4.05c9.16-4.76,16.44-12.97,19.65-23.51h-4.49v-30.48h1.3c-4.95-9.06-13.4-16.31-24.17-19.59-21.54-6.57-44.21,5.2-50.64,26.29-6.43,21.09,5.82,43.5,27.36,50.07v-6.82Z"/>
                  <path class="cls-19" d="M60.62,91.74h30.84v3.89c9.12-4.74,16.36-12.91,19.56-23.41h-4.32v-30.34h1.14c-4.93-9.02-13.34-16.23-24.06-19.5-21.44-6.54-44.01,5.18-50.41,26.17s5.79,43.31,27.23,49.84v-6.65Z"/>
                  <path class="cls-109" d="M60.67,91.74h30.71v3.73c9.08-4.71,16.29-12.85,19.48-23.3h-4.14v-30.21h.98c-4.91-8.98-13.28-16.16-23.95-19.41-21.34-6.51-43.81,5.16-50.18,26.05-6.37,20.9,5.77,43.11,27.11,49.62v-6.48Z"/>
                  <path class="cls-101" d="M60.73,91.74h30.57v3.57c9.04-4.69,16.22-12.8,19.39-23.2h-3.96v-30.07h.82c-4.88-8.94-13.22-16.09-23.84-19.33-21.25-6.48-43.61,5.13-49.95,25.93s5.74,42.92,26.99,49.39v-6.31Z"/>
                  <path class="cls-39" d="M60.78,91.74h30.43v3.41c9-4.67,16.14-12.74,19.3-23.09h-3.79v-29.93h.66c-4.86-8.9-13.16-16.01-23.73-19.24-21.15-6.45-43.41,5.11-49.73,25.82-6.31,20.71,5.71,42.72,26.86,49.17v-6.13Z"/>
                  <path class="cls-200" d="M60.83,91.74h30.29v3.25c8.96-4.65,16.07-12.68,19.21-22.99h-3.61v-29.79h.49c-4.84-8.86-13.09-15.94-23.62-19.15-21.05-6.42-43.21,5.09-49.5,25.7-6.28,20.61,5.69,42.52,26.74,48.94v-5.96Z"/>
                  <path class="cls-107" d="M60.88,91.74h30.15v3.09c8.92-4.63,15.99-12.62,19.12-22.88h-3.44v-29.66h.33c-4.82-8.82-13.03-15.87-23.51-19.06-20.96-6.39-43.01,5.06-49.27,25.58s5.66,42.33,26.62,48.72v-5.79Z"/>
                  <path class="cls-13" d="M60.94,91.74h30.01v2.93c8.87-4.61,15.92-12.56,19.03-22.77h-3.26v-29.52h.17c-4.79-8.78-12.97-15.79-23.4-18.97-20.86-6.36-42.81,5.04-49.04,25.46-6.23,20.42,5.64,42.13,26.49,48.49v-5.62Z"/>
                  <path class="cls-125" d="M60.99,91.74h29.87v2.77c8.83-4.59,15.85-12.5,18.95-22.67h-3.09v-29.38h.01c-4.77-8.73-12.91-15.72-23.29-18.88-20.76-6.33-42.62,5.02-48.81,25.34s5.61,41.94,26.37,48.27v-5.45Z"/>
                  <path class="cls-205" d="M61.04,91.74h29.73v2.61c8.79-4.56,15.77-12.45,18.86-22.56,3.08-10.12,1.69-20.55-3.06-29.24-4.75-8.69-12.85-15.65-23.19-18.8-20.66-6.3-42.42,4.99-48.58,25.22-6.17,20.23,5.58,41.74,26.25,48.04v-5.27Z"/>
                  <path class="cls-152" d="M61.09,91.74h29.59v2.45c8.75-4.54,15.7-12.39,18.77-22.46,3.07-10.07,1.68-20.45-3.05-29.11-4.73-8.65-12.79-15.57-23.08-18.71-20.57-6.27-42.22,4.97-48.36,25.11-6.14,20.14,5.56,41.54,26.12,47.81v-5.1Z"/>
                  <path class="cls-29" d="M61.15,91.74h29.45v2.29c8.71-4.52,15.62-12.33,18.68-22.35,3.06-10.02,1.67-20.36-3.03-28.97s-12.73-15.5-22.97-18.62c-20.47-6.24-42.02,4.95-48.13,24.99s5.53,41.35,26,47.59v-4.93Z"/>
                  <path class="cls-34" d="M61.2,91.74h29.31v2.13c8.67-4.5,15.55-12.27,18.59-22.24s1.66-20.26-3.02-28.83c-4.68-8.57-12.67-15.43-22.86-18.53-20.37-6.21-41.82,4.92-47.9,24.87-6.08,19.95,5.5,41.15,25.88,47.36v-4.76Z"/>
                  <path class="cls-138" d="M61.25,91.74h29.17v1.97c8.63-4.48,15.48-12.21,18.5-22.14s1.66-20.16-3-28.69c-4.66-8.53-12.61-15.35-22.75-18.44-20.28-6.18-41.62,4.9-47.67,24.75s5.48,40.96,25.75,47.14v-4.59Z"/>
                  <path class="cls-188" d="M61.3,91.74h29.03v1.81c8.59-4.46,15.4-12.15,18.41-22.03,3.01-9.88,1.65-20.07-2.99-28.56-4.64-8.49-12.55-15.28-22.64-18.35-20.18-6.15-41.42,4.88-47.44,24.63-6.02,19.76,5.45,40.76,25.63,46.91v-4.41Z"/>
                  <path class="cls-193" d="M61.36,91.74h28.89v1.66c8.54-4.44,15.33-12.1,18.33-21.93,3-9.83,1.64-19.97-2.97-28.42-4.62-8.45-12.49-15.2-22.53-18.27-20.08-6.12-41.22,4.85-47.22,24.51-5.99,19.66,5.43,40.56,25.51,46.69v-4.24Z"/>
                  <path class="cls-114" d="M61.41,91.74h28.75v1.5c8.5-4.41,15.25-12.04,18.24-21.82,2.98-9.78,1.63-19.88-2.96-28.28-4.59-8.41-12.43-15.13-22.42-18.18-19.99-6.09-41.02,4.83-46.99,24.4-5.97,19.57,5.4,40.37,25.38,46.46v-4.07Z"/>
                  <path class="cls-80" d="M61.46,91.74h28.61v1.34c8.46-4.39,15.18-11.98,18.15-21.71,2.97-9.74,1.63-19.78-2.95-28.15-4.57-8.37-12.37-15.06-22.31-18.09-19.89-6.06-40.82,4.81-46.76,24.28-5.94,19.47,5.37,40.17,25.26,46.24v-3.9Z"/>
                  <path class="cls-17" d="M61.51,91.74h28.47v1.18c8.42-4.37,15.11-11.92,18.06-21.61,2.95-9.69,1.62-19.68-2.93-28.01-4.55-8.33-12.31-14.98-22.21-18-19.79-6.03-40.62,4.78-46.53,24.16-5.91,19.38,5.35,39.98,25.14,46.01v-3.73Z"/>
                  <path class="cls-169" d="M61.57,91.74h28.33v1.02c8.38-4.35,15.03-11.86,17.97-21.5,2.94-9.64,1.61-19.59-2.92-27.87-4.53-8.29-12.25-14.91-22.1-17.91-19.69-6-40.43,4.76-46.3,24.04-5.88,19.28,5.32,39.78,25.01,45.78v-3.55Z"/>
                  <path class="cls-156" d="M61.62,91.74h28.19v.86c8.34-4.33,14.96-11.8,17.88-21.4,5.85-19.19-5.29-39.58-24.89-45.56-19.6-5.98-40.23,4.74-46.08,23.92-5.85,19.19,5.29,39.58,24.89,45.56v-3.38Z"/>
                  <path class="cls-161" d="M61.67,91.74h28.05v.7c8.3-4.31,14.88-11.74,17.79-21.29,5.82-19.09-5.27-39.39-24.77-45.33-19.5-5.95-40.03,4.71-45.85,23.8-5.82,19.09,5.27,39.39,24.77,45.33v-3.21Z"/>
                  <path class="cls-135" d="M61.72,91.74h27.91v.54c8.26-4.29,14.81-11.69,17.71-21.18,5.79-19-5.24-39.19-24.64-45.11-19.4-5.92-39.83,4.69-45.62,23.68s5.24,39.19,24.64,45.11v-3.04Z"/>
                  <path class="cls-99" d="M61.78,91.74h27.77v.38c8.21-4.26,14.74-11.63,17.62-21.08,5.76-18.9-5.22-39-24.52-44.88s-39.63,4.66-45.39,23.57,5.22,39,24.52,44.88v-2.87Z"/>
                  <path class="cls-148" d="M61.83,91.74h27.63v.22c8.17-4.24,14.66-11.57,17.53-20.97,5.73-18.81-5.19-38.8-24.4-44.66-19.21-5.86-39.43,4.64-45.16,23.45-5.73,18.81,5.19,38.8,24.4,44.66v-2.69Z"/>
                  <path class="cls-22" d="M61.88,91.74h27.5v.06c8.13-4.22,14.59-11.51,17.44-20.87,5.71-18.71-5.16-38.6-24.28-44.43-19.11-5.83-39.23,4.62-44.94,23.33s5.16,38.6,24.28,44.43v-2.52Z"/>
                  <path class="cls-55" d="M61.93,94.09c9.51,2.9,19.27,1.75,27.36-2.45s14.51-11.45,17.35-20.76c5.68-18.62-5.14-38.41-24.15-44.21-19.01-5.8-39.03,4.59-44.71,23.21-5.68,18.62,5.14,38.41,24.15,44.21Z"/>
                  <path class="cls-56" d="M61.99,93.92c9.46,2.88,19.17,1.74,27.22-2.44s14.44-11.39,17.26-20.65c5.65-18.52-5.11-38.21-24.03-43.98-18.92-5.77-38.83,4.57-44.48,23.09-5.65,18.52,5.11,38.21,24.03,43.98Z"/>
                  <path class="cls-189" d="M62.04,93.74c9.41,2.87,19.07,1.73,27.08-2.43,8.01-4.16,14.37-11.34,17.17-20.55,5.62-18.43-5.08-38.02-23.91-43.75-18.82-5.74-38.63,4.55-44.25,22.97-5.62,18.43,5.08,38.02,23.91,43.75Z"/>
                  <path class="cls-76" d="M62.09,93.57c9.36,2.85,18.97,1.72,26.94-2.41,7.97-4.14,14.29-11.28,17.09-20.44,5.59-18.33-5.06-37.82-23.78-43.53-18.72-5.71-38.43,4.52-44.02,22.86-5.59,18.33,5.06,37.82,23.78,43.53Z"/>
                  <path class="cls-65" d="M62.14,93.4c9.31,2.84,18.87,1.71,26.8-2.4,7.93-4.11,14.22-11.22,17-20.34,5.56-18.24-5.03-37.62-23.66-43.3-18.63-5.68-38.23,4.5-43.79,22.74s5.03,37.62,23.66,43.3Z"/>
                  <path class="cls-185" d="M62.2,93.23c9.26,2.82,18.77,1.71,26.66-2.39s14.14-11.16,16.91-20.23c5.53-18.14-5.01-37.43-23.54-43.08-18.53-5.65-38.04,4.48-43.57,22.62-5.53,18.14,5.01,37.43,23.54,43.08Z"/>
                  <ellipse class="cls-155" cx="72.21" cy="60.38" rx="34.16" ry="34.89" transform="translate(-6.6 111.84) rotate(-73.04)"/>
                  <ellipse class="cls-150" cx="72.21" cy="60.38" rx="33.98" ry="34.71" transform="translate(-6.6 111.84) rotate(-73.04)"/>
                  <ellipse class="cls-165" cx="72.21" cy="60.38" rx="33.8" ry="34.53" transform="translate(-6.6 111.84) rotate(-73.05)"/>
                  <ellipse class="cls-82" cx="72.21" cy="60.38" rx="33.62" ry="34.34" transform="translate(-6.6 111.84) rotate(-73.05)"/>
                  <ellipse class="cls-110" cx="72.21" cy="60.38" rx="33.44" ry="34.16" transform="translate(-6.6 111.84) rotate(-73.05)"/>
                  <ellipse class="cls-105" cx="72.21" cy="60.38" rx="33.26" ry="33.97" transform="translate(-6.6 111.84) rotate(-73.04)"/>
                  <ellipse class="cls-186" cx="72.21" cy="60.38" rx="33.08" ry="33.79" transform="translate(-6.6 111.84) rotate(-73.04)"/>
                  <ellipse class="cls-15" cx="72.21" cy="60.38" rx="32.9" ry="33.61" transform="translate(-6.6 111.84) rotate(-73.05)"/>
                  <ellipse class="cls-32" cx="72.21" cy="60.38" rx="32.72" ry="33.42" transform="translate(-6.6 111.84) rotate(-73.05)"/>
                  <ellipse class="cls-116" cx="72.21" cy="60.38" rx="32.54" ry="33.24" transform="translate(-6.6 111.84) rotate(-73.05)"/>
                  <ellipse class="cls-102" cx="72.21" cy="60.38" rx="32.36" ry="33.06" transform="translate(-6.6 111.84) rotate(-73.04)"/>
                  <ellipse class="cls-21" cx="72.21" cy="60.38" rx="32.18" ry="32.87" transform="translate(-6.6 111.85) rotate(-73.05)"/>
                  <ellipse class="cls-168" cx="72.21" cy="60.38" rx="32" ry="32.69" transform="translate(-6.6 111.84) rotate(-73.04)"/>
                  <ellipse class="cls-24" cx="72.21" cy="60.38" rx="31.82" ry="32.51" transform="translate(-6.6 111.84) rotate(-73.05)"/>
                  <ellipse class="cls-132" cx="72.21" cy="60.38" rx="31.64" ry="32.32" transform="translate(-6.6 111.85) rotate(-73.05)"/>
                  <ellipse class="cls-16" cx="72.21" cy="60.38" rx="31.46" ry="32.14" transform="translate(-6.6 111.85) rotate(-73.05)"/>
                  <ellipse class="cls-14" cx="72.21" cy="60.38" rx="31.28" ry="31.95" transform="translate(-6.6 111.84) rotate(-73.05)"/>
                  <ellipse class="cls-178" cx="72.21" cy="60.38" rx="31.11" ry="31.77" transform="translate(-6.61 111.84) rotate(-73.04)"/>
                  <ellipse class="cls-89" cx="72.21" cy="60.38" rx="30.93" ry="31.59" transform="translate(-6.61 111.84) rotate(-73.04)"/>
                  <ellipse class="cls-106" cx="72.21" cy="60.38" rx="30.75" ry="31.4" transform="translate(-6.6 111.84) rotate(-73.04)"/>
                  <ellipse class="cls-96" cx="72.21" cy="60.38" rx="30.57" ry="31.22" transform="translate(-6.6 111.84) rotate(-73.04)"/>
                  <ellipse class="cls-81" cx="72.21" cy="60.38" rx="30.39" ry="31.04" transform="translate(-6.61 111.84) rotate(-73.04)"/>
                  <ellipse class="cls-134" cx="72.21" cy="60.38" rx="30.21" ry="30.85" transform="translate(-6.6 111.84) rotate(-73.05)"/>
                  <ellipse class="cls-60" cx="72.21" cy="60.38" rx="30.03" ry="30.67" transform="translate(-6.61 111.84) rotate(-73.04)"/>
                  <ellipse class="cls-140" cx="72.21" cy="60.38" rx="29.85" ry="30.48" transform="translate(-6.6 111.84) rotate(-73.04)"/>
                  <ellipse class="cls-172" cx="72.21" cy="60.38" rx="29.67" ry="30.3" transform="translate(-6.6 111.84) rotate(-73.04)"/>
                  <ellipse class="cls-182" cx="72.21" cy="60.38" rx="29.49" ry="30.12" transform="translate(-6.61 111.84) rotate(-73.04)"/>
                  <ellipse class="cls-84" cx="72.21" cy="60.38" rx="29.31" ry="29.93" transform="translate(-6.6 111.84) rotate(-73.04)"/>
                  <ellipse class="cls-164" cx="72.21" cy="60.38" rx="29.13" ry="29.75" transform="translate(-6.61 111.84) rotate(-73.04)"/>
                  <ellipse class="cls-74" cx="72.21" cy="60.38" rx="28.95" ry="29.57" transform="translate(-6.61 111.84) rotate(-73.04)"/>
                  <ellipse class="cls-27" cx="72.21" cy="60.38" rx="28.77" ry="29.38" transform="translate(-6.6 111.84) rotate(-73.04)"/>
                  <ellipse class="cls-121" cx="72.21" cy="60.38" rx="28.59" ry="29.2" transform="translate(-6.61 111.84) rotate(-73.04)"/>
                  <ellipse class="cls-141" cx="72.21" cy="60.38" rx="28.41" ry="29.02" transform="translate(-6.6 111.84) rotate(-73.04)"/>
                  <ellipse class="cls-174" cx="72.21" cy="60.38" rx="28.23" ry="28.83" transform="translate(-6.6 111.85) rotate(-73.05)"/>
                  <ellipse class="cls-69" cx="72.21" cy="60.38" rx="28.05" ry="28.65" transform="translate(-6.61 111.84) rotate(-73.04)"/>
                  <ellipse class="cls-151" cx="72.21" cy="60.38" rx="27.87" ry="28.46" transform="translate(-6.6 111.84) rotate(-73.04)"/>
                  <ellipse class="cls-149" cx="72.21" cy="60.38" rx="27.69" ry="28.28" transform="translate(-6.6 111.84) rotate(-73.04)"/>
                  <ellipse class="cls-90" cx="72.21" cy="60.38" rx="27.51" ry="28.1" transform="translate(-6.6 111.84) rotate(-73.04)"/>
                  <ellipse class="cls-157" cx="72.21" cy="60.38" rx="27.33" ry="27.91" transform="translate(-6.6 111.85) rotate(-73.05)"/>
                  <ellipse class="cls-66" cx="72.21" cy="60.38" rx="27.15" ry="27.73" transform="translate(-6.61 111.84) rotate(-73.04)"/>
                  <ellipse class="cls-197" cx="72.21" cy="60.38" rx="26.97" ry="27.55" transform="translate(-6.6 111.84) rotate(-73.04)"/>
                  <ellipse class="cls-31" cx="72.21" cy="60.38" rx="26.79" ry="27.36" transform="translate(-6.6 111.84) rotate(-73.04)"/>
                  <ellipse class="cls-173" cx="72.21" cy="60.38" rx="26.61" ry="27.18" transform="translate(-6.6 111.84) rotate(-73.04)"/>
                  <ellipse class="cls-183" cx="72.21" cy="60.38" rx="26.43" ry="27" transform="translate(-6.6 111.84) rotate(-73.04)"/>
                  <ellipse class="cls-183" cx="72.21" cy="60.38" rx="26.25" ry="26.81" transform="translate(-6.6 111.84) rotate(-73.05)"/>
                  <ellipse class="cls-64" cx="72.21" cy="60.38" rx="26.07" ry="26.63" transform="translate(-6.6 111.84) rotate(-73.04)"/>
                  <ellipse class="cls-203" cx="72.21" cy="60.38" rx="25.89" ry="26.44" transform="translate(-6.6 111.84) rotate(-73.04)"/>
                  <ellipse class="cls-122" cx="72.21" cy="60.38" rx="25.71" ry="26.26" transform="translate(-6.6 111.84) rotate(-73.05)"/>
                  <ellipse class="cls-177" cx="72.21" cy="60.38" rx="25.53" ry="26.08" transform="translate(-6.6 111.84) rotate(-73.04)"/>
                  <ellipse class="cls-177" cx="72.21" cy="60.38" rx="25.35" ry="25.89" transform="translate(-6.6 111.84) rotate(-73.04)"/>
                  <ellipse class="cls-104" cx="72.21" cy="60.38" rx="25.17" ry="25.71" transform="translate(-6.6 111.84) rotate(-73.04)"/>
                  <ellipse class="cls-51" cx="72.21" cy="60.38" rx="24.99" ry="25.53" transform="translate(-6.6 111.85) rotate(-73.05)"/>
                  <ellipse class="cls-72" cx="72.21" cy="60.38" rx="24.81" ry="25.34" transform="translate(-6.6 111.84) rotate(-73.05)"/>
                  <ellipse class="cls-144" cx="72.21" cy="60.38" rx="24.63" ry="25.16" transform="translate(-6.6 111.84) rotate(-73.05)"/>
                  <ellipse class="cls-167" cx="72.21" cy="60.38" rx="24.45" ry="24.98" transform="translate(-6.6 111.84) rotate(-73.04)"/>
                  <ellipse class="cls-40" cx="72.21" cy="60.38" rx="24.27" ry="24.79" transform="translate(-6.6 111.85) rotate(-73.05)"/>
                  <ellipse class="cls-48" cx="72.21" cy="60.38" rx="24.09" ry="24.61" transform="translate(-6.6 111.85) rotate(-73.05)"/>
                  <ellipse class="cls-111" cx="72.21" cy="60.38" rx="23.91" ry="24.42" transform="translate(-6.6 111.84) rotate(-73.05)"/>
                  <ellipse class="cls-28" cx="72.21" cy="60.38" rx="23.73" ry="24.24" transform="translate(-6.6 111.85) rotate(-73.05)"/>
                  <ellipse class="cls-191" cx="72.21" cy="60.38" rx="23.55" ry="24.06" transform="translate(-6.6 111.84) rotate(-73.04)"/>
                  <ellipse class="cls-124" cx="72.21" cy="60.38" rx="23.37" ry="23.87" transform="translate(-6.6 111.85) rotate(-73.05)"/>
                  <ellipse class="cls-146" cx="72.21" cy="60.38" rx="23.19" ry="23.69" transform="translate(-6.6 111.84) rotate(-73.04)"/>
                  <ellipse class="cls-126" cx="72.21" cy="60.38" rx="23.01" ry="23.51" transform="translate(-6.61 111.84) rotate(-73.04)"/>
                  <ellipse class="cls-180" cx="72.21" cy="60.38" rx="22.83" ry="23.32" transform="translate(-6.6 111.84) rotate(-73.04)"/>
                  <ellipse class="cls-180" cx="72.21" cy="60.38" rx="22.65" ry="23.14" transform="translate(-6.61 111.83) rotate(-73.04)"/>
                  <ellipse class="cls-98" cx="72.21" cy="60.38" rx="22.47" ry="22.96" transform="translate(-6.61 111.84) rotate(-73.04)"/>
                  <ellipse class="cls-153" cx="72.21" cy="60.38" rx="22.29" ry="22.77" transform="translate(-6.6 111.84) rotate(-73.04)"/>
                  <ellipse class="cls-153" cx="72.21" cy="60.38" rx="22.12" ry="22.59" transform="translate(-6.61 111.84) rotate(-73.04)"/>
                  <ellipse class="cls-49" cx="72.21" cy="60.38" rx="21.94" ry="22.4" transform="translate(-6.6 111.84) rotate(-73.04)"/>
                  <ellipse class="cls-170" cx="72.21" cy="60.38" rx="21.76" ry="22.22" transform="translate(-6.6 111.85) rotate(-73.05)"/>
                  <ellipse class="cls-54" cx="72.21" cy="60.38" rx="21.58" ry="22.04" transform="translate(-6.61 111.84) rotate(-73.04)"/>
                  <ellipse class="cls-54" cx="72.21" cy="60.38" rx="21.4" ry="21.85" transform="translate(-6.6 111.84) rotate(-73.05)"/>
                  <ellipse class="cls-36" cx="72.21" cy="60.38" rx="21.22" ry="21.67" transform="translate(-6.61 111.83) rotate(-73.04)"/>
                  <ellipse class="cls-36" cx="72.21" cy="60.38" rx="21.04" ry="21.49" transform="translate(-6.6 111.84) rotate(-73.04)"/>
                  <ellipse class="cls-163" cx="72.21" cy="60.38" rx="20.86" ry="21.3" transform="translate(-6.6 111.85) rotate(-73.05)"/>
                  <ellipse class="cls-163" cx="72.21" cy="60.38" rx="20.68" ry="21.12" transform="translate(-6.61 111.84) rotate(-73.04)"/>
                  <ellipse class="cls-163" cx="72.21" cy="60.38" rx="20.5" ry="20.94" transform="translate(-6.6 111.84) rotate(-73.04)"/>
                  <ellipse class="cls-113" cx="72.21" cy="60.38" rx="20.32" ry="20.75" transform="translate(-6.6 111.84) rotate(-73.04)"/>
                  <ellipse class="cls-75" cx="72.21" cy="60.38" rx="20.14" ry="20.57" transform="translate(-6.6 111.84) rotate(-73.04)"/>
                  <ellipse class="cls-184" cx="72.21" cy="60.38" rx="19.96" ry="20.38" transform="translate(-6.6 111.84) rotate(-73.05)"/>
                  <ellipse class="cls-184" cx="72.21" cy="60.38" rx="19.78" ry="20.2" transform="translate(-6.6 111.84) rotate(-73.04)"/>
                  <ellipse class="cls-184" cx="72.21" cy="60.38" rx="19.6" ry="20.02" transform="translate(-6.6 111.84) rotate(-73.04)"/>
                  <ellipse class="cls-181" cx="72.21" cy="60.38" rx="19.42" ry="19.83" transform="translate(-6.61 111.84) rotate(-73.04)"/>
                  <ellipse class="cls-50" cx="72.21" cy="60.38" rx="19.24" ry="19.65" transform="translate(-6.61 111.84) rotate(-73.04)"/>
                  <ellipse class="cls-112" cx="72.21" cy="60.38" rx="19.06" ry="19.47" transform="translate(-6.6 111.84) rotate(-73.05)"/>
                  <ellipse class="cls-112" cx="72.21" cy="60.38" rx="18.88" ry="19.28" transform="translate(-6.6 111.84) rotate(-73.05)"/>
                  <ellipse class="cls-112" cx="72.21" cy="60.38" rx="18.7" ry="19.1" transform="translate(-6.61 111.84) rotate(-73.04)"/>
                  <ellipse class="cls-143" cx="72.21" cy="60.38" rx="18.52" ry="18.92" transform="translate(-6.61 111.84) rotate(-73.04)"/>
                  <ellipse class="cls-143" cx="72.21" cy="60.38" rx="18.34" ry="18.73" transform="translate(-6.6 111.85) rotate(-73.05)"/>
                  <ellipse class="cls-190" cx="72.21" cy="60.38" rx="18.16" ry="18.55" transform="translate(-6.6 111.84) rotate(-73.04)"/>
                  <ellipse class="cls-175" cx="72.21" cy="60.38" rx="17.98" ry="18.36" transform="translate(-6.6 111.84) rotate(-73.04)"/>
                  <ellipse class="cls-175" cx="72.21" cy="60.38" rx="17.8" ry="18.18" transform="translate(-6.6 111.85) rotate(-73.05)"/>
                  <ellipse class="cls-175" cx="72.21" cy="60.38" rx="17.62" ry="18" transform="translate(-6.6 111.85) rotate(-73.05)"/>
                  <ellipse class="cls-175" cx="72.21" cy="60.38" rx="17.44" ry="17.81" transform="translate(-6.6 111.84) rotate(-73.04)"/>
                  <ellipse class="cls-129" cx="72.21" cy="60.38" rx="17.26" ry="17.63" transform="translate(-6.6 111.84) rotate(-73.04)"/>
                  <ellipse class="cls-129" cx="72.21" cy="60.38" rx="17.08" ry="17.45" transform="translate(-6.61 111.84) rotate(-73.04)"/>
                  <ellipse class="cls-68" cx="72.21" cy="60.38" rx="16.9" ry="17.26" transform="translate(-6.6 111.85) rotate(-73.05)"/>
                  <ellipse class="cls-91" cx="72.21" cy="60.38" rx="16.72" ry="17.08" transform="translate(-6.6 111.84) rotate(-73.04)"/>
                  <ellipse class="cls-91" cx="72.21" cy="60.38" rx="16.54" ry="16.9" transform="translate(-6.6 111.84) rotate(-73.05)"/>
                  <ellipse class="cls-91" cx="72.21" cy="60.38" rx="16.36" ry="16.71" transform="translate(-6.6 111.85) rotate(-73.05)"/>
                  <ellipse class="cls-91" cx="72.21" cy="60.38" rx="16.18" ry="16.53" transform="translate(-6.61 111.84) rotate(-73.04)"/>
                  <ellipse class="cls-91" cx="72.21" cy="60.38" rx="16" ry="16.34" transform="translate(-6.6 111.85) rotate(-73.05)"/>
                  <path class="cls-92" d="M67.6,75.51c8.54,2.6,17.52-2.06,20.07-10.42,2.55-8.36-2.31-17.24-10.84-19.85-8.54-2.6-17.52,2.06-20.07,10.42-2.55,8.36,2.31,17.24,10.84,19.85Z"/>
                  <ellipse class="cls-92" cx="72.21" cy="60.38" rx="15.64" ry="15.98" transform="translate(-6.6 111.84) rotate(-73.04)"/>
                  <ellipse class="cls-176" cx="72.21" cy="60.38" rx="15.46" ry="15.79" transform="translate(-6.6 111.85) rotate(-73.05)"/>
                  <ellipse class="cls-176" cx="72.21" cy="60.38" rx="15.28" ry="15.61" transform="translate(-6.61 111.84) rotate(-73.04)"/>
                  <path class="cls-139" d="M67.81,74.83c8.15,2.48,16.73-1.97,19.16-9.95,2.43-7.98-2.2-16.46-10.35-18.95s-16.73,1.97-19.16,9.95c-2.43,7.98,2.2,16.46,10.35,18.95Z"/>
                  <ellipse class="cls-139" cx="72.21" cy="60.38" rx="14.92" ry="15.24" transform="translate(-6.6 111.84) rotate(-73.05)"/>
                  <path class="cls-139" d="M67.91,74.48c7.96,2.43,16.33-1.92,18.7-9.71,2.37-7.79-2.15-16.07-10.1-18.49-7.96-2.43-16.33,1.92-18.7,9.71s2.15,16.07,10.1,18.49Z"/>
                  <ellipse class="cls-139" cx="72.21" cy="60.38" rx="14.56" ry="14.88" transform="translate(-6.61 111.84) rotate(-73.04)"/>
                  <path class="cls-139" d="M68.02,74.14c7.76,2.37,15.93-1.88,18.25-9.47,2.32-7.6-2.1-15.68-9.86-18.04-7.76-2.37-15.93,1.88-18.25,9.47-2.32,7.6,2.1,15.68,9.86,18.04Z"/>
                  <ellipse class="cls-139" cx="72.21" cy="60.38" rx="14.2" ry="14.51" transform="translate(-6.61 111.83) rotate(-73.04)"/>
                  <ellipse class="cls-115" cx="72.21" cy="60.38" rx="14.02" ry="14.32" transform="translate(-6.6 111.85) rotate(-73.05)"/>
                  <ellipse class="cls-115" cx="72.21" cy="60.38" rx="13.84" ry="14.14" transform="translate(-6.61 111.84) rotate(-73.04)"/>
                  <ellipse class="cls-115" cx="72.21" cy="60.38" rx="13.66" ry="13.96" transform="translate(-6.61 111.84) rotate(-73.04)"/>
                  <path class="cls-196" d="M68.28,73.28c7.28,2.22,14.94-1.76,17.11-8.88,2.17-7.12-1.97-14.7-9.24-16.92-7.28-2.22-14.94,1.76-17.11,8.88-2.17,7.12,1.97,14.7,9.24,16.92Z"/>
                  <ellipse class="cls-196" cx="72.21" cy="60.38" rx="13.31" ry="13.59" transform="translate(-6.61 111.83) rotate(-73.04)"/>
                  <path class="cls-196" d="M68.38,72.93c7.08,2.16,14.54-1.71,16.65-8.64,2.11-6.93-1.91-14.31-9-16.46s-14.54,1.71-16.65,8.64c-2.11,6.93,1.91,14.31,9,16.46Z"/>
                  <path class="cls-196" d="M68.44,72.76c6.99,2.13,14.34-1.69,16.42-8.53,2.09-6.84-1.89-14.11-8.87-16.24-6.99-2.13-14.34,1.69-16.42,8.53-2.09,6.84,1.89,14.11,8.87,16.24Z"/>
                  <path class="cls-30" d="M68.49,72.59c6.89,2.1,14.14-1.66,16.19-8.41,2.06-6.74-1.86-13.91-8.75-16.01-6.89-2.1-14.14,1.66-16.19,8.41-2.06,6.74,1.86,13.91,8.75,16.01Z"/>
                  <path class="cls-30" d="M68.54,72.42c6.79,2.07,13.94-1.64,15.97-8.29s-1.83-13.72-8.63-15.79c-6.79-2.07-13.94,1.64-15.97,8.29-2.03,6.65,1.83,13.72,8.63,15.79Z"/>
                  <path class="cls-30" d="M68.59,72.25c6.69,2.04,13.74-1.62,15.74-8.17,2-6.55-1.81-13.52-8.5-15.56-6.69-2.04-13.74,1.62-15.74,8.17-2,6.55,1.81,13.52,8.5,15.56Z"/>
                  <path class="cls-30" d="M68.65,72.07c6.6,2.01,13.54-1.59,15.51-8.05,1.97-6.46-1.78-13.33-8.38-15.34s-13.54,1.59-15.51,8.05c-1.97,6.46,1.78,13.33,8.38,15.34Z"/>
                  <path class="cls-30" d="M68.7,71.9c6.5,1.98,13.34-1.57,15.28-7.93,1.94-6.36-1.76-13.13-8.26-15.11s-13.34,1.57-15.28,7.93c-1.94,6.36,1.76,13.13,8.26,15.11Z"/>
                  <path class="cls-30" d="M68.75,71.73c6.4,1.95,13.14-1.55,15.05-7.82,1.91-6.27-1.73-12.93-8.13-14.89-6.4-1.95-13.14,1.55-15.05,7.82-1.91,6.27,1.73,12.93,8.13,14.89Z"/>
                  <ellipse class="cls-30" cx="72.21" cy="60.38" rx="11.69" ry="11.94" transform="translate(-6.6 111.85) rotate(-73.05)"/>
                  <path class="cls-30" d="M68.85,71.39c6.21,1.89,12.74-1.5,14.6-7.58,1.85-6.08-1.68-12.54-7.89-14.43-6.21-1.89-12.74,1.5-14.6,7.58-1.85,6.08,1.68,12.54,7.89,14.43Z"/>
                  <path class="cls-30" d="M68.91,71.21c6.11,1.86,12.55-1.48,14.37-7.46,1.82-5.98-1.65-12.35-7.76-14.21-6.11-1.86-12.55,1.48-14.37,7.46s1.65,12.35,7.76,14.21Z"/>
                  <path class="cls-192" d="M68.96,71.04c6.01,1.83,12.35-1.45,14.14-7.34,1.8-5.89-1.62-12.15-7.64-13.98s-12.35,1.45-14.14,7.34c-1.8,5.89,1.63,12.15,7.64,13.98Z"/>
                  <path class="cls-192" d="M69.01,70.87c5.92,1.8,12.15-1.43,13.91-7.22,1.77-5.79-1.6-11.95-7.52-13.76-5.92-1.8-12.15,1.43-13.91,7.22-1.77,5.79,1.6,11.95,7.52,13.76Z"/>
                  <path class="cls-192" d="M69.06,70.7c5.82,1.77,11.95-1.41,13.69-7.11,1.74-5.7-1.57-11.76-7.39-13.53-5.82-1.77-11.95,1.41-13.69,7.11-1.74,5.7,1.57,11.76,7.39,13.53Z"/>
                  <path class="cls-192" d="M69.12,70.53c5.72,1.75,11.75-1.38,13.46-6.99,1.71-5.6-1.55-11.56-7.27-13.31-5.72-1.75-11.75,1.38-13.46,6.99-1.71,5.6,1.55,11.56,7.27,13.31Z"/>
                  <ellipse class="cls-192" cx="72.21" cy="60.38" rx="10.43" ry="10.65" transform="translate(-6.6 111.85) rotate(-73.05)"/>
                  <ellipse class="cls-192" cx="72.21" cy="60.38" rx="10.25" ry="10.47" transform="translate(-6.6 111.85) rotate(-73.05)"/>
                  <path class="cls-192" d="M69.27,70.01c5.43,1.66,11.15-1.31,12.77-6.63,1.62-5.32-1.47-10.97-6.9-12.63-5.43-1.66-11.15,1.31-12.77,6.63-1.62,5.32,1.47,10.97,6.9,12.63Z"/>
                  <path class="cls-11" d="M69.33,69.84c5.34,1.63,10.95-1.29,12.55-6.51,1.59-5.22-1.44-10.78-6.78-12.4-5.34-1.63-10.95,1.29-12.55,6.51-1.59,5.22,1.44,10.78,6.78,12.4Z"/>
                  <path class="cls-11" d="M69.38,69.67c5.24,1.6,10.75-1.27,12.32-6.39,1.56-5.13-1.42-10.58-6.65-12.18-5.24-1.6-10.75,1.27-12.32,6.39-1.56,5.13,1.42,10.58,6.65,12.18Z"/>
                  <ellipse class="cls-11" cx="72.21" cy="60.38" rx="9.53" ry="9.73" transform="translate(-6.6 111.85) rotate(-73.05)"/>
                  <ellipse class="cls-11" cx="72.21" cy="60.38" rx="9.35" ry="9.55" transform="translate(-6.6 111.84) rotate(-73.04)"/>
                  <path class="cls-11" d="M69.54,69.15c4.95,1.51,10.16-1.2,11.63-6.04,1.48-4.84-1.34-9.99-6.28-11.5-4.95-1.51-10.16,1.2-11.63,6.04-1.48,4.84,1.34,9.99,6.28,11.5Z"/>
                  <path class="cls-11" d="M69.59,68.98c4.85,1.48,9.96-1.17,11.4-5.92,1.45-4.75-1.31-9.8-6.16-11.28-4.85-1.48-9.96,1.17-11.4,5.92-1.45,4.75,1.31,9.8,6.16,11.28Z"/>
                  <path class="cls-11" d="M69.64,68.81c4.75,1.45,9.76-1.15,11.18-5.8,1.42-4.65-1.28-9.6-6.04-11.05-4.75-1.45-9.76,1.15-11.18,5.8-1.42,4.65,1.28,9.6,6.04,11.05Z"/>
                  <path class="cls-11" d="M69.69,68.63c4.66,1.42,9.56-1.13,10.95-5.68,1.39-4.56-1.26-9.41-5.91-10.83-4.66-1.42-9.56,1.13-10.95,5.68-1.39,4.56,1.26,9.41,5.91,10.83Z"/>
                  <path class="cls-11" d="M69.75,68.46c4.56,1.39,9.36-1.1,10.72-5.57s-1.23-9.21-5.79-10.6c-4.56-1.39-9.36,1.1-10.72,5.57s1.23,9.21,5.79,10.6Z"/>
                  <path d="M69.8,68.29c4.46,1.36,9.16-1.08,10.49-5.45,1.33-4.37-1.21-9.01-5.67-10.37-4.46-1.36-9.16,1.08-10.49,5.45-1.33,4.37,1.21,9.01,5.67,10.37Z"/>
                  <path d="M69.85,68.12c4.37,1.33,8.96-1.05,10.26-5.33,1.3-4.27-1.18-8.82-5.55-10.15s-8.96,1.05-10.26,5.33c-1.3,4.27,1.18,8.82,5.55,10.15Z"/>
                  <path d="M69.9,67.95c4.27,1.3,8.76-1.03,10.04-5.21,1.27-4.18-1.15-8.62-5.42-9.92-4.27-1.3-8.76,1.03-10.04,5.21-1.27,4.18,1.15,8.62,5.42,9.92Z"/>
                  <path d="M69.96,67.77c4.17,1.27,8.56-1.01,9.81-5.09,1.25-4.08-1.13-8.43-5.3-9.7-4.17-1.27-8.56,1.01-9.81,5.09-1.25,4.08,1.13,8.43,5.3,9.7Z"/>
                  <path d="M70.01,67.6c4.07,1.24,8.36-.98,9.58-4.97s-1.1-8.23-5.18-9.47c-4.07-1.24-8.36.98-9.58,4.97-1.22,3.99,1.1,8.23,5.18,9.47Z"/>
                  <path d="M70.06,67.43c3.98,1.21,8.16-.96,9.35-4.86,1.19-3.89-1.07-8.03-5.05-9.25-3.98-1.21-8.16.96-9.35,4.86-1.19,3.89,1.07,8.03,5.05,9.25Z"/>
                  <path d="M70.11,67.26c3.88,1.18,7.97-.94,9.12-4.74s-1.05-7.84-4.93-9.02-7.97.94-9.12,4.74c-1.16,3.8,1.05,7.84,4.93,9.02Z"/>
                  <path d="M70.17,67.09c3.78,1.15,7.77-.91,8.9-4.62,1.13-3.7-1.02-7.64-4.81-8.8-3.78-1.15-7.77.91-8.9,4.62-1.13,3.7,1.02,7.64,4.81,8.8Z"/>
                  <path d="M70.22,66.91c3.69,1.12,7.57-.89,8.67-4.5,1.1-3.61-1-7.45-4.68-8.57-3.69-1.12-7.57.89-8.67,4.5-1.1,3.61,1,7.45,4.68,8.57Z"/>
                  <path d="M70.27,66.74c3.59,1.09,7.37-.87,8.44-4.38,1.07-3.51-.97-7.25-4.56-8.35-3.59-1.09-7.37.87-8.44,4.38-1.07,3.51.97,7.25,4.56,8.35Z"/>
                  <path d="M70.32,66.57c3.49,1.06,7.17-.84,8.21-4.26,1.04-3.42-.94-7.05-4.44-8.12-3.49-1.06-7.17.84-8.21,4.26-1.04,3.42.94,7.05,4.44,8.12Z"/>
                  <path d="M70.38,66.4c3.4,1.04,6.97-.82,7.98-4.14,1.01-3.32-.92-6.86-4.31-7.89s-6.97.82-7.98,4.14.92,6.86,4.31,7.89Z"/>
                  <path d="M70.43,66.23c3.3,1.01,6.77-.8,7.76-4.03.98-3.23-.89-6.66-4.19-7.67s-6.77.8-7.76,4.03c-.98,3.23.89,6.66,4.19,7.67Z"/>
                  <path d="M70.48,66.05c3.2.98,6.57-.77,7.53-3.91.96-3.13-.86-6.47-4.07-7.44s-6.57.77-7.53,3.91c-.96,3.13.86,6.47,4.07,7.44Z"/>
                  <path d="M70.53,65.88c3.1.95,6.37-.75,7.3-3.79.93-3.04-.84-6.27-3.94-7.22-3.1-.95-6.37.75-7.3,3.79-.93,3.04.84,6.27,3.94,7.22Z"/>
                  <path d="M70.59,65.71c3.01.92,6.17-.73,7.07-3.67.9-2.94-.81-6.07-3.82-6.99-3.01-.92-6.17.73-7.07,3.67-.9,2.94.81,6.07,3.82,6.99Z"/>
                  <path d="M70.64,65.54c2.91.89,5.97-.7,6.84-3.55s-.79-5.88-3.7-6.77c-2.91-.89-5.97.7-6.84,3.55s.79,5.88,3.7,6.77Z"/>
                  <path d="M70.69,65.37c2.81.86,5.77-.68,6.61-3.43.84-2.75-.76-5.68-3.57-6.54s-5.77.68-6.61,3.43c-.84,2.75.76,5.68,3.57,6.54Z"/>
                  <path d="M70.74,65.19c2.72.83,5.58-.66,6.39-3.32.81-2.66-.73-5.49-3.45-6.32-2.72-.83-5.58.66-6.39,3.32-.81,2.66.73,5.49,3.45,6.32Z"/>
                  <path d="M70.8,65.02c2.62.8,5.38-.63,6.16-3.2.78-2.56-.71-5.29-3.33-6.09-2.62-.8-5.38.63-6.16,3.2s.71,5.29,3.33,6.09Z"/>
                  <path d="M70.85,64.85c2.52.77,5.18-.61,5.93-3.08.75-2.47-.68-5.1-3.2-5.86-2.52-.77-5.18.61-5.93,3.08-.75,2.47.68,5.1,3.2,5.86Z"/>
                  <path d="M70.9,64.68c2.43.74,4.98-.59,5.7-2.96.72-2.37-.66-4.9-3.08-5.64-2.43-.74-4.98.59-5.7,2.96s.66,4.9,3.08,5.64Z"/>
                  <path d="M70.95,64.51c2.33.71,4.78-.56,5.47-2.84s-.63-4.7-2.96-5.41c-2.33-.71-4.78.56-5.47,2.84-.7,2.28.63,4.7,2.96,5.41Z"/>
                  <path d="M71,64.33c2.23.68,4.58-.54,5.25-2.72.67-2.18-.6-4.51-2.83-5.19-2.23-.68-4.58.54-5.25,2.72-.67,2.18.6,4.51,2.83,5.19Z"/>
                  <path d="M71.06,64.16c2.13.65,4.38-.52,5.02-2.61.64-2.09-.58-4.31-2.71-4.96-2.13-.65-4.38.52-5.02,2.61-.64,2.09.58,4.31,2.71,4.96Z"/>
                  <path d="M71.11,63.99c2.04.62,4.18-.49,4.79-2.49.61-1.99-.55-4.12-2.59-4.74-2.04-.62-4.18.49-4.79,2.49-.61,1.99.55,4.12,2.59,4.74Z"/>
                  <path d="M71.16,63.82c1.94.59,3.98-.47,4.56-2.37.58-1.9-.52-3.92-2.46-4.51s-3.98.47-4.56,2.37c-.58,1.9.52,3.92,2.46,4.51Z"/>
                  <path d="M71.21,63.65c1.84.56,3.78-.45,4.33-2.25.55-1.8-.5-3.72-2.34-4.29-1.84-.56-3.78.45-4.33,2.25-.55,1.8.5,3.72,2.34,4.29Z"/>
                  <path d="M71.27,63.48c1.75.53,3.58-.42,4.11-2.13.52-1.71-.47-3.53-2.22-4.06-1.75-.53-3.58.42-4.11,2.13-.52,1.71.47,3.53,2.22,4.06Z"/>
                  <path d="M71.32,63.3c1.65.5,3.39-.4,3.88-2.01.49-1.61-.45-3.33-2.09-3.83-1.65-.5-3.39.4-3.88,2.01s.45,3.33,2.09,3.83Z"/>
                  <path d="M71.37,63.13c1.55.47,3.19-.38,3.65-1.89.46-1.52-.42-3.14-1.97-3.61-1.55-.47-3.19.38-3.65,1.89-.46,1.52.42,3.14,1.97,3.61Z"/>
                  <path d="M71.42,62.96c1.46.44,2.99-.35,3.42-1.78.43-1.42-.39-2.94-1.85-3.38-1.46-.44-2.99.35-3.42,1.78-.43,1.42.39,2.94,1.85,3.38Z"/>
                  <path d="M71.48,62.79c1.36.41,2.79-.33,3.19-1.66.41-1.33-.37-2.74-1.73-3.16-1.36-.41-2.79.33-3.19,1.66-.41,1.33.37,2.74,1.73,3.16Z"/>
                  <path d="M71.53,62.62c1.26.38,2.59-.3,2.97-1.54.38-1.23-.34-2.55-1.6-2.93s-2.59.3-2.97,1.54c-.38,1.23.34,2.55,1.6,2.93Z"/>
                  <path d="M71.58,62.44c1.16.36,2.39-.28,2.74-1.42s-.31-2.35-1.48-2.71c-1.16-.36-2.39.28-2.74,1.42-.35,1.14.31,2.35,1.48,2.71Z"/>
                  <path d="M71.63,62.27c1.07.33,2.19-.26,2.51-1.3.32-1.04-.29-2.16-1.36-2.48-1.07-.33-2.19.26-2.51,1.3-.32,1.04.29,2.16,1.36,2.48Z"/>
                  <path d="M71.69,62.1c.97.3,1.99-.23,2.28-1.18.29-.95-.26-1.96-1.23-2.26-.97-.3-1.99.23-2.28,1.18s.26,1.96,1.23,2.26Z"/>
                  <path d="M71.74,61.93c.87.27,1.79-.21,2.05-1.07.26-.85-.24-1.76-1.11-2.03-.87-.27-1.79.21-2.05,1.07-.26.85.24,1.76,1.11,2.03Z"/>
                  <path d="M71.79,61.76c.78.24,1.59-.19,1.82-.95.23-.76-.21-1.57-.99-1.8-.78-.24-1.59.19-1.82.95-.23.76.21,1.57.99,1.8Z"/>
                  <path d="M71.84,61.58c.68.21,1.39-.16,1.6-.83s-.18-1.37-.86-1.58c-.68-.21-1.39.16-1.6.83-.2.66.18,1.37.86,1.58Z"/>
                  <path d="M71.9,61.41c.58.18,1.19-.14,1.37-.71.17-.57-.16-1.18-.74-1.35-.58-.18-1.19.14-1.37.71-.17.57.16,1.18.74,1.35Z"/>
                  <path d="M71.95,61.24c.48.15,1-.12,1.14-.59.14-.47-.13-.98-.62-1.13-.48-.15-1,.12-1.14.59s.13.98.62,1.13Z"/>
                  <path d="M72,61.07c.39.12.8-.09.91-.47s-.1-.78-.49-.9c-.39-.12-.8.09-.91.47-.12.38.1.78.49.9Z"/>
                  <path d="M72.05,60.9c.29.09.6-.07.68-.36.09-.28-.08-.59-.37-.68-.29-.09-.6.07-.68.36-.09.28.08.59.37.68Z"/>
                  <path d="M72.11,60.72c.19.06.4-.05.46-.24.06-.19-.05-.39-.25-.45s-.4.05-.46.24c-.06.19.05.39.25.45Z"/>
                  <path d="M72.16,60.55c.1.03.2-.02.23-.12s-.03-.2-.12-.23-.2.02-.23.12c-.03.1.03.2.12.23Z"/>
                </g>
              </g>
              <path class="cls-131" d="M78.65,46.37c-15.2-3-18.53-20.37-11.78-27.05.77-.76,1.67-1.38,2.69-1.82,8.95-3.87,19.56.68,23.03,7.32.99,1.89,1.56,4.17,1.69,6.54.43,8.11-4.36,17.24-15.64,15.01Z"/>
              <path class="cls-52" d="M80.74,37.82c-8.18-1.61-10.47-11.97-6.58-15.8.44-.43.95-.77,1.54-.98,4.98-1.84,10.48,1.42,12.09,5.3.44,1.07.68,2.32.7,3.6.07,4.27-2.28,8.96-7.76,7.88Z"/>
              <path class="cls-187" d="M79.78,36.95c-6.99-1.37-8.88-10.13-5.6-13.39.37-.37.81-.66,1.3-.85,4.23-1.62,8.95,1.07,10.36,4.36.39.91.6,1.98.63,3.08.08,3.68-1.95,7.73-6.7,6.8Z"/>
              <path class="cls-3" d="M78.65,46.37c-15.2-3-18.53-20.37-11.78-27.05-3.56,5.09-1.41,17.79,8.85,23.08,10.26,5.28,18.06-1.17,18.55-10.97,0-.02,0-.05,0-.07.43,8.11-4.36,17.24-15.64,15.01Z"/>
              <path class="cls-10" d="M46.53,135.61s-3.05-2.7-2.42-5.25c.62-2.55,8.4-.65,15.86,8.96,4.91,6.32,7.04,13.4,7.04,13.4l-.77,2.57s.4-6.78-8.86-15.24c-7.66-7-10.86-4.44-10.86-4.44Z"/>
              <path class="cls-10" d="M88.29,132.08s-1.26,5.25-6.05,11.53c-4.79,6.28-12.84,8.65-12.84,8.65,0,0,.61,5.59.66,7.46.13,4.34-.22,7.87-.22,7.87,0,0,8.85-18.33,14.32-21.81,5.47-3.48,5.95-3.71,5.95-3.71l-1.99-3.84s.84-3.91.16-6.16Z"/>
              <path class="cls-6" d="M83.13,120.1s.79,9.6-4.43,13.24c-5.23,3.64-14.88.08-19.62-4.49,0,0,6.26,6.36,10.19,17.09,0,0,7-1.12,11.29-8.3,4.29-7.19,3.02-14.21,3.02-14.21l-.45-3.33Z"/>
              <path class="cls-23" d="M58.3,179.43s-2.95-7.68-12.36-11.01c-10.58-3.73-15.58-7.36-15.58-7.36,0,0,2.05,2.57,11.32,6.11,9.27,3.55,16.09,13.64,16.09,13.64l.53-1.39Z"/>
              <path class="cls-118" d="M98.81,173.57s-5.74-2.71-15.54-1.03c-9.8,1.68-14.46-.55-14.46-.55,0,0,1.91,1.31,9.28,1.58,7.37.27,17.44-.37,21.06,1.49l-.35-1.49Z"/>
              <path class="cls-35" d="M94.96,167.29c2.52-.96,2.23-10.49-2.4-15.42-3.76-4.01-6.87,7.12-4.75,11.12,2.12,4,4.62,5.26,7.14,4.3Z"/>
              <path class="cls-198" d="M60.23,151.28c3.3-.53,4.32,7.27,3.27,11.1-1.06,3.84-5.06,5.72-7.36,4.61-2.2-1.06-3.78-14.44,4.1-15.71Z"/>
              <path class="cls-94" d="M91.83,151.37c2.9.51,5.39,8.32,4.29,12.76-1.1,4.44-6.23,1.32-7.59-3.75-1.36-5.07,1.12-9.39,3.3-9.01Z"/>
              <path class="cls-142" d="M61.72,151.68c3.15.76,3.13,9.25.94,12.48-2.19,3.24-5.95,3.63-6.98-2.01-1.03-5.64,3.01-11.21,6.04-10.47Z"/>
              <path class="cls-1" d="M67.88,181.65c2.98,1.83,8.71,5.28,13.05,9.8,4.96,5.16,14.71,7.45,18.63,7.72l.29-.12s-10.6-1.64-14.16-4.43c-2.91-2.29-3.48-7.94-4.88-12.95-.32-1.14-.67-2.26-1.11-3.29-1.42-3.33-4.84-3.12-7.65-1.8-1.87.88-3.48,2.26-4.05,3.42-.2.41-.22.98-.11,1.65Z"/>
              <path class="cls-1" d="M25.79,167.01c-.07,1.4.46,4.7,3.36,8.14,3.55,4.2,2.52,7.09,7.38,15.67,2.33,4.14,4.76,6.54,6.76,7.92-3.53-2.8-7.12-12.08-6.94-21.26,0-.68,0-1.33-.05-1.95-.39-5.89-3.17-8.99-6.43-9.39-1.32-.16-2.72.13-4.07.87Z"/>
              <path class="cls-7" d="M18.94,74.23c7.15,8.54,22.48,12.94,29.71,15.76,7.84,3.04,12.7,4.39,15.31,3.03,1.91-1,12.43-1.87,22.44-6.75-.96.41-9.44,4.75-32.15.78-23.43-4.11-34.62-12.39-35.3-12.83Z"/>
              <path class="cls-5" d="M54.24,100.64s-.18,4.71-2.42,6.7c-2.24,1.99-.62-.12-4.91-8.77-4.29-8.65-8.35-6.6-8.35-6.6v1.59s1.92,6.51,0,13.85c-1.92,7.34-6.28,11.35-6.28,11.35,0,0,7.38-3.4,10.81-6.02,0,0,10.27,5.84,11.15-12.09Z"/>
              <path class="cls-10" d="M80.09,97.21s2.55,6.99.9,9.63c-.31.5-3.9-5.52-7.42-8.91-3.53-3.39-9.62-4.91-9.62-4.91,0,0,9.2,3.36,17.48,20.39,0,0,2.77-6.99-1.34-16.21Z"/>
              <path class="cls-53" d="M65.03,143.79c2.64,1.73,1.34-10.45-6.73-13.81-8.07-3.36,4.45,12.32,6.73,13.81Z"/>
              <path class="cls-53" d="M85.06,133.02c1.62-.89,1.44,6.41-2.82,10.59-4.26,4.18-8.47,3.55-8.67,3.45-.2-.09,10.21-13.34,11.49-14.04Z"/>
              <path class="cls-53" d="M50.57,90.72c1.71,1.59,3.58,8.5,1.34,11.59-2.24,3.09-8.77-10.03-9.24-10.96s5.74-2.62,7.9-.63Z"/>
              <path class="cls-10" d="M17.3,71.99c.47.77,1,1.51,1.61,2.22h0s0,.02.02.02c4.42,5.28,11.97,8.98,18.79,11.7h.03s-9.18-4.81-18.04-18.84C6.9,46.81,9.37,26.41,9.37,26.41c-2.39,9.38,2,35.91,7.94,45.58Z"/>
              <path class="cls-10" d="M16.39,135.37c.37.86,1.09,1.52,1.71,1.7.99.32,4.26-3.36,6.01-5.41.7-.83,1.12-1.78,1.5-2.91-.41,1.1-1.18,2.66-2.4,3.32-1.99,1.08-4.6,1.27-6.16,2.38-.34.26-.55.57-.66.91Z"/>
              <path class="cls-10" d="M.19,132.97c.75,1.86,3.27,4.04,8.51,3.42,4.11-.48,6.88-3,7.9-4.07h0s1.91-2.79,1.91-2.79c-.39.34-7.32,6.32-13.66,5.49-6.1-.81-3.28-8.83-2.89-9.88-1.91,3.85-2.25,6.69-1.78,7.83Z"/>
              <path class="cls-10" d="M99.55,134.89h0c.27.2.56.34.92.44,1.74.49,3.11-.13,3.11-.13,0,0,7.71,2.74,7.09-1.24-.02-.15-.06-.31-.11-.47-.24.32-.6.6-1.12.78-1.77.61-6.85-2.27-7.6-4.24-.69-1.83-4.16-4.66-4.48-5.01.26.39,3.49,3.38,3.87,4.82.42,1.55,1.92,3.59,1.35,4.62-.87,1.6-3.03.43-3.03.43Z"/>
              <path class="cls-10" d="M83.58,123.43s-1.09-6.52-2.15-10.01c0,0,.89-5.58.76-8.9,0,0,2.03,2.09,3.82,6.94,1.79,4.85-.67,13.67-.67,13.67l-.84-.43-.92-1.27Z"/>
              <path class="cls-4" d="M97.66,173.14s-2.35-3.09-7.58-2.59c-5.23.5-12.23,2.59-12.23,2.59,0,0,13.7-.95,19.81,0Z"/>
              <path class="cls-2" d="M26.73,10.51c6.31,2.1.21,32.31-1.11,46.3s-15.36-2.97-16.83-20.06c-1.47-17.09,15.14-27.17,17.94-26.24Z"/>
              <path class="cls-4" d="M58.3,179.43s.3-3.77-4.06-7.45c-4.35-3.68-13.09-5.38-13.09-5.38,0,0,9.54,3.84,12.59,6.53,3.05,2.69,4.56,6.3,4.56,6.3Z"/>
              <path class="cls-57" d="M98.6,43.69c2.82.53-.5,5.07-2.61,5.18-2.11.11.25-5.62,2.61-5.18Z"/>
              <path class="cls-59" d="M94.31,56.94c6.56,1.69,1.53,13.6-7.51,15.6-9.04,2.01-.01-17.54,7.51-15.6Z"/>
              <path class="cls-10" d="M80.09,136.71s-5.41,6.01-12.1,4.94l1.28,4.28s8.24-3.68,10.82-9.23Z"/>
              <path class="cls-58" d="M21.84,122.02c1.37,1.37-5.6,9.93-14.56,11-8.96,1.07-3.36-11.69,0-14.27,3.36-2.58,14.56,3.27,14.56,3.27Z"/>
              <path class="cls-10" d="M48.96,141.33s-9.7,17.28-14.43,22.38c0,0,9.8-9.45,14.43-22.38Z"/>
              <path class="cls-59" d="M56.6,179.43c1.45,2.46-1.05,14.29-5.4,16.7-4.35,2.41-13.68-13.35-13.44-21.91.24-8.55,10.33-2.48,10.33-2.48,0,0,6.2,3.76,8.51,7.69Z"/>
              <path class="cls-59" d="M102.68,191.57c-.62,3.48-15.2-.97-18.98-6.81-3.78-5.84-4.34-9.35-4.34-9.35,0,0,11.31-3.29,17.04,0,5.73,3.29,6.29,16.17,6.29,16.17Z"/>
              <path class="cls-57" d="M42.4,176.27c1.34,5.08-2.8,2.33-3.08,0-.28-2.33,2.71-1.41,3.08,0Z"/>
              <path class="cls-57" d="M89.8,183.47c-.57,2.82-3.48,1.72-3.79-.45-.31-2.18,4.08-.99,3.79.45Z"/>
              <path class="cls-57" d="M49.82,156.81c1.68,1.4-.36,4.88-1.55,4.69-1.93-.31.07-5.93,1.55-4.69Z"/>
              <path class="cls-57" d="M69.55,119.55c1.76,3.65-2.95,3.62-3.67,1.2-.72-2.43,2.64-3.33,3.67-1.2Z"/>
              <path class="cls-57" d="M39.92,14.19c2.97,1.5-.25,6.94-4.63,6.31-4.38-.63-1.1-9.2,4.63-6.31Z"/>
              <path class="cls-57" d="M26.02,62.11c2.94.62,2.36,4.5,0,5.25-2.36.75-1.87-5.64,0-5.25Z"/>
              <path class="cls-10" d="M99.04,132.94c1.1-.44,2.01-2.89,0-4.09-2.01-1.2-4.9,2.06-4.81,2.75.1.69,3.69,1.78,4.81,1.34Z"/>
              <path class="cls-57" d="M59.97,87.64s-5.06-1.7-13.6-6-11.9-5.13-12.18-5.13.14,5.37,8.47,7.96c8.33,2.59,17.32,3.17,17.32,3.17Z"/>
              <path class="cls-57" d="M87.22,85.94c2.57-1.42,3.47-3.57,3.23-3.86-.23-.29-6.63,2.65-12.64,3.53-6.02.89-6.39,1.35-6.35,1.63.05.28,8.93,2.47,15.75-1.31Z"/>
              <path class="cls-10" d="M54.24,101.07s1.61,3.09.74,12.19c-.87,9.1-6.23,10.41-6.23,10.41,0,0,.43-6.56.22-10.5,0,0,4.66-2.86,5.28-12.11Z"/>
              <path class="cls-57" d="M72.62,37.97c3.04,1.14.02-6.28-2.96-7.3-2.99-1.03.05,6.21,2.96,7.3Z"/>
              <path class="cls-59" d="M42.04,38.51c1.07.35-.25,2.3-1.49,2.8-1.24.5-1.37-3.73,1.49-2.8Z"/>
              <path class="cls-10" d="M33.2,183.78c.7,1.87,1.66,4.14,3.32,7.04,2.33,4.14,4.76,6.54,6.76,7.92.08.06.16.11.23.16.13.09.26.17.37.25.03.02.07.04.1.06,1.79,1.09,3.15,1.33,3.61,1.33.51,0,1.31-.34,2.14-.79-.19.07-2.78,1.07-7.45-2.7-4.73-3.82-8.79-12.73-9.07-13.27Z"/>
              <path class="cls-10" d="M80.02,190.53c.32.31.62.61.92.93,4.96,5.16,14.71,7.45,18.63,7.72.9.06,1.5.02,1.65-.12.47-.39,1.05-1.62,1.49-2.67-.1.14-2.09,2.89-8.83,1.44-6.48-1.39-13.06-6.65-13.86-7.3Z"/>
              <path class="cls-57" d="M84.18,165.09c1.17.3.56-1.89-.22-2.07-.79-.18-.66,1.84.22,2.07Z"/>
              <path class="cls-57" d="M31.21,103.22c1.36.19.11,2.91-2.25,3.53-2.36.62.13-3.83,2.25-3.53Z"/>
              <path class="cls-5" d="M45.6,97.84s-1.79-.19-4.77,6.68c-2.99,6.87-1.78,10.78-1.78,10.78,0,0,5.61-3.29,7.47-5.19,2.23-5.82-.92-12.28-.92-12.28Z"/>
              <path class="cls-10" d="M80.09,146.79s-3.26,6.73-4.93,9.11c-1.87,2.67-5.04,3.33-5.19,2.3s-.57-5.94-.57-5.94c0,0,4.33-1.42,10.7-5.47Z"/>
              <path class="cls-59" d="M62.13,29.58s-12.98-5.38-22.04-2.22c-9.06,3.16-10.16,14.94-10.16,14.94,0,0,3.94-12.17,11.99-13.96,8.05-1.79,20.22,1.24,20.22,1.24Z"/>
            </g>
          </g>
          <g>
            <g>
              <ellipse class="cls-45" cx="54.24" cy="62.88" rx="24.76" ry="24.69" transform="translate(-13.96 110.25) rotate(-84)"/>
              <ellipse class="cls-47" cx="54.24" cy="62.88" rx="19.18" ry="19.13" transform="translate(-13.95 110.28) rotate(-84.02)"/>
              <path class="cls-42" d="M66.99,59.85c.09.21.1.44.16.66-.85,9.69-7.19,17.02-14.01,16.31-6.73-.71-11.37-8.97-10.38-18.46.34-3.28,1.31-6.28,2.72-8.77,1.25-2.21,4.01-3.21,6.28-2.07.29.15.58.33.86.56,2.44,1.99,3.4,8.96,7.55,10.07,3.91,1.05,6.04-.05,6.82,1.69Z"/>
            </g>
            <g>
              <path class="cls-44" d="M80.37,55.16c-3.43,8.68-1.69,20.02,3.9,25.32,5.59,5.3,12.9,2.55,16.33-6.13,3.43-8.68,1.69-20.02-3.9-25.32s-12.9-2.55-16.33,6.13Z"/>
              <path class="cls-41" d="M82.65,57.32c-2.66,6.73-1.31,15.51,3.02,19.62,4.33,4.11,9.99,1.98,12.65-4.75,2.66-6.73,1.31-15.51-3.02-19.62-4.33-4.1-9.99-1.98-12.65,4.75Z"/>
              <path class="cls-42" d="M86.1,60.69c-.09.1-.14.24-.22.37-2.03,6.76-1.42,14.36,1.3,16.86,2.69,2.46,6.43-.96,8.36-7.65.67-2.31,1.03-4.71,1.1-6.97.07-2-.21-6.77-1.33-7-.15-.03-.3-.03-.46,0-1.4.25-2.59,5.72-5.64,5.23-1.92-.31-2.39-1.64-3.1-.83Z"/>
            </g>
            <path class="cls-43" d="M69.38,75.96s-.31,2.62,3.28,3.99c3.84,1.46,6.13-1.02,6.13-1.02,0,0-6.49.62-9.41-2.98Z"/>
          </g>
        </g>
      </g>
    </g>
  </g>
</svg>