<?xml version="1.0" encoding="UTF-8"?>
<svg xmlns="http://www.w3.org/2000/svg" xmlns:xlink="http://www.w3.org/1999/xlink" viewBox="0 0 109.49 207.52">
  <defs>
    <style>
      .cls-1 {
        fill: #c22781;
        opacity: .2;
      }

      .cls-1, .cls-2, .cls-3, .cls-4, .cls-5, .cls-6, .cls-7, .cls-8, .cls-9, .cls-10 {
        mix-blend-mode: multiply;
      }

      .cls-11 {
        fill: url(#_횁책챌청챙첼챠챠청챕_찾챨횪채챔책챠챵_80-3);
      }

      .cls-12 {
        fill: url(#_횁책챌청챙첼챠챠청챕_찾챨횪채챔책챠챵_20-2);
      }

      .cls-13 {
        fill: url(#_횁책챌청챙첼챠챠청챕_찾챨횪채챔책챠챵_57-3);
      }

      .cls-14 {
        fill: url(#_횁책챌청챙첼챠챠청챕_찾챨횪채챔책챠챵_88-2);
      }

      .cls-15 {
        fill: #3bc7c2;
      }

      .cls-16 {
        fill: url(#_횁책챌청챙첼챠챠청챕_찾챨횪채챔책챠챵_81-2);
      }

      .cls-17 {
        fill: url(#_횁책챌청챙첼챠챠청챕_찾챨횪채챔책챠챵_57-5);
      }

      .cls-18 {
        fill: url(#radial-gradient-4);
      }

      .cls-18, .cls-19, .cls-20, .cls-21, .cls-22 {
        fill-rule: evenodd;
      }

      .cls-18, .cls-23, .cls-21, .cls-22, .cls-24 {
        mix-blend-mode: screen;
      }

      .cls-2 {
        fill: url(#_횁책챌청챙첼챠챠청챕_찾챨횪채챔책챠챵_107);
      }

      .cls-2, .cls-3, .cls-25, .cls-6, .cls-8, .cls-10 {
        opacity: .5;
      }

      .cls-26, .cls-19, .cls-27, .cls-25, .cls-28 {
        fill: #fff;
      }

      .cls-29 {
        fill: url(#_횁책챌청챙첼챠챠청챕_찾챨횪채챔책챠챵_13);
      }

      .cls-3 {
        fill: #d14894;
      }

      .cls-30 {
        fill: #3bffc2;
      }

      .cls-20 {
        fill: #4d0542;
      }

      .cls-31 {
        fill: url(#_횁책챌청챙첼챠챠청챕_찾챨횪채챔책챠챵_20);
      }

      .cls-32 {
        fill: url(#_횁책챌청챙첼챠챠청챕_찾챨횪채챔책챠챵_81);
      }

      .cls-33 {
        fill: url(#_횁책챌청챙첼챠챠청챕_찾챨횪채챔책챠챵_89);
      }

      .cls-34 {
        fill: url(#_횁책챌청챙첼챠챠청챕_찾챨횪채챔책챠챵_80-2);
      }

      .cls-23 {
        fill: url(#radial-gradient);
      }

      .cls-35 {
        fill: url(#_횁책챌청챙첼챠챠청챕_찾챨횪채챔책챠챵_13-2);
      }

      .cls-36 {
        isolation: isolate;
      }

      .cls-37 {
        fill: url(#_횁책챌청챙첼챠챠청챕_찾챨횪채챔책챠챵_57);
      }

      .cls-38 {
        fill: url(#_횁책챌청챙첼챠챠청챕_찾챨횪채챔책챠챵_130);
      }

      .cls-39 {
        fill: url(#_횁책챌청챙첼챠챠청챕_찾챨횪채챔책챠챵_106);
      }

      .cls-40 {
        fill: url(#_횁책챌청챙첼챠챠청챕_찾챨횪채챔책챠챵_80);
      }

      .cls-41 {
        fill: url(#_횁책챌청챙첼챠챠청챕_찾챨횪채챔책챠챵_57-4);
      }

      .cls-42 {
        fill: url(#_횁책챌청챙첼챠챠청챕_찾챨횪채챔책챠챵_13-3);
      }

      .cls-21 {
        fill: url(#radial-gradient-5);
      }

      .cls-22 {
        fill: url(#radial-gradient-3);
      }

      .cls-43 {
        fill: url(#_횁책챌청챙첼챠챠청챕_찾챨횪채챔책챠챵_89-2);
      }

      .cls-44 {
        fill: url(#_횁책챌청챙첼챠챠청챕_찾챨횪채챔책챠챵_57-2);
      }

      .cls-4 {
        opacity: .8;
      }

      .cls-4, .cls-7, .cls-8 {
        fill: #ab2781;
      }

      .cls-27 {
        opacity: .4;
      }

      .cls-27, .cls-25, .cls-28 {
        mix-blend-mode: soft-light;
      }

      .cls-5 {
        fill: #c72781;
      }

      .cls-5, .cls-7, .cls-9 {
        opacity: .3;
      }

      .cls-45 {
        fill: url(#_횁책챌청챙첼챠챠청챕_찾챨횪채챔책챠챵_88);
      }

      .cls-46 {
        fill: #aaefff;
      }

      .cls-6 {
        fill: url(#_횁책챌청챙첼챠챠청챕_찾챨횪채챔책챠챵_71);
      }

      .cls-47 {
        fill: url(#_횁책챌청챙첼챠챠청챕_찾챨횪채챔책챠챵_106-2);
      }

      .cls-24 {
        fill: url(#radial-gradient-2);
      }

      .cls-48 {
        fill: url(#_횁책챌청챙첼챠챠청챕_찾챨횪채챔책챠챵_57-6);
      }

      .cls-9 {
        fill: #e767a7;
      }

      .cls-10 {
        fill: url(#_횁책챌청챙첼챠챠청챕_찾챨횪채챔책챠챵_71-2);
      }

      .cls-49 {
        fill: url(#_횁책챌청챙첼챠챠청챕_찾챨횪채챔책챠챵_30);
      }
    </style>
    <linearGradient id="_횁책챌청챙첼챠챠청챕_찾챨횪채챔책챠챵_106" data-name="횁책챌청챙첼챠챠청챕 찾챨횪채챔책챠챵 106" x1="-760.55" y1="196.91" x2="-760.55" y2="119.1" gradientTransform="translate(-688.65 181.87) rotate(157.46) scale(1 -1)" gradientUnits="userSpaceOnUse">
      <stop offset="0" stop-color="#ffb5b5"/>
      <stop offset=".28" stop-color="#ffb6bd"/>
      <stop offset=".72" stop-color="#ffbbd3"/>
      <stop offset="1" stop-color="#ffbfe6"/>
    </linearGradient>
    <linearGradient id="_횁책챌청챙첼챠챠청챕_찾챨횪채챔책챠챵_80" data-name="횁책챌청챙첼챠챠청챕 찾챨횪채챔책챠챵 80" x1="-48.29" y1="206.27" x2="-48.29" y2="199.22" gradientTransform="translate(122.28)" gradientUnits="userSpaceOnUse">
      <stop offset="0" stop-color="#e522d9"/>
      <stop offset="1" stop-color="#ff2443"/>
    </linearGradient>
    <linearGradient id="_횁책챌청챙첼챠챠청챕_찾챨횪채챔책챠챵_106-2" data-name="횁책챌청챙첼챠챠청챕 찾챨횪채챔책챠챵 106" x1="-36.43" y1="125.35" x2="-36.43" y2="87.8" gradientTransform="translate(122.28)" xlink:href="#_횁책챌청챙첼챠챠청챕_찾챨횪채챔책챠챵_106"/>
    <linearGradient id="_횁책챌청챙첼챠챠청챕_찾챨횪채챔책챠챵_30" data-name="횁책챌청챙첼챠챠청챕 찾챨횪채챔책챠챵 30" x1="-48.46" y1="202.26" x2="-48.46" y2="142.43" gradientTransform="translate(122.28)" gradientUnits="userSpaceOnUse">
      <stop offset="0" stop-color="#ffc3c4"/>
      <stop offset=".44" stop-color="#ffc4cc"/>
      <stop offset="1" stop-color="#ffc9de"/>
    </linearGradient>
    <linearGradient id="_횁책챌청챙첼챠챠청챕_찾챨횪채챔책챠챵_20" data-name="횁책챌청챙첼챠챠청챕 찾챨횪채챔책챠챵 20" x1="-64.86" y1="165.23" x2="-64.86" y2="106.57" gradientTransform="translate(122.28)" gradientUnits="userSpaceOnUse">
      <stop offset="0" stop-color="#ffd7da"/>
      <stop offset=".45" stop-color="#ffdfde"/>
      <stop offset="1" stop-color="#fff0e8"/>
    </linearGradient>
    <linearGradient id="_횁책챌청챙첼챠챠청챕_찾챨횪채챔책챠챵_13" data-name="횁책챌청챙첼챠챠청챕 찾챨횪채챔책챠챵 13" x1="-79.19" y1="96.44" x2="-79.19" y2="5.27" gradientTransform="translate(130.03 16.44) rotate(2.6)" gradientUnits="userSpaceOnUse">
      <stop offset="0" stop-color="#ffd7da"/>
      <stop offset=".32" stop-color="#ffdfe1"/>
      <stop offset=".83" stop-color="#fff5f6"/>
      <stop offset="1" stop-color="#fff"/>
    </linearGradient>
    <linearGradient id="_횁책챌청챙첼챠챠청챕_찾챨횪채챔책챠챵_71" data-name="횁책챌청챙첼챠챠청챕 찾챨횪채챔책챠챵 71" x1="-71.83" y1="67.13" x2="-71.83" y2="12.01" gradientTransform="translate(130.03 16.44) rotate(2.6)" gradientUnits="userSpaceOnUse">
      <stop offset="0" stop-color="#fff"/>
      <stop offset="1" stop-color="#d91a81"/>
    </linearGradient>
    <radialGradient id="_횁책챌청챙첼챠챠청챕_찾챨횪채챔책챠챵_130" data-name="횁책챌청챙첼챠챠청챕 찾챨횪채챔책챠챵 130" cx="-55.6" cy="764.52" fx="-55.6" fy="764.52" r="77.78" gradientTransform="translate(158.34 -611.96) rotate(2.6) scale(1 .92)" gradientUnits="userSpaceOnUse">
      <stop offset="0" stop-color="#dc16b1"/>
      <stop offset=".28" stop-color="#9517a9"/>
      <stop offset="1" stop-color="#5a1a88"/>
    </radialGradient>
    <radialGradient id="radial-gradient" cx="-475.93" cy="60.5" fx="-475.93" fy="60.5" r="36.25" gradientTransform="translate(-419.79) rotate(-180) scale(1 -1)" gradientUnits="userSpaceOnUse">
      <stop offset="0" stop-color="#000"/>
      <stop offset=".27" stop-color="#010002"/>
      <stop offset=".41" stop-color="#050009"/>
      <stop offset=".52" stop-color="#0b0017"/>
      <stop offset=".61" stop-color="#15002a"/>
      <stop offset=".69" stop-color="#210042"/>
      <stop offset=".77" stop-color="#300060"/>
      <stop offset=".84" stop-color="#420084"/>
      <stop offset=".9" stop-color="#5700ae"/>
      <stop offset=".96" stop-color="#6e00dc"/>
      <stop offset="1" stop-color="#8000ff"/>
    </radialGradient>
    <linearGradient id="_횁책챌청챙첼챠챠청챕_찾챨횪채챔책챠챵_71-2" data-name="횁책챌청챙첼챠챠청챕 찾챨횪채챔책챠챵 71" x1="-112.07" y1="81.78" x2="-32.62" y2="81.78" xlink:href="#_횁책챌청챙첼챠챠청챕_찾챨횪채챔책챠챵_71"/>
    <linearGradient id="_횁책챌청챙첼챠챠청챕_찾챨횪채챔책챠챵_13-2" data-name="횁책챌청챙첼챠챠청챕 찾챨횪채챔책챠챵 13" x1="-64.6" y1="37" x2="-64.6" y2="8.11" xlink:href="#_횁책챌청챙첼챠챠청챕_찾챨횪채챔책챠챵_13"/>
    <linearGradient id="_횁책챌청챙첼챠챠청챕_찾챨횪채챔책챠챵_107" data-name="횁책챌청챙첼챠챠청챕 찾챨횪채챔책챠챵 107" x1="-64.6" y1="37" x2="-64.6" y2="13.67" gradientTransform="translate(130.03 16.44) rotate(2.6)" gradientUnits="userSpaceOnUse">
      <stop offset="0" stop-color="#d91a81"/>
      <stop offset="1" stop-color="#fff"/>
    </linearGradient>
    <linearGradient id="_횁책챌청챙첼챠챠청챕_찾챨횪채챔책챠챵_20-2" data-name="횁책챌청챙첼챠챠청챕 찾챨횪채챔책챠챵 20" x1="-90.76" y1="206.32" x2="-90.76" y2="141.83" xlink:href="#_횁책챌청챙첼챠챠청챕_찾챨횪채챔책챠챵_20"/>
    <linearGradient id="_횁책챌청챙첼챠챠청챕_찾챨횪채챔책챠챵_13-3" data-name="횁책챌청챙첼챠챠청챕 찾챨횪채챔책챠챵 13" x1="-98.35" y1="164.28" x2="-98.35" y2="109.53" gradientTransform="translate(122.28)" xlink:href="#_횁책챌청챙첼챠챠청챕_찾챨횪채챔책챠챵_13"/>
    <linearGradient id="_횁책챌청챙첼챠챠청챕_찾챨횪채챔책챠챵_57" data-name="횁책챌청챙첼챠챠청챕 찾챨횪채챔책챠챵 57" x1="-81.02" y1="137.55" x2="-81.02" y2="105.76" gradientTransform="translate(122.28)" gradientUnits="userSpaceOnUse">
      <stop offset="0" stop-color="#931a84"/>
      <stop offset="1" stop-color="#ae04b1"/>
    </linearGradient>
    <linearGradient id="_횁책챌청챙첼챠챠청챕_찾챨횪채챔책챠챵_57-2" data-name="횁책챌청챙첼챠챠청챕 찾챨횪채챔책챠챵 57" x1="-54.73" y1="132.99" x2="-54.73" y2="105.93" xlink:href="#_횁책챌청챙첼챠챠청챕_찾챨횪채챔책챠챵_57"/>
    <linearGradient id="_횁책챌청챙첼챠챠청챕_찾챨횪채챔책챠챵_57-3" data-name="횁책챌청챙첼챠챠청챕 찾챨횪채챔책챠챵 57" x1="-75" y1="169.79" x2="-75" y2="138.19" xlink:href="#_횁책챌청챙첼챠챠청챕_찾챨횪채챔책챠챵_57"/>
    <linearGradient id="_횁책챌청챙첼챠챠청챕_찾챨횪채챔책챠챵_57-4" data-name="횁책챌청챙첼챠챠청챕 찾챨횪채챔책챠챵 57" x1="-55.36" y1="169.81" x2="-55.36" y2="140.21" xlink:href="#_횁책챌청챙첼챠챠청챕_찾챨횪채챔책챠챵_57"/>
    <linearGradient id="_횁책챌청챙첼챠챠청챕_찾챨횪채챔책챠챵_81" data-name="횁책챌청챙첼챠챠청챕 찾챨횪채챔책챠챵 81" x1="-108.03" y1="164.29" x2="-108.03" y2="139.53" gradientTransform="translate(122.28)" gradientUnits="userSpaceOnUse">
      <stop offset="0" stop-color="#ff2443"/>
      <stop offset=".99" stop-color="#e522d9"/>
    </linearGradient>
    <linearGradient id="_횁책챌청챙첼챠챠청챕_찾챨횪채챔책챠챵_81-2" data-name="횁책챌청챙첼챠챠청챕 찾챨횪채챔책챠챵 81" x1="-24.13" y1="116.63" x2="-24.13" y2="87.8" xlink:href="#_횁책챌청챙첼챠챠청챕_찾챨횪채챔책챠챵_81"/>
    <linearGradient id="_횁책챌청챙첼챠챠청챕_찾챨횪채챔책챠챵_80-2" data-name="횁책챌청챙첼챠챠청챕 찾챨횪채챔책챠챵 80" x1="-18.85" y1="345.32" x2="-18.85" y2="337.96" gradientTransform="translate(-270.44 189.31) rotate(81.46) scale(1 -1)" xlink:href="#_횁책챌청챙첼챠챠청챕_찾챨횪채챔책챠챵_80"/>
    <linearGradient id="_횁책챌청챙첼챠챠청챕_찾챨횪채챔책챠챵_80-3" data-name="횁책챌청챙첼챠챠청챕 찾챨횪채챔책챠챵 80" x1="-99.27" y1="207.52" x2="-99.27" y2="201.35" xlink:href="#_횁책챌청챙첼챠챠청챕_찾챨횪채챔책챠챵_80"/>
    <linearGradient id="_횁책챌청챙첼챠챠청챕_찾챨횪채챔책챠챵_88" data-name="횁책챌청챙첼챠챠청챕 찾챨횪채챔책챠챵 88" x1="-68.09" y1="188.35" x2="-38.44" y2="188.35" gradientTransform="translate(122.28)" gradientUnits="userSpaceOnUse">
      <stop offset="0" stop-color="#ff2483"/>
      <stop offset=".99" stop-color="#e522d9"/>
    </linearGradient>
    <linearGradient id="_횁책챌청챙첼챠챠청챕_찾챨횪채챔책챠챵_88-2" data-name="횁책챌청챙첼챠챠청챕 찾챨횪채챔책챠챵 88" x1="-112.6" y1="190.99" x2="-81.02" y2="190.99" xlink:href="#_횁책챌청챙첼챠챠청챕_찾챨횪채챔책챠챵_88"/>
    <linearGradient id="_횁책챌청챙첼챠챠청챕_찾챨횪채챔책챠챵_57-5" data-name="횁책챌청챙첼챠챠청챕 찾챨횪채챔책챠챵 57" x1="-441.33" y1="126.74" x2="-441.33" y2="107.09" gradientTransform="translate(-342.08 -72.82) rotate(-162.16) scale(1 -1)" xlink:href="#_횁책챌청챙첼챠챠청챕_찾챨횪채챔책챠챵_57"/>
    <linearGradient id="_횁책챌청챙첼챠챠청챕_찾챨횪채챔책챠챵_89" data-name="횁책챌청챙첼챠챠청챕 찾챨횪채챔책챠챵 89" x1="-442.48" y1="124.86" x2="-442.48" y2="107.75" gradientTransform="translate(-342.08 -72.82) rotate(-162.16) scale(1 -1)" gradientUnits="userSpaceOnUse">
      <stop offset="0" stop-color="#e522d9"/>
      <stop offset="1" stop-color="#ff2483"/>
    </linearGradient>
    <linearGradient id="_횁책챌청챙첼챠챠청챕_찾챨횪채챔책챠챵_57-6" data-name="횁책챌청챙첼챠챠청챕 찾챨횪채챔책챠챵 57" x1="-136.36" y1="217.13" x2="-136.36" y2="203.14" gradientTransform="translate(309.37 70.24) rotate(33.18)" xlink:href="#_횁책챌청챙첼챠챠청챕_찾챨횪채챔책챠챵_57"/>
    <linearGradient id="_횁책챌청챙첼챠챠청챕_찾챨횪채챔책챠챵_89-2" data-name="횁책챌청챙첼챠챠청챕 찾챨횪채챔책챠챵 89" x1="-136.22" y1="215.91" x2="-136.22" y2="203.15" gradientTransform="translate(309.37 70.24) rotate(33.18)" xlink:href="#_횁책챌청챙첼챠챠청챕_찾챨횪채챔책챠챵_89"/>
    <radialGradient id="radial-gradient-2" cx="-306.62" cy="200.13" fx="-306.62" fy="200.13" r="31.95" gradientTransform="translate(305.89 -128.48) scale(.85 1)" gradientUnits="userSpaceOnUse">
      <stop offset=".02" stop-color="#f200a5"/>
      <stop offset=".17" stop-color="#bf0082"/>
      <stop offset=".4" stop-color="#7c0054"/>
      <stop offset=".6" stop-color="#460030"/>
      <stop offset=".77" stop-color="#200016"/>
      <stop offset=".91" stop-color="#080005"/>
      <stop offset="1" stop-color="#000"/>
    </radialGradient>
    <radialGradient id="radial-gradient-3" cx="-306.62" cy="200.13" fx="-306.62" fy="200.13" r="24.76" gradientTransform="translate(286.31 -151.6) rotate(-5.3) scale(.85 1)" gradientUnits="userSpaceOnUse">
      <stop offset=".02" stop-color="#ce00f2"/>
      <stop offset=".17" stop-color="#a300bf"/>
      <stop offset=".4" stop-color="#69007c"/>
      <stop offset=".6" stop-color="#3c0046"/>
      <stop offset=".77" stop-color="#1b0020"/>
      <stop offset=".91" stop-color="#070008"/>
      <stop offset="1" stop-color="#000"/>
    </radialGradient>
    <radialGradient id="radial-gradient-4" cx="-373.54" cy="178.89" fx="-373.54" fy="178.89" r="16.22" gradientTransform="translate(349.62 -231.25) rotate(-1.73) scale(.66 1.62) skewX(-13.45)" xlink:href="#radial-gradient-2"/>
    <radialGradient id="radial-gradient-5" cx="-373.54" cy="178.89" fx="-373.54" fy="178.89" r="12.57" gradientTransform="translate(349.62 -231.25) rotate(-1.73) scale(.66 1.62) skewX(-13.45)" xlink:href="#radial-gradient-3"/>
  </defs>
  <g class="cls-36">
    <g id="Calque_2" data-name="Calque 2">
      <g id="Layer_3" data-name="Layer 3">
        <g>
          <g>
            <path class="cls-46" d="M63.77,1.3s8.67,2.68,16.58,20.72c0,0,11.74,4.78,14.62,11.78,5.9,14.32,7.59,34.36,1.55,49.34-6.05,14.98-28.33,19.5-29.19,20-.85.5,4.89,3.52,4.89,3.52,0,0,15.55-6.25,23.19-9.86,7.64-3.61,14-5.79,14-4.7s1.48,12.36-8.54,22.06c-8.13,7.87-23.44,10.52-24.44,11.64-1,1.11-1.55,7.96-.65,10.82.9,2.86,4.63,6.94,4.63,12.87s.5,11.17,1.99,12.65c1.49,1.48,1.68,15.31,2.05,18.06.37,2.75,7.14,11.24,8.77,14.21s1.81,10.05,1.81,10.05l-21.66-2.18-22.68-87.24-6.34-60.39,30.34-13.99s-1.01-17.37-3.87-26.21c-2.86-8.83-7.06-13.13-7.06-13.13Z"/>
            <g>
              <path class="cls-39" d="M81.48,75.17c2.37-3.61,6.56-14.16,3.91-30.69-.87-5.45-2.49-11.56-5.16-18.28C69.46-.89,56.56-3.27,60.18,2.68c0,0,.02.02.05.08,11.92,19.7,24.87,52.25,22.91,58.29-1.96,6.05-2.33,5.44-2.33,5.44-2.26,3.88-.5,11.03.67,8.69Z"/>
              <path class="cls-7" d="M81.48,75.17c2.37-3.61,6.56-14.16,3.91-30.69-.41,4.43-2.2,4.24-9.44-12.96-6.9-16.38-14.98-27.74-15.73-28.76,11.92,19.7,24.87,52.25,22.91,58.29-1.96,6.05-2.33,5.44-2.33,5.44-2.26,3.88-.5,11.03.67,8.69Z"/>
              <path class="cls-40" d="M53.33,199.22s-.4,3.45-.4,3.76,9.52,1.18,22.71,2.8c13.19,1.62,19.41-1.35,19.41-1.35l-.75-4s-11.7,1.03-21.21.92c-9.52-.11-19.75-2.13-19.75-2.13Z"/>
              <path class="cls-47" d="M108.67,99.11c-1.41,6.39-6.93,13.01-15.23,17.52h0c-2.73,1.5-5.76,2.76-9.03,3.7-13.25,3.83-14.03,5.01-14.03,5.01l-8.1-15.69c2.17-1.5,14.54-3.44,24.58-7.94h0c.52-.23,1.02-.46,1.53-.71,0,0,.06-2.28,1.94-4.84,1.87-2.56,3.46-5.33,4.92-7.06.75-.9,1.94.79,1.6,4.17,0,0,4.57-4.44,8.29-5.36,3.53-.87,5.4,2.71,3.52,11.19Z"/>
              <path class="cls-49" d="M74.52,142.43s4.34,14.59,5.22,22.8,2.49,16.3,4.6,19.16c2.12,2.86,8.34,12.19,9.95,16.05,0,0-6.25,2.61-16.61,1.59-10.36-1.03-15.4-.84-19.6-1.31-4.2-.47-4.76-1.49-4.76-1.49,0,0,1.68-8.49,2.24-13.34.56-4.85.24-22.3.49-23.37.25-1.08,18.46-20.08,18.46-20.08Z"/>
              <path class="cls-31" d="M44.68,107.1c-1.9.87-2.95,26.15-4.28,34.11-1.34,7.96,12.47,24.26,18.57,24.01,6.1-.25,15.93-12.69,15.55-25.01-.37-12.32-7.92-26.89-10.74-30.11-2.82-3.22-16.33-4.28-19.09-3.01Z"/>
              <path class="cls-29" d="M95.62,79.01c-.15.51-.32.99-.5,1.46-.2.51-.44,1.03-.72,1.54-5.61,10.38-26.66,21.24-33.28,25.8,0,0-4.22,3.43-13.53.6h0s-.03-.02-.05-.02c-.45-.13-.9-.28-1.37-.45,0,0-18.85-1.78-26.33-6.98-1.57-1.09-3.52-3.05-5.57-5.63h0c-2.66-3.33-5.5-7.69-7.94-12.56,0-.02-.02-.03-.02-.03C1.59,73.37-1.61,62.14.85,52.82,5.59,34.92,29.3,18.81,51.55,18.33c15.16-.34,26.86,3.46,33.98,8.2,3.34,2.22,5.66,4.66,6.87,6.98,3.64,6.99,7.09,32.86,3.22,45.5Z"/>
              <path class="cls-8" d="M47.54,108.39c-.45-.13-.9-.28-1.37-.45,0,0-18.85-1.78-26.33-6.98-1.57-1.09-3.52-3.05-5.57-5.63h0c-2.66-3.33-5.5-7.69-7.94-12.56.48.58,8.06,9.99,14.25,13.12,6.19,3.14,25.75,11.95,26.97,12.5Z"/>
              <path class="cls-6" d="M95.62,79.01l-6.91,2.74-68.67-12.17s-6.2-10.28-4.67-22.26c1.53-11.98,11.44-18.6,17.25-19.27,5.83-.67,23.6,4.06,33.72,3.4,10.12-.66,13.05-6.07,19.19-4.93,3.34,2.22,5.66,4.66,6.87,6.98,3.64,6.99,7.09,32.86,3.22,45.5Z"/>
              <path class="cls-38" d="M93.86,74.69c-.54,1.37-1.17,2.67-1.89,3.89-.57.94-1.23,1.83-1.99,2.66v.02c-11.44,12.51-43.4,12.77-53.04,7.89-4.29-2.17-9.38-7.36-13.5-13.65-.02-.03-.04-.05-.05-.08-3.59-5.5-6.42-11.84-7.32-17.74-1.91-12.66,5.66-25.77,14.54-27.48,8.87-1.72,20.87,4.8,32.41,5.7,11.54.9,14.37-5.06,16.59-6.03,1.58-.7,4.44-2.59,9.5,2.11,5.61,5.22,10.68,27.73,4.75,42.7Z"/>
              <path class="cls-23" d="M93.86,74.69c-.54,1.37-1.17,2.67-1.89,3.89-.57.94-1.23,1.83-1.99,2.66v.02c-11.44,12.51-43.4,12.77-53.04,7.89-4.29-2.17-9.38-7.36-13.5-13.65-.02-.03-.04-.05-.05-.08-3.59-5.5-6.42-11.84-7.32-17.74-1.91-12.66,5.66-25.77,14.54-27.48,8.87-1.72,20.87,4.8,32.41,5.7,11.54.9,14.37-5.06,16.59-6.03,1.58-.7,4.44-2.59,9.5,2.11,5.61,5.22,10.68,27.73,4.75,42.7Z"/>
              <path class="cls-10" d="M94.4,82.01c-5.61,10.38-26.66,21.24-33.28,25.8,0,0-4.65,3.77-14.95.13,0,0-18.85-1.78-26.33-6.98-1.57-1.09-3.52-3.05-5.57-5.63,4.72,1.07,18.15,3.69,34.46,3.01,21.96-.92,35.96-4.81,45.67-16.32Z"/>
              <path class="cls-8" d="M93.86,74.69l-3.86,6.5c.68-1.36,11.8-24.28-12.34-27.53-24.82-3.33-61.82,10.17-54.27,21.76-3.59-5.5-6.42-11.84-7.32-17.74-1.91-12.66,5.66-25.77,14.54-27.48,8.87-1.72,20.87,4.8,32.41,5.7,11.54.9,14.37-5.06,16.59-6.03,1.58-.7,4.44-2.59,9.5,2.11,5.61,5.22,10.68,27.73,4.75,42.7Z"/>
              <path class="cls-35" d="M67.67,50.64c-15.47-.38-22.5-16.58-17.37-24.14.58-.86,1.33-1.61,2.23-2.21,7.89-5.21,19.22-2.58,24.05,3.25,1.37,1.66,2.43,3.76,3.07,6.03,2.18,7.75-.5,17.35-11.98,17.07Z"/>
              <path class="cls-15" d="M67.85,42.04c-8.32-.2-12.81-9.81-9.85-14.15.33-.49.76-.9,1.29-1.2,4.46-2.6,10.52-.36,12.94,3.11.67.96,1.17,2.12,1.47,3.35,1,4.11-.27,9.02-5.85,8.89Z"/>
              <path class="cls-30" d="M67.57,42.03c-7.11-.17-10.87-8.3-8.37-11.99.28-.42.64-.77,1.09-1.03,3.77-2.26,8.96-.45,11.05,2.49.58.81,1.02,1.81,1.28,2.87.88,3.53-.21,7.78-5.05,7.66Z"/>
              <path class="cls-2" d="M67.67,50.64c-15.47-.38-22.5-16.58-17.37-24.14-2.36,5.49,2.49,17.39,13.66,20.79,11.16,3.4,17.35-4.12,15.7-13.65,0-.02,0-.05,0-.07,2.18,7.75-.5,17.35-11.98,17.07Z"/>
              <path class="cls-26" d="M35.44,91.29c-1.26.49,4.09,6.55,12.98,6.3,8.89-.25,9.25-2.02,9.11-3.19-.13-1.17-19.9-3.96-22.09-3.11Z"/>
              <path class="cls-25" d="M33.65,65.57c-4.64,2.73.95,15.31,10.83,14.18,9.88-1.13-.97-19.98-10.83-14.18Z"/>
              <path class="cls-26" d="M37.6,48.25c-1.93.62,1.08,5.42,3.1,4.69,2.03-.72-.02-5.68-3.1-4.69Z"/>
              <path class="cls-26" d="M59.41,40.29c-2.07.1-.81,3.86,2.44,3.59,3.26-.26-.56-3.68-2.44-3.59Z"/>
              <path class="cls-26" d="M74.7,40.64c-1.18-.03-.53,2.14-.1,2.09.44-.04,2.33-2.03.1-2.09Z"/>
              <path class="cls-26" d="M82.25,91c-1.53.57,3.14-5.39,7.07-7.49,3.93-2.1,4.13-.91,4.13-.91,0,0-4.26,5.82-11.19,8.41Z"/>
              <path class="cls-9" d="M47.91,106.61c-1.25-1.32-3.5-4.1,1.27-6.81,4.76-2.71,9.94-.94,19.36-3.63,9.42-2.68,12.71-3.86,12.71-3.86,0,0-10.27,10.9-18.76,14.05-8.49,3.16-14.58.25-14.58.25Z"/>
              <path class="cls-28" d="M16.87,59.05s-.7-14.72,5.39-20.8c6.09-6.08,10.43-6.6,14.49-6.7,4.06-.1,9.74,1.97,9.74,1.97,0,0-8.73-1.92-14.1.12-5.38,2.03-13.05,11.01-15.51,25.41Z"/>
              <path class="cls-28" d="M81.23,32.2s5-.9,8.82,4.01c3.82,4.92,3.95,9.16,3.95,9.16,0,0-6.82-11.61-12.77-13.18Z"/>
              <path class="cls-12" d="M40.3,141.83c-1.9.75-12.17,19.41-15.34,25.29-3.17,5.88-11.2,11.94-13.72,20.62-2.52,8.68-5.04,16.33-4.67,17.36.37,1.03,11.1,1.12,18.01,1.21,6.91.09,14.56-2.99,15.02-3.73.47-.75,3.45-11.94,5.79-16.61,2.33-4.67,10.9-15.39,11.1-21.32.19-5.93-16.2-22.82-16.2-22.82Z"/>
              <path class="cls-42" d="M46.4,125.28c-2.16,6.09-13.93,18.26-18.7,24.19-.98,1.22-1.67,2.18-1.92,2.76-1.43,3.42-1.65,6.52-4.54,8.58-2.89,2.05-5.75,4.02-6.25,3.34-.5-.69-.55-2.14.26-3.32.77-1.1,1.88-1.9,2.09-2.11-.22.18-2.1,1.68-6.76,3.02-4.98,1.44-9.21.63-9.71-.74-.49-1.37,2.25-10.33,8.14-16.55,1.43-1.51,3.07-3.17,4.82-4.92,5.45-5.48,11.83-11.8,15.41-16.99,4.73-6.84,10.71-12.56,13.69-13.01,0,0,6.1,8.41,3.49,15.75Z"/>
              <path class="cls-37" d="M50.5,124.04c-.37,15.68-12.47,13.4-12.47,13.4l2.28-2.77s3.1-5.09,1.24-13.93c-1.87-8.84-5.07-6.87-5.07-6.87l-4.47,4.95s.06-3.93,1.4-7.48c1.01-2.71,2.79-5.2,5.85-5.54,4.31-.48,9.78,1.73,11.01,12.27h0c.02.17.04.32.05.49,0,0,0,.03,0,.04.08.77.14,1.59.16,2.45.04.94.05,1.92.02,2.96Z"/>
              <path class="cls-44" d="M74.4,128.05c-.36,2.93-.81,4.94-.81,4.94,0,0-6.76-21.15-13.34-24.66l.87-.52s4.2-3.85,8.7-.51c.74.53,1.48,1.27,2.21,2.24,3.4,4.5,3.03,13.08,2.37,18.52Z"/>
              <path class="cls-13" d="M59.58,159.66c-.2,2.49-.79,4.46-1.49,5.99h0c-1.28,2.78-2.9,4.03-3.04,4.14h0s.38-8.79-6.36-17.22c-6.75-8.43-10.72-7.89-10.72-7.89l-2.96,4.72s-.85-9.81,5.81-11.12c.36-.07.74-.1,1.14-.07,6.88.3,18.28,13.5,17.64,21.45Z"/>
              <path class="cls-41" d="M78.8,150.5c-.09,10.55-12.38,19.73-23.78,19.3h0s2.51-4.57,2.51-4.57l.53.43h0c.15-.07,1.77-.74,3.94-2.27,4.16-2.91,10.33-8.9,12.08-19.59.19-1.14.32-2.33.4-3.59,0,0,4.39-.26,4.29,10.28Z"/>
              <path class="cls-32" d="M27.69,149.46h0c-.98,1.23-1.67,2.19-1.92,2.77-1.43,3.42.15,4.66-4.54,8.58-2.72,2.27-5.75,4.02-6.25,3.34-.5-.69-.55-2.14.26-3.32.77-1.1,1.88-1.9,2.09-2.11-.22.18-2.1,1.68-6.76,3.02-4.98,1.44-9.21.63-9.71-.74-.49-1.37,2.25-10.33,8.14-16.55,1.43-1.51,3.07-3.17,4.82-4.92,0,0,12.18.33,13.89,9.93Z"/>
              <path class="cls-16" d="M108.67,99.11c-1.41,6.39-6.93,13.01-15.23,17.52,3.46-11.35-6.31-14.82-6.57-14.91.52-.23,1.02-.46,1.53-.71,0,0,.06-2.28,1.94-4.84,1.87-2.56,3.17-6.03,4.63-7.76.75-.9,2.9.3,1.89,4.87,0,0,4.57-4.44,8.29-5.36,3.53-.87,5.4,2.71,3.52,11.19Z"/>
              <path class="cls-34" d="M66.77,126.25c-1.61-.33-5.98-5.31-6.53-10.76-.13-1.26.59-1.64.91-1.75,1.53-.51,4.24,1.39,5.92,4.15,1.9,3.12,2.09,6.45,1.18,7.75-.29.42-.71.64-1.16.64-.1,0-.2-.01-.3-.03ZM61.45,114.67c-.07.03-.3.1-.24.71l-.49.05.49-.05c.52,5.1,4.62,9.66,5.75,9.9.14.03.3.02.46-.21.62-.88.55-3.77-1.21-6.67-1.48-2.43-3.55-3.77-4.52-3.77-.09,0-.17.01-.24.04Z"/>
              <path class="cls-11" d="M7.19,201.58s3.18.97,14.44,1.4c11.26.44,18.43-1.63,18.43-1.63,0,0-.32,2.13-.39,2.38-.06.25-9.21,3.3-20.47,3.73-11.26.44-13.13-1.62-13.25-1.8-.12-.19,1.23-4.08,1.23-4.08Z"/>
              <path class="cls-45" d="M54.18,194.68s14.72-11.79,29.65-11.1l-.67-1.42s-11.11-2.31-28.98,12.52Z"/>
              <path class="cls-14" d="M10.81,189.24s6.53-5.88,17.98-4.57c11.45,1.31,12.47,12.85,12.47,12.85,0,0-2.2-11.17-13.12-11.82-10.92-.65-18.46,7.38-18.46,7.38l1.14-3.83Z"/>
              <path class="cls-17" d="M41.44,183.64c7.74.48,8.92-12.96,6.51-17.15s-8.64-2.82-12.12,4.52c-3.48,7.34,3.11,12.47,5.61,12.63Z"/>
              <path class="cls-33" d="M45.28,181c3.34-2.39,5.51-11.54,1.95-14.89-3.56-3.35-7.41,1.57-8.77,5.32-2.17,6,1.81,13.15,6.82,9.57Z"/>
              <path class="cls-48" d="M80.79,163.82c-1.68-3.27-5.67,3.58-5.24,9.13.41,5.38,4.47,6.92,6.09,6.92,1.62,0,1.82-10.86-.85-16.05Z"/>
              <path class="cls-43" d="M80.45,163.29c-1.48-.68-4.49,4.95-3.86,9.31.63,4.37,4.13,6.52,5.26,6.25,1.13-.28,1.2-5.42.92-8.92-.28-3.5-1.67-6.34-2.32-6.64Z"/>
              <path class="cls-8" d="M72.22,106.66s14.08.97,7.98,15l-5.41,1.72s1.6-11.67-4.97-16.08l2.4-.64Z"/>
              <path class="cls-8" d="M31.71,119.19s3.01-4.07,6.97-.81c4.91,4.04,1.62,15.3.12,18.23,0,0,1.98-1.42,2.45-2.83.47-1.4,3.21-16.77-1.33-20.56-4.54-3.79-8.21,5.97-8.21,5.97Z"/>
              <path class="cls-8" d="M50.31,118.58c-.03-.21-.05-.36-.05-.48.02.16.04.32.05.48Z"/>
              <path class="cls-8" d="M50.5,124.04c-.37,15.68-12.47,13.4-12.47,13.4l2.28-2.77s3.1-5.09,1.24-13.93c-1.87-8.84-5.07-6.87-5.07-6.87l-4.47,4.95s.06-3.93,1.4-7.48c.29-.09,6.09-1.84,8.39,3.92,2.36,5.91.43,14.06,3.73,16.48,2.8,2.06,4.9-5.55,4.95-10.68.04.94.05,1.92.02,2.96Z"/>
              <path class="cls-8" d="M74.4,128.05c-.36,2.93-.81,4.94-.81,4.94,0,0-6.76-21.15-13.34-24.66l.87-.52s4.2-3.85,8.7-.51c-3.27.14-2.22,4.76,0,13.01s4.58,7.74,4.58,7.74Z"/>
              <path class="cls-8" d="M55.62,185.34s3.37,1.1,11.92-7.02c8.55-8.12,11.26-19.5,11.26-19.5l-.89-3.5s-5.01,7.17-11.9,10.7-10.08,3.78-10.08,3.78c0,0,0,13.04-.32,15.55Z"/>
              <path class="cls-8" d="M33.7,151.54s2.61-4.67,11.2-1c8.58,3.67,8.76,19.46,6.9,25.16l3.22-5.91s.7-11.78-6.64-19.44c-7.34-7.65-10.44-5.68-10.44-5.68l-4.24,6.86Z"/>
              <path class="cls-8" d="M78.8,150.5c-.09,10.55-12.38,19.73-23.78,19.3,0,0,.38-8.8-6.36-17.23-6.75-8.43-10.72-7.89-10.72-7.89l-2.96,4.72s-.85-9.81,5.81-11.12c.36-.07.74-.1,1.14-.07-3.77,1.29,8.75,13.09,12.17,19.74,3.42,6.66,5.47,1.71,5.47,1.71-.2,2.49-.79,4.46-1.49,5.99.15-.06,1.77-.73,3.94-2.26.48.96,1.88,1.85,5.76.76,6.79-1.91,12.44-11.49,10.15-16.6-1.54-3.4-3.01-3.84-3.83-3.75.19-1.14.32-2.33.4-3.59,0,0,4.39-.26,4.29,10.28Z"/>
              <path class="cls-5" d="M51.42,143.71s5.88,5.46,9.29,9.94c3.41,4.48,12.67-6.52,12.67-6.52,0,0-2.1,13.27-15.29,18.51,0,0,4.14-11.28-6.67-21.93Z"/>
              <path class="cls-4" d="M96.86,93.28s-.37,1.8,1.28,3.76c1.66,1.96-2.73,7-2.73,7,0,0,4.11-1.91,5.13-5.88,1.03-3.97-.72-7.38-.72-7.38l-2.97,2.5Z"/>
              <path class="cls-7" d="M96.1,103.66c-.41,2.06,5.94,4.84,9.16-1.45,3.22-6.29,2.66-10.61-.84-11.18-3.5-.57-7.11,3.68-7.1,4.24.02.55.84,1.03,1.12,2.33.28,1.31-2.35,6.06-2.35,6.06Z"/>
              <path class="cls-27" d="M9.67,144.07c-3.37,3.68-8.13,10.26-6.82,13.53,1.31,3.27,16.05-1.59,20.53-8.02,4.48-6.44-6.7-8.91-9.12-8.49-2.41.41-4.59,2.99-4.59,2.99Z"/>
              <path class="cls-28" d="M57.71,192.19c-2.42,2.21,13.07,8.43,22.27,7.69,9.21-.75,11.14-2.36,11.14-2.36,0,0-4.14-12.79-9.58-13.04-5.44-.24-23.83,7.71-23.83,7.71Z"/>
              <path class="cls-28" d="M10.78,192.41c-1.59,1.45,4.53,8.91,12.78,9.24,8.26.33,13.81-3.27,14.6-5.37.79-2.1-.95-9.24-10.54-9.98-9.6-.75-16.84,6.11-16.84,6.11Z"/>
              <path class="cls-3" d="M13.09,187.66s7.63-6.31,18.43-4.68c10.8,1.63,9.43,13.4,9.43,13.4,0,0-1.06-9.1-10.71-10.99-9.66-1.89-17.14,2.28-17.14,2.28Z"/>
              <path class="cls-3" d="M56.5,193s6.27-7.63,14.93-11.04c8.67-3.41,11.73.2,11.73.2,0,0-12.83-.58-26.67,10.84Z"/>
              <path class="cls-9" d="M10.81,189.24s5.57-4.14,9.67-8.74c4.11-4.6,7.21-18.37,7.21-18.37,0,0-1.25,2.93-4.41,7.24-3.16,4.3-9.69,10.52-12.47,19.88Z"/>
              <path class="cls-26" d="M65.87,193.95c.53-2.18,2.43-.99,3.14,1.01.71,1.99-3.58.79-3.14-1.01Z"/>
              <path class="cls-26" d="M32.01,199.22c-.72-.5.89-3.54,3.59-2.84,2.71.69-2.05,3.91-3.59,2.84Z"/>
              <path class="cls-26" d="M54.18,134.37c-2.03,2.27.33,6.1,3.36,5.17,3.03-.94-1.92-6.78-3.36-5.17Z"/>
              <path class="cls-8" d="M40.88,137.48l-.09.79s3.69.24,7.06,2.41c0,0,1.62-1.94,2.45-6.6.83-4.66.09-8.3.09-8.3,0,0,.29,8.74-9.52,11.69Z"/>
              <path class="cls-9" d="M27.69,149.47s1.71-5.59,3.83-9.26c2.12-3.67,8.78-5.54,8.78-5.54,0,0-9.29,11.25-12.61,14.8Z"/>
              <path class="cls-4" d="M16.98,158.97s3.55-1.46,5.32-3.47c0,0-.13,4.04-6.76,4.91l1.43-1.45Z"/>
              <path class="cls-26" d="M21.75,38.75s1.6.56,3.94-1.51c2.34-2.08,2.77-3.43,2.77-3.43,0,0-3.29.18-6.71,4.95Z"/>
              <path class="cls-26" d="M29.82,174.96c-2.45,1.81.24,4.29,1.71,3.45,1.47-.84.07-4.76-1.71-3.45Z"/>
              <path class="cls-26" d="M38.96,155.92c-1.54,3.85,2.7,3.17,3.54.47.84-2.71-3.02-1.78-3.54-.47Z"/>
              <path class="cls-26" d="M29.72,134.09c-1.19,3.3,2.8,1.31,3.27,0,.47-1.31-2.05-3.36-3.27,0Z"/>
              <path class="cls-1" d="M74.4,205.63c-2.25-.27-2.54-5.59-9.54-7.78-7-2.18-10.68,5.41-10.68,5.41,0,0,5.5-.17,20.22,2.37Z"/>
              <path class="cls-1" d="M39.27,203.93s1.11-7.66,0-7.65c-1.11,0-7.75,8.82-7.75,8.82,0,0,2.51.28,7.75-1.17Z"/>
            </g>
          </g>
          <g>
            <g>
              <ellipse class="cls-24" cx="46.09" cy="71.64" rx="27.07" ry="31.96" transform="translate(-6.42 4.56) rotate(-5.3)"/>
              <path class="cls-22" d="M66.97,69.71c1.26,13.62-7.07,25.52-18.6,26.59-11.54,1.07-21.91-9.1-23.17-22.72-1.26-13.62,7.07-25.52,18.6-26.59,11.54-1.07,21.91,9.1,23.17,22.72Z"/>
              <path class="cls-19" d="M58.2,69.64c.88,9.5-3.86,17.71-10.6,18.33-6.73.62-12.91-6.57-13.79-16.07-.88-9.5,3.86-17.71,10.6-18.33s12.91,6.57,13.79,16.07Z"/>
            </g>
            <g>
              <path class="cls-18" d="M95.06,66.99c-.97,14.58-6.54,26.54-12.43,26.72-5.9.18-9.89-11.5-8.92-26.08s6.54-26.54,12.43-26.72,9.89,11.5,8.92,26.08Z"/>
              <path class="cls-21" d="M92.66,67.06c-.75,11.3-5.06,20.57-9.63,20.7-4.57.14-7.66-8.91-6.91-20.2.75-11.3,5.06-20.57,9.63-20.7s7.66,8.91,6.91,20.2Z"/>
              <path class="cls-19" d="M89.27,67.17c-.53,7.88-3.15,14.33-5.85,14.41-2.7.08-4.46-6.25-3.92-14.13.53-7.88,3.15-14.33,5.85-14.41,2.7-.08,4.46,6.25,3.92,14.13Z"/>
            </g>
            <path class="cls-20" d="M63.29,81.23s1.08,5.15,4.91,4.99c3.83-.16,4.82-6.63,4.82-6.63,0,0-5.5,3.51-9.73,1.63Z"/>
          </g>
        </g>
      </g>
    </g>
  </g>
</svg>